<?xml version="1.0"?>
<svg xmlns="http://www.w3.org/2000/svg" width="320" height="160" viewBox="0 0 320 160" fill="none">
<path d="M250.804 107.708C248.795 107.708 247.001 107.301 245.424 106.487C243.873 105.647 242.652 104.49 241.761 103.014C240.871 101.539 240.426 99.8729 240.426 98.0159C240.426 96.159 240.858 94.5055 241.723 93.0556C242.613 91.5802 243.809 90.4228 245.31 89.5834C246.811 88.7439 248.502 88.3242 250.385 88.3242C252.216 88.3242 253.831 88.7185 255.23 89.5071C256.629 90.2956 257.723 91.3894 258.512 92.7885C259.326 94.1876 259.733 95.7901 259.733 97.5962C259.733 97.9269 259.707 98.283 259.657 98.6646C259.631 99.0207 259.568 99.4404 259.466 99.9237L243.478 99.9619V95.9555L256.986 95.9173L254.467 97.5962C254.442 96.5278 254.277 95.6502 253.971 94.9634C253.666 94.2512 253.208 93.717 252.598 93.3608C252.013 92.9793 251.288 92.7885 250.423 92.7885C249.507 92.7885 248.706 93.0047 248.019 93.4372C247.358 93.8442 246.836 94.4292 246.454 95.1924C246.098 95.9555 245.92 96.884 245.92 97.9778C245.92 99.0716 246.111 100.013 246.493 100.801C246.9 101.564 247.459 102.162 248.172 102.595C248.909 103.002 249.774 103.205 250.766 103.205C251.682 103.205 252.509 103.053 253.246 102.747C253.984 102.417 254.633 101.933 255.192 101.297L258.397 104.502C257.482 105.571 256.375 106.372 255.078 106.906C253.781 107.441 252.356 107.708 250.804 107.708Z" fill="#300BC4"/>
<path d="M232.131 107.708C230.223 107.708 228.494 107.288 226.942 106.448C225.39 105.609 224.169 104.452 223.279 102.976C222.389 101.501 221.943 99.8474 221.943 98.0159C221.943 96.159 222.389 94.5055 223.279 93.0556C224.195 91.5802 225.428 90.4228 226.98 89.5834C228.532 88.7439 230.274 88.3242 232.207 88.3242C233.657 88.3242 234.98 88.5786 236.176 89.0873C237.397 89.5707 238.478 90.3083 239.419 91.3004L235.68 95.0397C235.247 94.5564 234.738 94.2003 234.153 93.9714C233.594 93.7424 232.945 93.6279 232.207 93.6279C231.368 93.6279 230.618 93.8187 229.956 94.2003C229.32 94.5564 228.812 95.0652 228.43 95.7265C228.074 96.3625 227.896 97.1129 227.896 97.9778C227.896 98.8426 228.074 99.6058 228.43 100.267C228.812 100.929 229.333 101.45 229.994 101.832C230.656 102.213 231.393 102.404 232.207 102.404C232.971 102.404 233.645 102.277 234.23 102.022C234.84 101.743 235.362 101.361 235.794 100.878L239.495 104.617C238.529 105.634 237.435 106.41 236.214 106.944C234.993 107.453 233.632 107.708 232.131 107.708Z" fill="#300BC4"/>
<path d="M213.576 107.287V96.7176C213.576 95.7509 213.271 94.9751 212.661 94.39C212.075 93.7795 211.325 93.4743 210.409 93.4743C209.773 93.4743 209.214 93.6142 208.73 93.894C208.247 94.1484 207.866 94.5299 207.586 95.0387C207.306 95.522 207.166 96.0816 207.166 96.7176L204.915 95.611C204.915 94.1611 205.233 92.8892 205.869 91.7954C206.505 90.7016 207.382 89.8621 208.502 89.2771C209.646 88.6666 210.931 88.3613 212.355 88.3613C213.729 88.3613 214.937 88.692 215.98 89.3534C217.049 89.9893 217.888 90.8415 218.498 91.9099C219.109 92.9782 219.414 94.1484 219.414 95.4202V107.287H213.576ZM201.328 107.287V88.7429H207.166V107.287H201.328Z" fill="#300BC4"/>
<path d="M189.582 107.708C187.572 107.708 185.779 107.301 184.202 106.487C182.65 105.647 181.429 104.49 180.539 103.014C179.648 101.539 179.203 99.8729 179.203 98.0159C179.203 96.159 179.636 94.5055 180.5 93.0556C181.391 91.5802 182.586 90.4228 184.087 89.5834C185.588 88.7439 187.28 88.3242 189.162 88.3242C190.993 88.3242 192.609 88.7185 194.008 89.5071C195.407 90.2956 196.501 91.3894 197.289 92.7885C198.103 94.1876 198.51 95.7901 198.51 97.5962C198.51 97.9269 198.485 98.283 198.434 98.6646C198.408 99.0207 198.345 99.4404 198.243 99.9237L182.256 99.9619V95.9555L195.763 95.9173L193.245 97.5962C193.219 96.5278 193.054 95.6502 192.749 94.9634C192.443 94.2512 191.985 93.717 191.375 93.3608C190.79 92.9793 190.065 92.7885 189.2 92.7885C188.284 92.7885 187.483 93.0047 186.796 93.4372C186.135 93.8442 185.613 94.4292 185.232 95.1924C184.876 95.9555 184.698 96.884 184.698 97.9778C184.698 99.0716 184.888 100.013 185.27 100.801C185.677 101.564 186.237 102.162 186.949 102.595C187.687 103.002 188.551 103.205 189.543 103.205C190.459 103.205 191.286 103.053 192.024 102.747C192.761 102.417 193.41 101.933 193.97 101.297L197.175 104.502C196.259 105.571 195.152 106.372 193.855 106.906C192.558 107.441 191.133 107.708 189.582 107.708Z" fill="#300BC4"/>
<path d="M166.003 115.605C163.968 115.605 162.175 115.249 160.623 114.537C159.097 113.85 157.888 112.87 156.998 111.599L160.585 108.012C161.246 108.8 161.984 109.398 162.798 109.805C163.637 110.212 164.642 110.416 165.812 110.416C167.262 110.416 168.394 110.06 169.208 109.347C170.048 108.635 170.467 107.63 170.467 106.333V101.602L171.459 97.557L170.582 93.5124V88.7429H176.305V106.18C176.305 108.088 175.86 109.742 174.97 111.141C174.079 112.54 172.858 113.634 171.307 114.422C169.755 115.211 167.987 115.605 166.003 115.605ZM165.736 106.715C164.032 106.715 162.518 106.308 161.195 105.494C159.873 104.68 158.83 103.573 158.067 102.174C157.303 100.775 156.922 99.2232 156.922 97.5188C156.922 95.7891 157.303 94.2374 158.067 92.8638C158.83 91.4647 159.873 90.3709 161.195 89.5823C162.518 88.7683 164.032 88.3613 165.736 88.3613C167.008 88.3613 168.14 88.603 169.132 89.0863C170.149 89.5442 170.963 90.2055 171.574 91.0704C172.21 91.9099 172.566 92.8892 172.642 94.0085V101.067C172.566 102.161 172.21 103.141 171.574 104.005C170.963 104.845 170.149 105.506 169.132 105.99C168.114 106.473 166.982 106.715 165.736 106.715ZM166.843 101.525C167.657 101.525 168.356 101.347 168.941 100.991C169.552 100.635 170.009 100.164 170.315 99.5793C170.645 98.9688 170.811 98.282 170.811 97.5188C170.811 96.7557 170.645 96.0689 170.315 95.4584C170.009 94.8479 169.552 94.3646 168.941 94.0085C168.356 93.6523 167.657 93.4743 166.843 93.4743C166.054 93.4743 165.354 93.6523 164.744 94.0085C164.133 94.3646 163.663 94.8479 163.332 95.4584C163.001 96.0689 162.836 96.7557 162.836 97.5188C162.836 98.2311 163.001 98.9052 163.332 99.5411C163.663 100.152 164.121 100.635 164.706 100.991C165.316 101.347 166.029 101.525 166.843 101.525Z" fill="#300BC4"/>
<path d="M148.194 107.286V88.7421H154.032V107.286H148.194ZM151.132 86.1856C150.216 86.1856 149.453 85.8804 148.842 85.2699C148.257 84.634 147.965 83.8708 147.965 82.9805C147.965 82.0648 148.257 81.3016 148.842 80.6911C149.453 80.0806 150.216 79.7754 151.132 79.7754C152.048 79.7754 152.798 80.0806 153.383 80.6911C153.968 81.3016 154.261 82.0648 154.261 82.9805C154.261 83.8708 153.968 84.634 153.383 85.2699C152.798 85.8804 152.048 86.1856 151.132 86.1856Z" fill="#300BC4"/>
<path d="M138.244 107.287V79.5859H144.082V107.287H138.244Z" fill="#300BC4"/>
<path d="M128.295 107.287V79.5859H134.133V107.287H128.295Z" fill="#300BC4"/>
<path d="M116.548 107.708C114.539 107.708 112.746 107.301 111.168 106.487C109.617 105.647 108.396 104.49 107.505 103.014C106.615 101.539 106.17 99.8729 106.17 98.0159C106.17 96.159 106.602 94.5055 107.467 93.0556C108.358 91.5802 109.553 90.4228 111.054 89.5834C112.555 88.7439 114.246 88.3242 116.129 88.3242C117.96 88.3242 119.575 88.7185 120.975 89.5071C122.374 90.2956 123.467 91.3894 124.256 92.7885C125.07 94.1876 125.477 95.7901 125.477 97.5962C125.477 97.9269 125.452 98.283 125.401 98.6646C125.375 99.0207 125.312 99.4404 125.21 99.9237L109.222 99.9619V95.9555L122.73 95.9173L120.211 97.5962C120.186 96.5278 120.021 95.6502 119.715 94.9634C119.41 94.2512 118.952 93.717 118.342 93.3608C117.757 92.9793 117.032 92.7885 116.167 92.7885C115.251 92.7885 114.45 93.0047 113.763 93.4372C113.102 93.8442 112.58 94.4292 112.199 95.1924C111.842 95.9555 111.664 96.884 111.664 97.9778C111.664 99.0716 111.855 100.013 112.237 100.801C112.644 101.564 113.203 102.162 113.916 102.595C114.653 103.002 115.518 103.205 116.51 103.205C117.426 103.205 118.253 103.053 118.99 102.747C119.728 102.417 120.377 101.933 120.936 101.297L124.142 104.502C123.226 105.571 122.119 106.372 120.822 106.906C119.525 107.441 118.1 107.708 116.548 107.708Z" fill="#300BC4"/>
<path d="M95.1562 107.288V81.0742H100.994V107.288H95.1562ZM90.959 93.7039V88.7436H105.191V93.7039H90.959Z" fill="#300BC4"/>
<path d="M83.1603 107.287V96.7176C83.1603 95.7509 82.855 94.9751 82.2445 94.39C81.6595 93.7795 80.9091 93.4743 79.9933 93.4743C79.3574 93.4743 78.7977 93.6142 78.3144 93.894C77.8311 94.1484 77.4496 94.5299 77.1697 95.0387C76.8899 95.522 76.75 96.0816 76.75 96.7176L74.4988 95.611C74.4988 94.1611 74.8168 92.8892 75.4527 91.7954C76.0886 90.7016 76.9662 89.8621 78.0855 89.2771C79.2302 88.6666 80.5148 88.3613 81.9393 88.3613C83.3129 88.3613 84.5212 88.692 85.5641 89.3534C86.6325 89.9893 87.4719 90.8415 88.0824 91.9099C88.6929 92.9782 88.9982 94.1484 88.9982 95.4202V107.287H83.1603ZM70.9121 107.287V88.7429H76.75V107.287H70.9121Z" fill="#300BC4"/>
<path d="M60.2676 107.288V80.3496H66.2581V107.288H60.2676Z" fill="#300BC4"/>
<path d="M225.252 72.5179V44.8164H231.09V72.5179H225.252Z" fill="#6640FF"/>
<path d="M210.304 72.8989C208.6 72.8989 207.074 72.4792 205.726 71.6397C204.403 70.8003 203.347 69.6556 202.559 68.2057C201.796 66.7557 201.414 65.1023 201.414 63.2453C201.414 61.3884 201.796 59.735 202.559 58.285C203.347 56.8351 204.403 55.6904 205.726 54.851C207.074 54.0115 208.6 53.5918 210.304 53.5918C211.551 53.5918 212.67 53.8335 213.662 54.3168C214.68 54.8001 215.506 55.4742 216.142 56.339C216.778 57.1785 217.134 58.1451 217.211 59.2389V67.2517C217.134 68.3456 216.778 69.3249 216.142 70.1898C215.532 71.0292 214.718 71.6906 213.7 72.1739C212.683 72.6572 211.551 72.8989 210.304 72.8989ZM211.487 67.6333C212.734 67.6333 213.739 67.2263 214.502 66.4123C215.265 65.5729 215.646 64.5172 215.646 63.2453C215.646 62.3805 215.468 61.6173 215.112 60.956C214.781 60.2946 214.298 59.7858 213.662 59.4297C213.052 59.0481 212.339 58.8574 211.525 58.8574C210.711 58.8574 209.987 59.0481 209.351 59.4297C208.74 59.7858 208.244 60.2946 207.862 60.956C207.506 61.6173 207.328 62.3805 207.328 63.2453C207.328 64.0848 207.506 64.8352 207.862 65.4966C208.219 66.1579 208.715 66.6794 209.351 67.061C209.987 67.4425 210.699 67.6333 211.487 67.6333ZM215.417 72.5173V67.5188L216.295 63.0164L215.417 58.514V53.9734H221.141V72.5173H215.417Z" fill="#6640FF"/>
<path d="M192.61 72.5165V53.9726H198.448V72.5165H192.61ZM195.548 51.4161C194.632 51.4161 193.869 51.1109 193.258 50.5004C192.673 49.8644 192.381 49.1013 192.381 48.211C192.381 47.2952 192.673 46.5321 193.258 45.9216C193.869 45.3111 194.632 45.0059 195.548 45.0059C196.464 45.0059 197.214 45.3111 197.799 45.9216C198.384 46.5321 198.677 47.2952 198.677 48.211C198.677 49.1013 198.384 49.8644 197.799 50.5004C197.214 51.1109 196.464 51.4161 195.548 51.4161Z" fill="#6640FF"/>
<path d="M182.647 72.9381C180.739 72.9381 179.009 72.5184 177.457 71.6789C175.906 70.8395 174.685 69.6821 173.794 68.2067C172.904 66.7313 172.459 65.0779 172.459 63.2464C172.459 61.3894 172.904 59.736 173.794 58.2861C174.71 56.8107 175.944 55.6533 177.496 54.8138C179.047 53.9744 180.79 53.5547 182.723 53.5547C184.173 53.5547 185.496 53.8091 186.691 54.3178C187.912 54.8011 188.993 55.5388 189.935 56.5309L186.195 60.2702C185.763 59.7869 185.254 59.4308 184.669 59.2018C184.109 58.9729 183.461 58.8584 182.723 58.8584C181.884 58.8584 181.133 59.0492 180.472 59.4308C179.836 59.7869 179.327 60.2956 178.946 60.957C178.589 61.5929 178.411 62.3434 178.411 63.2082C178.411 64.0731 178.589 64.8362 178.946 65.4976C179.327 66.159 179.849 66.6805 180.51 67.062C181.171 67.4436 181.909 67.6344 182.723 67.6344C183.486 67.6344 184.16 67.5072 184.745 67.2528C185.356 66.973 185.877 66.5914 186.31 66.1081L190.011 69.8474C189.044 70.8649 187.95 71.6408 186.729 72.175C185.508 72.6837 184.148 72.9381 182.647 72.9381Z" fill="#6640FF"/>
<path d="M151.639 72.5177V51.9896C151.639 50.5651 151.957 49.2805 152.593 48.1358C153.229 46.9911 154.12 46.0881 155.264 45.4267C156.434 44.7399 157.821 44.3965 159.423 44.3965C160.288 44.3965 161.077 44.511 161.789 44.7399C162.501 44.9688 163.188 45.3377 163.849 45.8464L160.95 50.1199C160.695 49.9419 160.441 49.8147 160.186 49.7384C159.957 49.6621 159.703 49.6239 159.423 49.6239C158.787 49.6239 158.304 49.8147 157.973 50.1962C157.643 50.5524 157.477 51.0484 157.477 51.6843V72.5177H151.639ZM147.557 58.934V53.9737H166.215V58.934H147.557ZM163.773 72.5177V53.9737H169.611V72.5177H163.773ZM166.711 52.6382C165.846 52.6382 165.121 52.3457 164.536 51.7606C163.977 51.1501 163.697 50.4125 163.697 49.5476C163.697 48.6827 163.977 47.9577 164.536 47.3727C165.121 46.7876 165.846 46.4951 166.711 46.4951C167.601 46.4951 168.326 46.7876 168.886 47.3727C169.446 47.9577 169.725 48.6827 169.725 49.5476C169.725 50.4125 169.446 51.1501 168.886 51.7606C168.326 52.3457 167.601 52.6382 166.711 52.6382Z" fill="#6640FF"/>
<path d="M139.325 72.5165V53.9726H145.163V72.5165H139.325ZM142.263 51.4161C141.347 51.4161 140.584 51.1109 139.973 50.5004C139.388 49.8644 139.096 49.1013 139.096 48.211C139.096 47.2952 139.388 46.5321 139.973 45.9216C140.584 45.3111 141.347 45.0059 142.263 45.0059C143.178 45.0059 143.929 45.3111 144.514 45.9216C145.099 46.5321 145.391 47.2952 145.391 48.211C145.391 49.1013 145.099 49.8644 144.514 50.5004C143.929 51.1109 143.178 51.4161 142.263 51.4161Z" fill="#6640FF"/>
<path d="M126.717 72.5181V46.3047H132.555V72.5181H126.717ZM122.52 58.9344V53.9741H136.752V58.9344H122.52Z" fill="#6640FF"/>
<path d="M107.615 72.5173V53.9734H113.453V72.5173H107.615ZM113.453 62.3296L111.011 60.4218C111.494 58.2596 112.308 56.5807 113.453 55.3851C114.598 54.1896 116.188 53.5918 118.223 53.5918C119.113 53.5918 119.889 53.7317 120.55 54.0115C121.237 54.2659 121.835 54.6729 122.344 55.2325L118.871 59.6205C118.617 59.3407 118.299 59.1245 117.917 58.9718C117.536 58.8192 117.103 58.7429 116.62 58.7429C115.653 58.7429 114.878 59.0481 114.293 59.6586C113.733 60.2437 113.453 61.134 113.453 62.3296Z" fill="#6640FF"/>
<path d="M78.3301 72.5184L89.0138 45.5801H94.432L105.001 72.5184H98.6674L90.5782 50.1588H92.7532L84.5496 72.5184H78.3301ZM84.3969 67.6344V62.7504H99.0871V67.6344H84.3969Z" fill="#6640FF"/>
</svg>
