<?xml version="1.0"?>
<svg xmlns="http://www.w3.org/2000/svg" width="320" height="160" viewBox="0 0 320 160" fill="none">
<g clip-path="url(#clip0_459_131)">
<path d="M110.54 65.6104C105.06 65.6104 98.942 67.7215 97.66 74.671C97.5234 75.4091 98.0122 75.7613 98.4843 75.8692L104.101 76.5425C104.621 76.5162 104.974 75.9506 105.074 75.4186C105.554 73.0271 107.521 71.8984 109.718 71.8984C110.905 71.8984 112.237 72.3058 112.939 73.3961C113.744 74.6111 113.687 76.2622 113.687 77.664V78.4884C110.349 78.8718 105.954 79.1042 102.829 80.5109C99.2224 82.1141 96.6895 85.3755 96.6895 90.1706C96.6895 96.3149 100.454 99.3822 105.302 99.3822C109.395 99.3822 111.657 98.4213 114.813 95.1143C115.86 96.6719 116.196 97.3789 118.108 99.0084C118.32 99.129 118.564 99.1796 118.806 99.1529C119.048 99.1262 119.275 99.0236 119.455 98.8598V98.9341C120.605 97.8845 122.697 95.977 123.874 94.9657C124.343 94.5727 124.24 93.9257 123.874 93.3937C122.822 91.9032 121.703 90.7002 121.703 87.9276V78.716C121.703 74.8148 122.033 71.2178 119.232 68.5315C117.02 66.358 113.339 65.6104 110.54 65.6104ZM186.026 65.6104C180.543 65.6104 174.43 67.7215 173.145 74.671C173.009 75.4091 173.495 75.7613 173.97 75.8692L179.587 76.5425C180.107 76.5162 180.461 75.9506 180.56 75.4186C181.041 73.0271 183.006 71.8984 185.204 71.8984C186.392 71.8984 187.722 72.3058 188.424 73.3961C189.227 74.6111 189.098 76.2622 189.098 77.664V78.4884C185.76 78.8718 181.441 79.1042 178.314 80.5109C174.705 82.1141 172.175 85.3755 172.175 90.1706C172.175 96.3149 175.942 99.3822 180.787 99.3822C184.875 99.3822 187.138 98.4213 190.298 95.1143C191.343 96.6719 191.681 97.3789 193.593 99.0084C194.025 99.2384 194.559 99.2145 194.94 98.8598V98.9341C196.09 97.8845 198.182 95.977 199.359 94.9657C199.826 94.5727 199.718 93.9257 199.359 93.3937C198.307 91.9032 197.188 90.7002 197.188 87.9276V78.716C197.188 74.8148 197.44 71.2178 194.643 68.5315C192.429 66.358 188.825 65.6104 186.026 65.6104ZM143.565 65.9099C140.023 65.9099 137.396 67.6976 136.002 71.527H135.927V67.5586C135.908 67.2865 135.792 67.0304 135.599 66.8375C135.406 66.6447 135.15 66.528 134.878 66.509H129.486C129.189 66.5133 128.906 66.6331 128.696 66.843C128.486 67.0528 128.366 67.3362 128.362 67.6329V97.9612C128.388 98.2309 128.506 98.4833 128.698 98.6749C128.89 98.8664 129.142 98.9852 129.412 99.0108H135.177C135.474 99.0077 135.759 98.8882 135.969 98.6782C136.179 98.4681 136.298 98.184 136.301 97.8869V81.7858C136.301 78.2751 136.131 73.4728 140.27 73.4728C144.355 73.4728 143.79 78.4069 143.79 81.7858V97.8869C143.79 98.4596 144.257 98.9724 144.839 99.0108H150.605C150.902 99.0077 151.186 98.8882 151.396 98.6782C151.606 98.4681 151.726 98.184 151.729 97.8869V81.7858C151.729 80.0628 151.659 77.5538 152.254 76.0201C152.846 74.4865 154.3 73.4752 155.7 73.4752C157.368 73.4752 158.64 74.0575 159.069 76.0968C159.337 77.3094 159.218 80.5133 159.218 81.7882V97.8893C159.218 98.462 159.685 98.9748 160.267 99.0132H166.033C166.33 99.0101 166.614 98.8906 166.824 98.6805C167.034 98.4704 167.154 98.1864 167.157 97.8893V78.7184C167.157 75.4618 167.485 71.7642 165.659 69.2073C164.046 66.9116 161.41 65.9123 158.995 65.9123C155.606 65.9123 152.455 67.7 151.058 71.5294C149.443 67.7 147.166 65.9099 143.565 65.9099ZM241.592 65.9099C233.26 65.9099 228.638 73.2356 228.638 82.6844C228.638 92.0685 233.21 99.6075 241.592 99.6075C249.656 99.6075 254.772 92.2411 254.772 82.9815C254.772 73.4129 250.138 65.9099 241.592 65.9099ZM274.466 65.9099C270.485 65.9099 268.211 67.9013 266.603 72.0494H266.529V67.4052C266.426 66.9355 265.983 66.6096 265.479 66.5809H260.162C259.887 66.5747 259.62 66.6709 259.412 66.8507C259.205 67.0305 259.071 67.2811 259.038 67.5538V97.8821C259.043 98.1659 259.153 98.4377 259.347 98.6452C259.541 98.8527 259.805 98.9812 260.087 99.006H265.779C266.076 99.0017 266.359 98.8819 266.569 98.672C266.779 98.4622 266.898 98.1788 266.903 97.8821V81.5581C266.903 79.5116 267.075 77.6449 267.876 75.7925C268.523 74.3235 269.771 73.3961 271.171 73.3961C275.144 73.3961 274.765 78.2392 274.765 81.5581V98.0331C274.802 98.291 274.926 98.5285 275.117 98.7056C275.309 98.8828 275.555 98.9888 275.815 99.006H281.58C282.146 99.006 282.637 98.5746 282.704 98.0331V78.9365C282.704 76.001 282.711 71.9224 281.207 69.4996C279.594 66.8852 277.042 65.9099 274.466 65.9099ZM205.271 66.4347C204.686 66.4347 204.224 66.8996 204.221 67.5586V71.9008C204.224 72.5502 204.672 73.0199 205.271 73.0247H215.156L203.847 89.7249C203.157 90.8009 203.1 92.0206 203.1 92.7203V97.1392C203.1 97.7767 203.792 98.4692 204.446 98.1121C210.89 94.5943 218.614 94.9058 224.442 98.0379C225.149 98.4237 225.865 97.7 225.865 97.0649V92.4208C225.849 92.0784 225.743 91.7462 225.559 91.4571C225.375 91.1679 225.119 90.9318 224.815 90.7721C221.509 88.8694 217.67 88.2871 214.032 88.3757L223.843 73.9976C224.751 72.706 225.259 71.9271 225.266 71.3017V67.5586C225.266 66.914 224.825 66.4347 224.216 66.4347H205.271ZM241.592 72.126C243.418 72.126 244.765 72.9408 245.412 75.0472C246.16 77.4747 246.237 80.5061 246.237 83.0606C246.237 86.9523 246.054 93.3937 241.592 93.3937C237.08 93.3937 237.099 85.4186 237.099 81.7115C237.099 78.0139 237.346 72.126 241.592 72.126ZM113.61 83.2092V84.4817C113.61 86.7846 113.694 88.7232 112.561 90.7721C111.645 92.4376 110.207 93.468 108.592 93.468C106.388 93.468 105.072 91.6803 105.072 89.1258C105.074 84.0887 109.45 83.2092 113.61 83.2092ZM189.095 83.2092V84.4817C189.095 86.7846 189.179 88.7232 188.046 90.7721C187.13 92.4376 185.7 93.468 184.077 93.468C181.87 93.468 180.557 91.6803 180.557 89.1258C180.56 84.0887 184.931 83.2092 189.095 83.2092Z" fill="#201C1D"/>
<path d="M226.464 99.9834V104.326H229.386V99.9834H226.464ZM141.768 100.731V131.658H144.463V128.888C145.039 129.986 145.693 130.808 146.486 131.359C147.277 131.91 148.185 132.183 149.182 132.183C151.161 132.183 152.87 131.172 154.348 129.114C155.827 127.055 156.596 124.072 156.596 120.276C156.596 117.791 156.278 115.732 155.623 113.985C154.969 112.243 154.094 110.947 153.002 110.091C151.909 109.236 150.668 108.744 149.333 108.744C148.405 108.735 147.494 108.994 146.711 109.492C145.932 109.991 145.302 110.803 144.689 111.814V100.731H141.768ZM169.477 107.997C167.445 107.997 165.832 108.598 164.684 109.794C163.536 110.987 162.961 112.528 162.961 114.438C162.961 115.548 163.21 116.485 163.634 117.359C164.059 118.234 164.67 118.936 165.432 119.456C166.198 119.976 167.727 120.659 169.999 121.402C171.571 121.908 172.51 122.339 172.92 122.675C173.515 123.166 173.819 123.81 173.819 124.697C173.819 125.723 173.464 126.578 172.769 127.242C172.077 127.911 171.113 128.215 169.848 128.215C168.583 128.215 167.54 127.86 166.778 127.091C166.016 126.322 165.604 125.152 165.432 123.571L162.51 124.17C163.169 128.975 165.566 131.361 169.7 131.359C171.904 131.359 173.591 130.733 174.866 129.413C176.141 128.093 176.812 126.31 176.812 124.17C176.812 123.015 176.608 122.013 176.213 121.174C175.817 120.336 175.273 119.715 174.564 119.229C173.852 118.744 172.266 118.097 169.846 117.283C168.087 116.667 167.056 116.216 166.702 115.936C166.105 115.461 165.803 114.814 165.803 113.99C165.803 113.147 166.081 112.432 166.702 111.893C167.322 111.354 168.278 111.069 169.549 111.069C171.782 111.069 173.03 112.296 173.292 114.738L176.139 114.287C175.942 112.742 175.604 111.522 175.089 110.693C174.574 109.864 173.812 109.164 172.841 108.67C171.873 108.179 170.759 107.997 169.477 107.997ZM187.375 107.997C185.034 107.997 183.059 108.96 181.533 110.992C180.006 113.024 179.285 115.967 179.285 119.83C179.285 123.552 180.021 126.468 181.533 128.443C183.045 130.415 185.005 131.364 187.449 131.364C189.393 131.364 191.003 130.781 192.316 129.566C193.632 128.351 194.586 126.564 195.087 124.175L192.091 123.65C191.231 126.71 189.644 128.212 187.447 128.217C186.047 128.217 184.904 127.623 183.927 126.346C182.949 125.066 182.395 123.168 182.278 120.654H195.158V119.605C195.158 115.826 194.406 112.988 192.911 110.992C191.42 108.996 189.606 107.997 187.375 107.997ZM205.122 107.997C204.423 107.997 203.812 108.234 203.251 108.744C202.69 109.255 202.053 110.314 201.379 111.888V108.443H198.758V130.834H201.679V119.154C201.679 117.525 201.832 115.958 202.204 114.51C202.415 113.681 202.812 113.027 203.328 112.564C203.843 112.102 204.43 111.891 205.051 111.891C205.738 111.891 206.421 112.166 207.147 112.715L208.12 109.195C207.099 108.38 206.1 107.997 205.122 107.997ZM240.917 107.997C238.604 107.997 236.699 108.97 235.226 110.918C233.757 112.864 232.978 115.787 232.978 119.679C232.978 123.54 233.764 126.466 235.226 128.44C236.685 130.412 238.511 131.361 240.766 131.361C242.628 131.361 244.229 130.669 245.559 129.264C246.889 127.86 247.699 125.795 248.029 123.125L245.182 122.675C244.972 124.584 244.473 125.958 243.685 126.868C242.896 127.774 241.947 128.215 240.838 128.215C239.424 128.215 238.221 127.556 237.318 126.192C236.414 124.829 235.971 122.648 235.971 119.602C235.971 116.65 236.448 114.52 237.394 113.161C238.341 111.802 239.546 111.064 240.989 111.064C241.952 111.064 242.774 111.438 243.459 112.188C244.15 112.936 244.607 114.124 244.883 115.634L247.73 115.035C247.387 112.677 246.63 110.896 245.408 109.717C244.186 108.536 242.702 107.997 240.917 107.997ZM257.617 107.997C255.276 107.997 253.301 108.96 251.775 110.992C250.248 113.024 249.527 115.967 249.527 119.83C249.527 123.552 250.263 126.468 251.775 128.443C253.289 130.415 255.247 131.364 257.691 131.364C259.63 131.364 261.243 130.781 262.558 129.566C263.872 128.351 264.825 126.564 265.329 124.175L262.333 123.65C261.473 126.71 259.956 128.212 257.766 128.217C256.366 128.217 255.149 127.623 254.171 126.346C253.193 125.066 252.642 123.168 252.522 120.654H265.403V119.605C265.403 115.826 264.65 112.988 263.155 110.992C261.669 108.996 259.851 107.997 257.617 107.997ZM274.916 107.997C272.879 107.997 271.272 108.598 270.124 109.794C268.973 110.987 268.401 112.528 268.401 114.438C268.401 115.548 268.576 116.485 269 117.359C269.422 118.232 270.03 118.936 270.797 119.456C271.559 119.976 273.095 120.659 275.365 121.402C276.932 121.908 277.95 122.339 278.36 122.675C278.954 123.166 279.259 123.81 279.259 124.697C279.259 125.723 278.904 126.578 278.209 127.242C277.519 127.911 276.553 128.215 275.288 128.215C274.02 128.215 272.98 127.86 272.218 127.091C271.456 126.322 270.965 125.152 270.795 123.571L267.874 124.17C268.533 128.975 270.924 131.361 275.063 131.359C277.27 131.359 279.029 130.733 280.306 129.413C281.583 128.093 282.252 126.31 282.252 124.17C282.252 123.015 282.048 122.013 281.653 121.174C281.257 120.336 280.641 119.715 279.93 119.229C279.22 118.744 277.706 118.097 275.285 117.283C273.526 116.667 272.422 116.216 272.065 115.936C271.468 115.461 271.166 114.814 271.166 113.99C271.166 113.147 271.518 112.432 272.139 111.893C272.76 111.354 273.721 111.069 274.986 111.069C277.219 111.069 278.468 112.296 278.729 114.738L281.576 114.287C281.377 112.742 281.044 111.522 280.526 110.693C279.977 109.825 279.199 109.126 278.278 108.67C277.318 108.179 276.196 107.997 274.916 107.997ZM208.118 108.445L214.634 130.837H217.404L223.92 108.445H220.924L217.104 122.15C216.642 123.806 216.234 125.236 215.98 126.418C215.662 124.929 215.357 123.367 214.931 121.85L211.188 108.445H208.118ZM226.464 108.445V130.837H229.386V108.445H226.464ZM130.462 108.744C128.144 108.744 126.28 109.785 124.77 111.814C123.258 113.846 122.448 116.789 122.448 120.652C122.448 124.374 123.196 127.216 124.696 129.188C126.196 131.16 128.192 132.183 130.613 132.183C132.534 132.183 134.104 131.527 135.405 130.312C136.704 129.097 137.603 127.309 138.101 124.92L135.18 124.469C134.329 127.53 132.784 129.032 130.613 129.037C129.225 129.037 128.06 128.443 127.092 127.165C126.124 125.886 125.561 123.988 125.444 121.474H138.173L138.247 120.424C138.247 116.645 137.48 113.734 136 111.738C134.519 109.741 132.669 108.744 130.462 108.744ZM97.5859 109.269L102.829 131.661H105.899L109.345 114.436L109.944 118.256L112.714 131.661H115.71L121.027 109.269H118.257L115.336 122.224L114.363 126.566L113.464 122.224L110.919 109.269H107.924L105.228 122.375L104.329 127.019L103.28 122.226L100.584 109.272L97.5859 109.269ZM283.977 109.495V110.544H286.824V118.033H287.948V110.544H290.795V109.495H283.977ZM291.916 109.495V118.03H292.966V110.767L295.436 118.03H296.486L298.957 110.916V118.03H300.081V109.495H298.509L296.486 115.485C296.282 116.085 296.136 116.518 296.036 116.832L295.585 115.56L293.562 109.495H291.916ZM187.298 111.067C188.753 111.067 189.951 111.771 190.893 113.163C191.54 114.117 191.959 115.569 192.091 117.506H182.431C182.522 115.541 183.078 114.024 184.003 112.861C184.928 111.699 185.992 111.067 187.298 111.067ZM257.543 111.067C258.993 111.067 260.196 111.771 261.137 113.163C261.784 114.117 262.204 115.569 262.336 117.506H252.676C252.767 115.541 253.323 114.024 254.248 112.861C255.17 111.704 256.234 111.067 257.543 111.067ZM130.462 111.891C131.899 111.891 133.054 112.595 133.982 113.988C134.622 114.941 135.048 116.394 135.18 118.33H125.669C125.76 116.365 126.246 114.774 127.167 113.611C128.08 112.452 129.165 111.891 130.462 111.891ZM149.033 111.891C150.332 111.891 151.437 112.612 152.328 113.988C153.22 115.366 153.601 117.489 153.601 120.429C153.601 123.293 153.179 125.428 152.254 126.871C151.329 128.313 150.227 129.042 149.033 129.042C148.156 129.042 147.358 128.747 146.637 128.143C145.913 127.539 145.384 126.674 144.988 125.521C144.593 124.369 144.389 122.595 144.389 120.278C144.389 117.549 144.876 115.505 145.813 114.062C146.75 112.619 147.84 111.891 149.033 111.891Z" fill="black"/>
<path d="M55.6113 88.1501L44.4539 92.9428L54.787 97.3617L66.7688 92.9428L55.6113 88.1501ZM38.8368 94.141L38.463 115.708L54.787 122.897V100.506L38.8368 94.141ZM72.3858 94.141L57.6338 99.758V120.875L72.3858 114.884V94.141ZM89.9847 27.043L78.7505 31.8357L89.1603 36.2546L101.142 31.8357L89.9847 27.043ZM74.4083 33.4101V54.9773L88.336 59.0224L88.7865 39.401L74.4083 33.4101ZM105.561 34.6083L92.381 40.2253V61.4187L105.561 55.4278V34.6083ZM37.2265 57.3976L26.069 62.1903L36.4021 66.6092L48.3839 62.1903L37.2265 57.3976ZM20.452 63.3885L20.0781 84.9557L36.4021 92.1448V69.7532L20.452 63.3885ZM54.001 63.3885L39.249 69.0056V90.1223L54.001 84.1314V63.3885ZM73.1718 56.602L62.0144 61.3947L72.3475 65.8136L84.3293 61.3947L73.1718 56.602ZM56.3973 62.5929L56.0235 84.1601L72.3475 91.3492V68.9601L56.3973 62.5929ZM89.9463 62.5929L75.1943 68.21V89.3267L89.9463 83.3358V62.5929ZM125.094 27.043L113.936 31.8357L124.269 36.2546L136.251 31.8357L125.094 27.043ZM108.319 33.0339L107.945 54.6011L124.269 61.7901V39.401L108.319 33.0339ZM141.868 33.0339L127.116 38.6509V59.7676L141.868 53.7767V33.0339Z" fill="#F7A80D"/>
</g>
<defs>
<clipPath id="clip0_459_131">
<rect width="280" height="105.168" fill="white" transform="translate(20.0781 27.0293)"/>
</clipPath>
</defs>
</svg>
