<?xml version="1.0"?>
<svg xmlns="http://www.w3.org/2000/svg" width="320" height="160" viewBox="0 0 320 160" fill="none">
<path d="M300 101.146C299.847 101.146 299.693 101.146 299.539 101.146C275.08 101.146 250.776 101.146 226.317 101.146C225.855 101.146 225.855 101.146 225.855 100.684C226.163 97.4538 226.932 94.3773 228.009 91.3007C230.009 86.0706 232.932 81.4557 237.085 77.6101C239.238 75.4565 241.7 73.7644 244.315 72.2261C244.622 72.0723 244.622 71.9184 244.469 71.7646C242.469 68.3804 240.623 64.9962 238.623 61.612C238.162 60.9967 238.316 60.3813 238.623 59.9199C239.238 59.3046 240.161 59.3046 240.623 60.0737C241.084 60.9967 241.7 61.9196 242.161 62.6888C243.699 65.3038 245.238 67.9189 246.776 70.534C246.93 70.8416 247.084 70.8416 247.238 70.6878C250.16 69.3034 253.237 68.3804 256.467 67.9189C259.851 67.3036 263.236 67.3036 266.62 67.6113C270.773 68.0727 274.619 68.9957 278.311 70.6878C278.618 70.8416 278.618 70.6878 278.772 70.534C280.772 67.1498 282.772 63.7656 284.771 60.3813C284.925 60.2275 284.925 60.0737 285.079 59.9199C285.541 59.4584 286.156 59.3046 286.771 59.6122C287.387 59.9199 287.54 60.689 287.233 61.3043C286.464 62.5349 285.848 63.7656 285.079 65.15C283.849 67.3036 282.464 69.611 281.233 71.7646C281.08 72.0723 281.08 72.0723 281.387 72.2261C286.617 75.1488 290.771 78.9945 294.155 83.917C296.616 87.6089 298.308 91.7622 299.231 96.0694C299.539 97.6077 299.847 98.9921 300 100.53V100.684C300 100.838 300 100.992 300 101.146ZM248.93 87.455C248.93 85.7629 247.545 84.3785 245.853 84.3785C244.161 84.3785 242.777 85.7629 242.777 87.455C242.777 89.1471 244.161 90.5316 245.853 90.5316C247.545 90.5316 248.93 89.1471 248.93 87.455ZM276.772 87.455C276.772 89.1471 278.157 90.5316 279.849 90.5316C281.541 90.5316 282.926 89.1471 282.926 87.455C282.926 85.7629 281.541 84.3785 279.849 84.3785C278.157 84.3785 276.772 85.7629 276.772 87.455Z" fill="#3DDB84"/>
<path d="M176.476 59.1533C176.784 59.3071 177.091 59.3071 177.399 59.461C179.245 60.0763 180.322 61.9222 180.014 63.922C179.706 65.9217 178.168 67.3062 176.168 67.3062C174.323 67.46 172.477 66.0756 172.015 64.2296C171.4 61.9222 172.938 59.6148 175.245 59.1533H175.399C175.707 59.1533 176.015 59.1533 176.476 59.1533Z" fill="#010101"/>
<path d="M206.321 97.3031C204.629 99.4567 202.322 100.841 199.707 101.303C196.322 101.918 193.092 101.303 190.323 99.3029C187.093 97.1493 185.247 94.0727 184.478 90.3809C183.555 86.2275 184.17 82.228 186.631 78.5361C188.939 75.1519 192.169 72.9983 196.322 72.5368C199.86 72.2292 203.091 73.306 205.706 75.7672C205.86 75.9211 206.014 76.0749 206.167 76.2287C206.321 76.3825 206.321 76.5364 206.629 76.6902C206.629 76.5364 206.629 76.3825 206.629 76.2287C206.629 70.6909 206.629 64.9993 206.629 59.4615C206.629 59.1538 206.783 59 207.09 59C208.936 59 210.628 59 212.474 59C212.782 59 212.782 59 212.782 59.3077C212.782 72.9983 212.782 86.689 212.782 100.38C212.782 100.687 212.782 100.687 212.474 100.687C211.09 100.687 209.859 100.687 208.475 100.687C207.398 100.687 206.629 99.9182 206.629 98.8414C206.321 98.6876 206.321 98.0723 206.321 97.3031ZM190.169 87.1505C190.169 87.7658 190.169 88.2273 190.323 88.8426C190.938 92.6883 193.707 95.7648 197.861 96.0725C200.937 96.2263 203.552 95.1495 205.244 92.5345C206.629 90.3809 206.937 88.0735 206.629 85.6122C206.014 81.7665 203.399 78.8438 199.399 78.3823C196.938 78.0746 194.63 78.69 192.784 80.5359C190.938 82.3818 190.323 84.6892 190.169 87.1505Z" fill="#010101"/>
<path d="M107.869 97.3021C107.253 98.2251 106.484 98.9942 105.561 99.6095C103.254 101.148 100.793 101.917 98.0237 101.609C91.8706 100.994 88.0249 97.4559 86.179 91.7643C84.6407 86.688 85.5636 81.9193 88.794 77.6121C91.5629 74.0741 95.4086 72.5358 99.8696 72.8435C102.946 73.1511 105.561 74.3818 107.561 76.843C107.561 76.843 107.561 76.843 107.715 76.9968C107.715 76.843 107.715 76.6892 107.715 76.5353C107.715 70.9975 107.715 65.3059 107.715 59.7681C107.715 59.4605 107.715 59.3066 108.176 59.3066C110.022 59.3066 111.714 59.3066 113.56 59.3066C113.868 59.3066 113.868 59.4605 113.868 59.6143C113.868 73.305 113.868 86.9956 113.868 100.532C113.868 100.84 113.868 100.84 113.56 100.84C112.176 100.84 110.945 100.84 109.561 100.84C108.484 100.84 107.715 100.071 107.715 98.9942C107.869 98.6865 107.869 98.0712 107.869 97.3021ZM91.7168 87.1495C91.7168 87.7648 91.7168 88.3801 91.8706 88.8416C92.4859 92.6873 95.4086 95.7638 99.4081 95.9176C102.331 96.0715 104.792 94.9947 106.638 92.5334C108.176 90.3798 108.638 88.0724 108.176 85.4574C107.715 81.6117 104.946 78.5351 100.946 78.0736C98.3313 77.766 96.0239 78.5351 94.178 80.381C92.4859 82.5346 91.8706 84.6882 91.7168 87.1495Z" fill="#010101"/>
<path d="M42.493 76.9969C42.493 75.9201 42.493 74.6895 42.493 73.6127C42.493 73.305 42.493 73.3051 42.8007 73.3051C44.6466 73.3051 46.3387 73.3051 48.1846 73.3051C48.4923 73.3051 48.4923 73.305 48.4923 73.6127C48.4923 82.6885 48.4923 91.6105 48.4923 100.686C48.4923 100.994 48.4923 100.994 48.1846 100.994C46.8002 100.994 45.5696 100.994 44.1851 100.994C42.9545 100.994 42.3392 100.225 42.3392 99.1481C42.3392 98.5328 42.3392 97.9175 42.3392 97.3022C41.7239 98.0713 41.2624 98.6866 40.4933 99.1481C38.1858 100.994 35.4169 101.763 32.4942 101.609C26.6488 101.148 21.8801 96.8407 20.4956 91.1491C19.4189 86.5342 20.0342 82.0732 22.9569 78.2275C25.7258 74.3818 29.7253 72.5359 34.494 72.8436C37.7244 73.1512 40.3394 74.3818 42.493 76.9969C42.3392 76.9969 42.3392 76.9969 42.493 76.9969ZM26.3411 87.1495C26.3411 87.7649 26.3411 88.3802 26.4949 88.8417C27.1102 92.6873 29.8791 95.7639 34.0325 95.9177C37.109 96.0716 39.5703 94.9948 41.4162 92.3797C42.8007 90.3799 43.1083 88.0725 42.8007 85.6113C42.3392 81.7656 39.5703 78.689 35.5708 78.3814C33.1095 78.0737 30.9559 78.689 29.11 80.3811C27.1102 82.2271 26.3411 84.5345 26.3411 87.1495Z" fill="#010101"/>
<path d="M167.862 87.1541C167.862 95.307 161.401 101.614 153.248 101.614C145.096 101.614 138.635 95.1532 138.635 87.1541C138.635 79.0013 145.096 72.6943 153.248 72.6943C161.555 72.8482 167.862 79.1551 167.862 87.1541ZM144.942 86.8465C144.942 91.9228 148.172 95.6147 152.787 95.9223C155.402 96.0761 157.709 95.307 159.402 93.3073C161.247 91.1537 161.863 88.6924 161.555 85.9235C161.094 82.0778 158.479 78.8474 154.325 78.386C152.018 78.0783 149.864 78.6936 148.018 80.0781C145.865 82.0778 144.942 84.3852 144.942 86.8465Z" fill="#010101"/>
<path d="M61.5681 76.999C62.3372 76.076 63.1064 75.1531 64.0294 74.5378C66.1829 73.1533 68.6442 72.6918 71.2593 72.8457C73.7205 73.1533 75.8741 74.0763 77.5662 75.7684C79.1045 77.3067 79.8736 79.3064 80.3351 81.3062C80.4889 82.383 80.6428 83.4598 80.6428 84.5366C80.6428 89.9205 80.6428 95.1507 80.6428 100.535C80.6428 100.842 80.6427 100.842 80.3351 100.842C79.1045 100.842 77.72 100.842 76.4894 100.842C75.2588 100.842 74.6435 100.073 74.6435 98.9964C74.6435 94.3815 74.6435 89.9205 74.6435 85.3057C74.6435 83.9213 74.4896 82.383 73.8743 81.1524C72.9514 79.1526 71.2593 78.2296 69.1057 78.2296C65.8753 78.0758 63.414 79.9217 62.3372 83.3059C61.8758 84.6904 61.7219 86.0748 61.7219 87.6131C61.7219 91.9203 61.7219 96.3813 61.7219 100.688C61.7219 100.996 61.7219 101.15 61.4143 100.996C60.1837 100.996 58.7992 100.996 57.5686 100.996C56.338 100.996 55.7227 100.381 55.7227 99.1502C55.7227 90.6897 55.7227 82.0753 55.7227 73.6148C55.7227 73.3071 55.8765 73.3071 56.0303 73.3071C57.8762 73.3071 59.7222 73.3071 61.5681 73.3071C61.8758 73.3071 61.8758 73.3071 61.8758 73.6148C61.5681 74.6916 61.5681 75.9222 61.5681 76.999Z" fill="#010101"/>
<path d="M127.098 78.0726C128.175 75.6114 130.021 73.9193 132.636 73.304C134.021 72.9963 135.251 72.9963 136.636 73.304C136.79 73.304 136.79 73.4578 136.79 73.6116C136.79 74.5346 136.79 75.3037 136.79 76.2267C136.79 77.3035 136.79 78.2265 136.79 79.3033C136.79 79.6109 136.636 79.6109 136.482 79.4571C135.251 79.1494 134.021 78.8418 132.636 79.1494C130.483 79.6109 128.944 80.8415 128.021 82.8413C127.252 84.3796 127.098 86.0717 127.098 87.7638C127.098 92.071 127.098 96.3781 127.098 100.685C127.098 100.993 127.098 101.147 126.791 101.147C125.56 101.147 124.176 101.147 122.945 101.147C121.714 101.147 120.945 100.531 120.945 99.3009C120.945 90.8403 120.945 82.3798 120.945 73.7655C120.945 73.4578 120.945 73.4578 121.253 73.4578C123.099 73.4578 124.945 73.4578 126.637 73.4578C126.945 73.4578 127.098 73.4578 127.098 73.7655C127.098 75.1499 127.098 76.6882 127.098 78.0726Z" fill="#010101"/>
<path d="M178.94 87.1511C178.94 91.6121 178.94 96.227 178.94 100.688C178.94 100.996 178.94 100.996 178.633 100.996C177.402 100.996 176.017 100.996 174.787 100.996C173.556 100.996 172.787 100.38 172.787 98.9959C172.787 90.5353 172.787 82.0748 172.787 73.6143C172.787 73.3066 172.941 73.3066 173.095 73.3066C174.941 73.3066 176.787 73.3066 178.479 73.3066C178.786 73.3066 178.786 73.4605 178.786 73.6143C178.94 78.2291 178.94 82.6901 178.94 87.1511Z" fill="#010101"/>
</svg>
