<?xml version="1.0"?>
<svg xmlns="http://www.w3.org/2000/svg" width="320" height="160" viewBox="0 0 320 160" fill="none">
<path d="M201.854 103.872V56.1289H212.471V103.872H201.854Z" fill="#FFA990"/>
<path d="M167.968 86.4922V78.2421H178.247C179.555 78.2421 180.749 77.9716 181.831 77.4306C182.913 76.8896 183.77 76.1006 184.401 75.0637C185.032 74.0268 185.348 72.7645 185.348 71.2767C185.348 69.8341 185.032 68.5943 184.401 67.5574C183.77 66.5205 182.913 65.7316 181.831 65.1906C180.749 64.6496 179.555 64.3791 178.247 64.3791H167.968V56.1289H179.803C182.823 56.1289 185.551 56.7375 187.985 57.9548C190.42 59.172 192.336 60.9302 193.733 63.2295C195.176 65.4836 195.897 68.166 195.897 71.2767C195.897 74.3875 195.176 77.0924 193.733 79.3917C192.336 81.6458 190.42 83.404 187.985 84.6664C185.551 85.8836 182.823 86.4922 179.803 86.4922H167.968ZM159.854 103.872V56.1289H170.471V103.872H159.854Z" fill="#FF7E58"/>
<path d="M107.531 103.872L126.466 56.1289H136.069L154.801 103.872H143.575L129.239 64.2438H133.093L118.554 103.872H107.531ZM118.284 95.2158V86.5598H144.319V95.2158H118.284Z" fill="#F66135"/>
</svg>
