<?xml version="1.0"?>
<svg xmlns="http://www.w3.org/2000/svg" width="320" height="160" viewBox="0 0 320 160" fill="none">
<path d="M209.907 83.7459C209.907 83.5156 209.849 83.3428 209.677 83.2276C209.504 83.1125 209.273 83.0549 208.87 83.0549H208.352V84.5521H208.986C209.619 84.4945 209.907 84.2642 209.907 83.7459ZM210.771 86.8556H210.022L209.561 85.819C209.331 85.3007 209.043 85.0704 208.813 85.0704H208.41V86.8556H207.776V82.5366H208.986C209.504 82.5366 209.907 82.6518 210.195 82.8821C210.425 83.1125 210.54 83.3428 210.54 83.6883C210.54 83.9763 210.425 84.2066 210.252 84.4369C210.08 84.6673 209.792 84.7825 209.446 84.84C209.677 84.8976 209.907 85.1856 210.137 85.6463L210.771 86.8556ZM212.095 84.7249C212.095 83.8611 211.807 83.1701 211.231 82.5942C210.656 82.0183 209.964 81.7304 209.101 81.7304C208.237 81.7304 207.546 82.0183 206.97 82.5942C206.394 83.1701 206.106 83.8611 206.106 84.7249C206.106 85.5887 206.394 86.2797 206.97 86.8556C207.546 87.4314 208.237 87.7194 209.101 87.7194C209.907 87.7194 210.656 87.4314 211.231 86.8556C211.807 86.2797 212.095 85.5887 212.095 84.7249ZM212.498 84.7249C212.498 85.7038 212.153 86.4525 211.519 87.1435C210.886 87.7769 210.08 88.1225 209.101 88.1225C208.122 88.1225 207.316 87.7769 206.682 87.2011C206.049 86.5676 205.703 85.7614 205.703 84.7825C205.703 83.8611 206.049 83.0549 206.682 82.3639C207.316 81.7304 208.122 81.3849 209.101 81.3849C210.022 81.3849 210.828 81.6728 211.519 82.3063C212.153 82.9397 212.498 83.7459 212.498 84.7249Z" fill="black"/>
<path d="M120.42 96.7029H118.347V84.7826C118.347 83.8612 118.404 82.7095 118.52 81.3274H118.462C118.289 82.1336 118.059 82.7095 117.944 83.055L111.84 96.7029H110.803L104.756 83.1702C104.584 82.7671 104.353 82.1336 104.181 81.3274C104.238 82.0185 104.238 83.1702 104.238 84.7826V96.7029H102.223V78.9088H104.987L110.457 91.3474C110.861 92.2688 111.148 93.0174 111.264 93.4781H111.379C111.724 92.4991 112.012 91.7505 112.243 91.2898L117.828 78.9088H120.42V96.7029Z" fill="black"/>
<path d="M126.811 96.7004H124.796V84.0315H126.811V96.7004ZM127.157 79.4246C127.157 79.8277 127.042 80.1156 126.754 80.346C126.523 80.5763 126.178 80.7491 125.832 80.7491C125.487 80.7491 125.141 80.6339 124.911 80.4035C124.681 80.1732 124.508 79.8277 124.508 79.4246C124.508 79.0791 124.623 78.7335 124.911 78.5032C125.141 78.2729 125.487 78.1001 125.832 78.1001C126.178 78.1001 126.523 78.2153 126.754 78.5032C127.042 78.7911 127.157 79.0791 127.157 79.4246Z" fill="black"/>
<path d="M139.537 96.1276C138.558 96.7034 137.406 97.049 136.082 97.049C134.239 97.049 132.799 96.4155 131.648 95.2638C130.553 94.1121 130.035 92.5572 130.035 90.7145C130.035 88.6414 130.611 86.9714 131.82 85.6469C133.03 84.38 134.642 83.7466 136.658 83.7466C137.752 83.7466 138.731 83.9769 139.594 84.38V86.4531C138.673 85.7621 137.637 85.4742 136.542 85.4742C135.275 85.4742 134.181 85.9349 133.375 86.8562C132.511 87.7776 132.108 88.9869 132.108 90.5417C132.108 92.039 132.511 93.1907 133.26 94.0545C134.066 94.9183 135.103 95.3214 136.427 95.3214C137.521 95.3214 138.558 94.9759 139.537 94.2272V96.1276Z" fill="black"/>
<path d="M149.214 86.0494C148.869 85.7614 148.35 85.6463 147.659 85.6463C146.853 85.6463 146.162 85.9918 145.586 86.7404C144.953 87.5466 144.607 88.7559 144.607 90.1955V96.7028H142.592V84.0338H144.607V86.6828H144.665C144.953 85.7614 145.414 85.0128 146.047 84.5521C146.623 84.0914 147.256 83.8611 148.005 83.8611C148.523 83.8611 148.926 83.9187 149.214 84.0338V86.0494Z" fill="black"/>
<path d="M160.558 90.369C160.558 88.7566 160.212 87.4897 159.464 86.6259C158.773 85.8197 157.736 85.4166 156.469 85.4166C155.202 85.4166 154.166 85.8197 153.417 86.6835C152.611 87.5473 152.208 88.8142 152.208 90.4266C152.208 91.9238 152.611 93.1331 153.36 93.9969C154.108 94.8607 155.145 95.2638 156.469 95.2638C157.794 95.2638 158.83 94.8031 159.521 93.9393C160.212 93.1331 160.558 91.9238 160.558 90.369ZM162.631 90.3114C162.631 92.3269 162.055 93.9393 160.903 95.2062C159.752 96.4155 158.197 97.049 156.296 97.049C154.396 97.049 152.841 96.4155 151.747 95.2062C150.653 94.0545 150.135 92.4421 150.135 90.5417C150.135 88.3535 150.768 86.6259 151.978 85.4166C153.129 84.2649 154.684 83.7466 156.584 83.7466C158.485 83.7466 159.982 84.3224 161.019 85.5317C162.113 86.6259 162.631 88.2383 162.631 90.3114Z" fill="black"/>
<path d="M172.765 93.3058C172.765 94.3424 172.362 95.2062 171.614 95.8972C170.75 96.6458 169.598 96.9913 168.101 96.9913C166.892 96.9913 165.855 96.761 164.934 96.2427V94.0545C165.913 94.8607 167.007 95.2638 168.216 95.2638C169.828 95.2638 170.635 94.6879 170.635 93.4786C170.635 92.9603 170.462 92.5572 170.116 92.2693C169.771 91.9238 169.08 91.5783 168.043 91.1176C167.007 90.6569 166.2 90.1962 165.797 89.6779C165.279 89.1021 164.991 88.2958 164.991 87.3745C164.991 86.3379 165.394 85.4165 166.258 84.7255C167.122 84.0345 168.158 83.689 169.483 83.689C170.519 83.689 171.383 83.8617 172.189 84.2648V86.3379C171.326 85.7045 170.404 85.4165 169.31 85.4165C168.619 85.4165 168.101 85.5893 167.698 85.9348C167.295 86.2803 167.064 86.6834 167.064 87.2017C167.064 87.7776 167.237 88.1807 167.583 88.5262C167.87 88.8141 168.504 89.1596 169.483 89.5627C170.577 90.0234 171.326 90.4841 171.844 90.9448C172.42 91.5783 172.765 92.3845 172.765 93.3058Z" fill="black"/>
<path d="M185.204 90.369C185.204 88.7566 184.859 87.4897 184.11 86.6259C183.419 85.8197 182.383 85.4166 181.116 85.4166C179.849 85.4166 178.812 85.8197 178.064 86.6835C177.257 87.5473 176.854 88.8142 176.854 90.4266C176.854 91.9238 177.257 93.1331 178.006 93.9969C178.755 94.8607 179.791 95.2638 181.116 95.2638C182.44 95.2638 183.477 94.8031 184.168 93.9393C184.859 93.1331 185.204 91.9238 185.204 90.369ZM187.277 90.3114C187.277 92.3269 186.702 93.9393 185.55 95.2062C184.398 96.4155 182.843 97.049 180.943 97.049C179.043 97.049 177.488 96.4155 176.394 95.2062C175.3 94.0545 174.781 92.4421 174.781 90.5417C174.781 88.3535 175.415 86.6259 176.624 85.4166C177.776 84.2649 179.331 83.7466 181.231 83.7466C183.131 83.7466 184.628 84.3224 185.665 85.5317C186.702 86.6259 187.277 88.2383 187.277 90.3114Z" fill="black"/>
<path d="M196.259 79.7152C195.855 79.4848 195.395 79.3697 194.934 79.3697C193.494 79.3697 192.803 80.291 192.803 82.0762V84.0341H195.798V85.7617H192.803V96.7607H190.788V85.7617H188.6V84.0341H190.788V81.961C190.788 80.579 191.191 79.4848 192.112 78.6786C192.861 77.9876 193.782 77.6421 194.876 77.6421C195.51 77.6421 195.971 77.6997 196.374 77.8724V79.7152H196.259Z" fill="black"/>
<path d="M204.265 96.5868C203.804 96.8747 203.17 96.9899 202.364 96.9899C200.118 96.9899 199.024 95.723 199.024 93.2468V85.7606H196.836V84.033H199.024V80.9234C199.658 80.693 200.349 80.5203 201.04 80.2899V84.033H204.265V85.7606H201.04V92.9588C201.04 93.8226 201.155 94.3985 201.443 94.8016C201.731 95.1471 202.191 95.3199 202.882 95.3199C203.401 95.3199 203.804 95.2047 204.207 94.9168V96.5868H204.265Z" fill="black"/>
<path d="M94.2558 146.315C94.2558 147.294 93.9103 148.157 93.1617 148.906C92.4707 149.655 91.6069 150 90.5703 150C89.5914 150 88.7276 149.655 88.0365 148.906C87.3455 148.157 87 147.294 87 146.315C87 145.278 87.3455 144.414 88.0365 143.723C88.7276 143.032 89.5914 142.629 90.5703 142.629C91.6069 142.629 92.4707 142.975 93.1617 143.723C93.9103 144.472 94.2558 145.336 94.2558 146.315Z" fill="black"/>
<path d="M139.807 149.248H133.184L109.114 112.048C108.538 111.126 108.077 110.205 107.674 109.111H107.501C107.674 110.09 107.789 112.221 107.789 115.503V149.248H102.318V102.604H109.401L132.781 139.228C133.703 140.668 134.336 141.705 134.682 142.338H134.797C134.567 141.014 134.451 138.71 134.451 135.485V102.604H139.864L139.807 149.248Z" fill="black"/>
<path d="M174.877 149.248H150.115V102.604H173.783V107.556H155.643V123.104H172.516V128.057H155.643V144.354H174.935V149.248H174.877Z" fill="black"/>
<path d="M212.422 107.556H199.004V149.306H193.534V107.556H180.059V102.604H212.422V107.556Z" fill="black"/>
<path d="M137.973 21.9764C143.271 38.1005 145.228 66.8935 160.662 66.8935C161.813 66.8935 163.023 66.7783 164.232 66.548C150.181 63.2656 148.568 34.8181 139.988 20.076C139.297 20.6519 138.664 21.2854 137.973 21.9764Z" fill="url(#paint0_linear_462_5915)"/>
<path d="M139.988 20.0775C148.569 34.8196 150.239 63.3246 164.232 66.5495C165.326 66.3191 166.42 66.0312 167.572 65.6281C154.961 59.4664 151.448 31.8251 141.773 18.5227C141.14 19.041 140.564 19.5593 139.988 20.0775Z" fill="url(#paint1_linear_462_5915)"/>
<path d="M152.312 11.2666C151.161 11.2666 149.951 11.3818 148.742 11.6121C145.632 12.188 142.465 13.57 139.24 15.5856C140.104 16.4493 140.968 17.4283 141.716 18.5224C144.941 15.8159 148.224 13.8004 151.391 12.6487C152.6 12.188 153.81 11.8425 155.019 11.6697C154.213 11.3818 153.291 11.2666 152.312 11.2666Z" fill="#14559A"/>
<path d="M177.364 59.984C178.631 58.9475 179.955 57.8534 181.222 56.5865C175.867 40.52 173.966 11.3239 158.418 11.3239C157.324 11.3239 156.172 11.439 155.078 11.6118C169.244 15.1245 171.029 45.9331 177.364 59.984Z" fill="url(#paint2_linear_462_5915)"/>
<path d="M155.075 11.6127C154.211 11.3824 153.29 11.2672 152.311 11.2672H158.415C157.321 11.3248 156.169 11.44 155.075 11.6127Z" fill="#3092C4"/>
<path d="M177.132 63.3831C176.498 62.8073 175.922 62.1738 175.404 61.4828C172.813 63.3255 170.164 64.7652 167.572 65.629C168.494 66.0897 169.473 66.4352 170.509 66.6079C171.315 66.7807 172.122 66.8383 172.985 66.8383C175.865 66.8383 178.168 66.4928 180.126 65.5714C179.032 65.0531 178.053 64.3045 177.132 63.3831Z" fill="#1969BC"/>
<path d="M151.449 12.6467C164.118 19.2691 165.212 49.329 175.347 61.4796C176.038 61.0189 176.672 60.5007 177.363 59.9824C171.028 45.9314 169.243 15.1229 155.077 11.6101C153.868 11.8405 152.659 12.186 151.449 12.6467Z" fill="url(#paint3_linear_462_5915)"/>
<path d="M141.773 18.5215C151.505 31.8239 154.961 59.4652 167.572 65.6844C170.163 64.7631 172.755 63.381 175.404 61.5383C165.211 49.2724 164.117 19.2701 151.448 12.6477C148.223 13.857 144.998 15.8149 141.773 18.5215Z" fill="url(#paint4_linear_462_5915)"/>
<path d="M131.755 21.5731C130.258 25.0282 128.703 29.5199 126.803 35.4513C130.546 30.1534 134.289 25.6617 137.974 21.9762C137.456 20.4214 136.938 18.9817 136.304 17.6572C134.807 18.8089 133.252 20.1334 131.755 21.5731Z" fill="url(#paint5_linear_462_5915)"/>
<path d="M137.684 16.6768C137.223 17.0223 136.762 17.3102 136.359 17.6557C136.935 18.9226 137.511 20.4199 138.029 21.9747C138.72 21.3412 139.354 20.6502 140.045 20.0743C139.239 18.8074 138.49 17.7133 137.684 16.6768Z" fill="#2B74B1"/>
<path d="M139.296 15.5892C138.778 15.9347 138.259 16.2803 137.684 16.6258C138.49 17.6623 139.296 18.8141 139.987 20.0234C140.563 19.5051 141.196 18.9868 141.772 18.4685C140.966 17.432 140.16 16.453 139.296 15.5892Z" fill="#125A9E"/>
<path d="M225.733 10.0573C218.534 37.6985 203.562 59.9268 191.008 65.5126C190.778 65.6278 190.547 65.6854 190.317 65.8005C190.26 65.8005 190.26 65.8005 190.26 65.8581C190.202 65.8581 190.144 65.9157 190.087 65.9157C190.029 65.9157 190.029 65.9157 189.972 65.9733C189.856 66.0309 189.741 66.0309 189.684 66.0885C189.626 66.0885 189.569 66.146 189.569 66.146C189.511 66.146 189.453 66.2036 189.396 66.2036C189.338 66.2036 189.281 66.2612 189.223 66.2612C189.165 66.2612 189.108 66.2612 189.108 66.3188C188.993 66.3188 188.935 66.3764 188.82 66.3764C188.762 66.3764 188.762 66.3764 188.705 66.434C188.647 66.434 188.59 66.4916 188.532 66.4916C188.474 66.4916 188.474 66.4916 188.417 66.5491C188.359 66.5491 188.302 66.6067 188.244 66.6067C188.186 66.6067 188.071 66.6643 188.014 66.6643C188.59 66.8947 189.165 66.9523 189.799 66.9523C201.719 66.9523 213.697 45.5878 233.564 10.1148L225.733 10.0573Z" fill="url(#paint6_linear_462_5915)"/>
<path d="M124.209 12.4173L124.267 12.3597C124.325 12.3597 124.382 12.3021 124.44 12.3021C124.44 12.3021 124.44 12.3021 124.497 12.3021H124.555C124.612 12.3021 124.67 12.2446 124.785 12.2446C124.958 12.187 125.073 12.1294 125.246 12.0718H125.304C125.361 12.0718 125.419 12.0142 125.476 12.0142C125.534 12.0142 125.534 12.0142 125.591 12.0142C125.649 12.0142 125.707 11.9566 125.764 11.9566H125.822C126.052 11.899 126.282 11.8415 126.455 11.7839C126.513 11.7839 126.513 11.7839 126.57 11.7839C126.628 11.7839 126.686 11.7839 126.743 11.7263C126.743 11.7263 126.801 11.7263 126.858 11.7263C126.916 11.7263 126.974 11.7263 127.031 11.6687H127.089C127.204 11.6687 127.377 11.6111 127.492 11.6111H127.549C127.607 11.6111 127.665 11.6111 127.722 11.5535C127.78 11.5535 127.78 11.5535 127.837 11.5535C127.895 11.5535 127.952 11.5535 128.01 11.5535C128.068 11.5535 128.068 11.5535 128.125 11.5535C128.24 11.5535 128.413 11.5535 128.528 11.4959C128.125 11.4384 127.665 11.4384 127.261 11.4384C113.844 11.4384 95.3588 36.3155 87.0664 68.5637H88.7364C91.3854 63.8416 93.804 59.2924 95.9922 55.0886C101.808 32.1117 113.671 16.5059 124.209 12.4173Z" fill="url(#paint7_linear_462_5915)"/>
<path d="M131.754 21.5712C133.251 20.1315 134.806 18.8071 136.303 17.6553C135.958 16.9067 135.612 16.2157 135.209 15.5247C134 17.0219 132.906 18.9798 131.754 21.5712Z" fill="#0D82CA"/>
<path d="M132.847 12.5909C133.71 13.3395 134.517 14.3185 135.208 15.5278C135.438 15.2399 135.668 15.0095 135.899 14.7792C134.92 13.8578 133.826 13.1092 132.674 12.5333C132.731 12.5333 132.789 12.5909 132.847 12.5909Z" fill="#0D82CA"/>
<path d="M95.9336 54.9174C108.199 31.3648 113.958 16.45 124.208 12.4189C113.67 16.5651 101.807 32.1134 95.9336 54.9174Z" fill="url(#paint8_linear_462_5915)"/>
<path d="M135.898 14.7804C135.668 15.0107 135.437 15.2987 135.207 15.529C135.61 16.1625 135.956 16.8535 136.301 17.6597C136.762 17.3142 137.223 16.9687 137.626 16.6807C137.107 15.9897 136.532 15.3563 135.898 14.7804Z" fill="#127BCA"/>
<path d="M101.523 68.2796C101.465 68.2796 101.35 68.2796 101.293 68.2796H101.235C101.177 68.2796 101.12 68.2796 101.062 68.2796H101.005C100.832 68.2796 100.717 68.2796 100.544 68.3372H100.486C112.867 67.9916 118.511 61.7724 121.332 52.7889C123.463 45.9938 125.191 40.2352 126.746 35.3979C121.563 42.7114 116.38 51.4069 111.14 61.1389C108.664 65.9185 104.805 67.8765 101.523 68.2796Z" fill="url(#paint9_linear_462_5915)"/>
<path d="M101.52 68.2742C104.802 67.8711 108.66 65.9131 111.194 61.1911C116.434 51.4591 121.617 42.7636 126.8 35.4501C128.643 29.5188 130.197 25.0271 131.752 21.5719C121.444 31.4191 111.079 47.716 101.52 68.2742Z" fill="url(#paint10_linear_462_5915)"/>
<path d="M95.9365 54.9204C93.7483 59.1242 91.3872 63.6159 88.7383 68.3955H93.4028C93.9786 63.6735 94.9 59.1818 95.9365 54.9204Z" fill="#05A1E6"/>
<path d="M128.182 11.3812C128.125 11.3812 128.125 11.3812 128.067 11.3812C128.01 11.3812 127.952 11.3812 127.894 11.3812C127.837 11.3812 127.837 11.3812 127.779 11.3812C127.722 11.3812 127.664 11.3812 127.606 11.4388H127.549C127.434 11.4388 127.261 11.4964 127.146 11.4964H127.088C127.031 11.4964 126.973 11.4964 126.915 11.554C126.858 11.554 126.858 11.554 126.8 11.554C126.743 11.554 126.685 11.554 126.628 11.6116C126.57 11.6116 126.57 11.6116 126.512 11.6116C126.282 11.6692 126.052 11.7267 125.879 11.7843H125.821C125.764 11.7843 125.706 11.8419 125.649 11.8419C125.649 11.8419 125.591 11.8419 125.533 11.8419C125.476 11.8419 125.418 11.8995 125.361 11.8995H125.303C125.13 11.9571 125.015 12.0147 124.842 12.0723C124.785 12.0723 124.727 12.1298 124.612 12.1298C124.612 12.1298 124.554 12.1298 124.497 12.1874C124.439 12.1874 124.382 12.245 124.324 12.245C124.324 12.245 124.267 12.245 124.267 12.3026C114.016 16.3336 108.258 31.2484 95.9918 54.8011C94.8976 59.0625 94.0338 63.5542 93.4004 68.2762H94.0338C95.8766 68.2762 96.3949 68.2762 98.5255 68.2762H98.6407H98.9286H99.0438H99.1014H99.2166H99.2742H99.3318H99.3893H99.6773H99.9652H100.196H100.253H100.656C100.829 68.2762 100.944 68.2762 101.117 68.2186C101.175 68.2186 101.232 68.2186 101.29 68.2186H101.347C101.405 68.2186 101.52 68.2186 101.578 68.2186C111.137 47.6604 121.502 31.3636 131.81 21.5164C132.962 18.925 134.056 16.9671 135.265 15.4698C134.574 14.2605 133.768 13.224 132.904 12.5329C132.847 12.5329 132.789 12.4754 132.732 12.4754C132.674 12.4754 132.616 12.4178 132.616 12.4178C132.559 12.4178 132.501 12.3602 132.501 12.3602C132.444 12.3602 132.386 12.3026 132.329 12.3026C132.271 12.3026 132.271 12.245 132.213 12.245C132.098 12.1874 132.041 12.1874 131.925 12.1298C131.868 12.1298 131.868 12.1298 131.81 12.0723C131.753 12.0723 131.695 12.0147 131.58 12.0147C131.522 12.0147 131.522 12.0147 131.465 11.9571C131.35 11.8995 131.292 11.8995 131.177 11.8419C131.004 11.8419 130.889 11.8419 130.774 11.7843H130.716C130.601 11.7843 130.543 11.7267 130.428 11.7267H130.371C130.14 11.6692 129.91 11.6116 129.68 11.554H129.622C129.507 11.554 129.449 11.4964 129.334 11.4964H129.276C129.161 11.4964 129.046 11.4388 128.931 11.4388H128.873C128.758 11.4388 128.701 11.4388 128.585 11.3812C128.47 11.3812 128.298 11.3812 128.182 11.3812Z" fill="url(#paint11_linear_462_5915)"/>
<path d="M197.746 25.3748C195.385 32.9186 193.484 39.1379 191.814 44.2631C198.264 35.3948 204.656 24.2231 210.703 11.3239C203.62 13.5121 199.877 18.5797 197.746 25.3748Z" fill="url(#paint12_linear_462_5915)"/>
<path d="M192.045 65.0524C191.7 65.2252 191.412 65.3979 191.066 65.5131C203.62 59.9273 218.593 37.699 225.733 10.0577H224.294C207.824 39.4842 202.526 59.1786 192.045 65.0524Z" fill="url(#paint13_linear_462_5915)"/>
<path d="M183.811 62.5773C186.518 59.2374 188.764 53.5939 191.816 44.2074C188.303 49.0446 184.79 53.1332 181.277 56.5308C181.277 56.5308 181.277 56.5308 181.277 56.5884C182.026 58.8918 182.89 60.9649 183.811 62.5773Z" fill="#079AE1"/>
<path d="M183.809 62.5778C182.888 63.7295 181.909 64.5933 180.815 65.2267C180.585 65.3419 180.354 65.5146 180.066 65.6298C181.218 66.2633 182.485 66.6664 183.925 66.8391C184.155 66.8391 184.328 66.8967 184.558 66.8967H184.616C184.731 66.8967 184.788 66.8967 184.904 66.8967H184.961H185.249H185.595H185.71H185.94C185.998 66.8967 185.998 66.8967 186.055 66.8967C186.113 66.8967 186.228 66.8967 186.286 66.8967H186.343C186.401 66.8967 186.516 66.8967 186.574 66.8967H186.631C186.746 66.8967 186.804 66.8967 186.919 66.8391H186.977C187.092 66.8391 187.149 66.7815 187.265 66.7815C187.437 66.724 187.668 66.724 187.841 66.6664C186.343 66.0329 185.019 64.5933 183.809 62.5778Z" fill="#1969BC"/>
<path d="M160.662 66.8934C161.814 66.8934 163.023 66.7782 164.232 66.5478C165.327 66.3751 166.421 66.0296 167.572 65.6265C168.494 66.0872 169.473 66.4327 170.509 66.6054C171.316 66.7782 172.122 66.8358 172.986 66.8358H160.662V66.8934Z" fill="#1E5CB3"/>
<path d="M172.93 66.8934C175.809 66.8934 178.112 66.5478 180.07 65.6265C181.222 66.2599 182.489 66.663 183.929 66.8358C184.159 66.8358 184.332 66.8934 184.562 66.8934H184.62C184.735 66.8934 184.792 66.8934 184.908 66.8934H184.965H185.253H172.93Z" fill="#1E5CB3"/>
<path d="M185.252 66.8944H185.597H185.713H185.943C186.001 66.8944 186.001 66.8944 186.058 66.8944C186.116 66.8944 186.231 66.8944 186.288 66.8944H186.404C186.461 66.8944 186.576 66.8944 186.634 66.8944H186.692C186.807 66.8944 186.864 66.8944 186.98 66.8368H187.037C187.152 66.8368 187.21 66.8368 187.325 66.7792C187.498 66.7216 187.728 66.7216 187.901 66.6641C188.477 66.8944 189.053 66.952 189.686 66.952L185.252 66.8944Z" fill="#1D60B5"/>
<path d="M181.278 56.5879C180.011 57.7972 178.687 58.9489 177.42 59.9855C176.729 60.5037 176.095 61.022 175.404 61.4827C175.98 62.1737 176.556 62.8072 177.132 63.383C178.053 64.3044 179.032 65.053 180.126 65.6289C180.357 65.5137 180.645 65.3986 180.875 65.2258C181.969 64.5923 182.948 63.7286 183.869 62.5768C182.89 60.9644 182.027 58.8913 181.278 56.5879Z" fill="#175FAB"/>
<path d="M219.685 10.0575H213.581H212.947H212.371C211.968 10.0575 211.565 10.115 211.22 10.115C211.047 10.5182 210.874 10.8637 210.701 11.2668C204.655 24.166 198.263 35.3377 191.813 44.206C188.761 53.5349 186.573 59.2359 183.809 62.5759C184.96 64.5914 186.342 65.9735 187.955 66.5494C188.012 66.5494 188.012 66.5494 188.07 66.5494C188.07 66.5494 188.128 66.5494 188.185 66.5494C188.243 66.5494 188.3 66.4918 188.415 66.4918C188.473 66.4918 188.473 66.4918 188.531 66.4342C188.588 66.4342 188.646 66.3766 188.703 66.3766C188.761 66.3766 188.761 66.3766 188.819 66.319C188.934 66.2614 188.991 66.2614 189.107 66.2614C189.164 66.2614 189.222 66.2038 189.222 66.2038C189.279 66.2038 189.337 66.1463 189.394 66.1463C189.452 66.1463 189.51 66.1463 189.567 66.0887C189.625 66.0887 189.682 66.0311 189.682 66.0311C189.798 65.9735 189.913 65.9735 189.97 65.9159C189.97 65.9159 190.028 65.9159 190.085 65.8583C190.143 65.8583 190.201 65.8007 190.258 65.8007C190.258 65.8007 190.316 65.8007 190.316 65.7432C190.546 65.628 190.777 65.5704 191.007 65.4552C191.352 65.3401 191.64 65.1673 191.986 64.9945C202.466 59.1208 207.764 39.4263 224.234 9.99988L219.685 10.0575Z" fill="url(#paint14_linear_462_5915)"/>
<path d="M128.588 11.3818H128.645C128.703 11.3818 128.761 11.3818 128.818 11.3818H128.876C128.991 11.3818 129.106 11.3818 129.221 11.4394H129.279C129.394 11.4394 129.452 11.4969 129.567 11.4969H129.624C129.855 11.5545 130.085 11.6121 130.315 11.6697H130.373C130.488 11.6697 130.546 11.7273 130.661 11.7273H130.719C130.834 11.7273 130.949 11.7849 131.064 11.8425C131.179 11.8425 131.237 11.9 131.352 11.9576C131.41 11.9576 131.41 11.9576 131.467 12.0152C131.525 12.0152 131.582 12.0728 131.698 12.0728C131.755 12.0728 131.755 12.0728 131.813 12.1304C131.928 12.188 131.985 12.188 132.101 12.2456C132.158 12.2456 132.216 12.3032 132.216 12.3032C132.273 12.3032 132.331 12.3607 132.389 12.3607C132.446 12.3607 132.504 12.4183 132.504 12.4183C132.561 12.4183 132.619 12.4759 132.619 12.4759C133.771 13.0518 134.865 13.8004 135.844 14.7218C136.189 14.3187 136.592 13.9731 136.995 13.6852C134.807 12.1304 132.331 11.2666 129.509 11.2666C129.279 11.3242 128.933 11.3818 128.588 11.3818Z" fill="#7DCBEC"/>
<path d="M135.898 14.779C136.532 15.3549 137.108 15.9883 137.626 16.6794C138.144 16.3338 138.663 15.9307 139.238 15.6428C138.547 14.9518 137.799 14.3183 137.05 13.8C136.647 14.0304 136.302 14.3759 135.898 14.779Z" fill="#5EC5ED"/>
<path d="M128.583 11.3838C128.929 11.3838 129.274 11.3262 129.562 11.3262C132.384 11.3262 134.86 12.19 137.048 13.7448C139.352 11.9597 142.116 11.3262 145.974 11.3262H127.316C127.72 11.2686 128.18 11.3262 128.583 11.3838Z" fill="url(#paint15_linear_462_5915)"/>
<path d="M146.033 11.2671C142.175 11.2671 139.411 11.9005 137.107 13.6857C137.856 14.2039 138.605 14.8374 139.296 15.5284C142.521 13.5129 145.688 12.1308 148.797 11.555C150.007 11.3246 151.158 11.2095 152.368 11.2095H146.033V11.2671Z" fill="url(#paint16_linear_462_5915)"/>
<path d="M191.816 44.263C193.486 39.1379 195.386 32.9186 197.747 25.3748C199.878 18.5796 203.621 13.5121 210.704 11.2662C210.877 10.8631 211.049 10.5176 211.222 10.1145C199.705 10.8055 194.349 16.6793 191.643 25.3172C186.921 40.4623 184.041 50.252 181.277 56.5288C184.79 53.1889 188.303 49.0427 191.816 44.263Z" fill="url(#paint17_linear_462_5915)"/>
<path d="M208.747 62.8667H207.423V66.8977H206.905V62.8667H205.58V62.406H208.747V62.8667Z" fill="black"/>
<path d="M214.043 66.898H213.525V63.846C213.525 63.6156 213.525 63.3277 213.583 62.9822C213.525 63.2125 213.468 63.3277 213.468 63.4429L211.913 66.9556H211.682L210.128 63.5005C210.07 63.3853 210.012 63.2701 210.012 63.0398C210.012 63.2125 210.012 63.5005 210.012 63.9036V66.9556H209.494V62.4063H210.185L211.567 65.5736C211.682 65.8039 211.74 65.9767 211.798 66.0918C211.913 65.8615 211.97 65.6312 212.028 65.516L213.468 62.3488H214.159L214.043 66.898Z" fill="black"/>
<defs>
<linearGradient id="paint0_linear_462_5915" x1="151.106" y1="10.9241" x2="151.106" y2="80.7777" gradientUnits="userSpaceOnUse">
<stop stop-color="#0994DC"/>
<stop offset="0.35" stop-color="#66CEF5"/>
<stop offset="0.8462" stop-color="#127BCA"/>
<stop offset="1" stop-color="#127BCA"/>
</linearGradient>
<linearGradient id="paint1_linear_462_5915" x1="153.759" y1="9.14424" x2="153.759" y2="80.7785" gradientUnits="userSpaceOnUse">
<stop stop-color="#0E76BC"/>
<stop offset="0.36" stop-color="#36AEE8"/>
<stop offset="0.8462" stop-color="#00ADEF"/>
<stop offset="1" stop-color="#00ADEF"/>
</linearGradient>
<linearGradient id="paint2_linear_462_5915" x1="168.174" y1="65.2945" x2="168.174" y2="8.29393" gradientUnits="userSpaceOnUse">
<stop stop-color="#1C63B7"/>
<stop offset="0.5" stop-color="#33BDF2"/>
<stop offset="1" stop-color="#33BDF2" stop-opacity="0.4196"/>
</linearGradient>
<linearGradient id="paint3_linear_462_5915" x1="164.43" y1="1.9113" x2="164.43" y2="76.2851" gradientUnits="userSpaceOnUse">
<stop stop-color="#166AB8"/>
<stop offset="0.4" stop-color="#36AEE8"/>
<stop offset="0.8462" stop-color="#0798DD"/>
<stop offset="1" stop-color="#0798DD"/>
</linearGradient>
<linearGradient id="paint4_linear_462_5915" x1="158.559" y1="2.29973" x2="158.559" y2="81.3834" gradientUnits="userSpaceOnUse">
<stop stop-color="#124379"/>
<stop offset="0.39" stop-color="#1487CB"/>
<stop offset="0.7802" stop-color="#165197"/>
<stop offset="1" stop-color="#165197"/>
</linearGradient>
<linearGradient id="paint5_linear_462_5915" x1="126.792" y1="26.5576" x2="137.974" y2="26.5576" gradientUnits="userSpaceOnUse">
<stop stop-color="#33BDF2" stop-opacity="0.698"/>
<stop offset="1" stop-color="#1DACD8"/>
</linearGradient>
<linearGradient id="paint6_linear_462_5915" x1="210.758" y1="63.8553" x2="210.758" y2="8.33143" gradientUnits="userSpaceOnUse">
<stop stop-color="#136AB4"/>
<stop offset="0.6" stop-color="#59CAF5" stop-opacity="0.549"/>
<stop offset="1" stop-color="#59CAF5" stop-opacity="0.2353"/>
</linearGradient>
<linearGradient id="paint7_linear_462_5915" x1="87.1053" y1="39.824" x2="128.58" y2="39.824" gradientUnits="userSpaceOnUse">
<stop stop-color="#05A1E6" stop-opacity="0.2471"/>
<stop offset="1" stop-color="#05A1E6"/>
</linearGradient>
<linearGradient id="paint8_linear_462_5915" x1="110.083" y1="65.2645" x2="110.083" y2="8.41419" gradientUnits="userSpaceOnUse">
<stop stop-color="#318ED5"/>
<stop offset="1" stop-color="#38A7E4"/>
</linearGradient>
<linearGradient id="paint9_linear_462_5915" x1="113.658" y1="65.4807" x2="113.658" y2="10.2155" gradientUnits="userSpaceOnUse">
<stop stop-color="#05A1E6"/>
<stop offset="1" stop-color="#05A1E6" stop-opacity="0.549"/>
</linearGradient>
<linearGradient id="paint10_linear_462_5915" x1="116.634" y1="68.269" x2="116.634" y2="21.5704" gradientUnits="userSpaceOnUse">
<stop stop-color="#1959A6"/>
<stop offset="0.5" stop-color="#05A1E6"/>
<stop offset="0.9176" stop-color="#7EC5EA"/>
<stop offset="1" stop-color="#7EC5EA"/>
</linearGradient>
<linearGradient id="paint11_linear_462_5915" x1="118.426" y1="65.2891" x2="102.599" y2="16.9078" gradientUnits="userSpaceOnUse">
<stop stop-color="#165096"/>
<stop offset="1" stop-color="#0D82CA"/>
</linearGradient>
<linearGradient id="paint12_linear_462_5915" x1="201.259" y1="36.6728" x2="201.259" y2="10.2105" gradientUnits="userSpaceOnUse">
<stop stop-color="#05A1E6"/>
<stop offset="0.8736" stop-color="#0495D6"/>
<stop offset="1" stop-color="#0495D6"/>
</linearGradient>
<linearGradient id="paint13_linear_462_5915" x1="213.706" y1="7.74554" x2="189.044" y2="62.5052" gradientUnits="userSpaceOnUse">
<stop stop-color="#38A7E4" stop-opacity="0.3294"/>
<stop offset="0.9615" stop-color="#0E88D3"/>
<stop offset="1" stop-color="#0E88D3"/>
</linearGradient>
<linearGradient id="paint14_linear_462_5915" x1="204.048" y1="9.88421" x2="204.048" y2="67.6082" gradientUnits="userSpaceOnUse">
<stop stop-color="#168CD4"/>
<stop offset="0.5" stop-color="#1C87CC"/>
<stop offset="1" stop-color="#154B8D"/>
</linearGradient>
<linearGradient id="paint15_linear_462_5915" x1="130.444" y1="8.69743" x2="130.694" y2="14.7518" gradientUnits="userSpaceOnUse">
<stop stop-color="#97D6EE"/>
<stop offset="0.7033" stop-color="#55C1EA"/>
<stop offset="1" stop-color="#55C1EA"/>
</linearGradient>
<linearGradient id="paint16_linear_462_5915" x1="138.13" y1="15.3175" x2="139.26" y2="8.90644" gradientUnits="userSpaceOnUse">
<stop stop-color="#7ACCEC"/>
<stop offset="1" stop-color="#3FB7ED"/>
</linearGradient>
<linearGradient id="paint17_linear_462_5915" x1="196.251" y1="13.1034" x2="196.251" y2="69.5681" gradientUnits="userSpaceOnUse">
<stop stop-color="#1DA7E7"/>
<stop offset="1" stop-color="#37ABE7" stop-opacity="0"/>
</linearGradient>
</defs>
</svg>
