<?xml version="1.0"?>
<svg xmlns="http://www.w3.org/2000/svg" width="320" height="160" viewBox="0 0 320 160" fill="none">
<g clip-path="url(#clip0_462_5813)">
<path d="M81.2971 113.521C92.7658 111.338 102.238 109.532 102.347 109.507L102.545 109.462L91.7173 95.5849C85.7621 87.9525 80.8897 81.6783 80.8897 81.6421C80.8897 81.5736 92.0701 48.3994 92.133 48.2814C92.154 48.242 99.7626 62.3959 110.577 82.5915C120.701 101.499 129.048 117.088 129.126 117.234L129.267 117.5L94.8559 117.495L60.4449 117.49L81.2971 113.521ZM213.259 110.165C208.021 109.803 204.975 106.59 204.168 100.574C203.953 98.974 203.952 98.9325 203.93 88.544L203.909 78.4896H206.227H208.545L208.563 88.2148C208.58 96.9798 208.59 98.0075 208.668 98.6241C208.984 101.126 209.612 102.809 210.682 104.017C211.538 104.984 212.54 105.55 213.928 105.85C214.582 105.992 216.444 105.992 217.041 105.851C218.448 105.517 219.575 104.858 220.57 103.787C221.703 102.566 222.542 100.833 222.948 98.8746L223.084 98.2144L223.1 88.4069L223.115 78.5995H225.482H227.848V94.0171V109.435H225.506H223.164V106.989C223.164 105.326 223.147 104.548 223.111 104.561C223.082 104.572 222.962 104.77 222.843 105.002C222.036 106.588 220.691 108.039 219.218 108.913C217.451 109.96 215.68 110.333 213.259 110.165ZM266.426 110.14C264.577 109.991 262.63 109.306 261.039 108.245C257.685 106.01 255.7 102.325 255.119 97.2541C254.918 95.4994 254.894 93.1424 255.062 91.6514C255.436 88.3198 256.651 85.0492 258.382 82.7144C258.825 82.1158 259.831 81.0316 260.387 80.5538C261.887 79.2633 263.642 78.3609 265.504 77.9218C266.59 77.6659 268.501 77.5458 269.655 77.6609C272.551 77.9502 275.207 79.4199 277.011 81.733C278.845 84.0832 279.852 87.3671 279.981 91.4108C280.001 92.0445 280.006 93.1555 279.992 93.8798L279.966 95.1966L269.82 95.2104L259.674 95.2243V95.7121C259.674 97.1973 260.009 98.8888 260.588 100.328C261.088 101.569 261.948 102.924 262.652 103.58C264.096 104.925 265.863 105.73 267.796 105.923C268.513 105.995 270.34 105.92 271.157 105.784C273.488 105.398 275.703 104.413 277.493 102.968C277.703 102.798 277.905 102.639 277.941 102.615C277.993 102.579 278.005 103.024 278.004 104.892L278.002 107.212L277.523 107.532C275.499 108.881 273.179 109.747 270.724 110.071C269.991 110.168 267.302 110.211 266.426 110.14ZM275.256 90.5661C275.256 88.0784 274.283 85.3149 272.906 83.8919C271.923 82.8764 270.736 82.2558 269.324 82.0201C268.656 81.9086 267.247 81.9516 266.543 82.1049C265.054 82.4291 263.823 83.1344 262.748 84.2781C261.618 85.4817 260.77 86.9437 260.237 88.6094C260.046 89.2083 259.821 90.1917 259.752 90.7386L259.719 90.9993H267.487H275.256V90.5661ZM137.627 109.366C137.639 109.328 141.084 99.5757 145.283 87.6937L152.918 66.09L155.371 66.0899L157.824 66.0897L158.027 66.6521C158.649 68.3707 173.312 109.388 173.312 109.409C173.312 109.423 172.137 109.434 170.702 109.434L168.092 109.434L165.979 103.371L163.866 97.309L155.357 97.3089L146.848 97.3088L146.774 97.5146C146.733 97.6277 145.831 100.356 144.768 103.576L142.835 109.432L140.22 109.433C138.15 109.434 137.61 109.42 137.627 109.366ZM162.313 92.6827C162.313 92.6731 160.891 88.5189 159.152 83.4513C155.901 73.9706 155.719 73.4002 155.462 71.8781C155.341 71.1644 155.28 71.1446 155.209 71.7958C155.158 72.2613 154.936 73.303 154.765 73.8808C154.68 74.1675 153.216 78.498 151.511 83.5041C149.806 88.5103 148.411 92.6274 148.411 92.6532C148.411 92.679 151.539 92.7001 155.362 92.7001C159.185 92.7001 162.313 92.6923 162.313 92.6827ZM174.89 108.645V107.855L183.368 95.2986L191.845 82.7418L184.17 82.7144L176.494 82.6869L176.481 80.5883L176.468 78.4896H187.569H198.67V79.1984V79.9073L190.192 92.5326C185.529 99.4765 181.714 105.17 181.714 105.184C181.714 105.198 185.483 105.21 190.09 105.21H198.467V107.322V109.435H186.678H174.89V108.645ZM237.099 109.398C237.08 109.378 237.065 102.415 237.065 93.9255V78.4896H239.382H241.699V81.6719C241.699 83.4221 241.719 84.8542 241.743 84.8542C241.767 84.8542 241.88 84.5677 241.993 84.2175C242.514 82.6129 243.418 81.1136 244.581 79.922C245.63 78.8485 246.828 78.2066 248.242 77.9609C248.639 77.8919 248.975 77.8787 249.77 77.901C250.767 77.929 251.289 78.0076 251.896 78.2213L252.087 78.2885V80.8798V83.4711L251.539 83.1759C250.572 82.6543 249.618 82.4479 248.471 82.5122C247.725 82.554 247.235 82.6573 246.638 82.8986C245.41 83.3951 244.414 84.2715 243.718 85.4678C242.711 87.1997 241.992 89.4258 241.78 91.4718C241.742 91.839 241.72 94.8293 241.711 100.724L241.698 109.435H239.415C238.16 109.435 237.118 109.418 237.099 109.398ZM40 109.29C40 109.27 45.1019 99.7272 51.3376 88.0834L62.6752 66.9127L75.8878 54.9654C83.1548 48.3944 89.12 43.0101 89.144 43.0003C89.1679 42.9905 89.0723 43.2497 88.9315 43.5764C88.7908 43.903 82.3346 58.8239 74.5845 76.7339L60.4933 109.297L50.2466 109.311C44.611 109.319 40 109.309 40 109.29Z" fill="#0089D6"/>
</g>
<defs>
<clipPath id="clip0_462_5813">
<rect width="240" height="74.5" fill="white" transform="translate(40 43)"/>
</clipPath>
</defs>
</svg>
