<?xml version="1.0"?>
<svg xmlns="http://www.w3.org/2000/svg" width="320" height="160" viewBox="0 0 320 160" fill="none">
<path d="M277.792 98.4052V84.1441C277.792 82.8399 277.38 81.793 276.556 81.0036C275.767 80.1799 274.754 79.768 273.519 79.768C272.661 79.768 271.906 79.9568 271.254 80.3343C270.601 80.6775 270.087 81.1924 269.709 81.8788C269.331 82.531 269.143 83.2861 269.143 84.1441L266.105 82.6511C266.105 80.6947 266.534 78.9786 267.392 77.5027C268.25 76.0268 269.434 74.8942 270.945 74.1048C272.489 73.281 274.222 72.8691 276.145 72.8691C277.998 72.8691 279.628 73.3153 281.035 74.2077C282.477 75.0658 283.61 76.2156 284.433 77.6572C285.257 79.0987 285.669 80.6775 285.669 82.3937V98.4052H277.792ZM261.266 98.4052V73.384H269.143V98.4052H261.266Z" fill="#86DFCA"/>
<path d="M247.84 98.4051V73.3839H255.717V98.4051H247.84ZM251.804 69.9345C250.569 69.9345 249.539 69.5226 248.715 68.6989C247.926 67.8408 247.531 66.8111 247.531 65.6098C247.531 64.3742 247.926 63.3445 248.715 62.5208C249.539 61.697 250.569 61.2852 251.804 61.2852C253.04 61.2852 254.053 61.697 254.842 62.5208C255.631 63.3445 256.026 64.3742 256.026 65.6098C256.026 66.8111 255.631 67.8408 254.842 68.6989C254.053 69.5226 253.04 69.9345 251.804 69.9345Z" fill="#86DFCA"/>
<path d="M227.674 98.92C225.374 98.92 223.315 98.3537 221.495 97.2211C219.711 96.0884 218.286 94.5439 217.222 92.5875C216.193 90.6311 215.678 88.4002 215.678 85.8946C215.678 83.389 216.193 81.1581 217.222 79.2017C218.286 77.2453 219.711 75.7008 221.495 74.5681C223.315 73.4355 225.374 72.8691 227.674 72.8691C229.355 72.8691 230.866 73.1952 232.204 73.8473C233.577 74.4995 234.692 75.409 235.551 76.576C236.409 77.7086 236.889 79.0129 236.992 80.4888V91.3004C236.889 92.7763 236.409 94.0977 235.551 95.2647C234.727 96.3973 233.628 97.2897 232.256 97.9419C230.883 98.594 229.355 98.92 227.674 98.92ZM229.27 91.8153C230.951 91.8153 232.307 91.2661 233.337 90.1678C234.366 89.0351 234.881 87.6107 234.881 85.8946C234.881 84.7276 234.641 83.6979 234.161 82.8056C233.714 81.9132 233.062 81.2267 232.204 80.7462C231.38 80.2314 230.419 79.9739 229.321 79.9739C228.223 79.9739 227.244 80.2314 226.386 80.7462C225.563 81.2267 224.893 81.9132 224.379 82.8056C223.898 83.6979 223.658 84.7276 223.658 85.8946C223.658 87.0272 223.898 88.0398 224.379 88.9321C224.859 89.8245 225.528 90.5282 226.386 91.043C227.244 91.5578 228.206 91.8153 229.27 91.8153ZM234.572 98.4052V91.6608L235.757 85.5857L234.572 79.5106V73.384H242.295V98.4052H234.572Z" fill="#86DFCA"/>
<path d="M204.286 98.4047V84.1437C204.286 82.8394 203.874 81.7926 203.051 81.0031C202.261 80.1794 201.249 79.7675 200.013 79.7675C199.155 79.7675 198.4 79.9563 197.748 80.3338C197.096 80.6771 196.581 81.1919 196.203 81.8784C195.826 82.5305 195.637 83.2856 195.637 84.1437L192.599 82.6506C192.599 80.6942 193.011 78.9781 193.835 77.5022C194.659 76.0264 195.808 74.8937 197.284 74.1043C198.76 73.2805 200.459 72.8687 202.381 72.8687C204.338 72.8687 206.054 73.2805 207.53 74.1043C209.006 74.8937 210.138 76.0092 210.928 77.4507C211.751 78.858 212.163 80.5055 212.163 82.3932V98.4047H204.286ZM187.76 98.4047V61.0273H195.637V98.4047H187.76Z" fill="#86DFCA"/>
<path d="M174.317 98.9703C171.742 98.9703 169.408 98.404 167.315 97.2713C165.221 96.1387 163.574 94.577 162.372 92.5863C161.171 90.5955 160.57 88.3646 160.57 85.8933C160.57 83.3878 161.171 81.1568 162.372 79.2004C163.608 77.2097 165.273 75.648 167.366 74.5154C169.46 73.3827 171.811 72.8164 174.42 72.8164C176.376 72.8164 178.161 73.1596 179.774 73.8461C181.421 74.4982 182.88 75.4936 184.15 76.8322L179.105 81.8776C178.521 81.2255 177.835 80.7449 177.045 80.436C176.29 80.1271 175.415 79.9727 174.42 79.9727C173.287 79.9727 172.274 80.2301 171.382 80.7449C170.524 81.2255 169.837 81.9119 169.323 82.8043C168.842 83.6624 168.602 84.6749 168.602 85.8419C168.602 87.0088 168.842 88.0385 169.323 88.9309C169.837 89.8233 170.541 90.5269 171.433 91.0417C172.326 91.5566 173.321 91.814 174.42 91.814C175.449 91.814 176.359 91.6424 177.148 91.2992C177.972 90.9216 178.676 90.4068 179.259 89.7546L184.253 94.8001C182.949 96.173 181.473 97.2198 179.825 97.9406C178.178 98.6271 176.342 98.9703 174.317 98.9703Z" fill="#86DFCA"/>
<path d="M151.232 98.4047L142.48 85.4308L151.181 73.3835H159.985L149.482 86.9238L149.739 83.6803L160.499 98.4047H151.232ZM135.221 98.4047V61.0273H143.098V98.4047H135.221Z" fill="#2CE0AA"/>
<path d="M121.777 98.9703C119.203 98.9703 116.869 98.404 114.776 97.2713C112.682 96.1387 111.034 94.577 109.833 92.5863C108.632 90.5955 108.031 88.3646 108.031 85.8933C108.031 83.3878 108.632 81.1568 109.833 79.2004C111.069 77.2097 112.733 75.648 114.827 74.5154C116.921 73.3827 119.272 72.8164 121.88 72.8164C123.837 72.8164 125.622 73.1596 127.235 73.8461C128.882 74.4982 130.341 75.4936 131.611 76.8322L126.565 81.8776C125.982 81.2255 125.296 80.7449 124.506 80.436C123.751 80.1271 122.876 79.9727 121.88 79.9727C120.748 79.9727 119.735 80.2301 118.843 80.7449C117.985 81.2255 117.298 81.9119 116.784 82.8043C116.303 83.6624 116.063 84.6749 116.063 85.8419C116.063 87.0088 116.303 88.0385 116.784 88.9309C117.298 89.8233 118.002 90.5269 118.894 91.0417C119.787 91.5566 120.782 91.814 121.88 91.814C122.91 91.814 123.82 91.6424 124.609 91.2992C125.433 90.9216 126.136 90.4068 126.72 89.7546L131.714 94.8001C130.41 96.173 128.934 97.2198 127.286 97.9406C125.639 98.6271 123.803 98.9703 121.777 98.9703Z" fill="#2CE0AA"/>
<path d="M92.0619 98.9703C89.4877 98.9703 87.1538 98.404 85.0601 97.2713C83.0008 96.1043 81.3704 94.5255 80.1691 92.5348C78.9678 90.5441 78.3672 88.3131 78.3672 85.8419C78.3672 83.3706 78.9678 81.1568 80.1691 79.2004C81.3704 77.244 83.0008 75.6995 85.0601 74.5669C87.1195 73.3999 89.4534 72.8164 92.0619 72.8164C94.6705 72.8164 97.0044 73.3827 99.0638 74.5154C101.123 75.648 102.753 77.2097 103.955 79.2004C105.156 81.1568 105.757 83.3706 105.757 85.8419C105.757 88.3131 105.156 90.5441 103.955 92.5348C102.753 94.5255 101.123 96.1043 99.0638 97.2713C97.0044 98.404 94.6705 98.9703 92.0619 98.9703ZM92.0619 91.814C93.1946 91.814 94.1899 91.5737 95.048 91.0932C95.9061 90.5784 96.5582 89.8748 97.0044 88.9824C97.4849 88.0557 97.7252 87.0088 97.7252 85.8419C97.7252 84.6749 97.4849 83.6624 97.0044 82.8043C96.5239 81.9119 95.8546 81.2255 94.9965 80.7449C94.1728 80.2301 93.1946 79.9727 92.0619 79.9727C90.9636 79.9727 89.9854 80.2301 89.1273 80.7449C88.2693 81.2255 87.6 81.9119 87.1195 82.8043C86.639 83.6967 86.3987 84.7264 86.3987 85.8933C86.3987 87.026 86.639 88.0557 87.1195 88.9824C87.6 89.8748 88.2693 90.5784 89.1273 91.0932C89.9854 91.5737 90.9636 91.814 92.0619 91.814Z" fill="#2CE0AA"/>
<path d="M66.5898 98.4047V61.0273H74.4669V98.4047H66.5898Z" fill="#2CE0AA"/>
<path d="M40.5082 98.4044V92.1233H49.0545C50.6333 92.1233 51.869 91.6599 52.7614 90.7332C53.6537 89.8065 54.0999 88.6739 54.0999 87.3353C54.0999 86.4086 53.894 85.5848 53.4821 84.8641C53.0703 84.1433 52.4868 83.577 51.7317 83.1651C51.0109 82.7532 50.1185 82.5473 49.0545 82.5473H40.5082V76.4207H48.3852C49.7238 76.4207 50.805 76.0946 51.6287 75.4425C52.4524 74.756 52.8643 73.7264 52.8643 72.3534C52.8643 71.0149 52.4524 70.0195 51.6287 69.3674C50.805 68.6809 49.7238 68.3377 48.3852 68.3377H40.5082V62.0566H49.9297C52.2637 62.0566 54.2372 62.4857 55.8504 63.3437C57.4979 64.2018 58.7507 65.3516 59.6087 66.7932C60.4668 68.2347 60.8958 69.8307 60.8958 71.5812C60.8958 73.8122 60.1751 75.6999 58.7335 77.2444C57.2919 78.7889 55.1639 79.8529 52.3495 80.4364L52.5554 77.7078C55.6101 78.2913 57.9612 79.4754 59.6087 81.2602C61.2905 83.045 62.1314 85.2416 62.1314 87.8501C62.1314 89.8408 61.6338 91.6428 60.6384 93.256C59.6774 94.8348 58.2701 96.0876 56.4167 97.0143C54.5976 97.941 52.401 98.4044 49.8268 98.4044H40.5082ZM34.3301 98.4044V62.0566H42.3101V98.4044H34.3301Z" fill="#2CE0AA"/>
</svg>
