<?xml version="1.0"?>
<svg xmlns="http://www.w3.org/2000/svg" width="320" height="160" viewBox="0 0 320 160" fill="none">
<g clip-path="url(#clip0_715_12188)">
<path fill-rule="evenodd" clip-rule="evenodd" d="M157.536 33.4989C159.061 32.6436 160.938 32.6436 162.46 33.4989C169.992 37.7263 192.657 50.4511 200.192 54.6785C201.716 55.5316 202.655 57.1121 202.655 58.8228C202.655 67.2775 202.655 92.7248 202.655 101.18C202.655 102.89 201.716 104.471 200.192 105.326C192.66 109.554 169.994 122.278 162.46 126.506C160.935 127.361 159.058 127.361 157.536 126.506C150.004 122.278 127.339 109.554 119.804 105.326C118.282 104.471 117.344 102.893 117.344 101.182C117.344 92.7271 117.344 67.2798 117.344 58.825C117.344 57.1143 118.282 55.5338 119.807 54.6785C127.336 50.4511 150.007 37.7263 157.536 33.4989Z" fill="#004482"/>
<path fill-rule="evenodd" clip-rule="evenodd" d="M118.026 103.359C117.429 102.56 117.344 101.801 117.344 100.779C117.344 92.3739 117.344 67.0725 117.344 58.6649C117.344 56.9631 118.28 55.3916 119.8 54.543C127.305 50.3403 149.894 37.6896 157.399 33.4847C158.919 32.6338 160.978 32.6518 162.498 33.5027C170.003 37.7053 192.516 50.2483 200.021 54.451C200.627 54.7922 201.09 55.203 201.503 55.7441L118.026 103.359Z" fill="#659AD2"/>
<path fill-rule="evenodd" clip-rule="evenodd" d="M159.999 48.5723C177.346 48.5723 191.429 62.6553 191.429 80.0026C191.429 97.3498 177.346 111.433 159.999 111.433C142.651 111.433 128.568 97.3498 128.568 80.0026C128.568 62.6553 142.651 48.5723 159.999 48.5723ZM159.999 64.2874C168.671 64.2874 175.714 71.3278 175.714 80.0026C175.714 88.6751 168.671 95.7177 159.999 95.7177C151.326 95.7177 144.284 88.6751 144.284 80.0026C144.284 71.3278 151.324 64.2874 159.999 64.2874Z" fill="white"/>
<path fill-rule="evenodd" clip-rule="evenodd" d="M201.499 55.7656C202.657 56.85 202.635 58.4843 202.635 59.7707C202.635 68.2906 202.563 92.5234 202.655 101.043C202.664 101.932 202.37 102.868 201.93 103.573L159.086 80.0006L201.499 55.7656Z" fill="#00599C"/>
</g>
<defs>
<clipPath id="clip0_715_12188">
<rect width="85.311" height="94.291" fill="white" transform="translate(117.344 32.8555)"/>
</clipPath>
</defs>
</svg>
