<?xml version="1.0"?>
<svg xmlns="http://www.w3.org/2000/svg" width="320" height="160" viewBox="0 0 320 160" fill="none">
<g clip-path="url(#clip0_715_12238)">
<path d="M25.0357 79.7695C24.9674 80.9592 25.3742 82.1273 26.1667 83.0173C26.9592 83.9072 28.0726 84.4462 29.2622 84.5157H29.5074C30.3835 84.5147 31.2402 84.2572 31.9717 83.775C32.7032 83.2928 33.2775 82.6069 33.6237 81.8021C33.9699 80.9973 34.0728 80.1087 33.9199 79.246C33.7669 78.3833 33.3646 77.5843 32.7628 76.9476C32.161 76.3108 31.3858 75.8643 30.5331 75.663C29.6804 75.4617 28.7874 75.5145 27.9644 75.8148C27.1413 76.1152 26.4243 76.65 25.9016 77.3532C25.379 78.0564 25.0737 78.8972 25.0234 79.7719L25.0357 79.7695Z" fill="#0033AD"/>
<path d="M8.30718 78.6312C8.02117 78.6152 7.73682 78.6843 7.49008 78.8298C7.24335 78.9754 7.04529 79.1908 6.92095 79.4489C6.79661 79.707 6.75156 79.9961 6.79149 80.2798C6.83143 80.5634 6.95456 80.8289 7.14533 81.0426C7.33609 81.2563 7.58593 81.4087 7.86326 81.4805C8.14059 81.5522 8.43297 81.5402 8.70345 81.4458C8.97393 81.3514 9.21037 81.179 9.38289 80.9503C9.55541 80.7216 9.65626 80.4469 9.67271 80.1609C9.68397 79.9707 9.65753 79.7802 9.59492 79.6002C9.53231 79.4202 9.43476 79.2544 9.30787 79.1123C9.18099 78.9701 9.02726 78.8544 8.85553 78.7719C8.6838 78.6893 8.49745 78.6415 8.30718 78.6312Z" fill="#0033AD"/>
<path d="M24.753 53.7307C25.0077 53.5998 25.2181 53.3966 25.3575 53.1465C25.497 52.8964 25.5594 52.6106 25.5368 52.3251C25.5142 52.0397 25.4077 51.7672 25.2306 51.5422C25.0535 51.3171 24.8138 51.1495 24.5417 51.0604C24.2696 50.9712 23.9771 50.9646 23.7012 51.0413C23.4253 51.118 23.1783 51.2746 22.9912 51.4914C22.8041 51.7083 22.6854 51.9756 22.6499 52.2597C22.6144 52.5439 22.6637 52.8322 22.7917 53.0883C22.8778 53.2598 22.9969 53.4125 23.1423 53.5378C23.2876 53.663 23.4563 53.7582 23.6386 53.8179C23.8209 53.8776 24.0133 53.9006 24.2045 53.8856C24.3958 53.8707 24.5822 53.818 24.753 53.7307Z" fill="#0033AD"/>
<path d="M29.3046 61.6691C29.7002 61.4695 30.0278 61.1571 30.2459 60.7714C30.464 60.3857 30.5629 59.944 30.53 59.5021C30.4971 59.0602 30.3339 58.638 30.0611 58.2889C29.7883 57.9397 29.418 57.6793 28.9972 57.5405C28.5764 57.4017 28.1239 57.3908 27.6969 57.5091C27.2699 57.6275 26.8876 57.8698 26.5983 58.2054C26.3089 58.541 26.1256 58.9549 26.0715 59.3947C26.0173 59.8345 26.0948 60.2804 26.2941 60.6762C26.4265 60.9391 26.6094 61.1734 26.8324 61.3656C27.0553 61.5578 27.314 61.7042 27.5936 61.7965C27.8732 61.8887 28.1682 61.9249 28.4618 61.903C28.7554 61.8812 29.0418 61.8017 29.3046 61.6691Z" fill="#0033AD"/>
<path d="M13.986 67.1287C14.2912 67.3293 14.649 67.435 15.0142 67.4322C15.3794 67.4295 15.7356 67.3185 16.0377 67.1132C16.3398 66.908 16.5742 66.6178 16.7113 66.2793C16.8485 65.9408 16.8821 65.5692 16.8079 65.2116C16.7338 64.8539 16.5553 64.5263 16.2949 64.2702C16.0345 64.0141 15.704 63.841 15.3453 63.7727C14.9865 63.7045 14.6155 63.7442 14.2793 63.8869C13.9431 64.0295 13.6567 64.2687 13.4565 64.5741C13.1883 64.9832 13.0934 65.482 13.1927 65.961C13.292 66.4399 13.5773 66.8599 13.986 67.1287Z" fill="#0033AD"/>
<path d="M16.7127 77.8141C16.2703 77.7891 15.8305 77.8959 15.4487 78.1209C15.067 78.3458 14.7606 78.6789 14.5681 79.078C14.3757 79.4771 14.3059 79.9243 14.3675 80.363C14.4291 80.8018 14.6195 81.2124 14.9145 81.5431C15.2094 81.8737 15.5958 82.1094 16.0247 82.2205C16.4537 82.3315 16.9059 82.3129 17.3243 82.167C17.7426 82.0212 18.1084 81.7545 18.3752 81.4008C18.6421 81.0471 18.798 80.6222 18.8235 80.1799C18.8569 79.5863 18.6534 79.0038 18.2576 78.5602C17.8619 78.1166 17.3062 77.8482 16.7127 77.8141Z" fill="#0033AD"/>
<path d="M14.2302 92.8801C13.9044 93.0448 13.6347 93.3023 13.4552 93.6202C13.2758 93.9381 13.1946 94.302 13.222 94.666C13.2494 95.0301 13.384 95.3778 13.609 95.6653C13.8339 95.9528 14.1391 96.1671 14.4858 96.2812C14.8326 96.3953 15.2054 96.404 15.5571 96.3063C15.9088 96.2086 16.2236 96.0088 16.4618 95.7321C16.7 95.4555 16.8508 95.1144 16.8952 94.7521C16.9395 94.3898 16.8755 94.0224 16.7111 93.6965C16.6019 93.4799 16.4511 93.2869 16.2673 93.1287C16.0834 92.9704 15.8702 92.85 15.6398 92.7741C15.4094 92.6983 15.1663 92.6687 14.9244 92.6868C14.6826 92.705 14.4466 92.7707 14.2302 92.8801Z" fill="#0033AD"/>
<path d="M22.941 73.184C23.3773 73.47 23.8886 73.6201 24.4103 73.6155C24.932 73.6109 25.4406 73.4517 25.8718 73.158C26.3029 72.8643 26.6374 72.4494 26.8328 71.9657C27.0282 71.482 27.0757 70.9512 26.9695 70.4404C26.8632 69.9297 26.6079 69.4619 26.2358 69.0962C25.8637 68.7306 25.3915 68.4835 24.879 68.3861C24.3664 68.2888 23.8365 68.3457 23.3563 68.5495C22.8761 68.7533 22.4671 69.0949 22.181 69.5312C21.9907 69.8208 21.8593 70.1452 21.7945 70.4856C21.7297 70.8261 21.7327 71.176 21.8033 71.5153C21.8739 71.8546 22.0107 72.1766 22.2059 72.4629C22.4011 72.7493 22.6509 72.9943 22.941 73.184Z" fill="#0033AD"/>
<path d="M50.5752 61.4931C50.9468 61.7354 51.3818 61.8622 51.8253 61.8573C52.2689 61.8525 52.701 61.7162 53.0671 61.4658C53.4333 61.2154 53.7169 60.8621 53.8823 60.4505C54.0476 60.0389 54.0872 59.5875 53.9961 59.1534C53.905 58.7193 53.6872 58.3219 53.3702 58.0116C53.0533 57.7012 52.6515 57.4918 52.2156 57.4098C51.7797 57.3278 51.3292 57.3768 50.9212 57.5507C50.5131 57.7247 50.1658 58.0157 49.9231 58.387C49.7615 58.6336 49.6502 58.9097 49.5955 59.1994C49.5408 59.4891 49.5439 59.7868 49.6044 60.0754C49.665 60.3639 49.782 60.6377 49.9486 60.881C50.1151 61.1243 50.3281 61.3323 50.5752 61.4931Z" fill="#0033AD"/>
<path d="M55.1733 53.5772C55.4134 53.7346 55.6948 53.8173 55.982 53.8147C56.2691 53.8121 56.549 53.7244 56.7862 53.5627C57.0235 53.401 57.2075 53.1726 57.3149 52.9063C57.4223 52.64 57.4483 52.3479 57.3896 52.0668C57.3309 51.7857 57.1902 51.5284 56.9852 51.3273C56.7802 51.1263 56.5202 50.9905 56.2381 50.9373C55.9559 50.884 55.6643 50.9157 55.4002 51.0282C55.136 51.1407 54.9111 51.3291 54.7541 51.5694C54.5437 51.8913 54.4696 52.2836 54.5482 52.6601C54.6268 53.0365 54.8516 53.3664 55.1733 53.5772Z" fill="#0033AD"/>
<path d="M50.9267 75.4976C50.3383 75.4638 49.7491 75.5462 49.1926 75.7402C48.6361 75.9341 48.1232 76.2357 47.6833 76.6278C46.7948 77.4198 46.2573 78.5322 46.189 79.7204C46.1208 80.9087 46.5273 82.0754 47.3192 82.9638C48.1112 83.8523 49.2236 84.3898 50.4119 84.4581C50.4977 84.4581 50.5859 84.4581 50.6717 84.4581C51.5373 84.4577 52.3843 84.2069 53.1106 83.7359C53.8368 83.2649 54.4113 82.5939 54.7648 81.8038C55.1183 81.0136 55.2356 80.1381 55.1027 79.2828C54.9698 78.4275 54.5922 77.6289 54.0157 76.9833C53.6252 76.543 53.1509 76.1848 52.6206 75.9298C52.0902 75.6747 51.5144 75.5278 50.9267 75.4976Z" fill="#0033AD"/>
<path d="M30.778 72.8722C31.1505 73.6163 31.7233 74.2416 32.4319 74.6777C33.1405 75.1139 33.9567 75.3436 34.7888 75.3409C35.5559 75.3411 36.3103 75.1447 36.9799 74.7704C37.6496 74.3961 38.2121 73.8564 38.6138 73.2029C39.0156 72.5494 39.2431 71.8038 39.2748 71.0374C39.3065 70.2709 39.1412 69.5091 38.7947 68.8247C38.4196 68.084 37.8458 67.4623 37.1374 67.0294C36.429 66.5964 35.6141 66.3691 34.7839 66.3731C34.0191 66.3744 33.2674 66.5711 32.6 66.9445C31.9325 67.3178 31.3716 67.8556 30.9703 68.5066C30.569 69.1576 30.3407 69.9004 30.3071 70.6644C30.2734 71.4285 30.4356 72.1884 30.778 72.8722Z" fill="#0033AD"/>
<path d="M65.959 67.123C66.2848 66.9586 66.5546 66.7012 66.7343 66.3835C66.9139 66.0658 66.9953 65.7019 66.9682 65.3379C66.9411 64.9739 66.8067 64.6262 66.5821 64.3385C66.3574 64.0509 66.0525 63.8363 65.7058 63.7219C65.3592 63.6075 64.9865 63.5984 64.6347 63.6958C64.283 63.7932 63.968 63.9927 63.7296 64.269C63.4911 64.5454 63.34 64.8862 63.2952 65.2485C63.2504 65.6107 63.314 65.9781 63.478 66.3042C63.6986 66.7416 64.0838 67.0735 64.549 67.227C65.0142 67.3805 65.5213 67.3431 65.959 67.123Z" fill="#0033AD"/>
<path d="M54.5802 68.5523C54.1143 68.787 53.7284 69.1546 53.4713 69.6086C53.2143 70.0626 53.0976 70.5826 53.1361 71.1029C53.1746 71.6232 53.3665 72.1204 53.6876 72.5316C54.0087 72.9429 54.4445 73.2496 54.9399 73.4132C55.4353 73.5767 55.9681 73.5897 56.4709 73.4504C56.9737 73.3112 57.4239 73.0259 57.7646 72.6308C58.1053 72.2357 58.3212 71.7484 58.3849 71.2306C58.4487 70.7128 58.3574 70.1877 58.1227 69.7217C57.9672 69.4121 57.7521 69.1362 57.4897 68.9098C57.2274 68.6834 56.923 68.511 56.594 68.4024C56.265 68.2937 55.9177 68.2511 55.5722 68.2768C55.2266 68.3025 54.8896 68.3962 54.5802 68.5523Z" fill="#0033AD"/>
<path d="M39.9247 52.902C40.2892 52.9227 40.6518 52.8349 40.9664 52.6496C41.2811 52.4643 41.5337 52.1898 41.6924 51.8609C41.851 51.532 41.9085 51.1634 41.8577 50.8018C41.8068 50.4402 41.6498 50.1018 41.4066 49.8294C41.1634 49.557 40.8448 49.3629 40.4912 49.2715C40.1377 49.1802 39.765 49.1958 39.4203 49.3164C39.0756 49.4369 38.7743 49.657 38.5547 49.9487C38.3351 50.2405 38.207 50.5908 38.1865 50.9554C38.1591 51.444 38.3267 51.9235 38.6527 52.2885C38.9786 52.6535 39.4361 52.8741 39.9247 52.902Z" fill="#0033AD"/>
<path d="M39.9042 64.5197C40.4249 64.5489 40.9426 64.423 41.3919 64.1581C41.8411 63.8931 42.2018 63.5009 42.4282 63.031C42.6546 62.5612 42.7366 62.0347 42.664 61.5183C42.5913 61.0018 42.3671 60.5184 42.0198 60.1293C41.6724 59.7402 41.2176 59.4628 40.7126 59.3322C40.2077 59.2015 39.6753 59.2235 39.1829 59.3953C38.6904 59.5671 38.2599 59.881 37.9459 60.2974C37.6318 60.7138 37.4482 61.214 37.4183 61.7347C37.3788 62.4336 37.6185 63.1196 38.0846 63.6419C38.5508 64.1641 39.2053 64.4798 39.9042 64.5197Z" fill="#0033AD"/>
<path d="M25.6125 91.4484C26.0784 91.2135 26.4642 90.8457 26.7211 90.3916C26.978 89.9374 27.0944 89.4173 27.0556 88.8969C27.0168 88.3766 26.8246 87.8795 26.5033 87.4684C26.1819 87.0573 25.7459 86.7508 25.2503 86.5875C24.7547 86.4243 24.2219 86.4117 23.7191 86.5513C23.2164 86.6909 22.7664 86.9765 22.4259 87.3719C22.0855 87.7673 21.87 88.2548 21.8066 88.7727C21.7433 89.2906 21.8349 89.8157 22.07 90.2815C22.3852 90.9059 22.9354 91.3796 23.5997 91.5984C24.264 91.8172 24.988 91.7633 25.6125 91.4484Z" fill="#0033AD"/>
<path d="M41.6089 68.3692C41.0618 69.2042 40.8087 70.1977 40.8898 71.1926C40.9709 72.1875 41.3815 73.127 42.0566 73.8623C42.7316 74.5976 43.6327 75.0867 44.617 75.2523C45.6014 75.418 46.6129 75.2505 47.4914 74.7766C48.3699 74.3027 49.0653 73.5493 49.4675 72.6357C49.8697 71.7221 49.9557 70.7005 49.7119 69.7325C49.4681 68.7645 48.9085 67.9055 48.1215 67.2914C47.3346 66.6772 46.3653 66.3431 45.3671 66.3418C44.6216 66.3413 43.8877 66.5263 43.2316 66.8803C42.5755 67.2342 42.0178 67.7459 41.6089 68.3692Z" fill="#0033AD"/>
<path d="M49.4102 87.1303C49.0507 86.4176 48.5076 85.8136 47.8369 85.3808C47.1661 84.948 46.392 84.7019 45.5945 84.6681C44.7969 84.6343 44.0048 84.8138 43.2998 85.1883C42.5948 85.5628 42.0025 86.1186 41.584 86.7983C41.1655 87.4781 40.9359 88.2572 40.919 89.0553C40.9021 89.8534 41.0984 90.6416 41.4877 91.3385C41.877 92.0354 42.4453 92.6158 43.1337 93.0198C43.8222 93.4238 44.606 93.6368 45.4043 93.6368C46.1066 93.632 46.7981 93.4641 47.4244 93.1465C48.4838 92.6102 49.2876 91.6761 49.6597 90.5485C50.0319 89.421 49.9422 88.1919 49.4102 87.1303Z" fill="#0033AD"/>
<path d="M57.2515 86.8155C56.8154 86.5292 56.3041 86.3787 55.7824 86.3829C55.2607 86.3871 54.752 86.546 54.3206 86.8394C53.8891 87.1327 53.5544 87.5475 53.3587 88.0311C53.163 88.5147 53.115 89.0455 53.221 89.5564C53.3269 90.0672 53.582 90.5352 53.9539 90.9011C54.3258 91.267 54.7978 91.5144 55.3103 91.612C55.8228 91.7096 56.3528 91.6531 56.8332 91.4495C57.3135 91.2459 57.7227 90.9045 58.0091 90.4683C58.3917 89.8831 58.5268 89.1701 58.3848 88.4855C58.2429 87.8008 57.8353 87.2003 57.2515 86.8155Z" fill="#0033AD"/>
<path d="M65.8412 80.0779C65.8661 79.6355 65.7594 79.1957 65.5344 78.814C65.3095 78.4323 64.9764 78.1258 64.5773 77.9334C64.1782 77.7409 63.731 77.6711 63.2923 77.7327C62.8535 77.7944 62.4428 77.9847 62.1122 78.2797C61.7816 78.5747 61.5459 78.9611 61.4348 79.39C61.3238 79.8189 61.3423 80.2711 61.4882 80.6895C61.6341 81.1079 61.9008 81.4736 62.2545 81.7404C62.6082 82.0073 63.0331 82.1633 63.4754 82.1887C64.069 82.2222 64.6515 82.0187 65.0951 81.6229C65.5387 81.2271 65.807 80.6714 65.8412 80.0779Z" fill="#0033AD"/>
<path d="M72.0484 78.4829C71.7618 78.4664 71.4768 78.5352 71.2294 78.6807C70.9819 78.8262 70.7832 79.0418 70.6583 79.3003C70.5334 79.5587 70.4879 79.8484 70.5276 80.1327C70.5674 80.417 70.6905 80.6831 70.8815 80.8974C71.0725 81.1117 71.3227 81.2646 71.6006 81.3366C71.8784 81.4087 72.1714 81.3968 72.4425 81.3023C72.7136 81.2079 72.9505 81.0352 73.1235 80.8061C73.2964 80.5769 73.3975 80.3017 73.4139 80.0151C73.4354 79.631 73.3037 79.2541 73.0477 78.9669C72.7918 78.6797 72.4324 78.5056 72.0484 78.4829Z" fill="#0033AD"/>
<path d="M66.2032 92.8721C65.8978 92.6721 65.54 92.5671 65.175 92.5704C64.8099 92.5737 64.4541 92.6852 64.1524 92.8907C63.8507 93.0962 63.6167 93.3866 63.48 93.7251C63.3433 94.0636 63.31 94.435 63.3844 94.7924C63.4588 95.1498 63.6374 95.4771 63.8978 95.733C64.1581 95.9888 64.4885 96.1618 64.8471 96.2299C65.2058 96.2981 65.5765 96.2583 65.9126 96.1158C66.2487 95.9732 66.5349 95.7343 66.7352 95.4291C66.8682 95.2263 66.96 94.9992 67.0053 94.7609C67.0506 94.5227 67.0485 94.2778 66.9991 94.0403C66.9497 93.8029 66.8539 93.5775 66.7174 93.377C66.5808 93.1765 66.4061 93.005 66.2032 92.8721Z" fill="#0033AD"/>
<path d="M25.0171 106.422C24.7771 106.264 24.4959 106.181 24.2089 106.184C23.9219 106.186 23.642 106.273 23.4047 106.435C23.1673 106.596 22.9832 106.824 22.8755 107.09C22.7679 107.357 22.7415 107.649 22.7998 107.93C22.858 108.211 22.9983 108.468 23.2029 108.669C23.4074 108.871 23.6671 109.007 23.949 109.061C24.231 109.114 24.5225 109.083 24.7868 108.971C25.0511 108.859 25.2763 108.672 25.4338 108.432C25.5385 108.272 25.6108 108.094 25.6465 107.907C25.6822 107.719 25.6807 107.527 25.642 107.34C25.6033 107.154 25.5282 106.976 25.4209 106.819C25.3137 106.661 25.1765 106.526 25.0171 106.422Z" fill="#0033AD"/>
<path d="M55.4348 106.269C55.1785 106.399 54.9662 106.601 54.8249 106.851C54.6835 107.101 54.6194 107.387 54.6407 107.673C54.662 107.959 54.7677 108.233 54.9445 108.459C55.1213 108.685 55.3611 108.854 55.6338 108.944C55.9064 109.034 56.1996 109.041 56.4762 108.964C56.7528 108.887 57.0004 108.73 57.1878 108.513C57.3751 108.295 57.4937 108.027 57.5286 107.742C57.5635 107.457 57.5131 107.168 57.3838 106.912C57.2982 106.741 57.1799 106.59 57.0355 106.465C56.8912 106.341 56.7237 106.246 56.5426 106.186C56.3616 106.126 56.1705 106.103 55.9804 106.117C55.7903 106.132 55.6049 106.183 55.4348 106.269Z" fill="#0033AD"/>
<path d="M38.5807 91.625C39.1278 90.79 39.3808 89.7963 39.2997 88.8013C39.2185 87.8063 38.8078 86.8668 38.1326 86.1315C37.4573 85.3962 36.5561 84.9071 35.5716 84.7417C34.5871 84.5763 33.5755 84.744 32.697 85.2182C31.8185 85.6924 31.1233 86.4461 30.7214 87.3599C30.3195 88.2738 30.2339 89.2955 30.4781 90.2635C30.7223 91.2315 31.2824 92.0904 32.0697 92.7042C32.857 93.318 33.8265 93.6517 34.8249 93.6524C35.5704 93.655 36.3047 93.4708 36.9607 93.1166C37.6168 92.7625 38.1737 92.2497 38.5807 91.625Z" fill="#0033AD"/>
<path d="M29.6139 98.5121C29.2431 98.2695 28.8087 98.1423 28.3657 98.1466C27.9226 98.1508 27.4908 98.2864 27.1247 98.536C26.7587 98.7857 26.4748 99.1382 26.3091 99.5491C26.1434 99.9601 26.1032 100.411 26.1937 100.845C26.2841 101.278 26.5011 101.676 26.8173 101.986C27.1334 102.296 27.5345 102.506 27.9698 102.589C28.4052 102.671 28.8552 102.623 29.263 102.45C29.6709 102.277 30.0182 101.986 30.2611 101.616C30.5865 101.118 30.7011 100.512 30.5798 99.93C30.4584 99.3481 30.111 98.8381 29.6139 98.5121Z" fill="#0033AD"/>
<path d="M40.0759 107.099C39.7114 107.078 39.3489 107.166 39.0344 107.351C38.7198 107.536 38.4672 107.811 38.3085 108.139C38.1498 108.468 38.0922 108.837 38.1429 109.198C38.1936 109.56 38.3503 109.898 38.5933 110.17C38.8363 110.443 39.1546 110.637 39.508 110.729C39.8614 110.82 40.234 110.805 40.5787 110.685C40.9234 110.565 41.2248 110.345 41.4446 110.054C41.6645 109.762 41.7931 109.412 41.814 109.048C41.8279 108.806 41.794 108.563 41.7142 108.334C41.6343 108.105 41.5102 107.894 41.3488 107.713C41.1873 107.532 40.9918 107.385 40.7734 107.279C40.555 107.174 40.318 107.112 40.0759 107.099Z" fill="#0033AD"/>
<path d="M40.0948 95.4834C39.5736 95.4517 39.0547 95.5754 38.6038 95.8389C38.153 96.1023 37.7905 96.4937 37.5622 96.9633C37.334 97.433 37.2503 97.9598 37.3216 98.4771C37.393 98.9943 37.6163 99.4788 37.9633 99.869C38.3102 100.259 38.7652 100.538 39.2705 100.669C39.7759 100.801 40.3089 100.779 40.802 100.608C41.2952 100.436 41.7263 100.122 42.0407 99.7049C42.3552 99.2881 42.5388 98.7872 42.5684 98.2659C42.6086 97.5691 42.3707 96.8848 41.907 96.3631C41.4433 95.8415 40.7915 95.5251 40.0948 95.4834Z" fill="#0033AD"/>
<path d="M50.8825 98.3324C50.4866 98.5332 50.1593 98.847 49.9418 99.234C49.7244 99.621 49.6267 100.064 49.661 100.506C49.6954 100.949 49.8602 101.371 50.1348 101.72C50.4093 102.069 50.7811 102.328 51.2032 102.466C51.6253 102.603 52.0787 102.612 52.5059 102.492C52.9332 102.371 53.3151 102.127 53.6034 101.789C53.8916 101.452 54.0732 101.036 54.1252 100.596C54.1772 100.155 54.0973 99.7083 53.8955 99.313C53.7622 99.0506 53.5786 98.817 53.355 98.6256C53.1314 98.4343 52.8722 98.2889 52.5923 98.1978C52.3125 98.1067 52.0174 98.0717 51.724 98.0948C51.4306 98.1179 51.1446 98.1986 50.8825 98.3324Z" fill="#0033AD"/>
<path d="M100.39 69.4013C104.734 69.4013 107.776 71.7891 107.776 76.2216H113.466C113.466 68.4452 107.732 64.6992 100.304 64.6992C91.1792 64.6992 85.8789 69.6538 85.8789 80.1245C85.8789 90.855 91.1792 95.5473 100.304 95.5473C107.82 95.5473 113.466 91.8993 113.466 84.1205H107.992C107.992 88.4647 104.994 90.855 100.392 90.855C94.3515 90.855 91.5665 87.5086 91.5665 80.5584V79.6905C91.5714 72.8752 94.3932 69.4013 100.39 69.4013Z" fill="#0033AD"/>
<path d="M128.513 65.2285L116.912 95.0346H122.649L125.037 88.5601H138.67L141.121 95.0346H147.118L135.51 65.2285H128.513ZM126.775 83.8604L129.817 75.6893C130.425 74.0836 131.511 70.6072 131.729 69.9993H131.945C132.163 70.6072 133.249 74.1252 133.857 75.6893L136.897 83.858L126.775 83.8604Z" fill="#0033AD"/>
<path d="M178.14 74.265C178.14 68.749 174.967 65.2285 168.407 65.2285H152.678V95.0346H158.24V83.5123H167.493L173.131 95.0346H179.213L172.839 82.6518C176.357 81.2618 178.14 78.3076 178.14 74.265ZM167.971 78.8273H158.24V69.9649H167.971C170.969 69.9649 172.533 71.5732 172.533 74.265C172.533 77.0916 170.839 78.8273 167.971 78.8273Z" fill="#0033AD"/>
<path d="M197.648 65.2285H185.738V95.0346H197.643C206.635 95.0346 212.107 90.3424 212.107 80.1316C212.107 69.9208 206.64 65.2285 197.648 65.2285ZM206.425 80.5655C206.38 87.0842 203.296 90.2982 197.648 90.2982H191.306V69.9649H197.648C203.287 69.9649 206.425 73.1814 206.425 79.6977V80.5655Z" fill="#0033AD"/>
<path d="M226.68 65.2285L215.074 95.0346H220.808L223.199 88.5601H236.842L239.274 95.0346H245.27L233.669 65.2285H226.68ZM224.942 83.8604L227.979 75.6893C228.587 74.0836 229.673 70.6072 229.891 69.9993H230.112C230.328 70.6072 231.416 74.1252 232.024 75.6893L235.064 83.858L224.942 83.8604Z" fill="#0033AD"/>
<path d="M270.695 82.9558C270.695 83.5196 270.781 85.0396 270.781 85.3019L270.565 85.3877C270.435 85.2161 269.565 83.6937 269.094 82.9999L256.147 65.2285H250.84V95.0346H256.184V77.1774C256.184 76.442 256.096 75.0054 256.096 74.7872L256.314 74.6572C256.444 74.8313 257.096 76.0914 257.785 77.0916L270.82 95.0346H276.032V65.2285H270.69V82.9558H270.695Z" fill="#0033AD"/>
<path d="M298.188 64.709C288.848 64.709 283.199 69.6611 283.199 80.1318C283.199 90.6024 288.838 95.5546 298.188 95.5546C307.538 95.5546 313.221 90.6024 313.221 80.1318C313.221 69.6611 307.529 64.709 298.188 64.709ZM307.529 80.6098C307.529 87.4301 304.27 90.8623 298.188 90.8623C292.15 90.8623 288.892 87.4301 288.892 80.6098V79.6979C288.892 72.8751 292.194 69.4013 298.188 69.4013C304.229 69.4013 307.529 72.8751 307.529 79.6979V80.6098Z" fill="#0033AD"/>
</g>
<defs>
<clipPath id="clip0_715_12238">
<rect width="306.446" height="61.576" fill="white" transform="translate(6.77734 49.2129)"/>
</clipPath>
</defs>
</svg>
