<?xml version="1.0"?>
<svg xmlns="http://www.w3.org/2000/svg" width="320" height="160" viewBox="0 0 320 160" fill="none">
<g clip-path="url(#clip0_463_15214)">
<path d="M208.294 132.019V141.01H187.613V145.514H177.369V150.001H141.715V145.717C141.64 145.637 141.618 145.602 141.585 145.577C141.555 145.554 141.516 145.534 141.478 145.534C136.28 145.534 131.082 145.534 125.761 145.534C125.586 145.27 125.367 144.95 125.162 144.621C124.251 143.174 123.52 141.621 122.529 140.219C122.04 139.528 121.666 138.752 121.292 137.99C121.089 137.579 120.992 137.114 120.825 136.598H100.434C100.347 136.523 100.312 136.503 100.287 136.471C100.264 136.441 100.242 136.401 100.242 136.366C100.242 134.958 100.242 133.548 100.242 132.098H90.01V131.232C90.01 117.801 90.0125 104.37 90 90.9369C90 90.2656 90.1173 89.6991 90.5765 89.1701C91.0581 88.6136 91.1205 87.7776 91.7344 87.286C92.4906 85.4942 93.6909 83.9494 94.5743 82.1726H100.242V81.0496C100.242 69.9045 100.247 58.7594 100.234 47.6143C100.234 46.2268 100.254 46.1993 101.677 46.2043C106.501 46.2218 111.324 46.2118 116.148 46.2118H117.401C116.697 44.9341 116.026 43.6963 115.33 42.471C115.168 42.1865 115.168 41.9769 115.347 41.6974C115.662 41.2107 115.909 40.6792 116.216 40.1876C117.286 38.4781 118.197 36.6788 119.228 34.9519C120.418 32.953 121.599 30.9491 122.709 28.9052C122.841 28.6606 123.091 28.4785 123.296 28.2589H133.487C135.159 25.359 136.819 22.4792 138.508 19.5494H148.788C150.732 16.4824 152.379 13.2756 154.358 10.0663C155.234 11.5762 156.017 12.9237 156.828 14.3213C157.724 13.912 157.684 12.8688 158.248 12.23C158.795 11.6086 159.079 10.7601 159.486 10.0015C160.404 11.399 161.068 12.8963 161.991 14.2439C162.021 14.2863 162.146 14.2639 162.229 14.2713C162.997 12.9387 163.763 11.6061 164.572 10.2036C164.739 10.3334 164.946 10.4182 165.034 10.5704C165.742 11.8132 166.414 13.0785 167.127 14.3163C167.883 15.6289 168.675 16.9191 169.453 18.2193C169.473 18.2542 169.53 18.2742 169.538 18.3091C169.765 19.5195 170.626 19.5419 171.622 19.527C174.574 19.4795 177.526 19.5095 180.493 19.5095C182.153 22.3893 183.817 25.2742 185.527 28.2439C188.404 28.2439 191.394 28.2888 194.379 28.2214C195.477 28.1965 196.29 28.3712 196.572 29.559C197.788 31.2336 198.556 33.1726 199.774 34.8521C200.333 35.6232 200.645 36.569 201.124 37.405C201.86 38.6852 202.619 39.9555 203.422 41.1908C203.779 41.7373 203.934 42.204 203.567 42.8054C202.898 43.8984 202.277 45.0214 201.588 46.2143H217.358C217.65 46.2143 217.964 46.1444 218.224 46.2368C218.443 46.3141 218.695 46.5462 218.76 46.7633C218.852 47.0678 218.783 47.4221 218.783 47.754V82.1002H224.328C225.136 83.4154 225.92 84.6631 226.673 85.9309C227.148 86.727 227.572 87.553 228.014 88.369C228.106 88.5387 228.141 88.7558 228.271 88.8831C229.087 89.6792 229.019 90.6849 229.019 91.6981C229.012 104.715 229.014 117.729 229.014 130.746V132.019H208.296H208.294ZM151.65 100.35V92.0999C151.65 92.0574 151.645 92.015 151.65 91.9751C151.71 91.6232 151.875 91.3786 152.274 91.3811C152.523 91.3811 152.773 91.3811 153.022 91.3811C157.305 91.3811 161.59 91.3911 165.872 91.3762C167.329 91.3712 167.379 91.2988 167.377 92.846C167.367 109.813 167.369 126.78 167.369 143.75V144.98H172.39V118.326C174.157 118.36 175.879 118.286 177.601 118.375V139.42C177.601 139.712 177.544 140.019 177.621 140.289C177.678 140.483 177.908 140.768 178.07 140.773C179.483 140.81 180.898 140.805 182.313 140.788C182.632 140.783 182.827 140.563 182.842 140.234C182.857 139.944 182.844 139.652 182.844 139.36V119.274C182.844 119.024 182.859 118.775 182.839 118.525C182.827 118.375 182.794 118.201 182.709 118.083C181.913 117.018 181.462 115.745 180.628 114.692C180.331 114.318 180.134 113.746 180.578 113.157C181.062 112.516 181.339 111.722 181.789 111.049C182.46 110.038 182.927 109.02 182.869 107.739C182.779 105.706 182.844 103.664 182.844 101.628V100.355C181.045 100.398 179.323 100.315 177.559 100.408V113.814H172.363V112.568C172.363 102.796 172.355 93.0232 172.378 83.2482C172.378 82.5344 172.233 81.8831 171.841 81.3491C171.445 80.805 171.183 80.2036 170.858 79.6296C170.531 79.0532 170.157 78.5041 169.795 77.9277H149.177C148.496 79.1305 147.844 80.3683 147.106 81.5487C146.766 82.0902 146.651 82.6218 146.651 83.2382C146.659 103.492 146.659 123.746 146.659 143.997V144.975H151.68V104.845C153.447 104.88 155.169 104.807 156.933 104.895V145.005H162.084V100.345H151.65V100.35ZM169.832 55.5726C169.014 54.1426 168.198 52.7152 167.337 51.2079H177.551C179.321 48.1483 181.077 45.1088 182.782 42.159C181.012 39.117 179.296 36.1598 177.599 33.2425H162.221C161.103 34.4703 160.609 36.1697 159.434 37.5697C159.044 36.8435 158.722 36.2221 158.383 35.6132C158.043 35.0043 157.712 34.3879 157.322 33.809C157.04 33.3872 156.636 33.2125 156.07 33.2175C152.451 33.2524 148.832 33.235 145.214 33.235H141.426C139.691 36.2147 137.964 39.1844 136.257 42.1141C136.762 43.0624 137.193 44.0207 137.752 44.8991C138.676 46.3416 139.492 47.8439 140.383 49.3038C140.767 49.9352 141.114 50.5865 141.483 51.2403H151.662C150.809 52.7302 149.99 54.1601 149.169 55.5901C150.135 57.1298 150.799 58.8617 151.969 60.1569H167.09C168.2 58.7369 168.944 57.0974 169.827 55.5726H169.832ZM99.9472 100.373V86.9166H97.5091C96.9251 87.9173 96.3586 88.938 95.7422 89.9262C95.2007 90.7947 94.9786 91.6981 94.9811 92.7387C95.0111 103.841 95.0011 114.947 95.0011 126.049V127.324C96.7155 127.3 98.3551 127.349 100.035 127.29V104.882H105.243V131.809C106.74 131.809 108.15 131.816 109.56 131.809C110.376 131.804 110.453 131.714 110.471 130.883C110.476 130.676 110.471 130.466 110.471 130.259C110.471 122.109 110.471 113.958 110.471 105.805C110.471 105.488 110.493 105.172 110.506 104.904H115.462V130.384C115.462 130.676 115.392 130.99 115.482 131.25C115.559 131.47 115.816 131.782 115.999 131.786C117.563 131.829 119.128 131.811 120.663 131.811V100.373H99.9472ZM213.744 95.8507V77.9002H203.605V55.7273H208.571V73.3783H213.727V51.2054H212.045C208.551 51.2054 205.057 51.2054 201.566 51.2054C201.112 51.2054 200.83 51.2703 200.52 51.7669C200.006 52.5954 199.604 53.4838 199.063 54.2899C198.511 55.1084 198.297 55.9744 198.302 56.9776C198.334 65.0856 198.319 73.1961 198.319 81.3041V82.4246H208.491V91.3387H203.56V90.5651C203.56 89.5669 203.57 88.5687 203.555 87.5704C203.547 87.1237 203.333 86.8967 202.898 86.8942C201.374 86.8817 199.851 86.8892 198.357 86.8892V95.8482H213.747L213.744 95.8507ZM125.946 100.4V135.582C125.946 135.749 125.921 135.919 125.953 136.079C125.991 136.266 126.053 136.456 126.148 136.62C126.637 137.459 127.239 138.247 127.613 139.133C127.91 139.835 128.349 140.336 128.831 140.795C132.769 140.795 136.634 140.798 140.5 140.793C141.333 140.793 141.401 140.711 141.418 139.875C141.421 139.707 141.418 139.543 141.418 139.375V100.403H125.946V100.4ZM115.465 91.3387H110.536V55.7373H115.465C115.465 61.5943 115.465 67.4065 115.465 73.2211C115.465 73.256 115.484 73.2959 115.504 73.3284C115.527 73.3608 115.562 73.3858 115.544 73.3683H120.703C120.703 67.5911 120.695 61.8589 120.72 56.1291C120.72 55.6924 120.545 55.353 120.378 55.0186C120.034 54.3248 119.6 53.6785 119.208 53.0072C118.856 52.4032 118.512 51.7918 118.195 51.2353H105.28V95.8457H120.653V82.3972C119.15 82.3972 117.698 82.3897 116.248 82.3997C115.642 82.4047 115.484 82.5794 115.465 83.2032C115.457 83.4528 115.465 83.7024 115.465 83.9519V91.3387ZM187.835 100.403V135.091C187.835 135.258 187.828 135.423 187.835 135.59C187.863 136.109 188.047 136.298 188.586 136.301C190.084 136.311 191.581 136.303 193.076 136.303C196.278 136.303 199.48 136.306 202.681 136.303C203.395 136.303 203.547 136.156 203.555 135.465C203.565 134.267 203.557 133.072 203.557 131.814H194.414C194.164 131.814 193.912 131.839 193.665 131.809C193.313 131.767 193.073 131.587 193.073 131.185C193.076 129.907 193.073 128.632 193.073 127.322H193.772C196.724 127.322 199.677 127.327 202.629 127.319C203.462 127.319 203.537 127.232 203.555 126.406C203.557 126.239 203.555 126.074 203.555 125.907V100.405H187.833L187.835 100.403ZM182.66 60.2218C181.719 61.9088 180.838 63.6831 179.762 65.3302C179.271 66.0838 178.916 66.9073 178.382 67.6435C177.813 68.4296 177.566 69.368 177.574 70.4261C177.626 78.4867 177.601 86.5473 177.601 94.6079V95.8132H193.046V60.2193H182.66V60.2218ZM125.988 60.2143V95.8507H131.199V91.4161H136.205V95.8357H141.416V94.5655C141.416 86.5398 141.398 78.5116 141.438 70.486C141.443 69.4378 141.186 68.5444 140.672 67.6735C140.318 67.0746 140.031 66.4357 139.661 65.8492C139.342 65.3451 138.948 64.8885 138.601 64.4318C137.969 64.4318 137.388 64.4343 136.806 64.4318C136.405 64.4293 136.222 64.6688 136.183 65.0207C136.15 65.3077 136.175 65.6022 136.175 65.8942V86.8368H131.154V60.2168H125.988V60.2143ZM219.03 118.348C219.03 119.588 219.037 120.786 219.027 121.981C219.022 122.675 218.87 122.82 218.156 122.822C215.618 122.827 213.083 122.822 210.545 122.822H208.548C208.548 124.153 208.538 125.395 208.553 126.638C208.558 127.08 208.778 127.285 209.215 127.312C209.422 127.324 209.631 127.312 209.839 127.312H224.021C224.021 115.675 224.001 104.156 224.053 92.6364C224.058 91.5259 223.736 90.5851 223.195 89.7441C222.88 89.2524 222.546 88.7409 222.306 88.2293C221.85 87.251 221.296 86.6471 220.128 86.8717C219.778 86.9391 219.406 86.8817 219.007 86.8817V113.774H213.752V100.355C211.987 100.365 210.265 100.343 208.596 100.368V118.338H219.03V118.348ZM120.705 42.1166C122.489 45.2061 124.234 48.2257 125.956 51.2029C127.643 51.2029 129.22 51.2029 130.8 51.2004C130.83 51.2004 130.867 51.1555 130.889 51.123C130.912 51.0931 130.922 51.0532 130.972 50.9384C129.312 48.071 127.628 45.1562 125.916 42.194C127.598 39.2717 129.292 36.3245 131.037 33.2899H125.951C124.084 36.045 122.629 39.2018 120.708 42.1166H120.705ZM198.289 42.0917C197.805 41.3155 197.286 40.5394 196.822 39.7334C195.724 37.8218 194.656 35.8927 193.57 33.9762C193.373 33.6268 193.183 33.2425 192.697 33.24C191.169 33.235 189.645 33.24 188.003 33.24C188.107 33.487 188.152 33.6243 188.22 33.7516C188.809 34.882 189.47 35.9826 190.121 37.0706C191.137 38.7676 192.035 40.5294 193.106 42.174C191.426 45.1836 189.64 48.0735 187.933 51.2104C189.627 51.2104 191.152 51.2029 192.674 51.2154C193.021 51.2179 193.183 51.0182 193.321 50.7662C193.692 50.0899 194.039 49.3986 194.431 48.7348C195.18 47.4646 195.968 46.2143 196.712 44.9416C197.258 44.0082 197.763 43.0475 198.287 42.0991L198.289 42.0917ZM149.242 64.4492C150.063 66.2111 150.959 67.7409 151.939 69.1733H167.022C167.207 68.9512 167.447 68.7266 167.614 68.4571C168.205 67.5013 168.66 66.4681 169.326 65.5473C169.501 65.3077 169.882 64.9009 169.513 64.4492H149.242Z" fill="black"/>
<path d="M151.651 100.35H162.085V145.01H156.934V104.899C155.172 104.81 153.448 104.882 151.681 104.85V144.98H146.66V144.002C146.66 123.748 146.66 103.494 146.652 83.2431C146.652 82.6242 146.767 82.0952 147.107 81.5537C147.848 80.3708 148.499 79.133 149.178 77.9326H169.796C170.158 78.5066 170.535 79.0556 170.859 79.6346C171.184 80.2086 171.446 80.8075 171.842 81.354C172.232 81.8906 172.379 82.5394 172.379 83.2531C172.356 93.0257 172.364 102.798 172.364 112.573V113.819H177.56V100.412C179.324 100.32 181.046 100.402 182.845 100.36V101.633C182.845 103.672 182.78 105.711 182.87 107.744C182.928 109.025 182.461 110.04 181.79 111.053C181.343 111.727 181.066 112.521 180.579 113.162C180.133 113.751 180.332 114.323 180.629 114.697C181.465 115.75 181.917 117.023 182.71 118.088C182.798 118.206 182.828 118.378 182.84 118.53C182.86 118.777 182.845 119.029 182.845 119.279V139.365C182.845 139.657 182.855 139.949 182.843 140.239C182.828 140.568 182.633 140.788 182.314 140.793C180.899 140.81 179.486 140.815 178.071 140.778C177.912 140.773 177.679 140.488 177.622 140.294C177.545 140.024 177.602 139.717 177.602 139.425V118.38C175.883 118.291 174.158 118.365 172.391 118.33V144.985H167.37V143.755C167.37 126.788 167.365 109.821 167.378 92.851C167.378 91.3037 167.33 91.3761 165.873 91.3811C161.591 91.3961 157.306 91.3861 153.023 91.3861C152.774 91.3861 152.524 91.3861 152.275 91.3861C151.876 91.3836 151.711 91.6257 151.651 91.98C151.643 92.02 151.651 92.0624 151.651 92.1048V100.355V100.35ZM151.651 86.8467H167.373C167.373 85.6064 167.383 84.4086 167.37 83.2082C167.363 82.5294 167.218 82.4021 166.472 82.3996C164.688 82.3922 162.903 82.3996 161.119 82.3996C158.254 82.3996 155.392 82.3971 152.527 82.3996C151.813 82.3996 151.661 82.5469 151.656 83.2356C151.646 84.431 151.653 85.6264 151.653 86.8467H151.651Z" fill="white"/>
<path d="M169.832 55.573C168.946 57.0977 168.205 58.7373 167.094 60.1573H151.974C150.803 58.8621 150.137 57.1302 149.174 55.5904C149.992 54.158 150.813 52.728 151.667 51.2407H141.487C141.118 50.5869 140.771 49.933 140.387 49.3042C139.496 47.8443 138.68 46.3419 137.757 44.8995C137.195 44.0236 136.766 43.0653 136.262 42.1145C137.966 39.1847 139.696 36.2125 141.43 33.2353H145.218C148.837 33.2353 152.455 33.2528 156.074 33.2179C156.64 33.2129 157.045 33.3876 157.327 33.8093C157.716 34.3883 158.048 35.0047 158.387 35.6136C158.729 36.2225 159.049 36.8439 159.438 37.5701C160.613 36.1701 161.105 34.4706 162.225 33.2428H177.603C179.297 36.1576 181.017 39.1148 182.786 42.1594C181.082 45.1091 179.322 48.1487 177.555 51.2083H167.341C168.202 52.7156 169.018 54.143 169.837 55.573H169.832ZM151.734 51.2058C153.449 51.2058 154.971 51.2182 156.493 51.1908C156.698 51.1883 156.987 51.0311 157.087 50.8589C157.871 49.5163 158.619 48.1512 159.41 46.7362C157.659 46.6614 156.019 46.7861 154.322 46.6539C155.233 45.0942 156.089 43.6268 156.92 42.2018C156.026 40.6546 155.175 39.1747 154.342 37.7298C151.03 37.7298 147.791 37.7348 144.554 37.7248C144.105 37.7248 143.801 37.7872 143.644 38.2963C143.509 38.7305 143.227 39.1198 142.995 39.5191C142.481 40.4001 141.957 41.2735 141.388 42.2318H146.606C147.474 43.7266 148.33 45.204 149.224 46.7437H154.265C153.406 48.2585 152.613 49.6585 151.734 51.2083V51.2058ZM167.281 42.2068C167.406 42.399 167.523 42.5587 167.618 42.7309C168.267 43.8788 168.888 45.0393 169.587 46.1598C169.849 46.579 170.061 46.7238 170.511 46.7188C172.005 46.7038 173.498 46.7138 174.993 46.7138C175.866 45.1965 176.734 43.6842 177.59 42.1943C176.739 40.7045 175.893 39.2247 175.052 37.7548H164.661C163.82 39.2147 162.979 40.6746 162.093 42.2093H167.279L167.281 42.2068ZM167.284 51.1858C166.378 49.5986 165.557 48.1612 164.753 46.7487H159.6C160.471 48.2785 161.307 49.7434 162.128 51.1858H167.284Z" fill="white"/>
<path d="M99.948 100.373H120.666V131.812C119.131 131.812 117.567 131.829 116.002 131.787C115.817 131.782 115.56 131.47 115.485 131.25C115.395 130.991 115.465 130.676 115.465 130.384V104.905H110.509C110.499 105.172 110.474 105.489 110.474 105.806C110.474 113.956 110.474 122.107 110.474 130.26C110.474 130.467 110.477 130.676 110.474 130.883C110.457 131.715 110.379 131.804 109.563 131.809C108.153 131.817 106.743 131.809 105.246 131.809V104.882H100.038V127.29C98.3584 127.35 96.7163 127.3 95.0044 127.325V126.05C95.0044 114.947 95.0168 103.842 94.9844 92.7391C94.9819 91.696 95.204 90.7951 95.7455 89.9266C96.3619 88.9384 96.9284 87.9152 97.5124 86.917H99.9505V100.373H99.948Z" fill="white"/>
<path d="M213.744 95.8509H198.354V86.8918C199.849 86.8918 201.373 86.8844 202.896 86.8968C203.33 86.8993 203.545 87.1264 203.552 87.5731C203.567 88.5714 203.557 89.5696 203.557 90.5678V91.3414H208.488V82.4273H198.316V81.3068C198.316 73.1988 198.331 65.0883 198.299 56.9803C198.294 55.9771 198.511 55.1111 199.06 54.2926C199.602 53.4865 200.003 52.5981 200.517 51.7696C200.827 51.2705 201.111 51.2056 201.563 51.2081C205.057 51.2081 208.551 51.2081 212.042 51.2081H213.724V73.381H208.568V55.73H203.602V77.9029H213.741V95.8533L213.744 95.8509Z" fill="white"/>
<path d="M125.947 100.4H141.419V139.373C141.419 139.541 141.422 139.705 141.419 139.872C141.402 140.708 141.334 140.791 140.501 140.791C136.635 140.796 132.767 140.793 128.832 140.793C128.35 140.334 127.908 139.833 127.614 139.131C127.239 138.245 126.64 137.457 126.149 136.618C126.054 136.456 125.992 136.264 125.954 136.077C125.922 135.917 125.947 135.745 125.947 135.58V100.398V100.4ZM131.225 104.882V136.062C132.902 136.022 134.541 136.109 136.136 136.009V104.88H131.225V104.882Z" fill="white"/>
<path d="M115.464 91.3392V83.9524C115.464 83.7029 115.456 83.4533 115.464 83.2038C115.484 82.5824 115.641 82.4052 116.247 82.4002C117.7 82.3902 119.15 82.3977 120.652 82.3977V95.8462H105.279V51.2358H118.194C118.511 51.7923 118.855 52.4013 119.207 53.0077C119.599 53.679 120.033 54.3253 120.377 55.0191C120.545 55.356 120.722 55.6929 120.719 56.1296C120.694 61.8619 120.702 67.5916 120.702 73.3688H115.543C115.561 73.3863 115.526 73.3613 115.504 73.3289C115.484 73.2989 115.464 73.259 115.464 73.2216C115.464 67.407 115.464 61.5948 115.464 55.7378H110.535V91.3392H115.464Z" fill="white"/>
<path d="M187.836 100.402H203.558V125.904C203.558 126.072 203.56 126.236 203.558 126.403C203.54 127.227 203.466 127.314 202.632 127.317C199.68 127.324 196.728 127.319 193.775 127.319H193.077C193.077 128.629 193.077 129.905 193.077 131.182C193.077 131.582 193.314 131.761 193.668 131.806C193.913 131.836 194.167 131.811 194.417 131.811H203.56C203.56 133.069 203.568 134.264 203.558 135.462C203.55 136.154 203.401 136.301 202.684 136.301C199.483 136.306 196.281 136.301 193.079 136.301C191.582 136.301 190.084 136.306 188.59 136.298C188.051 136.296 187.868 136.106 187.838 135.587C187.828 135.422 187.838 135.255 187.838 135.088V100.4L187.836 100.402ZM198.277 122.802V104.857C196.515 104.862 194.796 104.852 193.117 104.862V122.802H198.277Z" fill="white"/>
<path d="M182.66 60.2222H193.047V95.8161H177.602V94.6108C177.602 86.5502 177.624 78.4895 177.574 70.4289C177.567 69.3683 177.814 68.43 178.383 67.6464C178.917 66.9102 179.269 66.0842 179.763 65.333C180.839 63.686 181.719 61.9116 182.66 60.2247V60.2222ZM187.796 91.3591V64.6742C186.119 64.6992 184.48 64.6468 182.88 64.7067V91.3566H187.796V91.3591Z" fill="white"/>
<path d="M125.988 60.2144H131.154V86.8344H136.175V65.8918C136.175 65.5998 136.15 65.3078 136.183 65.0183C136.223 64.6665 136.405 64.4269 136.806 64.4294C137.388 64.4344 137.969 64.4294 138.601 64.4294C138.948 64.8861 139.342 65.3428 139.661 65.8469C140.033 66.4333 140.32 67.0722 140.672 67.6711C141.186 68.542 141.446 69.433 141.438 70.4836C141.396 78.5092 141.416 86.5374 141.416 94.5631V95.8333H136.205V91.4137H131.199V95.8483H125.988V60.2119V60.2144Z" fill="white"/>
<path d="M219.029 118.348H208.596V100.378C210.265 100.353 211.987 100.375 213.751 100.365V113.784H219.007V86.8918C219.409 86.8918 219.781 86.9492 220.128 86.8818C221.295 86.6572 221.847 87.2611 222.306 88.2394C222.546 88.751 222.88 89.2626 223.195 89.7542C223.734 90.5952 224.058 91.536 224.053 92.6465C224.001 104.166 224.021 115.685 224.021 127.322H209.838C209.631 127.322 209.422 127.332 209.214 127.322C208.778 127.295 208.558 127.09 208.553 126.648C208.538 125.406 208.548 124.163 208.548 122.833H210.545C213.083 122.833 215.618 122.835 218.156 122.833C218.87 122.833 219.019 122.685 219.027 121.992C219.037 120.794 219.029 119.596 219.029 118.358V118.348Z" fill="white"/>
<path d="M120.706 42.1173C122.627 39.2025 124.082 36.0456 125.949 33.2905H131.035C129.288 36.3251 127.596 39.2699 125.914 42.1946C127.626 45.1568 129.313 48.0716 130.97 50.939C130.92 51.0538 130.91 51.0937 130.887 51.1237C130.865 51.1561 130.828 51.201 130.798 51.201C129.22 51.206 127.641 51.2035 125.954 51.2035C124.234 48.2264 122.49 45.2068 120.703 42.1173H120.706Z" fill="white"/>
<path d="M198.29 42.0919C197.765 43.0402 197.261 44.001 196.715 44.9343C195.969 46.207 195.183 47.4573 194.434 48.7275C194.042 49.3913 193.695 50.0826 193.323 50.7589C193.184 51.0109 193.024 51.2131 192.677 51.2081C191.152 51.1931 189.63 51.2031 187.936 51.2031C189.642 48.0687 191.432 45.1764 193.109 42.1667C192.038 40.5247 191.14 38.7628 190.124 37.0633C189.473 35.9753 188.811 34.8773 188.223 33.7443C188.158 33.617 188.11 33.4797 188.005 33.2327C189.647 33.2327 191.172 33.2277 192.7 33.2327C193.184 33.2327 193.373 33.6195 193.573 33.9689C194.659 35.8879 195.727 37.8145 196.825 39.7261C197.289 40.5346 197.808 41.3108 198.292 42.0844L198.29 42.0919Z" fill="white"/>
<path d="M149.242 64.4497H169.513C169.883 64.8989 169.501 65.3057 169.326 65.5477C168.66 66.4686 168.206 67.5018 167.614 68.4576C167.447 68.7271 167.208 68.9542 167.023 69.1738H151.94C150.959 67.7438 150.066 66.2141 149.242 64.4497Z" fill="white"/>
<path d="M151.651 86.8477C151.651 85.6299 151.644 84.432 151.654 83.2367C151.661 82.5479 151.811 82.4032 152.525 82.4007C155.389 82.3957 158.252 82.4007 161.117 82.4007C162.901 82.4007 164.685 82.3957 166.47 82.4007C167.216 82.4032 167.361 82.5329 167.368 83.2092C167.381 84.4071 167.371 85.6049 167.371 86.8477H151.649H151.651Z" fill="black"/>
<path d="M151.733 51.2057C152.612 49.6559 153.403 48.2559 154.264 46.7411H149.223C148.329 45.2014 147.473 43.724 146.605 42.2292H141.387C141.956 41.2709 142.48 40.3975 142.994 39.5165C143.228 39.1172 143.51 38.7279 143.643 38.2937C143.8 37.7846 144.107 37.7197 144.554 37.7222C147.79 37.7322 151.029 37.7272 154.341 37.7272C155.175 39.1721 156.026 40.6495 156.919 42.1992C156.088 43.6242 155.232 45.0916 154.321 46.6513C156.018 46.7836 157.658 46.6588 159.41 46.7336C158.618 48.1486 157.87 49.5137 157.086 50.8563C156.986 51.0285 156.697 51.1832 156.492 51.1882C154.97 51.2156 153.445 51.2032 151.733 51.2032V51.2057Z" fill="black"/>
<path d="M167.281 42.2065H162.096C162.982 40.6692 163.823 39.2118 164.664 37.752H175.055C175.896 39.2218 176.742 40.7017 177.593 42.1915C176.735 43.6839 175.866 45.1937 174.995 46.711C173.5 46.711 172.008 46.701 170.513 46.7159C170.064 46.7209 169.852 46.5762 169.59 46.1569C168.891 45.0364 168.27 43.876 167.621 42.7281C167.524 42.5559 167.409 42.3962 167.284 42.204L167.281 42.2065Z" fill="black"/>
<path d="M167.285 51.1851H162.13C161.309 49.7452 160.475 48.2803 159.602 46.748H164.755C165.561 48.158 166.379 49.598 167.285 51.1851Z" fill="black"/>
<path d="M131.225 104.882H136.136V136.011C134.541 136.109 132.902 136.024 131.225 136.064V104.884V104.882Z" fill="black"/>
<path d="M198.278 122.803H193.117V104.862C194.797 104.855 196.519 104.862 198.278 104.857V122.803Z" fill="black"/>
<path d="M187.795 91.3586H182.879V64.7087C184.479 64.6488 186.118 64.7012 187.795 64.6763V91.3611V91.3586Z" fill="black"/>
</g>
<defs>
<clipPath id="clip0_463_15214">
<rect width="139.017" height="140" fill="white" transform="translate(90 10)"/>
</clipPath>
</defs>
</svg>
