<?xml version="1.0"?>
<svg xmlns="http://www.w3.org/2000/svg" width="320" height="160" viewBox="0 0 320 160" fill="none">
<g clip-path="url(#clip0_444_4954)">
<path d="M220.826 115C221.803 113.309 222.409 111.404 222.409 109.693V50.3065C222.409 48.5956 221.803 46.6909 220.827 45L160.205 79.9998L220.826 115Z" fill="#00599C"/>
<path d="M165.59 148.716L217.021 119.024C218.502 118.168 219.849 116.691 220.825 115L160.203 80L99.582 115C100.558 116.691 101.905 118.169 103.386 119.024L154.816 148.716C157.779 150.427 162.628 150.427 165.59 148.716Z" fill="#004482"/>
<path d="M220.826 44.9998C219.849 43.3085 218.502 41.8315 217.021 40.976L165.591 11.2831C162.628 9.5723 157.78 9.5723 154.817 11.2831L103.387 40.976C100.424 42.6865 98 46.8854 98 50.3067V109.693C98 111.404 98.6062 113.309 99.5828 115L160.204 80L220.826 44.9998Z" fill="#659AD2"/>
<path d="M160.204 121.469C137.337 121.469 118.734 102.866 118.734 79.9997C118.734 57.1334 137.337 38.5303 160.204 38.5303C174.959 38.5303 188.72 46.4704 196.116 59.252L178.169 69.6372C174.467 63.2395 167.583 59.265 160.204 59.265C148.77 59.265 139.469 68.5663 139.469 79.9997C139.469 91.4327 148.77 100.734 160.204 100.734C167.584 100.734 174.468 96.7599 178.17 90.361L196.117 100.746C188.721 113.529 174.96 121.469 160.204 121.469Z" fill="white"/>
<path d="M201.673 77.6955H197.065V73.0879H192.458V77.6955H187.85V82.303H192.458V86.911H197.065V82.303H201.673V77.6955Z" fill="white"/>
<path d="M218.952 77.6955H214.344V73.0879H209.737V77.6955H205.129V82.303H209.737V86.911H214.344V82.303H218.952V77.6955Z" fill="white"/>
</g>
<defs>
<clipPath id="clip0_444_4954">
<rect width="124.408" height="140" fill="white" transform="translate(98 10)"/>
</clipPath>
</defs>
</svg>
