<?xml version="1.0"?>
<svg xmlns="http://www.w3.org/2000/svg" width="320" height="160" viewBox="0 0 320 160" fill="none">
<path d="M299.294 91.0237L290.748 70.1719H297.798L303.225 86.708H300.618L306.173 70.1719H313.224L304.336 91.0237H299.294ZM293.953 99.6977L300.191 86.238L304.336 91.0237L300.661 99.6977H293.953Z" fill="#1A73E8"/>
<path d="M281.727 91.4075C279.591 91.4075 277.654 90.9375 275.916 89.9975C274.178 89.0574 272.811 87.7613 271.814 86.1091C270.817 84.4569 270.318 82.6054 270.318 80.5544C270.318 78.4749 270.817 76.6233 271.814 74.9996C272.839 73.3474 274.221 72.0513 275.959 71.1112C277.696 70.1712 279.648 69.7012 281.812 69.7012C283.436 69.7012 284.917 69.986 286.256 70.5558C287.624 71.097 288.834 71.9231 289.888 73.034L285.701 77.2215C285.217 76.6803 284.647 76.2815 283.992 76.0251C283.365 75.7687 282.639 75.6405 281.812 75.6405C280.872 75.6405 280.032 75.8542 279.291 76.2815C278.579 76.6803 278.01 77.25 277.582 77.9906C277.184 78.7028 276.984 79.5431 276.984 80.5116C276.984 81.4802 277.184 82.3347 277.582 83.0754C278.01 83.816 278.594 84.4 279.334 84.8273C280.075 85.2546 280.901 85.4682 281.812 85.4682C282.667 85.4682 283.422 85.3258 284.077 85.0409C284.761 84.7276 285.345 84.3003 285.829 83.759L289.974 87.9465C288.891 89.0859 287.666 89.9548 286.299 90.553C284.932 91.1227 283.408 91.4075 281.727 91.4075Z" fill="#1A73E8"/>
<path d="M260.95 90.9378V79.1018C260.95 78.0193 260.609 77.1505 259.925 76.4953C259.27 75.8117 258.429 75.4698 257.404 75.4698C256.692 75.4698 256.065 75.6265 255.524 75.9399C254.983 76.2247 254.555 76.652 254.242 77.2217C253.929 77.763 253.772 78.3897 253.772 79.1018L251.251 77.8627C251.251 76.239 251.607 74.8147 252.319 73.5898C253.031 72.3649 254.014 71.4248 255.267 70.7696C256.549 70.086 257.988 69.7441 259.583 69.7441C261.121 69.7441 262.474 70.1145 263.642 70.8551C264.839 71.5672 265.779 72.5215 266.462 73.7179C267.146 74.9144 267.488 76.2247 267.488 77.649V90.9378H260.95ZM247.234 90.9378V70.1714H253.772V90.9378H247.234Z" fill="#1A73E8"/>
<path d="M234.079 91.4075C231.829 91.4075 229.821 90.9518 228.055 90.0402C226.317 89.1002 224.95 87.8041 223.953 86.1519C222.956 84.4997 222.457 82.6338 222.457 80.5544C222.457 78.4749 222.941 76.6233 223.91 74.9996C224.907 73.3474 226.246 72.0513 227.926 71.1112C229.607 70.1712 231.501 69.7012 233.609 69.7012C235.66 69.7012 237.469 70.1427 239.036 71.0258C240.603 71.9088 241.828 73.1337 242.711 74.7005C243.622 76.2672 244.078 78.0618 244.078 80.0843C244.078 80.4547 244.049 80.8535 243.992 81.2808C243.964 81.6796 243.893 82.1496 243.779 82.6908L225.875 82.7335V78.247L241.001 78.2043L238.181 80.0843C238.153 78.8879 237.968 77.9052 237.626 77.136C237.284 76.3384 236.771 75.7402 236.088 75.3414C235.432 74.9141 234.621 74.7005 233.652 74.7005C232.627 74.7005 231.729 74.9426 230.96 75.4269C230.219 75.8826 229.636 76.5378 229.208 77.3924C228.809 78.247 228.61 79.2867 228.61 80.5116C228.61 81.7365 228.824 82.7905 229.251 83.6736C229.707 84.5282 230.333 85.1976 231.131 85.6818C231.957 86.1376 232.926 86.3655 234.037 86.3655C235.062 86.3655 235.988 86.1946 236.814 85.8528C237.64 85.4824 238.366 84.9412 238.993 84.2291L242.582 87.8183C241.557 89.0147 240.318 89.912 238.865 90.5102C237.412 91.1084 235.817 91.4075 234.079 91.4075Z" fill="#1A73E8"/>
<path d="M206.174 90.9378V70.1714H212.711V90.9378H206.174ZM212.711 79.5291L209.977 77.3926C210.518 74.9713 211.43 73.0913 212.711 71.7524C213.993 70.4136 215.774 69.7441 218.053 69.7441C219.05 69.7441 219.918 69.9008 220.659 70.2142C221.428 70.499 222.098 70.9548 222.667 71.5815L218.779 76.4953C218.494 76.182 218.138 75.9399 217.711 75.7689C217.283 75.598 216.799 75.5126 216.258 75.5126C215.175 75.5126 214.307 75.8544 213.651 76.5381C213.025 77.1932 212.711 78.1903 212.711 79.5291Z" fill="#1A73E8"/>
<path d="M188.064 90.9378V70.1714H194.602V90.9378H188.064ZM194.602 79.5291L191.867 77.3926C192.409 74.9713 193.32 73.0913 194.602 71.7524C195.884 70.4136 197.664 69.7441 199.943 69.7441C200.94 69.7441 201.809 69.9008 202.55 70.2142C203.319 70.499 203.988 70.9548 204.558 71.5815L200.67 76.4953C200.385 76.182 200.029 75.9399 199.601 75.7689C199.174 75.598 198.69 75.5126 198.149 75.5126C197.066 75.5126 196.197 75.8544 195.542 76.5381C194.915 77.1932 194.602 78.1903 194.602 79.5291Z" fill="#1A73E8"/>
<path d="M174.26 91.4082C172.351 91.4082 170.656 91.0237 169.175 90.2545C167.722 89.4569 166.583 88.3745 165.757 87.0071C164.931 85.6113 164.518 84.0161 164.518 82.2215V70.1719H171.055V82.136C171.055 82.8482 171.169 83.4606 171.397 83.9734C171.653 84.4861 172.024 84.8849 172.508 85.1698C172.992 85.4546 173.576 85.5971 174.26 85.5971C175.228 85.5971 175.997 85.298 176.567 84.6998C177.137 84.0731 177.422 83.2185 177.422 82.136V70.1719H183.959V82.1788C183.959 84.0019 183.546 85.6113 182.72 87.0071C181.894 88.3745 180.755 89.4569 179.302 90.2545C177.849 91.0237 176.168 91.4082 174.26 91.4082Z" fill="#1A73E8"/>
<path d="M153.874 91.4075C151.737 91.4075 149.8 90.9375 148.062 89.9975C146.325 89.0574 144.957 87.7613 143.96 86.1091C142.963 84.4569 142.465 82.6054 142.465 80.5544C142.465 78.4749 142.963 76.6233 143.96 74.9996C144.986 73.3474 146.367 72.0513 148.105 71.1112C149.843 70.1712 151.794 69.7012 153.959 69.7012C155.583 69.7012 157.064 69.986 158.403 70.5558C159.77 71.097 160.981 71.9231 162.035 73.034L157.847 77.2215C157.363 76.6803 156.793 76.2815 156.138 76.0251C155.511 75.7687 154.785 75.6405 153.959 75.6405C153.019 75.6405 152.179 75.8542 151.438 76.2815C150.726 76.6803 150.156 77.25 149.729 77.9906C149.33 78.7028 149.131 79.5431 149.131 80.5116C149.131 81.4802 149.33 82.3347 149.729 83.0754C150.156 83.816 150.74 84.4 151.481 84.8273C152.221 85.2546 153.047 85.4682 153.959 85.4682C154.814 85.4682 155.568 85.3258 156.224 85.0409C156.907 84.7276 157.491 84.3003 157.975 83.759L162.12 87.9465C161.038 89.0859 159.813 89.9548 158.446 90.553C157.078 91.1227 155.554 91.4075 153.874 91.4075Z" fill="#1A73E8"/>
<path d="M129.212 91.4075C127.075 91.4075 125.138 90.9375 123.4 89.9975C121.691 89.029 120.338 87.7186 119.341 86.0664C118.344 84.4142 117.846 82.5626 117.846 80.5116C117.846 78.4606 118.344 76.6233 119.341 74.9996C120.338 73.3759 121.691 72.094 123.4 71.154C125.11 70.1854 127.047 69.7012 129.212 69.7012C131.377 69.7012 133.314 70.1712 135.023 71.1112C136.732 72.0513 138.085 73.3474 139.082 74.9996C140.079 76.6233 140.578 78.4606 140.578 80.5116C140.578 82.5626 140.079 84.4142 139.082 86.0664C138.085 87.7186 136.732 89.029 135.023 89.9975C133.314 90.9375 131.377 91.4075 129.212 91.4075ZM129.212 85.4682C130.152 85.4682 130.978 85.2688 131.69 84.87C132.402 84.4427 132.943 83.8587 133.314 83.1181C133.712 82.349 133.912 81.4802 133.912 80.5116C133.912 79.5431 133.712 78.7028 133.314 77.9906C132.915 77.25 132.359 76.6803 131.647 76.2815C130.964 75.8542 130.152 75.6405 129.212 75.6405C128.3 75.6405 127.488 75.8542 126.776 76.2815C126.064 76.6803 125.508 77.25 125.11 77.9906C124.711 78.7313 124.511 79.5858 124.511 80.5544C124.511 81.4944 124.711 82.349 125.11 83.1181C125.508 83.8587 126.064 84.4427 126.776 84.87C127.488 85.2688 128.3 85.4682 129.212 85.4682Z" fill="#1764CA"/>
<path d="M105.513 90.9389V61.584H112.05V90.9389H105.513ZM100.812 75.7273V70.1725H116.75V75.7273H100.812Z" fill="#1764CA"/>
<path d="M89.5325 91.3651C88.1367 91.3651 86.8548 91.0944 85.6869 90.5532C84.519 90.012 83.5647 89.2713 82.824 88.3313C82.0834 87.3628 81.6561 86.2661 81.5422 85.0412V76.2817C81.6561 75.0568 82.0834 73.9458 82.824 72.9488C83.5647 71.9518 84.519 71.1684 85.6869 70.5987C86.8548 70.029 88.1367 69.7441 89.5325 69.7441C91.498 69.7441 93.2357 70.2142 94.7455 71.1542C96.2837 72.0942 97.4801 73.3761 98.3347 74.9998C99.2178 76.6235 99.6593 78.4751 99.6593 80.5546C99.6593 82.6341 99.2178 84.4857 98.3347 86.1094C97.4801 87.7331 96.2837 89.015 94.7455 89.955C93.2357 90.895 91.498 91.3651 89.5325 91.3651ZM88.3361 85.4684C89.2761 85.4684 90.088 85.2548 90.7717 84.8275C91.4838 84.4002 92.0393 83.8163 92.4381 83.0756C92.8369 82.335 93.0363 81.4946 93.0363 80.5546C93.0363 79.5861 92.8369 78.7315 92.4381 77.9909C92.0393 77.2502 91.4838 76.6805 90.7717 76.2817C90.088 75.8544 89.2904 75.6408 88.3788 75.6408C87.4673 75.6408 86.6554 75.8544 85.9433 76.2817C85.2596 76.6805 84.7184 77.2502 84.3196 77.9909C83.9208 78.7315 83.7214 79.5861 83.7214 80.5546C83.7214 81.4946 83.9065 82.335 84.2768 83.0756C84.6756 83.8163 85.2311 84.4002 85.9433 84.8275C86.6554 85.2548 87.453 85.4684 88.3361 85.4684ZM77.5684 99.6972V70.1714H84.1059V75.5126L83.0377 80.5546L84.0205 85.5966V99.6972H77.5684Z" fill="#1764CA"/>
<path d="M61.6552 91.0237L53.1094 70.1719H60.1597L65.5863 86.708H62.9798L68.5346 70.1719H75.5849L66.6972 91.0237H61.6552ZM56.3141 99.6977L62.5525 86.238L66.6972 91.0237L63.0225 99.6977H56.3141Z" fill="#1764CA"/>
<path d="M37.1758 90.9378V70.1714H43.7133V90.9378H37.1758ZM43.7133 79.5291L40.9787 77.3926C41.5199 74.9713 42.4315 73.0913 43.7133 71.7524C44.9952 70.4136 46.7756 69.7441 49.0545 69.7441C50.0515 69.7441 50.9203 69.9008 51.6609 70.2142C52.4301 70.499 53.0995 70.9548 53.6692 71.5815L49.7809 76.4953C49.496 76.182 49.1399 75.9399 48.7126 75.7689C48.2853 75.598 47.8011 75.5126 47.2598 75.5126C46.1774 75.5126 45.3085 75.8544 44.6534 76.5381C44.0267 77.1932 43.7133 78.1903 43.7133 79.5291Z" fill="#1764CA"/>
<path d="M22.6298 91.4076C20.3794 91.4076 18.2857 91.023 16.3487 90.2539C14.4401 89.4563 12.7594 88.3453 11.3066 86.921C9.88232 85.4967 8.77137 83.8445 7.97376 81.9644C7.17615 80.0559 6.77734 78.0049 6.77734 75.8114C6.77734 73.618 7.17615 71.5813 7.97376 69.7012C8.77137 67.7926 9.88232 66.1404 11.3066 64.7446C12.7309 63.3488 14.3974 62.2663 16.3059 61.4972C18.243 60.6996 20.3367 60.3008 22.5871 60.3008C24.9799 60.3008 27.1021 60.6853 28.9537 61.4545C30.8338 62.2236 32.4718 63.2776 33.8676 64.6164L29.381 69.1457C28.5834 68.2911 27.6149 67.6217 26.4755 67.1374C25.3645 66.6532 24.0684 66.411 22.5871 66.411C21.2767 66.411 20.0661 66.6389 18.9551 67.0947C17.8727 67.522 16.9326 68.1487 16.135 68.9748C15.3659 69.8009 14.7534 70.7979 14.2977 71.9658C13.8704 73.1337 13.6567 74.4156 13.6567 75.8114C13.6567 77.2357 13.8704 78.5319 14.2977 79.6998C14.7534 80.8677 15.3659 81.8647 16.135 82.6908C16.9326 83.5169 17.8727 84.1579 18.9551 84.6136C20.0661 85.0694 21.2767 85.2973 22.5871 85.2973C24.1254 85.2973 25.4642 85.0552 26.6036 84.5709C27.7431 84.0866 28.7259 83.4172 29.5519 82.5626L34.0812 87.0919C32.6284 88.4308 30.962 89.4847 29.0819 90.2539C27.2303 91.023 25.0796 91.4076 22.6298 91.4076Z" fill="#1764CA"/>
</svg>
