<?xml version="1.0"?>
<svg xmlns="http://www.w3.org/2000/svg" width="320" height="160" viewBox="0 0 320 160" fill="none">
<g clip-path="url(#clip0_459_1695)">
<path d="M161.971 62.9287C167.447 67.9442 170.182 74.8213 170.182 83.7575C170.182 92.6936 167.512 99.782 162.175 104.989C156.838 110.196 148.692 112.817 137.738 112.817H118.465V55.6143H138.398C148.637 55.6133 156.496 57.922 161.973 62.9395L161.971 62.9287ZM152.566 96.916C155.713 93.9547 157.278 89.6428 157.278 83.9934C157.278 78.3439 155.704 73.9171 152.566 70.8742C149.429 67.8312 144.585 66.2272 138.057 66.2272H130.699V101.374H139.044C144.901 101.374 149.405 99.8764 152.555 96.917L152.566 96.916ZM215.629 112.817H204.2V107.344C200.935 111.346 197.132 113.346 192.45 113.346C187.767 113.346 183.855 111.99 180.67 109.277C177.484 106.565 175.914 102.944 175.914 98.4208C175.914 93.8976 177.562 90.5815 180.846 88.3317C184.131 86.0819 188.627 85.0273 194.322 85.0273H203.373V84.646C203.373 79.9322 200.956 77.5743 195.975 77.5743C193.837 77.5743 191.616 77.9989 189.231 78.8471C186.851 79.6983 184.857 80.7509 183.213 82.0119L177.719 74.034C183.522 69.8117 190.157 67.7015 197.603 67.7015C202.967 67.7015 207.239 69.0451 210.639 71.7312C214.031 74.4164 215.618 78.6653 215.618 84.4769V112.813L215.629 112.817ZM203.385 95.8329V94.0195H195.728C190.802 94.0195 188.338 95.3916 188.338 98.462C188.338 100.051 188.924 101.189 190.101 102.04C191.278 102.89 192.963 103.274 195.154 103.274C197.254 103.295 199.293 102.574 200.914 101.239C202.581 99.8951 203.385 98.0787 203.385 95.8329ZM248.115 79.3051C244.446 79.3051 241.539 80.6045 239.733 83.209C237.927 85.8136 236.854 89.2536 236.854 93.5291V112.818H224.609V68.6804H236.854V74.2827C238.486 72.4742 240.715 70.939 243.094 69.678C245.459 68.4529 248.07 67.7808 250.732 67.7123V79.314H248.116L248.115 79.3051ZM270.324 77.6716V97.148C270.324 98.8483 270.815 100.178 271.7 101.135C272.586 102.093 273.648 102.576 274.842 102.576C277.144 102.576 279.102 101.534 280.689 99.4508L285.308 108.083C281.473 111.594 277.439 113.346 273.199 113.346C268.958 113.346 265.38 111.951 262.455 109.153C259.522 106.357 258.077 102.548 258.077 97.722V55.6123H270.323V67.8715H283.379L276.647 77.6805H270.333L270.324 77.6716Z" fill="#231F20"/>
<path d="M51.9276 64.5343L47.6445 60.2432L47.6612 91.2426L47.7132 92.6893C47.7329 93.3744 47.8634 94.142 48.0706 94.9381L82.0071 106.929L90.4888 103.167L90.4956 103.155L51.9315 64.5422L51.9276 64.5343Z" fill="#00C4B3"/>
<path d="M48.0704 94.9397H48.0733C48.0704 94.927 48.0655 94.9122 48.0586 94.8965C48.0655 94.9122 48.0655 94.926 48.0704 94.9397ZM90.4866 103.16L82.0049 106.923L48.0733 94.9319C48.7212 97.4234 50.1574 100.226 51.6996 101.755L62.7631 112.786L87.4032 112.817L90.4876 103.158L90.4866 103.16Z" fill="#22D3C5"/>
<path d="M47.7586 60.2423L34.5648 80.1825C33.4703 81.3541 34.0151 83.77 35.7792 85.5509L43.397 93.2388L48.1846 94.9274C47.9883 94.1411 47.8469 93.3548 47.8273 92.6786L47.7743 91.2318L47.7586 60.2324V60.2423Z" fill="#0075C9"/>
<path d="M82.2839 60.6413C81.4986 60.4388 80.7133 60.311 80.0339 60.2924L78.5025 60.2363L47.6426 60.2432L90.4996 103.147L94.2643 94.6453L82.2839 60.6413Z" fill="#0075C9"/>
<path d="M82.2441 60.624C82.2579 60.6289 82.2736 60.6319 82.2834 60.6358V60.6319C82.2697 60.6289 82.2579 60.6289 82.2441 60.624ZM89.0933 64.2606C87.5354 62.69 84.7769 61.2629 82.2834 60.624L94.2746 94.6457L90.5049 103.147L99.7013 100.206L99.7209 74.961L89.0933 64.2803V64.2606Z" fill="#00A8E1"/>
<path d="M80.6033 55.8773L72.9295 48.2474C71.1557 46.491 68.7388 45.9406 67.5686 47.0355L47.6445 60.2432L78.5045 60.2363L80.0359 60.2923C80.7231 60.312 81.4888 60.4398 82.2859 60.6413L80.6033 55.8773Z" fill="#00C4B3"/>
</g>
<defs>
<clipPath id="clip0_459_1695">
<rect width="251.309" height="67.8173" fill="white" transform="translate(34 46)"/>
</clipPath>
</defs>
</svg>
