<?xml version="1.0"?>
<svg xmlns="http://www.w3.org/2000/svg" width="320" height="160" viewBox="0 0 320 160" fill="none">
<g clip-path="url(#clip0_459_1859)">
<path d="M75.938 41.4961H87.9696V97.2238C81.7976 98.3964 77.2661 98.8654 72.3445 98.8654C57.6563 98.8649 50 92.2207 50 79.477C50 67.2029 58.1255 59.2292 70.7034 59.2292C72.6565 59.2292 74.1408 59.3851 75.938 59.8541V41.4961ZM75.938 69.5476C74.5319 69.079 73.3601 68.9227 71.8758 68.9227C65.7819 68.9227 62.2659 72.6755 62.2659 79.242C62.2659 85.6532 65.6256 89.171 71.7976 89.171C73.1252 89.171 74.2194 89.0928 75.938 88.8588V69.5476Z" fill="#092E20"/>
<path d="M107.11 60.0881V87.9973C107.11 97.6136 106.407 102.226 104.298 106.213C102.344 110.045 99.7657 112.467 94.4535 115.126L83.2812 109.81C88.594 107.308 91.1719 105.12 92.8125 101.757C94.5316 98.3171 95.079 94.3298 95.079 83.8541V60.0881H107.11ZM95.079 41.5596H107.11V53.9119H95.079V41.5596Z" fill="#092E20"/>
<path d="M114.377 62.8249C119.691 60.3239 124.768 59.2295 130.315 59.2295C136.487 59.2295 140.55 60.8706 142.347 64.0762C143.362 65.8742 143.675 68.2194 143.675 73.2235V97.6926C138.283 98.4743 131.487 99.022 126.487 99.022C116.409 99.022 111.877 95.5027 111.877 87.6854C111.877 79.2418 117.893 75.3331 132.659 74.0818V71.424C132.659 69.2351 131.565 68.4539 128.518 68.4539C124.065 68.4539 119.065 69.7047 114.377 72.1285L114.377 62.8249ZM133.206 81.9788C125.237 82.7606 122.659 84.0118 122.659 87.1387C122.659 89.4839 124.143 90.5784 127.424 90.5784C129.222 90.5784 130.862 90.4225 133.206 90.0316V81.9788Z" fill="#092E20"/>
<path d="M149.533 61.965C156.642 60.0889 162.502 59.2295 168.439 59.2295C174.611 59.2295 179.065 60.6361 181.722 63.3727C184.222 65.9519 185.002 68.7661 185.002 74.7869V98.3961H172.971V75.256C172.971 70.6437 171.408 68.9229 167.112 68.9229C165.471 68.9229 163.987 69.0793 161.564 69.7828V98.3961H149.533V61.965Z" fill="#092E20"/>
<path d="M189.681 104.964C193.9 107.153 198.119 108.169 202.572 108.169C210.462 108.169 213.821 104.964 213.821 97.3022C213.821 97.224 213.821 97.1458 213.821 97.0677C211.478 98.2397 209.134 98.7093 206.009 98.7093C195.462 98.7093 188.742 91.7514 188.742 80.7285C188.742 67.0462 198.665 59.3076 216.243 59.3076C221.4 59.3076 226.165 59.8543 231.947 61.0269L227.827 69.7112C224.624 69.0858 227.571 69.6275 225.15 69.3929V70.6442L225.306 75.7249L225.383 82.2925C225.461 83.9336 225.461 85.5757 225.54 87.2174C225.54 88.7027 225.54 89.4067 225.54 90.5011C225.54 100.821 224.681 105.668 222.103 109.655C218.352 115.518 211.868 118.411 202.649 118.411C197.961 118.411 193.9 117.707 189.68 116.065V104.964H189.681ZM213.588 69.0016C213.431 69.0016 213.276 69.0016 213.197 69.0016H212.338C209.995 68.9234 207.26 69.5483 205.384 70.7209C202.494 72.363 201.009 75.3341 201.009 79.5554C201.009 85.5757 203.979 89.0153 209.291 89.0153C210.931 89.0153 212.26 88.7021 213.822 88.2336V87.3732V84.0905C213.822 82.6833 213.744 81.1189 213.744 79.4777L213.667 73.9275L213.588 69.9401V69.0016H213.588Z" fill="#092E20"/>
<path d="M250.624 59.0723C262.655 59.0723 269.999 66.656 269.999 78.9297C269.999 91.5171 262.344 99.413 250.155 99.413C238.123 99.413 230.701 91.8292 230.701 79.6338C230.702 66.9677 238.359 59.0723 250.624 59.0723ZM250.389 89.7181C254.999 89.7181 257.733 85.8871 257.733 79.2419C257.733 72.6754 255.077 68.7662 250.468 68.7662C245.702 68.7662 242.967 72.5977 242.967 79.2419C242.967 85.8876 245.702 89.7181 250.389 89.7181Z" fill="#092E20"/>
</g>
<defs>
<clipPath id="clip0_459_1859">
<rect width="220" height="76.9136" fill="white" transform="translate(50 41.4961)"/>
</clipPath>
</defs>
</svg>
