<?xml version="1.0"?>
<svg xmlns="http://www.w3.org/2000/svg" width="320" height="160" viewBox="0 0 320 160" fill="none">
<g clip-path="url(#clip0_462_1919)">
<path d="M115.246 70.2991C114.748 66.6662 112.754 63.5119 109.158 60.6621L107.078 59.2481L105.691 61.3582C103.914 64.0775 103.026 67.8627 103.308 71.4956C103.438 72.7573 103.849 75.0632 105.128 77.0428C103.849 77.7607 101.314 78.7178 97.9344 78.6526H33.3677L33.2377 79.414C32.631 83.0469 32.631 94.4242 39.8894 103.147C45.4144 109.782 53.6694 113.154 64.4594 113.154C87.8594 113.154 105.149 102.212 113.274 82.2855C116.459 82.3507 123.328 82.3072 126.859 75.4548C126.946 75.3025 127.163 74.8892 127.769 73.5839L128.116 72.866L126.144 71.5173C123.978 70.1033 119.059 69.5595 115.246 70.2991ZM84.9994 46H75.1844V55.0714H84.9994V46ZM84.9994 56.8987H75.1844V65.9701H84.9994V56.8987ZM73.386 56.8987H63.571V65.9701H73.386V56.8987ZM61.7944 56.8987H51.9794V65.9701H61.7944V56.8987ZM50.181 67.7974H40.366V76.8688H50.181V67.7974ZM61.7944 67.7974H51.9794V76.8688H61.7944V67.7974ZM73.386 67.7974H63.571V76.8688H73.386V67.7974ZM84.9994 67.7974H75.1844V76.8688H84.9994V67.7974ZM96.6127 67.7974H86.7977V76.8688H96.6127V67.7974ZM156.283 65.7525C155.568 65.7525 154.961 65.9918 154.506 66.4704C154.029 66.949 153.791 67.5799 153.791 68.2977V80.5887C151.364 78.5656 148.569 77.5649 145.363 77.5649C141.658 77.5649 138.494 78.9136 135.873 81.6111C133.251 84.3086 131.951 87.5499 131.951 91.3569C131.951 95.1638 133.273 98.4051 135.873 101.103C138.494 103.8 141.658 105.149 145.363 105.149C149.068 105.149 152.209 103.8 154.853 101.103C157.474 98.4486 158.774 95.1855 158.774 91.3569V68.3195C158.774 67.5799 158.536 66.9707 158.038 66.4922C157.583 65.9918 156.998 65.7525 156.283 65.7525ZM153.141 94.707C152.708 95.7511 152.101 96.6648 151.343 97.4479C150.584 98.2311 149.696 98.8619 148.678 99.3188C147.659 99.7756 146.554 100.015 145.384 100.015C144.214 100.015 143.109 99.7974 142.069 99.3188C141.051 98.8619 140.163 98.2311 139.404 97.4479C138.646 96.6648 138.061 95.7511 137.628 94.707C137.194 93.6628 136.978 92.5316 136.978 91.3569C136.978 90.1821 137.194 89.0509 137.628 88.0068C138.061 86.9626 138.668 86.0489 139.404 85.2658C140.163 84.4826 141.051 83.8735 142.069 83.3949C143.088 82.9381 144.193 82.6988 145.384 82.6988C146.576 82.6988 147.638 82.9163 148.678 83.3949C149.696 83.8518 150.584 84.4826 151.343 85.2658C152.101 86.0489 152.708 86.9626 153.141 88.0068C153.574 89.0509 153.791 90.1604 153.791 91.3351C153.791 92.5316 153.574 93.641 153.141 94.707ZM266.046 81.6111C263.403 78.9136 260.218 77.5649 256.556 77.5649C252.873 77.5649 249.688 78.9136 247.066 81.6111C244.444 84.3086 243.144 87.5499 243.144 91.3569C243.144 95.1638 244.466 98.4051 247.066 101.103C249.688 103.8 252.851 105.149 256.556 105.149C259.936 105.149 262.839 104.039 265.331 101.799C265.808 101.298 266.046 100.668 266.046 99.9496C266.046 99.2318 265.808 98.6009 265.331 98.1223C264.854 97.6437 264.269 97.4044 263.554 97.4044C262.926 97.4262 262.384 97.622 261.908 98.057C261.149 98.7097 260.348 99.21 259.459 99.5363C258.571 99.8626 257.618 100.037 256.556 100.037C255.624 100.037 254.736 99.8844 253.891 99.6016C253.046 99.297 252.244 98.8837 251.551 98.3616C250.836 97.8178 250.229 97.1869 249.688 96.4473C249.168 95.7076 248.756 94.881 248.496 93.9673H267.476C268.169 93.9673 268.776 93.728 269.253 93.2494C269.751 92.7709 269.989 92.14 269.989 91.4221C269.989 89.5078 269.664 87.7457 269.014 86.1142C268.343 84.4391 267.368 82.9599 266.046 81.6111ZM248.453 88.8116C248.713 87.9197 249.103 87.0931 249.623 86.3317C250.143 85.5921 250.771 84.9395 251.486 84.4174C252.201 83.8735 253.003 83.4819 253.869 83.1774C254.736 82.8728 255.624 82.7423 256.534 82.7423C257.444 82.7423 258.333 82.8946 259.178 83.1774C260.044 83.4819 260.824 83.8953 261.518 84.4174C262.233 84.9612 262.861 85.5921 263.381 86.3317C263.923 87.0713 264.313 87.898 264.594 88.8116H248.453ZM292.328 79.3052C291.873 78.8701 291.309 78.5221 290.638 78.261C289.966 78 289.208 77.8259 288.406 77.7389C287.604 77.6301 286.846 77.5866 286.131 77.5866C284.528 77.5866 283.033 77.8477 281.624 78.3698C280.216 78.8919 278.916 79.6533 277.724 80.6322V80.1536C277.724 79.4357 277.486 78.8484 276.988 78.348C276.489 77.8477 275.926 77.5866 275.233 77.5866C274.539 77.5866 273.933 77.8477 273.456 78.348C272.958 78.8484 272.719 79.4575 272.719 80.1536V102.604C272.719 103.321 272.958 103.909 273.456 104.409C273.954 104.91 274.539 105.171 275.233 105.171C275.926 105.171 276.511 104.91 276.988 104.409C277.486 103.909 277.724 103.3 277.724 102.604V91.3786C277.724 90.1821 277.941 89.0509 278.374 88.0068C278.808 86.9626 279.414 86.0489 280.173 85.2658C280.931 84.4826 281.819 83.8735 282.838 83.4167C283.856 82.9599 284.961 82.7423 286.131 82.7423C287.301 82.7423 288.406 82.9599 289.424 83.3514C289.814 83.5255 290.183 83.6342 290.486 83.6342C290.833 83.6342 291.158 83.569 291.461 83.4384C291.764 83.3079 292.024 83.1121 292.263 82.8946C292.479 82.6553 292.674 82.3943 292.804 82.0679C292.934 81.7634 292.999 81.4153 292.999 81.0673C292.999 80.3276 292.783 79.7403 292.328 79.3052ZM184.579 81.6111C181.936 78.9136 178.751 77.5649 175.089 77.5649C171.428 77.5649 168.221 78.9136 165.599 81.6111C162.978 84.3086 161.678 87.5499 161.678 91.3569C161.678 95.1638 162.999 98.4051 165.599 101.103C168.221 103.8 171.384 105.149 175.089 105.149C178.794 105.149 181.936 103.8 184.579 101.103C187.201 98.4486 188.501 95.1855 188.501 91.3569C188.479 89.4425 188.154 87.6804 187.504 86.0707C186.854 84.4609 185.879 82.9599 184.579 81.6111ZM182.846 94.707C182.413 95.7511 181.806 96.6648 181.048 97.4479C180.289 98.2311 179.401 98.8619 178.383 99.3188C177.364 99.7756 176.259 100.015 175.089 100.015C173.919 100.015 172.814 99.7974 171.774 99.3188C170.756 98.8619 169.868 98.2311 169.109 97.4479C168.351 96.6648 167.766 95.7511 167.333 94.707C166.899 93.6628 166.683 92.5316 166.683 91.3569C166.683 90.1821 166.899 89.0509 167.333 88.0068C167.766 86.9626 168.373 86.0489 169.109 85.2658C169.868 84.4826 170.756 83.8735 171.774 83.3949C172.793 82.9381 173.898 82.6988 175.089 82.6988C176.281 82.6988 177.343 82.9163 178.383 83.3949C179.401 83.8518 180.289 84.4826 181.048 85.2658C181.806 86.0489 182.413 86.9626 182.846 88.0068C183.279 89.0509 183.496 90.1604 183.496 91.3351C183.496 92.5316 183.279 93.641 182.846 94.707ZM240.393 80.1318C240.393 79.7838 240.328 79.4575 240.198 79.1529C240.068 78.8484 239.894 78.5656 239.656 78.3263C239.439 78.087 239.158 77.8912 238.854 77.7824C238.551 77.6519 238.226 77.5866 237.879 77.5866C237.381 77.5866 236.926 77.7172 236.536 77.9782L222.193 87.5499V68.3412C222.193 67.6234 221.954 67.0143 221.456 66.5139C220.958 66.0136 220.394 65.7525 219.701 65.7525C219.008 65.7525 218.401 66.0136 217.924 66.5139C217.426 67.0143 217.188 67.6234 217.188 68.3412V102.56C217.188 103.278 217.426 103.887 217.924 104.387C218.423 104.888 219.008 105.149 219.701 105.149C220.394 105.149 220.979 104.888 221.456 104.387C221.954 103.887 222.193 103.278 222.193 102.56V93.6628L225.118 91.6832L236.189 104.453C236.644 104.888 237.208 105.105 237.858 105.105C238.204 105.105 238.529 105.04 238.833 104.91C239.136 104.779 239.396 104.583 239.634 104.366C239.851 104.126 240.046 103.865 240.176 103.539C240.306 103.234 240.371 102.886 240.371 102.56C240.371 101.886 240.133 101.298 239.678 100.755L229.408 88.8552L239.461 82.155C240.089 81.7199 240.393 81.0455 240.393 80.1318ZM198.771 85.244C199.529 84.4609 200.439 83.8518 201.458 83.3949C202.476 82.9381 203.581 82.7206 204.751 82.7206C205.813 82.7206 206.788 82.8946 207.676 83.2644C208.564 83.6342 209.431 84.1563 210.233 84.8524C210.709 85.244 211.251 85.4398 211.858 85.4398C212.573 85.4398 213.179 85.2005 213.634 84.7002C214.111 84.1998 214.349 83.5907 214.349 82.8511C214.349 82.1115 214.068 81.4371 213.483 80.915C211.013 78.6743 208.109 77.5649 204.729 77.5649C201.024 77.5649 197.861 78.9136 195.239 81.6111C192.618 84.3086 191.318 87.5499 191.318 91.3569C191.318 95.1638 192.639 98.4051 195.239 101.103C197.861 103.8 201.024 105.149 204.729 105.149C208.088 105.149 211.013 104.039 213.483 101.799C214.003 101.255 214.284 100.624 214.284 99.9061C214.284 99.1883 214.046 98.5574 213.569 98.0788C213.093 97.6002 212.508 97.3609 211.793 97.3609C211.186 97.3827 210.666 97.5567 210.211 97.9048C209.409 98.6227 208.564 99.1447 207.676 99.4928C206.788 99.8409 205.813 100.015 204.751 100.015C203.581 100.015 202.498 99.7974 201.458 99.3405C200.439 98.8837 199.529 98.2746 198.771 97.4914C198.013 96.7301 197.406 95.7946 196.951 94.7505C196.518 93.7063 196.301 92.5751 196.301 91.3786C196.301 90.1821 196.518 89.0509 196.951 88.0068C197.406 86.9408 198.013 86.0489 198.771 85.244Z" fill="#1D63ED"/>
</g>
<defs>
<clipPath id="clip0_462_1919">
<rect width="260" height="67.2195" fill="white" transform="translate(33 46)"/>
</clipPath>
</defs>
</svg>
