<?xml version="1.0"?>
<svg xmlns="http://www.w3.org/2000/svg" width="320" height="160" viewBox="0 0 320 160" fill="none">
<path d="M57.4247 59.6901C52.528 54.7934 47.8824 50.1478 46.5013 45C45.1201 50.2734 40.4746 54.9189 35.5779 59.6901C28.2956 66.9724 20.0089 75.2591 20.0089 87.6892C19.6322 102.254 31.3089 114.433 45.8735 114.684C60.438 115.06 72.617 103.384 72.8681 88.8192C72.8681 88.4425 72.8681 88.0658 72.8681 87.6892C72.9937 75.2591 64.7069 66.9724 57.4247 59.6901ZM33.569 90.0747C32.8156 91.0792 32.0623 92.2092 31.56 93.3392C31.4345 93.4648 31.3089 93.7159 31.0578 93.7159H30.8067C30.1789 93.7159 29.5511 92.5859 29.5511 92.5859C29.4256 92.3347 29.1745 91.9581 29.0489 91.707L28.9234 91.4558C27.4167 87.9403 28.7978 82.918 28.7978 82.918C29.4256 80.5324 30.5556 78.1469 31.9367 76.138C32.8156 74.8824 33.8201 73.6269 34.8245 72.3713L36.0801 73.6269L41.9812 79.6535C42.2323 79.9047 42.2323 80.2813 41.9812 80.5325L35.829 87.438L33.569 90.0747ZM46.7524 107.402C41.7301 107.402 37.5868 103.258 37.7123 98.2359C37.7123 95.9759 38.5912 93.8414 39.9723 92.2092C41.8557 89.9492 44.2412 87.6892 46.8779 84.6758C49.8913 87.9403 51.9002 90.0747 53.7835 92.5859C53.9091 92.7114 54.0346 92.9625 54.1602 93.2136C55.1646 94.7203 55.7924 96.4781 55.7924 98.3615C55.918 103.258 51.7746 107.402 46.7524 107.402ZM63.9536 92.837C63.828 93.2136 63.4514 93.4647 63.0747 93.5903H62.9491C62.5725 93.4647 62.3214 93.2136 62.0703 92.9625C60.438 90.577 58.6802 88.3169 56.6713 86.308L54.2858 83.7969L46.2501 75.3846C44.6179 73.878 42.9857 72.1202 41.479 70.4879C41.479 70.3624 41.3534 70.3624 41.3534 70.3624C41.1023 69.9857 40.8512 69.609 40.7257 69.1068C40.7257 68.9813 40.7257 68.9813 40.7257 68.8557C40.4746 67.4746 40.9768 66.0935 41.9812 65.089C43.4879 63.5823 45.1201 61.9501 46.6268 60.3179C48.259 62.0757 50.0168 63.8335 51.7746 65.5912C55.2902 68.8557 58.4291 72.4968 61.3169 76.3891C63.7025 79.7791 64.958 83.6714 64.958 87.8147C64.7069 89.4469 64.4558 91.2047 63.9536 92.837Z" fill="#009CDE"/>
<path d="M190.639 71.3667H181.975V87.5635C181.975 92.3346 179.967 96.1013 175.195 96.1013C170.424 96.1013 168.415 92.2091 168.415 87.5635V71.3667H159.752V87.5635C159.752 96.8546 165.779 104.514 175.07 104.514C184.361 104.514 190.513 96.9802 190.513 87.5635V71.3667H190.639Z" fill="#009CDE"/>
<path d="M277.273 61.4502H268.609V103.512H277.273V61.4502Z" fill="#009CDE"/>
<path d="M283.553 62.9569V61.4502H290.207V62.9569H287.822V69.6114H285.938V62.9569H283.553Z" fill="#009CDE"/>
<path d="M295.606 67.1002L297.364 61.4502H300V69.6114H298.243V63.8358L296.234 69.6114H294.853L292.844 63.9613V69.6114H291.086V61.4502H293.723L295.606 67.1002Z" fill="#009CDE"/>
<path d="M152.85 70.9871C145.442 69.2293 140.796 76.6371 140.545 77.0138C140.42 77.2649 140.42 77.2649 140.168 77.2649C139.917 77.2649 139.792 77.0138 139.792 77.0138L138.913 71.3638H131.254V103.506H139.917V86.0538C139.917 84.6727 143.684 77.7671 151.217 79.5249C153.226 79.9016 154.984 80.7805 156.616 82.036V72.2427C155.361 71.7404 154.105 71.2382 152.85 70.9871Z" fill="#009CDE"/>
<path d="M210.729 79.1513C215.501 79.1513 219.393 83.0436 219.393 87.8147C219.393 92.5858 215.501 96.4781 210.729 96.4781C205.958 96.4781 202.066 92.5858 202.066 87.8147C202.066 82.918 205.958 79.0257 210.729 79.1513C210.729 79.0257 210.729 79.0257 210.729 79.1513ZM202.317 114.056V102.505V98.1103C202.317 98.1103 202.317 97.7336 202.694 97.7336C203.07 97.7336 203.07 97.9848 203.07 98.1103C205.079 102.881 210.353 105.393 215.375 104.011C224.415 101.5 229.688 92.0836 227.177 83.0436C224.666 74.0035 215.249 68.7301 206.209 71.2413C198.927 73.2502 193.779 80.0302 193.779 87.6891V114.056H202.317Z" fill="#009CDE"/>
<path d="M256.682 87.6914C256.682 92.4625 252.79 96.3548 248.019 96.3548C243.248 96.3548 239.356 92.4625 239.356 87.6914C239.356 82.9202 243.248 79.028 248.019 79.028C252.79 79.1536 256.682 82.9202 256.682 87.6914ZM256.431 103.511H265.095V87.6914C265.095 78.2747 257.436 70.6157 248.019 70.6157C238.602 70.6157 230.943 78.2747 230.943 87.6914C230.943 95.3503 235.966 102.005 243.373 104.139C248.396 105.52 253.669 103.009 255.678 98.2381C255.804 98.1126 255.804 97.8615 256.055 97.8615C256.306 97.8615 256.431 98.2381 256.431 98.2381" fill="#009CDE"/>
<path d="M106.394 68.7325H102.878V96.2293L106.394 96.3549C113.676 96.3549 118.447 95.7271 118.447 82.5437C118.573 69.8625 114.429 68.7325 106.394 68.7325ZM104.134 103.512H94.2148V61.4502H104.762C117.568 61.4502 127.236 63.8358 127.236 82.5437C127.236 101.252 117.066 103.512 104.134 103.512Z" fill="#009CDE"/>
</svg>
