<?xml version="1.0"?>
<svg xmlns="http://www.w3.org/2000/svg" width="320" height="160" viewBox="0 0 320 160" fill="none">
<g clip-path="url(#clip0_462_2017)">
<path d="M99.423 87.5738C96.6913 87.5738 94.506 86.7531 92.9352 85.1801C91.3645 83.607 90.6133 81.3501 90.6133 78.546C90.6133 75.6735 91.3645 73.3482 92.7987 71.7068C94.2328 70.0653 96.2133 69.2446 98.7401 69.2446C101.062 69.2446 102.906 69.9286 104.272 71.3648C105.638 72.801 106.321 74.716 106.321 77.2465V79.2983H94.506C94.5743 81.0081 95.0523 82.3076 95.8718 83.2651C96.6913 84.2226 97.9889 84.6329 99.5596 84.6329C100.584 84.6329 101.608 84.5645 102.496 84.3594C103.384 84.1542 104.34 83.8122 105.433 83.4019V86.4795C104.545 86.8899 103.589 87.2318 102.633 87.437C101.677 87.6422 100.584 87.5738 99.423 87.5738ZM98.6718 72.1171C97.4426 72.1171 96.4865 72.5275 95.8035 73.2798C95.1206 74.0321 94.6426 75.1264 94.506 76.631H102.565C102.565 75.1948 102.223 74.0321 101.54 73.2798C100.857 72.5275 99.9011 72.1171 98.6718 72.1171Z" fill="black"/>
<path d="M114.311 87.3001H110.555V62.3369H114.311V87.3001Z" fill="black"/>
<path d="M130.769 87.3002L130.018 84.838H129.881C129.062 85.9323 128.174 86.6846 127.286 87.0266C126.398 87.3686 125.306 87.6421 123.94 87.6421C122.233 87.6421 120.867 87.1634 119.842 86.2059C118.818 85.2484 118.408 83.9489 118.408 82.2391C118.408 80.3925 119.091 79.0247 120.457 78.1356C121.823 77.2465 123.872 76.6993 126.672 76.6309L129.745 76.5626V75.6051C129.745 74.4424 129.472 73.6217 128.925 73.0745C128.379 72.5274 127.559 72.2538 126.467 72.2538C125.579 72.2538 124.691 72.3906 123.872 72.6642C123.052 72.9377 122.233 73.2797 121.481 73.6217L120.252 70.9544C121.208 70.4756 122.233 70.0653 123.394 69.7917C124.555 69.5181 125.579 69.3813 126.603 69.3813C128.857 69.3813 130.564 69.8601 131.725 70.886C132.886 71.9119 133.433 73.4165 133.433 75.5367V87.3002H130.769ZM125.169 84.7012C126.535 84.7012 127.628 84.2909 128.447 83.5386C129.267 82.7863 129.676 81.692 129.676 80.3241V78.8195L127.423 78.8879C125.647 78.9563 124.35 79.2299 123.53 79.777C122.711 80.3241 122.301 81.1448 122.301 82.2391C122.301 83.0598 122.506 83.6754 122.984 84.0857C123.462 84.4961 124.213 84.7012 125.169 84.7012Z" fill="black"/>
<path d="M150.573 82.2393C150.573 83.9491 149.958 85.3169 148.661 86.206C147.363 87.0951 145.588 87.5739 143.266 87.5739C140.876 87.5739 139.032 87.2319 137.598 86.4796V83.1967C139.646 84.1542 141.627 84.633 143.402 84.633C145.724 84.633 146.885 83.9491 146.885 82.5128C146.885 82.0341 146.749 81.6921 146.476 81.4185C146.202 81.145 145.793 80.803 145.178 80.4611C144.563 80.1191 143.744 79.7771 142.719 79.3668C140.671 78.5461 139.305 77.7937 138.554 76.973C137.802 76.1523 137.461 75.1264 137.461 73.8954C137.461 72.3907 138.076 71.2281 139.305 70.339C140.534 69.4499 142.173 69.1079 144.29 69.1079C146.339 69.1079 148.319 69.5183 150.163 70.4074L148.934 73.2115C147.022 72.3907 145.451 72.0488 144.085 72.0488C142.105 72.0488 141.08 72.5959 141.08 73.7586C141.08 74.3057 141.354 74.7845 141.832 75.1948C142.31 75.6052 143.471 76.0839 145.246 76.7679C146.68 77.315 147.773 77.8621 148.456 78.3409C149.139 78.8196 149.617 79.3668 149.958 79.9823C150.437 80.6662 150.573 81.3502 150.573 82.2393Z" fill="black"/>
<path d="M161.228 84.5643C162.116 84.5643 163.072 84.4275 163.96 84.1539V86.958C163.55 87.1632 163.003 87.3 162.321 87.4368C161.638 87.5736 160.955 87.6419 160.272 87.6419C156.721 87.6419 154.945 85.727 154.945 82.0338V72.4588H152.555V70.8174L155.15 69.4496L156.447 65.688H158.769V69.6547H163.823V72.5272H158.769V82.0338C158.769 82.9229 158.974 83.6068 159.452 84.0171C159.93 84.4275 160.545 84.5643 161.228 84.5643Z" fill="black"/>
<path d="M167.307 64.8677C167.307 64.1838 167.512 63.7051 167.853 63.2947C168.194 62.8843 168.741 62.7476 169.424 62.7476C170.107 62.7476 170.585 62.9527 170.994 63.2947C171.404 63.6367 171.541 64.1838 171.541 64.8677C171.541 65.4833 171.336 66.0304 170.994 66.3724C170.653 66.7143 170.107 66.9195 169.424 66.9195C168.741 66.9195 168.194 66.7143 167.853 66.3724C167.512 66.0304 167.307 65.4833 167.307 64.8677ZM171.336 87.3004H167.58V69.5868H171.336V87.3004Z" fill="black"/>
<path d="M183.834 87.5738C181.17 87.5738 179.122 86.8215 177.756 85.2485C176.39 83.6755 175.639 81.4185 175.639 78.4776C175.639 75.4684 176.39 73.2114 177.824 71.57C179.258 69.9286 181.375 69.1763 184.107 69.1763C185.951 69.1763 187.658 69.5182 189.161 70.2022L188 73.2114C186.429 72.5959 185.131 72.2539 184.039 72.2539C180.966 72.2539 179.463 74.3057 179.463 78.3409C179.463 80.3242 179.873 81.8289 180.624 82.8548C181.375 83.8806 182.536 84.3594 183.97 84.3594C185.678 84.3594 187.248 83.949 188.751 83.1283V86.4112C188.068 86.8215 187.385 87.0951 186.566 87.2319C185.746 87.3686 184.926 87.5738 183.834 87.5738Z" fill="black"/>
<path d="M204.8 82.2393C204.8 83.9491 204.185 85.3169 202.887 86.206C201.59 87.0951 199.814 87.5739 197.492 87.5739C195.102 87.5739 193.258 87.2319 191.824 86.4796V83.1967C193.873 84.1542 195.853 84.633 197.629 84.633C199.951 84.633 201.112 83.9491 201.112 82.5128C201.112 82.0341 200.975 81.6921 200.702 81.4185C200.429 81.145 200.019 80.803 199.405 80.4611C198.79 80.1191 197.97 79.7771 196.946 79.3668C194.897 78.5461 193.531 77.7937 192.78 76.973C192.029 76.1523 191.688 75.1264 191.688 73.8954C191.688 72.3907 192.302 71.2281 193.531 70.339C194.761 69.4499 196.4 69.1079 198.517 69.1079C200.566 69.1079 202.546 69.5183 204.39 70.4074L203.161 73.2115C201.248 72.3907 199.678 72.0488 198.312 72.0488C196.331 72.0488 195.307 72.5959 195.307 73.7586C195.307 74.3057 195.58 74.7845 196.058 75.1948C196.536 75.6052 197.697 76.0839 199.473 76.7679C200.907 77.315 202 77.8621 202.683 78.3409C203.366 78.8196 203.844 79.3668 204.185 79.9823C204.663 80.6662 204.8 81.3502 204.8 82.2393Z" fill="black"/>
<path d="M216.612 87.5738C213.881 87.5738 211.695 86.7531 210.125 85.1801C208.554 83.607 207.803 81.3501 207.803 78.546C207.803 75.6735 208.554 73.3482 209.988 71.7068C211.422 70.0653 213.403 69.2446 215.93 69.2446C218.252 69.2446 220.095 69.9286 221.461 71.3648C222.827 72.801 223.51 74.716 223.51 77.2465V79.2983H211.695C211.764 81.0081 212.242 82.3076 213.061 83.2651C213.881 84.2226 215.178 84.6329 216.749 84.6329C217.773 84.6329 218.798 84.5645 219.686 84.3594C220.573 84.1542 221.53 83.8122 222.622 83.4019V86.4795C221.734 86.8899 220.778 87.2318 219.822 87.437C218.866 87.6422 217.842 87.5738 216.612 87.5738ZM215.93 72.1171C214.7 72.1171 213.744 72.5275 213.061 73.2798C212.378 74.0321 211.9 75.1264 211.764 76.631H219.822C219.822 75.1948 219.481 74.0321 218.798 73.2798C218.115 72.5275 217.091 72.1171 215.93 72.1171Z" fill="black"/>
<path d="M238.808 87.3002L238.057 84.838H237.92C237.101 85.9323 236.213 86.6846 235.325 87.0266C234.438 87.3686 233.345 87.6421 231.979 87.6421C230.272 87.6421 228.906 87.1634 227.881 86.2059C226.857 85.2484 226.447 83.9489 226.447 82.2391C226.447 80.3925 227.13 79.0247 228.496 78.1356C229.862 77.2465 231.911 76.6993 234.711 76.6309L237.784 76.5626V75.6051C237.784 74.4424 237.511 73.6217 236.964 73.0745C236.418 72.5274 235.598 72.2538 234.506 72.2538C233.618 72.2538 232.73 72.3906 231.911 72.6642C231.091 72.9377 230.272 73.2797 229.52 73.6217L228.291 70.9544C229.247 70.4756 230.272 70.0653 231.433 69.7917C232.594 69.5181 233.618 69.3813 234.642 69.3813C236.896 69.3813 238.603 69.8601 239.764 70.886C240.925 71.9119 241.472 73.4165 241.472 75.5367V87.3002H238.808ZM233.208 84.7012C234.574 84.7012 235.667 84.2909 236.486 83.5386C237.306 82.7863 237.716 81.692 237.716 80.3241V78.8195L235.462 78.8879C233.686 78.9563 232.389 79.2299 231.569 79.777C230.75 80.3241 230.34 81.1448 230.34 82.2391C230.34 83.0598 230.545 83.6754 231.023 84.0857C231.501 84.4961 232.32 84.7012 233.208 84.7012Z" fill="black"/>
<path d="M255.745 69.2446C256.496 69.2446 257.111 69.313 257.589 69.3814L257.248 72.8694C256.701 72.7326 256.155 72.6642 255.609 72.6642C254.106 72.6642 252.877 73.143 251.921 74.1689C250.965 75.1948 250.487 76.4258 250.487 77.9989V87.3002H246.73V69.5866H249.667L250.145 72.7326H250.35C250.965 71.7068 251.716 70.8177 252.672 70.2021C253.628 69.5866 254.652 69.2446 255.745 69.2446Z" fill="black"/>
<path d="M268.037 87.5738C265.374 87.5738 263.325 86.8215 261.959 85.2485C260.593 83.6755 259.842 81.4185 259.842 78.4776C259.842 75.4684 260.593 73.2114 262.027 71.57C263.461 69.9286 265.578 69.1763 268.31 69.1763C270.154 69.1763 271.861 69.5182 273.364 70.2022L272.203 73.2114C270.632 72.5959 269.334 72.2539 268.242 72.2539C265.169 72.2539 263.666 74.3057 263.666 78.3409C263.666 80.3242 264.076 81.8289 264.827 82.8548C265.578 83.8806 266.739 84.3594 268.173 84.3594C269.881 84.3594 271.452 83.949 272.954 83.1283V86.4112C272.271 86.8215 271.588 87.0951 270.769 87.2319C269.949 87.3686 269.13 87.5738 268.037 87.5738Z" fill="black"/>
<path d="M292.69 87.3001H288.934V76.3574C288.934 74.9895 288.661 73.9636 288.114 73.2797C287.568 72.5958 286.68 72.2538 285.519 72.2538C283.948 72.2538 282.788 72.7326 282.036 73.6901C281.285 74.6475 280.944 76.2206 280.944 78.4091V87.3001H277.188V62.3369H280.944V68.6974C280.944 69.7233 280.875 70.8176 280.739 71.9802H281.012C281.558 71.1595 282.241 70.4756 283.129 69.9969C284.017 69.5181 285.109 69.3129 286.339 69.3129C290.641 69.3129 292.758 71.5015 292.758 75.8102V87.3001H292.69Z" fill="black"/>
<path d="M64.2536 71.2275H49.9805C50.0488 71.5695 50.1853 71.9115 50.2536 72.185C50.7317 73.8265 51.0049 75.5363 51.1414 77.3145C51.2097 77.9984 51.2097 78.7507 51.2097 79.4346C51.2097 80.1186 51.2097 80.8709 51.1414 81.5548C51.0049 83.333 50.7317 85.0428 50.2536 86.6842C50.1853 87.0262 50.0488 87.3681 49.9805 87.6417H64.2536C68.761 87.6417 72.3805 83.9485 72.3805 79.4346C72.3805 74.9207 68.761 71.2275 64.2536 71.2275Z" fill="#00A9E5"/>
<path d="M51.1421 81.5548C51.2104 80.8709 51.2104 80.1186 51.2104 79.4346C51.2104 78.7507 51.2104 77.9984 51.1421 77.3145C51.0056 75.5363 50.7324 73.8265 50.2543 72.185C50.186 71.8431 50.0495 71.5011 49.9812 71.2275H27.9226C27.1031 73.8265 26.6934 76.5621 26.6934 79.4346C26.6934 82.3071 27.1031 85.0428 27.9226 87.6417H49.9812C50.0495 87.2998 50.186 86.9578 50.2543 86.6842C50.7324 85.0428 51.0056 83.333 51.1421 81.5548Z" fill="#353535"/>
<path d="M66.7131 90.3774H48.957C48.4107 91.6085 47.796 92.7712 47.1131 93.8655C46.0887 95.5753 44.8594 97.0799 43.4936 98.5161C43.0155 98.9949 42.5375 99.4052 42.0594 99.884C41.1033 100.773 40.0107 101.525 38.918 102.278C43.2204 105.15 48.4107 106.792 53.9424 106.792C63.435 106.792 71.7668 101.936 76.6838 94.6178C74.157 92.0189 70.6058 90.3774 66.7131 90.3774Z" fill="#00BFB3"/>
<path d="M47.1131 93.8655C47.796 92.7712 48.4107 91.6085 48.957 90.3774H28.9473C31.0643 95.2333 34.5473 99.4052 38.9863 102.278C40.079 101.525 41.1034 100.773 42.1278 99.884C42.6058 99.4736 43.0839 98.9949 43.5619 98.5161C44.8595 97.1483 46.0887 95.5753 47.1131 93.8655Z" fill="#019B8F"/>
<path d="M43.4935 60.3529C43.0155 59.8741 42.5374 59.4638 42.0594 58.985C41.1033 58.0959 40.0106 57.3436 38.9179 56.5913C34.5472 59.4638 31.0643 63.6357 28.8789 68.4916H48.8887C48.3423 67.2605 47.7277 66.0979 47.0448 65.0036C46.0887 63.2938 44.8594 61.7207 43.4935 60.3529Z" fill="#F9B110"/>
<path d="M53.9424 52.0776C48.4107 52.0776 43.2204 53.7191 38.918 56.5915C40.0107 57.3439 41.035 58.0962 42.0594 58.9853C42.5375 59.3956 43.0155 59.8744 43.4936 60.3531C44.8594 61.7894 46.0887 63.294 47.1131 65.0038C47.796 66.0981 48.4107 67.2607 48.957 68.4918H66.7131C70.6058 68.4918 74.157 66.8504 76.6838 64.2515C71.7668 56.9335 63.435 52.0776 53.9424 52.0776Z" fill="#FED10A"/>
</g>
<defs>
<clipPath id="clip0_462_2017">
<rect width="280" height="61.5532" fill="white" transform="translate(20 49)"/>
</clipPath>
</defs>
</svg>
