<?xml version="1.0"?>
<svg xmlns="http://www.w3.org/2000/svg" width="320" height="160" viewBox="0 0 320 160" fill="none">
<path fill-rule="evenodd" clip-rule="evenodd" d="M87.554 27.2515C79.7314 30.0324 72.4132 38.1225 65.0951 51.2688C54.2443 71.2411 40.3653 99.5562 59.5436 122.057C68.3755 132.422 83.264 138.49 102.442 128.883C117.835 121.045 122.378 98.545 116.574 88.1796C104.966 66.4376 93.358 61.1285 90.3299 47.7294C88.3107 38.6281 87.3017 31.8021 87.554 27.2515Z" fill="url(#paint0_linear_462_2203)"/>
<path fill-rule="evenodd" clip-rule="evenodd" d="M87.554 27C79.7314 29.7809 72.161 37.871 65.0951 51.0173C54.2443 70.9896 40.3653 99.3047 59.5436 121.805C68.3755 132.17 83.0118 135.457 91.0866 129.39C96.3862 125.344 99.9188 121.552 101.937 113.462C104.209 104.361 102.442 92.4787 101.181 86.664C99.6665 79.5852 99.162 72.0008 99.6666 63.4051C99.6666 63.4051 99.4143 63.4051 99.4143 63.1523C95.1243 58.096 92.0962 53.5454 90.5821 47.2251C88.3107 38.3766 87.3017 31.5506 87.554 27Z" fill="url(#paint1_linear_462_2203)"/>
<path fill-rule="evenodd" clip-rule="evenodd" d="M80.9926 30.54C73.6745 36.3548 68.3749 45.9617 64.8423 59.3608C59.543 79.5859 59.0384 98.2941 60.8048 109.418C64.3376 130.654 83.2634 138.491 102.442 128.632C114.302 122.564 119.349 109.671 119.097 95.5131C118.844 80.8499 90.5815 64.4171 85.7871 52.282C82.5067 43.9392 80.9926 36.8604 80.9926 30.54Z" fill="url(#paint2_linear_462_2203)"/>
<path fill-rule="evenodd" clip-rule="evenodd" d="M99.4137 68.4612C108.246 79.585 110.012 87.4223 105.218 91.7201C97.8997 98.2932 79.7308 102.591 68.6278 94.7539C61.0573 89.4448 58.2815 78.0682 60.0479 60.624C57.0198 67.1972 54.244 73.5175 52.2252 80.3435C50.2065 86.9166 49.4494 93.9954 50.4588 101.074C53.2346 106.383 59.5433 110.175 69.8896 111.945C85.2826 114.726 99.9188 113.209 109.76 108.406C116.321 105.119 119.349 101.833 119.097 98.5461C119.349 93.7426 117.835 89.192 114.554 84.6413C111.526 80.0907 106.48 74.7816 99.4137 68.4612Z" fill="url(#paint3_linear_462_2203)"/>
<path fill-rule="evenodd" clip-rule="evenodd" d="M65.3476 57.3354C65.3476 65.4255 67.3662 73.0099 71.6561 80.3415C77.9647 91.2125 85.2828 102.083 96.3858 110.932C103.704 116.999 109.76 118.769 114.05 116.747C110.517 123.32 106.48 126.354 102.442 126.354C96.3858 126.101 88.8154 123.573 76.9551 109.162C68.8802 99.5553 63.5809 90.454 60.5527 81.8584C61.0575 78.5718 61.5621 75.0324 62.0668 71.7458C62.8238 68.4592 63.8332 63.6558 65.3476 57.3354Z" fill="url(#paint4_linear_462_2203)"/>
<path fill-rule="evenodd" clip-rule="evenodd" d="M84.2756 68.4584C85.0323 75.0316 87.556 85.6498 84.2756 92.4757C80.9946 99.5545 66.1067 112.195 70.1439 123.319C74.1816 134.443 84.2756 131.915 90.5841 126.858C96.8927 121.802 100.173 113.459 100.93 107.392C101.687 101.577 99.1635 90.2004 98.4067 80.3407C97.9022 73.7675 98.1545 68.2056 99.4163 63.4021L97.3972 60.874L86.0419 57.5874C84.5278 60.3684 83.7705 63.9077 84.2756 68.4584Z" fill="url(#paint5_linear_462_2203)"/>
<path fill-rule="evenodd" clip-rule="evenodd" d="M88.3111 35.8477C84.5262 37.3645 81.2458 40.3983 77.9654 45.2018C72.9181 52.0277 70.3951 56.3256 72.4136 69.9775C73.6755 79.0788 74.4322 87.4216 75.1895 95.2589L91.087 48.994C90.5825 46.7186 90.078 44.4433 89.5729 42.6736C88.8162 40.3983 88.5639 38.3758 88.3111 35.8477Z" fill="url(#paint6_linear_462_2203)"/>
<path fill-rule="evenodd" clip-rule="evenodd" d="M90.8363 48.7397C86.7992 51.0151 83.771 56.0713 81.4997 63.1501C79.2288 70.4818 77.2097 80.5943 75.4434 93.7406C77.967 85.3978 79.4811 79.3302 80.2378 75.538C81.4997 69.9761 81.7519 61.8861 85.0329 56.577C87.0514 53.0376 89.07 50.5094 90.8363 48.7397Z" fill="#330A4C" fill-opacity="0.316"/>
<path fill-rule="evenodd" clip-rule="evenodd" d="M71.9082 127.112C78.4696 128.124 82.0022 128.882 82.2545 129.64C82.759 130.652 81.4977 131.663 77.7122 131.157C75.4414 130.652 73.4223 129.388 71.9082 127.112Z" fill="white"/>
<path fill-rule="evenodd" clip-rule="evenodd" d="M75.4407 35.8477C71.9081 40.1455 68.6271 44.9489 65.8518 49.7524C63.0758 54.5559 61.3093 58.348 60.0476 60.6233C59.7953 62.393 59.543 65.174 59.543 68.7134C59.543 72.2528 59.7953 76.045 60.5523 80.3429C61.057 72 62.5711 63.6571 65.3467 55.8199C67.8704 47.9827 71.403 41.1567 75.4407 35.8477Z" fill="#EDEDED" fill-opacity="0.603"/>
<path d="M144.584 97.537H164.519C165.024 97.537 165.276 97.2841 165.276 96.7785C167.295 77.0591 152.911 78.5759 152.911 78.5759C142.817 78.5759 138.527 86.4132 138.527 96.0201C138.527 105.627 146.35 112.959 155.939 112.2C161.743 111.695 163.258 109.419 164.267 108.408C164.519 108.155 164.519 107.65 164.267 107.397L162.5 105.627C162.248 105.374 161.743 105.374 161.491 105.627C154.93 110.178 144.331 107.144 143.827 98.2954C143.827 97.7898 144.079 97.537 144.584 97.537ZM152.911 83.6322C156.696 83.6322 159.472 85.9075 159.977 91.7222C159.977 92.2279 159.724 92.4807 159.22 92.4807H144.836C144.331 92.4807 144.079 92.2279 144.079 91.7222C144.331 86.1603 149.126 83.6322 152.911 83.6322ZM173.856 65.1768H177.893C178.398 65.1768 178.651 65.4296 178.651 65.9352V102.34C178.651 107.902 182.183 107.144 183.95 106.891C184.455 106.891 184.707 107.144 184.707 107.65V111.442C184.707 111.947 184.455 112.2 183.95 112.2C173.856 111.947 172.847 107.397 172.847 103.099V65.9352C173.099 65.6824 173.351 65.1768 173.856 65.1768ZM192.782 79.5872H197.072C197.576 79.5872 197.828 79.84 197.828 80.3456V111.189C197.828 111.695 197.576 111.947 197.072 111.947H192.782C192.277 111.947 192.025 111.695 192.025 111.189V80.3456C192.025 79.84 192.277 79.5872 192.782 79.5872ZM192.782 70.7387H197.072C197.576 70.7387 197.828 70.4859 197.828 69.9803V65.9352C197.828 65.4296 197.576 65.1768 197.072 65.1768H192.782C192.277 65.1768 192.025 65.4296 192.025 65.9352V69.9803C192.025 70.4859 192.277 70.7387 192.782 70.7387ZM239.213 79.5872H243.503C244.008 79.5872 244.26 79.84 244.26 80.3456V111.189C244.26 111.695 244.008 111.947 243.503 111.947H239.213C238.708 111.947 238.456 111.695 238.456 111.189V80.3456C238.456 79.84 238.708 79.5872 239.213 79.5872ZM269.999 79.3344V83.6322C269.999 84.1378 269.747 84.3907 269.243 84.3907C262.177 84.6435 260.158 86.9188 260.158 90.711V110.936C260.158 111.442 259.905 111.695 259.401 111.695H255.111C254.606 111.695 254.354 111.442 254.354 110.936V80.3456C254.354 79.84 254.606 79.5872 255.111 79.5872H259.401C259.905 79.5872 260.158 79.84 260.158 80.3456V82.621C261.167 81.1041 263.691 79.0816 269.243 78.8287C269.747 78.5759 269.999 78.8287 269.999 79.3344ZM239.213 70.7387H243.503C244.008 70.7387 244.26 70.4859 244.26 69.9803V65.9352C244.26 65.4296 244.008 65.1768 243.503 65.1768H239.213C238.708 65.1768 238.456 65.4296 238.456 65.9352V69.9803C238.456 70.4859 238.708 70.7387 239.213 70.7387ZM231.895 110.683L221.297 95.5144C221.045 95.2616 221.045 95.0088 221.297 94.756L230.634 80.8513C230.886 80.3456 230.634 79.84 230.129 79.84H226.091C225.839 79.84 225.587 79.84 225.587 80.0928L218.773 89.9525C218.521 90.4582 217.764 90.4582 217.512 89.9525L210.698 80.0928C210.446 79.84 210.446 79.84 210.194 79.84H206.156C205.652 79.84 205.147 80.5984 205.652 80.8513L214.988 94.756C215.241 95.0088 215.241 95.2616 214.988 95.5144L204.39 110.683C204.138 111.189 204.39 111.947 204.894 111.947H209.689C209.941 111.947 210.194 111.947 210.194 111.695L217.512 100.824C217.764 100.318 218.521 100.318 218.773 100.824L226.091 111.695C226.344 111.947 226.344 111.947 226.596 111.947H231.391C231.895 111.695 232.4 111.189 231.895 110.683Z" fill="#4D4D4D"/>
<defs>
<linearGradient id="paint0_linear_462_2203" x1="85.4803" y1="35.0594" x2="81.7612" y2="133.809" gradientUnits="userSpaceOnUse">
<stop stop-color="#D9D8DC"/>
<stop offset="1" stop-color="white" stop-opacity="0.385"/>
</linearGradient>
<linearGradient id="paint1_linear_462_2203" x1="84.1314" y1="33.4166" x2="45.3036" y2="118.356" gradientUnits="userSpaceOnUse">
<stop stop-color="#8D67AF" stop-opacity="0.672"/>
<stop offset="1" stop-color="#9F8DAF"/>
</linearGradient>
<linearGradient id="paint2_linear_462_2203" x1="89.5764" y1="62.6007" x2="89.5764" y2="130.969" gradientUnits="userSpaceOnUse">
<stop stop-color="#26053D" stop-opacity="0.762"/>
<stop offset="1" stop-color="#B7B4B4" stop-opacity="0.278"/>
</linearGradient>
<linearGradient id="paint3_linear_462_2203" x1="64.1054" y1="64.5574" x2="81.5347" y2="110.638" gradientUnits="userSpaceOnUse">
<stop stop-color="#91739F" stop-opacity="0.46"/>
<stop offset="1" stop-color="#32054F" stop-opacity="0.54"/>
</linearGradient>
<linearGradient id="paint4_linear_462_2203" x1="103.373" y1="123.993" x2="55.5342" y2="84.4438" gradientUnits="userSpaceOnUse">
<stop stop-color="#463D49" stop-opacity="0.331"/>
<stop offset="1" stop-color="#340A50" stop-opacity="0.821"/>
</linearGradient>
<linearGradient id="paint5_linear_462_2203" x1="91.5504" y1="61.8308" x2="57.7757" y2="113.127" gradientUnits="userSpaceOnUse">
<stop stop-color="#715383" stop-opacity="0.145"/>
<stop offset="1" stop-color="#F4F4F4" stop-opacity="0.234"/>
</linearGradient>
<linearGradient id="paint6_linear_462_2203" x1="97.1422" y1="74.5298" x2="73.2856" y2="73.0764" gradientUnits="userSpaceOnUse">
<stop stop-color="#A5A1A8" stop-opacity="0.356"/>
<stop offset="1" stop-color="#370C50" stop-opacity="0.582"/>
</linearGradient>
</defs>
</svg>
