<?xml version="1.0"?>
<svg xmlns="http://www.w3.org/2000/svg" width="320" height="160" viewBox="0 0 320 160" fill="none">
<g clip-path="url(#clip0_508_11376)">
<path d="M207.117 47H273.247V113.13H207.117V47Z" fill="#F7DF1E"/>
<path d="M251.537 98.6649C252.869 100.841 254.601 102.439 257.667 102.439C260.242 102.439 261.887 101.151 261.887 99.3746C261.887 97.2431 260.196 96.4892 257.363 95.2503L255.809 94.5846C251.326 92.6735 248.345 90.2818 248.345 85.2206C248.345 80.5607 251.897 77.0117 257.447 77.0117C261.397 77.0117 264.239 78.3872 266.286 81.9869L261.448 85.095C260.383 83.1838 259.233 82.4322 257.449 82.4322C255.628 82.4322 254.476 83.5872 254.476 85.095C254.476 86.9599 255.631 87.7137 258.296 88.8688L259.85 89.5345C265.129 91.7984 268.112 94.1063 268.112 99.2975C268.112 104.892 263.716 107.958 257.815 107.958C252.044 107.958 248.315 105.207 246.492 101.603L251.537 98.6649ZM229.587 99.2027C230.563 100.935 231.451 102.399 233.585 102.399C235.626 102.399 236.914 101.601 236.914 98.4951V77.3644H243.128V98.5789C243.128 105.013 239.356 107.943 233.848 107.943C228.872 107.943 225.991 105.368 224.525 102.267L229.587 99.2027Z" fill="black"/>
</g>
<path d="M48.8397 64.8284H70.4755V66.5413H50.823V79.4326H69.3036V81.1454H50.823V95.2989H70.7009V97.0117H48.8397V64.8284ZM80.0571 84.8416L71.583 73.8434H73.972L81.229 83.5344L88.5311 73.8434H90.7397L82.3559 84.8416L91.506 97.0117H89.1621L81.229 86.1487L73.1156 97.0117H70.952L80.0571 84.8416ZM95.8934 79.1622H95.9835C96.1638 78.5912 96.4643 77.9602 96.885 77.269C97.3057 76.5779 97.8617 75.9468 98.5528 75.3759C99.2439 74.7749 100.07 74.2791 101.032 73.8884C102.024 73.4978 103.15 73.3025 104.413 73.3025C106.185 73.3025 107.718 73.633 109.01 74.2941C110.332 74.9552 111.414 75.8417 112.255 76.9535C113.127 78.0653 113.773 79.3575 114.194 80.8299C114.614 82.3024 114.825 83.8499 114.825 85.4726C114.825 87.2455 114.614 88.8682 114.194 90.3407C113.773 91.8131 113.127 93.0902 112.255 94.172C111.414 95.2238 110.332 96.0501 109.01 96.6511C107.718 97.2521 106.185 97.5526 104.413 97.5526C102.489 97.5526 100.776 97.1319 99.274 96.2905C97.7715 95.4491 96.6747 94.0819 95.9835 92.1887H95.8934V105.305H94.1806V73.8434H95.8934V79.1622ZM104.413 96.0652C105.915 96.0652 107.207 95.7797 108.289 95.2087C109.401 94.6378 110.302 93.8715 110.993 92.9099C111.715 91.9483 112.24 90.8365 112.571 89.5744C112.932 88.2823 113.112 86.915 113.112 85.4726C113.112 84.1504 112.947 82.8583 112.616 81.5962C112.286 80.3041 111.775 79.1622 111.084 78.1705C110.392 77.1488 109.491 76.3375 108.379 75.7365C107.297 75.1054 105.975 74.7899 104.413 74.7899C102.88 74.7899 101.573 75.0904 100.491 75.6914C99.4092 76.2924 98.5228 77.0887 97.8316 78.0804C97.1705 79.072 96.6897 80.2139 96.3892 81.506C96.0887 82.7681 95.9385 84.0903 95.9385 85.4726C95.9385 86.8549 96.0737 88.1921 96.3441 89.4843C96.6146 90.7463 97.0653 91.8732 97.6964 92.8649C98.3575 93.8264 99.2289 94.6077 100.311 95.2087C101.423 95.7797 102.79 96.0652 104.413 96.0652ZM120.534 78.9819H120.669C120.88 78.2306 121.255 77.5245 121.796 76.8634C122.367 76.2023 123.043 75.6313 123.825 75.1505C124.636 74.6697 125.522 74.3091 126.484 74.0687C127.476 73.7983 128.497 73.6781 129.549 73.7081V75.421C128.648 75.3008 127.611 75.3909 126.439 75.6914C125.297 75.9919 124.2 76.653 123.148 77.6747C122.728 78.1254 122.352 78.5612 122.022 78.9819C121.721 79.4026 121.466 79.8683 121.255 80.3792C121.045 80.89 120.88 81.461 120.759 82.092C120.639 82.7231 120.564 83.4743 120.534 84.3457V97.0117H118.821V73.8434H120.534V78.9819ZM131.514 85.6529V85.9234C131.514 87.2756 131.695 88.5677 132.055 89.7998C132.416 91.0318 132.942 92.1136 133.633 93.0452C134.354 93.9767 135.241 94.7129 136.292 95.2538C137.374 95.7947 138.621 96.0652 140.033 96.0652C142.347 96.0652 144.18 95.4642 145.533 94.2622C146.885 93.0301 147.816 91.3323 148.327 89.1687H150.04C149.529 91.8732 148.417 93.9466 146.704 95.389C145.022 96.8314 142.783 97.5526 139.988 97.5526C138.276 97.5526 136.773 97.2521 135.481 96.6511C134.219 96.0201 133.152 95.1787 132.281 94.1269C131.439 93.0452 130.808 91.7831 130.387 90.3407C129.967 88.8682 129.756 87.2906 129.756 85.6078C129.756 83.9851 129.967 82.4376 130.387 80.9651C130.838 79.4627 131.499 78.1555 132.371 77.0437C133.242 75.9018 134.324 75.0003 135.616 74.3392C136.938 73.648 138.486 73.3025 140.259 73.3025C141.881 73.3025 143.309 73.603 144.541 74.204C145.803 74.8049 146.855 75.6313 147.696 76.6831C148.538 77.7047 149.169 78.9067 149.589 80.289C150.04 81.6413 150.265 83.0987 150.265 84.6613C150.265 84.8115 150.25 84.9918 150.22 85.2022C150.22 85.3825 150.22 85.5327 150.22 85.6529H131.514ZM148.507 84.1654C148.447 82.9034 148.237 81.7164 147.876 80.6046C147.516 79.4627 146.975 78.471 146.254 77.6296C145.563 76.7582 144.706 76.067 143.684 75.5562C142.693 75.0453 141.551 74.7899 140.259 74.7899C138.877 74.7899 137.66 75.0604 136.608 75.6013C135.556 76.1121 134.67 76.8033 133.948 77.6747C133.227 78.5161 132.671 79.5077 132.281 80.6496C131.89 81.7915 131.65 82.9635 131.559 84.1654H148.507ZM155.023 89.304C155.083 90.3857 155.324 91.3473 155.744 92.1887C156.165 93.0001 156.706 93.7062 157.367 94.3072C158.058 94.8782 158.855 95.3139 159.756 95.6144C160.658 95.9149 161.634 96.0652 162.686 96.0652C163.437 96.0652 164.233 96.0051 165.075 95.8849C165.946 95.7346 166.743 95.4792 167.464 95.1186C168.215 94.758 168.831 94.2622 169.312 93.6311C169.793 92.97 170.033 92.1437 170.033 91.152C170.033 89.8599 169.642 88.8833 168.861 88.2222C168.08 87.5611 167.088 87.0502 165.886 86.6896C164.714 86.329 163.437 86.0436 162.055 85.8332C160.703 85.5928 159.426 85.2472 158.224 84.7965C157.052 84.3457 156.075 83.7147 155.294 82.9034C154.512 82.062 154.122 80.8449 154.122 79.2523C154.122 78.1104 154.377 77.1639 154.888 76.4126C155.399 75.6313 156.045 75.0153 156.826 74.5645C157.638 74.1138 158.539 73.7983 159.531 73.618C160.522 73.4076 161.514 73.3025 162.506 73.3025C163.708 73.3025 164.834 73.4377 165.886 73.7081C166.938 73.9786 167.839 74.4143 168.591 75.0153C169.372 75.6163 169.973 76.3826 170.394 77.3141C170.844 78.2456 171.07 79.3725 171.07 80.6947H169.357C169.357 79.643 169.177 78.7415 168.816 77.9902C168.486 77.239 168.005 76.638 167.374 76.1872C166.773 75.7064 166.051 75.3609 165.21 75.1505C164.369 74.9101 163.467 74.7899 162.506 74.7899C161.724 74.7899 160.928 74.865 160.117 75.0153C159.335 75.1655 158.629 75.421 157.998 75.7816C157.367 76.1422 156.841 76.6079 156.421 77.1789C156.03 77.7498 155.835 78.441 155.835 79.2523C155.835 80.1839 156.06 80.9351 156.511 81.506C156.961 82.077 157.547 82.5428 158.269 82.9034C159.02 83.2339 159.846 83.5044 160.748 83.7147C161.679 83.925 162.611 84.1354 163.542 84.3457C164.684 84.5561 165.751 84.8115 166.743 85.112C167.764 85.3825 168.636 85.7731 169.357 86.284C170.108 86.7648 170.694 87.3958 171.115 88.1771C171.536 88.9584 171.746 89.95 171.746 91.152C171.746 92.4141 171.46 93.4508 170.889 94.2622C170.319 95.0735 169.597 95.7346 168.726 96.2454C167.854 96.7262 166.878 97.0568 165.796 97.2371C164.744 97.4474 163.708 97.5526 162.686 97.5526C161.364 97.5526 160.132 97.3723 158.99 97.0117C157.878 96.6812 156.901 96.1703 156.06 95.4792C155.219 94.758 154.557 93.8865 154.077 92.8649C153.596 91.8432 153.34 90.6562 153.31 89.304H155.023ZM176.724 89.304C176.784 90.3857 177.025 91.3473 177.445 92.1887C177.866 93.0001 178.407 93.7062 179.068 94.3072C179.759 94.8782 180.556 95.3139 181.457 95.6144C182.359 95.9149 183.335 96.0652 184.387 96.0652C185.138 96.0652 185.934 96.0051 186.776 95.8849C187.647 95.7346 188.444 95.4792 189.165 95.1186C189.916 94.758 190.532 94.2622 191.013 93.6311C191.494 92.97 191.734 92.1437 191.734 91.152C191.734 89.8599 191.343 88.8833 190.562 88.2222C189.781 87.5611 188.789 87.0502 187.587 86.6896C186.415 86.329 185.138 86.0436 183.756 85.8332C182.404 85.5928 181.126 85.2472 179.924 84.7965C178.753 84.3457 177.776 83.7147 176.995 82.9034C176.213 82.062 175.823 80.8449 175.823 79.2523C175.823 78.1104 176.078 77.1639 176.589 76.4126C177.1 75.6313 177.746 75.0153 178.527 74.5645C179.339 74.1138 180.24 73.7983 181.232 73.618C182.223 73.4076 183.215 73.3025 184.207 73.3025C185.409 73.3025 186.535 73.4377 187.587 73.7081C188.639 73.9786 189.54 74.4143 190.292 75.0153C191.073 75.6163 191.674 76.3826 192.095 77.3141C192.545 78.2456 192.771 79.3725 192.771 80.6947H191.058C191.058 79.643 190.878 78.7415 190.517 77.9902C190.186 77.239 189.706 76.638 189.075 76.1872C188.474 75.7064 187.752 75.3609 186.911 75.1505C186.07 74.9101 185.168 74.7899 184.207 74.7899C183.425 74.7899 182.629 74.865 181.818 75.0153C181.036 75.1655 180.33 75.421 179.699 75.7816C179.068 76.1422 178.542 76.6079 178.122 77.1789C177.731 77.7498 177.536 78.441 177.536 79.2523C177.536 80.1839 177.761 80.9351 178.212 81.506C178.662 82.077 179.248 82.5428 179.97 82.9034C180.721 83.2339 181.547 83.5044 182.449 83.7147C183.38 83.925 184.312 84.1354 185.243 84.3457C186.385 84.5561 187.452 84.8115 188.444 85.112C189.465 85.3825 190.337 85.7731 191.058 86.284C191.809 86.7648 192.395 87.3958 192.816 88.1771C193.237 88.9584 193.447 89.95 193.447 91.152C193.447 92.4141 193.161 93.4508 192.59 94.2622C192.02 95.0735 191.298 95.7346 190.427 96.2454C189.555 96.7262 188.579 97.0568 187.497 97.2371C186.445 97.4474 185.409 97.5526 184.387 97.5526C183.065 97.5526 181.833 97.3723 180.691 97.0117C179.579 96.6812 178.602 96.1703 177.761 95.4792C176.92 94.758 176.258 93.8865 175.778 92.8649C175.297 91.8432 175.041 90.6562 175.011 89.304H176.724Z" fill="black"/>
<defs>
<clipPath id="clip0_508_11376">
<rect width="66.1299" height="66.1299" fill="white" transform="translate(207.117 47)"/>
</clipPath>
</defs>
</svg>
