<?xml version="1.0"?>
<svg xmlns="http://www.w3.org/2000/svg" width="320" height="160" viewBox="0 0 320 160" fill="none">
<path d="M265.268 98.6356C262.98 98.6356 260.912 98.1028 259.063 97.0371C257.246 95.9718 255.82 94.4988 254.785 92.6186C253.751 90.707 253.234 88.5763 253.234 86.2259C253.234 83.9697 253.72 81.9013 254.692 80.021C255.694 78.1096 257.089 76.6054 258.875 75.5086C260.661 74.3805 262.698 73.8164 264.986 73.8164C267.336 73.8164 269.373 74.3335 271.097 75.3676C272.851 76.4017 274.183 77.8432 275.092 79.6921C276.001 81.5098 276.455 83.6092 276.455 85.9909C276.455 86.273 276.44 86.5551 276.408 86.8371C276.377 87.1189 276.361 87.2757 276.361 87.307H258.405C258.562 89.438 259.33 91.0833 260.708 92.2426C262.087 93.4022 263.654 93.9818 265.409 93.9818C268.104 93.9818 270.172 92.7283 271.614 90.2213L276.032 92.3368C274.998 94.2484 273.557 95.7836 271.708 96.9432C269.89 98.0715 267.743 98.6356 265.268 98.6356ZM271.191 83.3587C271.128 82.6064 270.877 81.8386 270.439 81.0554C270 80.2718 269.31 79.6137 268.37 79.0811C267.461 78.517 266.318 78.2349 264.939 78.2349C263.403 78.2349 262.071 78.705 260.943 79.645C259.847 80.5852 259.095 81.8232 258.687 83.3587H271.191Z" fill="#5E5E5E"/>
<path d="M241.886 98.6356C239.222 98.6356 237.013 98.0244 235.258 96.8022C233.535 95.5487 232.312 93.9818 231.592 92.1016L236.198 90.1274C236.731 91.4122 237.499 92.3836 238.501 93.0417C239.536 93.6997 240.664 94.0289 241.886 94.0289C243.171 94.0289 244.221 93.794 245.035 93.3237C245.85 92.8225 246.257 92.18 246.257 91.3967C246.257 90.6444 245.929 90.0335 245.27 89.5633C244.612 89.0621 243.531 88.6231 242.027 88.2472L238.83 87.4952C237.076 87.0876 235.556 86.3356 234.271 85.239C233.018 84.1107 232.391 82.6535 232.391 80.8672C232.391 78.705 233.284 76.9971 235.07 75.7436C236.856 74.4588 239.05 73.8164 241.651 73.8164C243.813 73.8164 245.725 74.2708 247.386 75.1796C249.078 76.0883 250.3 77.4045 251.052 79.128L246.492 81.0554C246.054 80.0839 245.38 79.363 244.471 78.893C243.562 78.423 242.575 78.1879 241.51 78.1879C240.476 78.1879 239.567 78.423 238.784 78.893C238 79.3317 237.609 79.9271 237.609 80.6794C237.609 81.3374 237.875 81.87 238.408 82.2776C238.971 82.6849 239.849 83.0295 241.04 83.3116L244.518 84.1578C246.868 84.7529 248.623 85.6617 249.783 86.8839C250.942 88.0748 251.522 89.5165 251.522 91.2086C251.522 92.5873 251.099 93.8408 250.253 94.969C249.438 96.097 248.295 96.9903 246.822 97.6484C245.38 98.3064 243.735 98.6356 241.886 98.6356Z" fill="#5E5E5E"/>
<path d="M217.149 98.6356C215.489 98.6356 213.984 98.3064 212.637 97.6484C211.321 96.959 210.271 96.0189 209.487 94.828C208.735 93.6058 208.359 92.2271 208.359 90.6915C208.359 88.2472 209.268 86.3198 211.085 84.9098C212.934 83.4994 215.269 82.7946 218.089 82.7946C220.565 82.7946 222.68 83.2177 224.435 84.0636V83.0766C224.435 81.6663 223.871 80.507 222.743 79.5982C221.646 78.658 220.314 78.1879 218.747 78.1879C216.366 78.1879 214.455 79.1594 213.013 81.1022L209.065 78.3759C210.161 76.9031 211.524 75.775 213.154 74.9915C214.815 74.2081 216.679 73.8164 218.747 73.8164C222.163 73.8164 224.796 74.6782 226.644 76.4017C228.525 78.0939 229.465 80.4912 229.465 83.5937V97.8833H224.435V95.0162H224.153C223.401 96.0815 222.445 96.959 221.286 97.6484C220.127 98.3064 218.748 98.6356 217.149 98.6356ZM217.996 94.3578C219.155 94.3578 220.22 94.076 221.192 93.5119C222.195 92.9165 222.978 92.1487 223.542 91.2086C224.137 90.2371 224.435 89.2031 224.435 88.1061C222.775 87.1973 221.004 86.7429 219.123 86.7429C217.4 86.7429 216.053 87.1189 215.081 87.8712C214.11 88.6231 213.624 89.5791 213.624 90.7383C213.624 91.804 214.047 92.6815 214.893 93.3709C215.771 94.0289 216.805 94.3578 217.996 94.3578Z" fill="#5E5E5E"/>
<path d="M195.455 98.6367C193.763 98.6367 192.243 98.2765 190.896 97.5555C189.58 96.8349 188.593 95.926 187.935 94.8294H187.652V97.8847H182.764V64.2285H187.935V74.3347L187.652 77.5781H187.935C188.593 76.5127 189.58 75.6196 190.896 74.8988C192.243 74.1781 193.763 73.8177 195.455 73.8177C197.461 73.8177 199.31 74.3504 201.002 75.4159C202.726 76.4813 204.089 77.9699 205.092 79.8814C206.126 81.7616 206.643 83.8768 206.643 86.2273C206.643 88.5774 206.126 90.6929 205.092 92.5728C204.089 94.4531 202.726 95.9418 201.002 97.0385C199.31 98.1042 197.461 98.6367 195.455 98.6367ZM194.562 93.8893C195.784 93.8893 196.913 93.5759 197.947 92.9491C199.012 92.3224 199.858 91.4291 200.485 90.2698C201.143 89.0789 201.472 87.7315 201.472 86.2273C201.472 84.723 201.143 83.3911 200.485 82.2318C199.858 81.0409 199.012 80.1321 197.947 79.5054C196.913 78.8786 195.784 78.5653 194.562 78.5653C193.34 78.5653 192.196 78.8786 191.131 79.5054C190.097 80.1321 189.251 81.0251 188.593 82.1847C187.966 83.3443 187.652 84.6917 187.652 86.2273C187.652 87.7628 187.966 89.1102 188.593 90.2698C189.251 91.4291 190.097 92.3224 191.131 92.9491C192.196 93.5759 193.34 93.8893 194.562 93.8893Z" fill="#5E5E5E"/>
<path d="M168.496 98.6356C166.208 98.6356 164.14 98.1028 162.291 97.0371C160.474 95.9718 159.048 94.4988 158.014 92.6186C156.98 90.707 156.463 88.5763 156.463 86.2259C156.463 83.9697 156.949 81.9013 157.92 80.021C158.923 78.1096 160.317 76.6054 162.103 75.5086C163.89 74.3805 165.927 73.8164 168.214 73.8164C170.564 73.8164 172.601 74.3335 174.325 75.3676C176.08 76.4017 177.412 77.8432 178.32 79.6921C179.229 81.5098 179.684 83.6092 179.684 85.9909C179.684 86.273 179.668 86.5551 179.637 86.8371C179.605 87.1189 179.59 87.2757 179.59 87.307H161.633C161.79 89.438 162.558 91.0833 163.937 92.2426C165.315 93.4022 166.882 93.9818 168.637 93.9818C171.332 93.9818 173.401 92.7283 174.842 90.2213L179.26 92.3368C178.226 94.2484 176.785 95.7836 174.936 96.9432C173.119 98.0715 170.972 98.6356 168.496 98.6356ZM174.419 83.3587C174.356 82.6064 174.106 81.8386 173.667 81.0554C173.228 80.2718 172.539 79.6137 171.599 79.0811C170.69 78.517 169.546 78.2349 168.167 78.2349C166.632 78.2349 165.3 78.705 164.172 79.645C163.075 80.5852 162.323 81.8232 161.915 83.3587H174.419Z" fill="#5E5E5E"/>
<path d="M142.111 74.5703H147V78.0487H147.282C147.783 76.8579 148.692 75.8708 150.008 75.0874C151.324 74.2726 152.672 73.8652 154.051 73.8652C155.179 73.8652 156.103 74.0219 156.824 74.3353V79.7411C155.758 79.2082 154.568 78.9419 153.252 78.9419C151.559 78.9419 150.134 79.6 148.974 80.9161C147.846 82.2009 147.282 83.7833 147.282 85.6636V97.8851H142.111V74.5703Z" fill="#5E5E5E"/>
<path d="M134.732 70.6209C133.761 70.6209 132.931 70.2919 132.241 69.6338C131.583 68.9444 131.254 68.1139 131.254 67.1425C131.254 66.171 131.583 65.3562 132.241 64.6982C132.931 64.0088 133.761 63.6641 134.732 63.6641C135.704 63.6641 136.518 64.0088 137.177 64.6982C137.866 65.3562 138.211 66.171 138.211 67.1425C138.211 68.1139 137.866 68.9444 137.177 69.6338C136.518 70.2919 135.704 70.6209 134.732 70.6209ZM132.147 74.5694H137.317V97.8843H132.147V74.5694Z" fill="#5E5E5E"/>
<path d="M108.596 64.2285H129.043V69.2581H113.86V78.9413H127.539V83.9239H113.86V97.8847H108.596V64.2285Z" fill="#5E5E5E"/>
<path d="M57.7754 108.02C60.3607 109.06 63.1654 109.678 66.1104 109.781C70.096 109.92 73.886 109.096 77.2743 107.53C73.2112 105.934 69.5314 103.6 66.3909 100.697C64.3552 103.957 61.3442 106.531 57.7754 108.02Z" fill="#FF9100"/>
<path d="M66.3896 100.699C59.2207 94.069 54.8718 84.4727 55.2393 73.9473C55.2513 73.6055 55.2693 73.2639 55.2904 72.9224C54.0065 72.5904 52.6661 72.3877 51.2867 72.3396C49.3122 72.2706 47.4001 72.5155 45.5949 73.0238C43.6812 76.3761 42.5263 80.2224 42.3825 84.3421C42.0112 94.9747 48.4455 104.265 57.774 108.022C61.3429 106.533 64.3538 103.962 66.3896 100.699Z" fill="#FFC400"/>
<path d="M66.3906 100.699C68.0573 98.0314 69.0679 94.9043 69.1855 91.5353C69.495 82.6729 63.5372 75.0492 55.2914 72.9219C55.2703 73.2634 55.2523 73.6049 55.2403 73.9467C54.8728 84.4722 59.2217 94.0685 66.3906 100.699Z" fill="#FF9100"/>
<path d="M68.2629 48.0098C63.5667 51.7721 59.8582 56.733 57.6146 62.4478C56.33 65.7213 55.5228 69.2374 55.2871 72.9232C63.5329 75.0506 69.4907 82.6743 69.1812 91.5367C69.0636 94.9057 68.0501 98.0296 66.3863 100.7C69.5267 103.606 73.2066 105.937 77.2697 107.533C85.425 103.764 91.2112 95.6517 91.5463 86.0569C91.7633 79.8404 89.3749 74.3 85.9999 69.6234C82.4357 64.6774 68.2629 48.0098 68.2629 48.0098Z" fill="#DD2C00"/>
</svg>
