<?xml version="1.0"?>
<svg xmlns="http://www.w3.org/2000/svg" width="320" height="160" viewBox="0 0 320 160" fill="none">
<mask id="mask0_462_2523" style="mask-type:luminance" maskUnits="userSpaceOnUse" x="40" y="36" width="71" height="88">
<path d="M110.321 76.182L86.8804 99.6306L110.321 123.079H83.5354L60.0868 99.6306L83.5354 76.182H110.321ZM83.5354 36L40 79.5354L53.3968 92.9322L110.321 36H83.5354Z" fill="white"/>
</mask>
<g mask="url(#mask0_462_2523)">
<path d="M73.4841 113.027L110.321 76.1816H83.5359L60.0957 99.6302L73.4841 113.027Z" fill="#39CEFD"/>
</g>
<mask id="mask1_462_2523" style="mask-type:luminance" maskUnits="userSpaceOnUse" x="40" y="36" width="71" height="88">
<path d="M110.321 76.182L86.8804 99.6306L110.321 123.079H83.5354L60.0868 99.6306L83.5354 76.182H110.321ZM83.5354 36L40 79.5354L53.3968 92.9322L110.321 36H83.5354Z" fill="white"/>
</mask>
<g mask="url(#mask1_462_2523)">
<path d="M40 79.5354L83.5354 36H110.321L53.3968 92.9322L40 79.5354Z" fill="#39CEFD"/>
</g>
<mask id="mask2_462_2523" style="mask-type:luminance" maskUnits="userSpaceOnUse" x="40" y="36" width="71" height="88">
<path d="M110.321 76.182L86.8804 99.6306L110.321 123.079H83.5354L60.0868 99.6306L83.5354 76.182H110.321ZM83.5354 36L40 79.5354L53.3968 92.9322L110.321 36H83.5354Z" fill="white"/>
</mask>
<g mask="url(#mask2_462_2523)">
<path d="M83.5362 123.071H110.321L86.8812 99.6309L73.4844 113.028L83.5362 123.071Z" fill="#03569B"/>
</g>
<mask id="mask3_462_2523" style="mask-type:luminance" maskUnits="userSpaceOnUse" x="40" y="36" width="71" height="88">
<path d="M110.321 76.182L86.8804 99.6306L110.321 123.079H83.5354L60.0868 99.6306L83.5354 76.182H110.321ZM83.5354 36L40 79.5354L53.3968 92.9322L110.321 36H83.5354Z" fill="white"/>
</mask>
<g mask="url(#mask3_462_2523)">
<path d="M86.8812 99.6309L73.4844 113.028L93.3532 106.145L86.8812 99.6309Z" fill="url(#paint0_linear_462_2523)"/>
</g>
<mask id="mask4_462_2523" style="mask-type:luminance" maskUnits="userSpaceOnUse" x="40" y="36" width="71" height="88">
<path d="M110.321 76.182L86.8804 99.6306L110.321 123.079H83.5354L60.0868 99.6306L83.5354 76.182H110.321ZM83.5354 36L40 79.5354L53.3968 92.9322L110.321 36H83.5354Z" fill="white"/>
</mask>
<g mask="url(#mask4_462_2523)">
<path d="M60.0938 99.6262L73.4909 86.229L86.8889 99.6262L73.4909 113.023L60.0938 99.6262Z" fill="#16B9FD"/>
</g>
<path d="M110.321 76.182L86.8804 99.6306L110.321 123.079H83.5354L60.0868 99.6306L83.5354 76.182H110.321ZM83.5354 36L40 79.5354L53.3968 92.9322L110.321 36H83.5354Z" fill="url(#paint1_radial_462_2523)"/>
<path d="M118.824 59.3418H142.235V63.9202H123.575V77.7721H140.421V82.2944H123.575V99.8198H118.824V59.3418ZM147.899 59.3418H152.705V99.822H147.899V59.3418ZM170.284 100.727C166.817 100.727 164.154 99.709 162.293 97.6731C160.497 95.6244 159.598 92.7787 159.598 89.1361V70.9887H164.403V88.4018C164.403 91.1374 165.025 93.153 166.269 94.4488C167.513 95.7446 169.19 96.3925 171.301 96.3925C172.922 96.3925 174.362 95.9591 175.62 95.0924C176.916 94.2256 177.895 93.0954 178.558 91.7018C179.273 90.3052 179.631 88.8352 179.631 87.2918V71.0081H184.434V99.8393H179.855V95.6366H179.629C178.837 97.0692 177.574 98.275 175.841 99.254C174.107 100.233 172.26 100.723 170.299 100.723L170.284 100.727Z" fill="#808080"/>
<path d="M202.928 100.275C201.759 100.275 200.667 100.087 199.65 99.7095C198.671 99.3323 197.842 98.8233 197.162 98.1826C196.408 97.4671 195.843 96.6378 195.467 95.6947C195.09 94.7531 194.901 93.6035 194.901 92.2458V75.3423H189.869V70.9885H194.901V62.8467H199.706V70.9885H206.716V75.3423H199.706V91.0601C199.706 92.6439 200.009 93.8122 200.613 94.5652C201.329 95.3945 202.366 95.8092 203.723 95.8092C204.817 95.8092 205.873 95.4888 206.889 94.8481V99.541C206.323 99.8045 205.739 99.9931 205.136 100.107C204.57 100.222 203.836 100.28 202.933 100.28L202.928 100.275Z" fill="#808080"/>
<path d="M223.307 100.275C222.138 100.275 221.045 100.087 220.029 99.7095C219.05 99.3323 218.221 98.8233 217.541 98.1826C216.787 97.4671 216.222 96.6378 215.846 95.6947C215.469 94.7531 215.28 93.6035 215.28 92.2458V75.3423H210.248V70.9885H215.28V62.8467H220.085V70.9885H227.095V75.3423H220.085V91.0601C220.085 92.6439 220.388 93.8122 220.992 94.5652C221.708 95.3945 222.744 95.8092 224.102 95.8092C225.196 95.8092 226.252 95.4888 227.268 94.8481V99.541C226.702 99.8045 226.118 99.9931 225.515 100.107C224.949 100.222 224.214 100.28 223.312 100.28L223.307 100.275Z" fill="#808080"/>
<path d="M244.471 100.726C241.735 100.726 239.266 100.067 237.063 98.7482C234.878 97.4294 233.163 95.6204 231.919 93.3211C230.713 90.9844 230.109 88.364 230.109 85.46C230.109 82.6712 230.674 80.1084 231.805 77.7717C232.974 75.435 234.614 73.5691 236.724 72.1739C238.835 70.7774 241.285 70.0791 244.074 70.0791C246.9 70.0791 249.35 70.727 251.423 72.0228C253.496 73.2667 255.08 75.0002 256.174 77.2232C257.304 79.4476 257.869 81.9916 257.869 84.8553C257.869 85.4211 257.812 85.9107 257.697 86.3239H234.912C235.028 88.5094 235.555 90.3566 236.495 91.8655C237.437 93.3729 238.625 94.5031 240.059 95.2561C241.527 96.0105 243.053 96.3878 244.637 96.3878C248.332 96.3878 251.177 94.6543 253.174 91.1874L257.245 93.1656C256.001 95.5023 254.305 97.3495 252.157 98.7072C250.046 100.063 247.484 100.742 244.469 100.742L244.471 100.726ZM252.781 82.3523C252.706 81.1458 252.368 79.94 251.766 78.7349C251.161 77.5284 250.2 76.5105 248.883 75.6812C247.587 74.8519 245.968 74.4372 244.024 74.4372C241.763 74.4372 239.841 75.1715 238.258 76.6401C236.713 78.0726 235.695 79.976 235.204 82.3501H252.788L252.781 82.3523ZM263.437 70.9883H268.015V75.625H268.242C268.808 74.0413 269.901 72.7412 271.52 71.7247C273.142 70.6694 274.838 70.1417 276.608 70.1417C277.927 70.1417 279.057 70.3303 279.999 70.7076V75.908C278.793 75.3033 277.436 75.0009 275.928 75.0009C274.532 75.0009 273.25 75.3968 272.084 76.1887C270.915 76.9806 269.979 78.0546 269.277 79.4109C268.6 80.7297 268.261 82.1695 268.261 83.7301V99.841H263.456V71.0099L263.437 70.9883Z" fill="#808080"/>
<defs>
<linearGradient id="paint0_linear_462_2523" x1="77.394" y1="115.613" x2="87.3716" y2="105.635" gradientUnits="userSpaceOnUse">
<stop stop-color="#1A237E" stop-opacity="0.4"/>
<stop offset="1" stop-color="#1A237E" stop-opacity="0"/>
</linearGradient>
<radialGradient id="paint1_radial_462_2523" cx="0" cy="0" r="1" gradientUnits="userSpaceOnUse" gradientTransform="translate(41.9755 41.9351) scale(106.531 106.531)">
<stop stop-color="white" stop-opacity="0.1"/>
<stop offset="1" stop-color="white" stop-opacity="0"/>
</radialGradient>
</defs>
</svg>
