<?xml version="1.0"?>
<svg xmlns="http://www.w3.org/2000/svg" width="320" height="160" viewBox="0 0 320 160" fill="none">
<path d="M305.549 97.3574V62.8418H313.224V97.3574H305.549Z" fill="#60CB82"/>
<path d="M267.723 97.3574L281.412 62.8418H288.354L301.896 97.3574H293.78L283.416 68.7085H286.203L275.692 97.3574H267.723ZM275.496 91.0996V84.8418H294.318V91.0996H275.496Z" fill="#60CB82"/>
<path d="M246.653 97.8942C244.078 97.8942 241.781 97.3727 239.76 96.3297C237.772 95.2542 236.207 93.7712 235.067 91.8808C233.926 89.9905 233.355 87.8557 233.355 85.4764C233.355 83.0971 233.91 80.9786 235.018 79.1208C236.158 77.2305 237.69 75.7475 239.613 74.6719C241.536 73.5964 243.704 73.0586 246.115 73.0586C248.462 73.0586 250.532 73.5638 252.324 74.5742C254.117 75.5845 255.518 76.986 256.529 78.7786C257.572 80.5712 258.093 82.6245 258.093 84.9386C258.093 85.3623 258.061 85.8186 257.996 86.3075C257.963 86.7638 257.881 87.3016 257.751 87.9208L237.267 87.9697V82.8364L254.573 82.7875L251.347 84.9386C251.314 83.5697 251.102 82.4453 250.711 81.5653C250.32 80.6527 249.733 79.9682 248.951 79.5119C248.201 79.023 247.273 78.7786 246.164 78.7786C244.991 78.7786 243.964 79.0556 243.084 79.6097C242.237 80.1312 241.569 80.8808 241.08 81.8586C240.624 82.8364 240.395 84.026 240.395 85.4275C240.395 86.829 240.64 88.0349 241.129 89.0453C241.65 90.0231 242.367 90.789 243.28 91.3431C244.225 91.8646 245.333 92.1253 246.604 92.1253C247.778 92.1253 248.837 91.9297 249.782 91.5386C250.727 91.1149 251.558 90.4957 252.275 89.6808L256.382 93.7875C255.209 95.1564 253.791 96.1831 252.129 96.8675C250.467 97.552 248.641 97.8942 246.653 97.8942Z" fill="#3B9156"/>
<path d="M216.809 97.3577L206.738 73.5977H214.805L221.649 93.3977H218.129L224.974 73.5977H232.894L222.823 97.3088L216.809 97.3577Z" fill="#3B9156"/>
<path d="M196.582 97.3564V73.5963H204.062V97.3564H196.582ZM200.347 70.3208C199.174 70.3208 198.196 69.9297 197.414 69.1474C196.664 68.3326 196.289 67.3548 196.289 66.2141C196.289 65.0408 196.664 64.063 197.414 63.2808C198.196 62.4985 199.174 62.1074 200.347 62.1074C201.52 62.1074 202.482 62.4985 203.231 63.2808C203.981 64.063 204.356 65.0408 204.356 66.2141C204.356 67.3548 203.981 68.3326 203.231 69.1474C202.482 69.9297 201.52 70.3208 200.347 70.3208Z" fill="#3B9156"/>
<path d="M180.427 97.3582V63.7715H187.907V97.3582H180.427ZM175.049 79.9537V73.5982H193.284V79.9537H175.049Z" fill="#3B9156"/>
<path d="M157.903 97.8472C155.719 97.8472 153.764 97.3094 152.036 96.2339C150.341 95.1583 148.989 93.6916 147.978 91.8339C147.001 89.9761 146.512 87.8576 146.512 85.4783C146.512 83.099 147.001 80.9805 147.978 79.1227C148.989 77.2649 150.341 75.7983 152.036 74.7227C153.764 73.6472 155.719 73.1094 157.903 73.1094C159.5 73.1094 160.934 73.419 162.205 74.0383C163.509 74.6575 164.568 75.5212 165.383 76.6294C166.198 77.7049 166.654 78.9435 166.752 80.3449V90.6116C166.654 92.0131 166.198 93.2679 165.383 94.3761C164.601 95.4516 163.558 96.299 162.254 96.9183C160.95 97.5376 159.5 97.8472 157.903 97.8472ZM159.418 91.1005C161.015 91.1005 162.303 90.579 163.281 89.5361C164.258 88.4605 164.747 87.1079 164.747 85.4783C164.747 84.3701 164.519 83.3924 164.063 82.5449C163.639 81.6975 163.02 81.0457 162.205 80.5894C161.423 80.1005 160.51 79.8561 159.467 79.8561C158.424 79.8561 157.495 80.1005 156.681 80.5894C155.898 81.0457 155.263 81.6975 154.774 82.5449C154.318 83.3924 154.09 84.3701 154.09 85.4783C154.09 86.5538 154.318 87.5153 154.774 88.3627C155.23 89.2101 155.866 89.8783 156.681 90.3672C157.495 90.8561 158.408 91.1005 159.418 91.1005ZM164.454 97.3583V90.9539L165.578 85.185L164.454 79.4161V73.5983H171.787V97.3583H164.454Z" fill="#3B9156"/>
<path d="M127.783 97.3583V73.5983H135.263V97.3583H127.783ZM135.263 84.305L132.134 81.8605C132.754 79.0901 133.797 76.939 135.263 75.4072C136.73 73.8753 138.767 73.1094 141.374 73.1094C142.515 73.1094 143.509 73.2886 144.357 73.6472C145.237 73.9731 146.002 74.4946 146.654 75.2116L142.205 80.8338C141.88 80.4753 141.472 80.1983 140.983 80.0027C140.494 79.8072 139.94 79.7094 139.321 79.7094C138.082 79.7094 137.088 80.1005 136.339 80.8827C135.622 81.6324 135.263 82.7731 135.263 84.305Z" fill="#3B9156"/>
<path d="M112.733 97.8942C110.159 97.8942 107.861 97.3727 105.84 96.3297C103.852 95.2542 102.287 93.7712 101.147 91.8808C100.006 89.9905 99.4355 87.8557 99.4355 85.4764C99.4355 83.0971 99.9896 80.9786 101.098 79.1208C102.239 77.2305 103.77 75.7475 105.693 74.6719C107.616 73.5964 109.784 73.0586 112.196 73.0586C114.542 73.0586 116.612 73.5638 118.404 74.5742C120.197 75.5845 121.599 76.986 122.609 78.7786C123.652 80.5712 124.173 82.6245 124.173 84.9386C124.173 85.3623 124.141 85.8186 124.076 86.3075C124.043 86.7638 123.962 87.3016 123.831 87.9208L103.347 87.9697V82.8364L120.653 82.7875L117.427 84.9386C117.394 83.5697 117.182 82.4453 116.791 81.5653C116.4 80.6527 115.813 79.9682 115.031 79.5119C114.281 79.023 113.353 78.7786 112.244 78.7786C111.071 78.7786 110.044 79.0556 109.164 79.6097C108.317 80.1312 107.649 80.8808 107.16 81.8586C106.704 82.8364 106.476 84.026 106.476 85.4275C106.476 86.829 106.72 88.0349 107.209 89.0453C107.73 90.0231 108.447 90.789 109.36 91.3431C110.305 91.8646 111.413 92.1253 112.684 92.1253C113.858 92.1253 114.917 91.9297 115.862 91.5386C116.807 91.1149 117.639 90.4957 118.356 89.6808L122.462 93.7875C121.289 95.1564 119.871 96.1831 118.209 96.8675C116.547 97.552 114.721 97.8942 112.733 97.8942Z" fill="#3B9156"/>
<path d="M88.7168 97.3583V83.8161C88.7168 82.5775 88.3257 81.5835 87.5435 80.8338C86.7938 80.0516 85.8324 79.6605 84.659 79.6605C83.8442 79.6605 83.1272 79.8398 82.5079 80.1983C81.8886 80.5242 81.3998 81.0131 81.0412 81.6649C80.6827 82.2842 80.5035 83.0012 80.5035 83.8161L77.619 82.3983C77.619 80.5405 78.0264 78.9109 78.8412 77.5094C79.656 76.1079 80.7805 75.0323 82.2146 74.2827C83.6812 73.5005 85.3272 73.1094 87.1524 73.1094C88.9124 73.1094 90.4605 73.5331 91.7968 74.3805C93.1657 75.1953 94.2413 76.2872 95.0235 77.6561C95.8057 79.0249 96.1968 80.5242 96.1968 82.1538V97.3583H88.7168ZM73.0234 97.3583V73.5983H80.5035V97.3583H73.0234Z" fill="#3B9156"/>
<path d="M57.9716 97.8942C55.3968 97.8942 53.099 97.3727 51.0783 96.3297C49.0901 95.2542 47.5257 93.7712 46.3849 91.8808C45.2442 89.9905 44.6738 87.8557 44.6738 85.4764C44.6738 83.0971 45.2279 80.9786 46.3361 79.1208C47.4768 77.2305 49.0087 75.7475 50.9316 74.6719C52.8546 73.5964 55.022 73.0586 57.4339 73.0586C59.7805 73.0586 61.8502 73.5638 63.6428 74.5742C65.4354 75.5845 66.8368 76.986 67.8472 78.7786C68.8902 80.5712 69.4117 82.6245 69.4117 84.9386C69.4117 85.3623 69.3791 85.8186 69.3139 86.3075C69.2813 86.7638 69.1998 87.3016 69.0694 87.9208L48.5849 87.9697V82.8364L65.8916 82.7875L62.665 84.9386C62.6324 83.5697 62.4205 82.4453 62.0294 81.5653C61.6383 80.6527 61.0516 79.9682 60.2694 79.5119C59.5198 79.023 58.5909 78.7786 57.4827 78.7786C56.3094 78.7786 55.2827 79.0556 54.4027 79.6097C53.5553 80.1312 52.8872 80.8808 52.3983 81.8586C51.942 82.8364 51.7138 84.026 51.7138 85.4275C51.7138 86.829 51.9583 88.0349 52.4472 89.0453C52.9687 90.0231 53.6857 90.789 54.5983 91.3431C55.5435 91.8646 56.6516 92.1253 57.9227 92.1253C59.0961 92.1253 60.1553 91.9297 61.1005 91.5386C62.0457 91.1149 62.8768 90.4957 63.5939 89.6808L67.7005 93.7875C66.5272 95.1564 65.1094 96.1831 63.4472 96.8675C61.785 97.552 59.9598 97.8942 57.9716 97.8942Z" fill="#3B9156"/>
<path d="M24.8174 97.8939C22.3077 97.8939 19.9448 97.4376 17.7285 96.525C15.5448 95.6124 13.6381 94.3576 12.0085 92.7606C10.3788 91.1309 9.09142 89.2406 8.14624 87.0894C7.23364 84.9057 6.77734 82.5591 6.77734 80.0494C6.77734 77.5398 7.24994 75.2094 8.19512 73.0583C9.14031 70.9072 10.444 69.0331 12.1062 67.4361C13.8011 65.8064 15.7729 64.5516 18.0218 63.6716C20.2707 62.759 22.6826 62.3027 25.2574 62.3027C28.2233 62.3027 30.9122 62.8405 33.3241 63.9161C35.7685 64.9916 37.7893 66.4746 39.3863 68.365L34.1552 73.5961C33.047 72.162 31.7433 71.0865 30.2441 70.3694C28.7448 69.6524 27.05 69.2939 25.1596 69.2939C23.1389 69.2939 21.33 69.7502 19.7329 70.6628C18.1359 71.5428 16.8811 72.7976 15.9685 74.4272C15.0885 76.0242 14.6485 77.8983 14.6485 80.0494C14.6485 82.2006 15.0885 84.0909 15.9685 85.7206C16.8485 87.3502 18.0544 88.6213 19.5863 89.5339C21.1181 90.4465 22.8781 90.9028 24.8663 90.9028C26.887 90.9028 28.5981 90.528 29.9996 89.7783C31.4337 88.9961 32.5255 87.888 33.2752 86.4539C34.0574 84.9872 34.4485 83.2109 34.4485 81.125L39.533 84.5472L24.1329 84.3028V77.8005H42.2707V78.925C42.2707 83.0643 41.5211 86.5517 40.0218 89.3872C38.5552 92.1902 36.5018 94.3087 33.8618 95.7428C31.2544 97.1769 28.2396 97.8939 24.8174 97.8939Z" fill="#3B9156"/>
</svg>
