<?xml version="1.0"?>
<svg xmlns="http://www.w3.org/2000/svg" width="320" height="160" viewBox="0 0 320 160" fill="none">
<path d="M195.214 104.615C191.292 104.615 187.911 103.984 185.07 102.722C182.275 101.414 179.706 99.4533 177.361 96.8385L184.259 90.0084C185.792 91.7666 187.482 93.1417 189.331 94.1335C191.224 95.0802 193.411 95.5536 195.89 95.5536C198.145 95.5536 199.88 95.1479 201.097 94.3364C202.36 93.5249 202.991 92.3978 202.991 90.9552C202.991 89.6477 202.585 88.5883 201.774 87.7768C200.962 86.9653 199.88 86.2665 198.528 85.6805C197.22 85.0944 195.755 84.5308 194.132 83.9898C192.554 83.4489 190.976 82.8402 189.398 82.164C187.821 81.4427 186.355 80.5636 185.003 79.5266C183.695 78.4447 182.636 77.1147 181.825 75.5368C181.013 73.9138 180.607 71.8851 180.607 69.4506C180.607 66.5202 181.306 63.9956 182.704 61.8767C184.146 59.7578 186.13 58.1574 188.655 57.0754C191.179 55.9483 194.087 55.3848 197.378 55.3848C200.714 55.3848 203.757 55.9708 206.507 57.143C209.303 58.3152 211.602 59.9156 213.405 61.9443L206.507 68.7744C205.065 67.2866 203.6 66.1821 202.112 65.4608C200.669 64.7395 199.024 64.3788 197.175 64.3788C195.327 64.3788 193.862 64.7395 192.78 65.4608C191.698 66.137 191.157 67.1289 191.157 68.4363C191.157 69.6535 191.562 70.6453 192.374 71.4117C193.185 72.1331 194.245 72.7642 195.552 73.3052C196.905 73.8462 198.37 74.3872 199.948 74.9282C201.571 75.4692 203.171 76.1003 204.749 76.8217C206.327 77.543 207.77 78.4672 209.077 79.5943C210.43 80.6763 211.512 82.0738 212.323 83.787C213.135 85.455 213.54 87.5289 213.54 90.0084C213.54 94.5618 211.917 98.1459 208.671 100.761C205.425 103.33 200.94 104.615 195.214 104.615Z" fill="#FF5555"/>
<path d="M195.214 104.615C191.292 104.615 187.911 103.984 185.07 102.722C182.275 101.414 179.706 99.4533 177.361 96.8385L184.259 90.0084C185.792 91.7666 187.482 93.1417 189.331 94.1335C191.224 95.0802 193.411 95.5536 195.89 95.5536C198.145 95.5536 199.88 95.1479 201.097 94.3364C202.36 93.5249 202.991 92.3978 202.991 90.9552C202.991 89.6477 202.585 88.5883 201.774 87.7768C200.962 86.9653 199.88 86.2665 198.528 85.6805C197.22 85.0944 195.755 84.5308 194.132 83.9898C192.554 83.4489 190.976 82.8402 189.398 82.164C187.821 81.4427 186.355 80.5636 185.003 79.5266C183.695 78.4447 182.636 77.1147 181.825 75.5368C181.013 73.9138 180.607 71.8851 180.607 69.4506C180.607 66.5202 181.306 63.9956 182.704 61.8767C184.146 59.7578 186.13 58.1574 188.655 57.0754C191.179 55.9483 194.087 55.3848 197.378 55.3848C200.714 55.3848 203.757 55.9708 206.507 57.143C209.303 58.3152 211.602 59.9156 213.405 61.9443L206.507 68.7744C205.065 67.2866 203.6 66.1821 202.112 65.4608C200.669 64.7395 199.024 64.3788 197.175 64.3788C195.327 64.3788 193.862 64.7395 192.78 65.4608C191.698 66.137 191.157 67.1289 191.157 68.4363C191.157 69.6535 191.562 70.6453 192.374 71.4117C193.185 72.1331 194.245 72.7642 195.552 73.3052C196.905 73.8462 198.37 74.3872 199.948 74.9282C201.571 75.4692 203.171 76.1003 204.749 76.8217C206.327 77.543 207.77 78.4672 209.077 79.5943C210.43 80.6763 211.512 82.0738 212.323 83.787C213.135 85.455 213.54 87.5289 213.54 90.0084C213.54 94.5618 211.917 98.1459 208.671 100.761C205.425 103.33 200.94 104.615 195.214 104.615Z" fill="url(#paint0_linear_739_13948)" fill-opacity="0.2"/>
<path d="M161.992 103.872V56.1289H172.609V103.872H161.992Z" fill="#FF5555"/>
<path d="M161.992 103.872V56.1289H172.609V103.872H161.992Z" fill="url(#paint1_linear_739_13948)" fill-opacity="0.2"/>
<path d="M131.414 104.615C127.943 104.615 124.674 103.984 121.609 102.722C118.588 101.459 115.951 99.7238 113.697 97.5147C111.443 95.2606 109.662 92.6458 108.354 89.6703C107.092 86.6497 106.461 83.4038 106.461 79.9324C106.461 76.461 107.115 73.2376 108.422 70.2621C109.729 67.2866 111.533 64.6944 113.832 62.4853C116.176 60.2312 118.904 58.4955 122.015 57.2782C125.125 56.0159 128.461 55.3848 132.023 55.3848C136.125 55.3848 139.845 56.1286 143.181 57.6164C146.562 59.1041 149.357 61.1554 151.566 63.7702L144.331 71.006C142.798 69.0223 140.994 67.5346 138.921 66.5428C136.847 65.551 134.502 65.055 131.888 65.055C129.093 65.055 126.59 65.6862 124.381 66.9485C122.172 68.1658 120.437 69.9014 119.174 72.1556C117.957 74.3647 117.348 76.9569 117.348 79.9324C117.348 82.9079 117.957 85.5227 119.174 87.7768C120.392 90.031 122.06 91.7892 124.179 93.0515C126.297 94.3138 128.732 94.945 131.482 94.945C134.277 94.945 136.644 94.4265 138.582 93.3896C140.566 92.3076 142.076 90.7748 143.113 88.7912C144.195 86.7624 144.736 84.3054 144.736 81.4201L151.769 86.1538L130.468 85.8157V76.8217H155.556V78.377C155.556 84.1026 154.519 88.9264 152.445 92.8486C150.417 96.7258 147.577 99.6561 143.925 101.64C140.318 103.623 136.148 104.615 131.414 104.615Z" fill="#FF5555"/>
<path d="M131.414 104.615C127.943 104.615 124.674 103.984 121.609 102.722C118.588 101.459 115.951 99.7238 113.697 97.5147C111.443 95.2606 109.662 92.6458 108.354 89.6703C107.092 86.6497 106.461 83.4038 106.461 79.9324C106.461 76.461 107.115 73.2376 108.422 70.2621C109.729 67.2866 111.533 64.6944 113.832 62.4853C116.176 60.2312 118.904 58.4955 122.015 57.2782C125.125 56.0159 128.461 55.3848 132.023 55.3848C136.125 55.3848 139.845 56.1286 143.181 57.6164C146.562 59.1041 149.357 61.1554 151.566 63.7702L144.331 71.006C142.798 69.0223 140.994 67.5346 138.921 66.5428C136.847 65.551 134.502 65.055 131.888 65.055C129.093 65.055 126.59 65.6862 124.381 66.9485C122.172 68.1658 120.437 69.9014 119.174 72.1556C117.957 74.3647 117.348 76.9569 117.348 79.9324C117.348 82.9079 117.957 85.5227 119.174 87.7768C120.392 90.031 122.06 91.7892 124.179 93.0515C126.297 94.3138 128.732 94.945 131.482 94.945C134.277 94.945 136.644 94.4265 138.582 93.3896C140.566 92.3076 142.076 90.7748 143.113 88.7912C144.195 86.7624 144.736 84.3054 144.736 81.4201L151.769 86.1538L130.468 85.8157V76.8217H155.556V78.377C155.556 84.1026 154.519 88.9264 152.445 92.8486C150.417 96.7258 147.577 99.6561 143.925 101.64C140.318 103.623 136.148 104.615 131.414 104.615Z" fill="url(#paint2_linear_739_13948)" fill-opacity="0.2"/>
<defs>
<linearGradient id="paint0_linear_739_13948" x1="160.001" y1="61.4402" x2="160.001" y2="96.7994" gradientUnits="userSpaceOnUse">
<stop stop-color="#FFD4D4"/>
<stop offset="1" stop-color="#110000"/>
</linearGradient>
<linearGradient id="paint1_linear_739_13948" x1="160.002" y1="61.4408" x2="160.002" y2="96.7999" gradientUnits="userSpaceOnUse">
<stop stop-color="#FFD4D4"/>
<stop offset="1" stop-color="#110000"/>
</linearGradient>
<linearGradient id="paint2_linear_739_13948" x1="160.001" y1="61.4402" x2="160.001" y2="96.7994" gradientUnits="userSpaceOnUse">
<stop stop-color="#FFD4D4"/>
<stop offset="1" stop-color="#110000"/>
</linearGradient>
</defs>
</svg>
