<?xml version="1.0"?>
<svg xmlns="http://www.w3.org/2000/svg" width="320" height="160" viewBox="0 0 320 160" fill="none">
<g clip-path="url(#clip0_462_2853)">
<path d="M57.2142 62.2234C56.7441 62.2234 56.6266 61.9887 56.8617 61.6367L59.3296 58.4685C59.5647 58.1165 60.1523 57.8818 60.6224 57.8818H102.578C103.048 57.8818 103.165 58.2339 102.93 58.5859L100.933 61.6367C100.697 61.9887 100.11 62.3408 99.7573 62.3408L57.2142 62.2234Z" fill="#00ACD7"/>
<path d="M39.4701 73.0179C39 73.0179 38.8825 72.7832 39.1175 72.4312L41.5855 69.263C41.8205 68.911 42.4081 68.6763 42.8782 68.6763H96.4684C96.9385 68.6763 97.1735 69.0283 97.056 69.3803L96.1158 72.1965C95.9983 72.6658 95.5282 72.9005 95.0581 72.9005L39.4701 73.0179Z" fill="#00ACD7"/>
<path d="M67.9134 83.8138C67.4434 83.8138 67.3258 83.4617 67.5609 83.1097L69.2062 80.1762C69.4412 79.8242 69.9113 79.4722 70.3814 79.4722H93.8859C94.356 79.4722 94.591 79.8242 94.591 80.2935L94.356 83.1097C94.356 83.5791 93.8859 83.9311 93.5333 83.9311L67.9134 83.8138Z" fill="#00ACD7"/>
<path d="M189.898 60.1116C182.494 61.989 177.44 63.3971 170.154 65.2745C168.391 65.7439 168.274 65.8612 166.746 64.1011C164.983 62.1063 163.69 60.8156 161.222 59.6422C153.818 56.0046 146.65 57.0607 139.951 61.4023C131.959 66.5653 127.846 74.1924 127.964 83.697C128.081 93.0842 134.545 100.829 143.829 102.119C151.821 103.175 158.519 100.359 163.808 94.3749C164.866 93.0842 165.806 91.6761 166.981 90.0333C162.75 90.0333 157.462 90.0333 144.299 90.0333C141.831 90.0333 141.244 88.5079 142.066 86.5131C143.594 82.8756 146.415 76.7739 148.06 73.723C148.412 73.019 149.235 71.8456 150.998 71.8456C156.992 71.8456 179.086 71.8456 193.776 71.8456C193.541 75.0138 193.541 78.182 193.071 81.3502C191.778 89.7987 188.605 97.5431 183.434 104.349C174.972 115.496 163.925 122.419 149.94 124.297C138.423 125.822 127.729 123.593 118.327 116.552C109.63 109.981 104.694 101.298 103.401 90.5027C101.874 77.7126 105.634 66.2132 113.391 56.122C121.735 45.2093 132.782 38.2863 146.297 35.8221C157.344 33.8273 167.921 35.1181 177.44 41.5718C183.669 45.6787 188.135 51.311 191.073 58.1168C191.778 59.1728 191.308 59.7595 189.898 60.1116Z" fill="#00ACD7"/>
<path d="M228.798 125.001C218.103 124.766 208.349 121.715 200.122 114.675C193.188 108.69 188.84 101.063 187.43 92.028C185.314 78.7685 188.958 67.0345 196.949 56.5912C205.528 45.3265 215.87 39.4595 229.855 36.9954C241.843 34.8833 253.125 36.0567 263.349 42.9797C272.633 49.3161 278.392 57.882 279.92 69.1466C281.918 84.9876 277.334 97.895 266.405 108.925C258.648 116.787 249.129 121.715 238.199 123.945C235.026 124.531 231.853 124.649 228.798 125.001ZM256.768 77.5951C256.65 76.0697 256.65 74.8963 256.415 73.7229C254.3 62.1062 243.605 55.5352 232.441 58.1166C221.511 60.5808 214.46 67.5039 211.874 78.5338C209.759 87.6864 214.225 96.9563 222.686 100.711C229.15 103.527 235.614 103.175 241.843 100.007C251.127 95.1962 256.18 87.6864 256.768 77.5951Z" fill="#00ACD7"/>
</g>
<defs>
<clipPath id="clip0_462_2853">
<rect width="241.391" height="90" fill="white" transform="translate(39 35)"/>
</clipPath>
</defs>
</svg>
