<?xml version="1.0"?>
<svg xmlns="http://www.w3.org/2000/svg" width="320" height="160" viewBox="0 0 320 160" fill="none">
<path d="M54.5259 69.8007H56.0987L60.5813 65.3181L60.8015 63.415C58.2336 61.1484 55.1302 59.574 51.7846 58.8403C48.439 58.1066 44.9616 58.2379 41.6808 59.2218C38.4001 60.2057 35.4243 62.0097 33.0346 64.4635C30.645 66.9172 28.9202 69.9396 28.0234 73.2452C28.5228 73.0406 29.076 73.0074 29.5963 73.1509L38.5615 71.6724C38.5615 71.6724 39.0176 70.9174 39.2535 70.9646C41.1745 68.8549 43.8292 67.5593 46.6742 67.3429C49.5193 67.1265 52.3394 68.0058 54.5573 69.8007H54.5259Z" fill="#EA4335"/>
<path d="M66.9674 73.2452C65.9371 69.4509 63.8216 66.0399 60.8805 63.4307L54.5892 69.722C55.9003 70.7934 56.9511 72.1485 57.6622 73.6852C58.3734 75.2219 58.7262 76.8999 58.6943 78.5929V79.7096C59.4296 79.7096 60.1577 79.8544 60.837 80.1358C61.5164 80.4172 62.1336 80.8297 62.6536 81.3496C63.1735 81.8695 63.586 82.4868 63.8674 83.1662C64.1488 83.8455 64.2936 84.5736 64.2936 85.3089C64.2936 86.0442 64.1488 86.7723 63.8674 87.4517C63.586 88.131 63.1735 88.7483 62.6536 89.2682C62.1336 89.7882 61.5164 90.2006 60.837 90.482C60.1577 90.7634 59.4296 90.9082 58.6943 90.9082H47.4956L46.3789 92.0407V98.7567L47.4956 99.8734H58.6943C61.8215 99.8978 64.8734 98.9149 67.3987 97.0703C69.924 95.2256 71.7885 92.6171 72.7164 89.6307C73.6442 86.6442 73.5862 83.4384 72.5509 80.4875C71.5155 77.5366 69.5578 74.9973 66.9674 73.2452Z" fill="#4285F4"/>
<path d="M36.2805 99.8108H47.4791V90.8456H36.2805C35.4826 90.8454 34.6941 90.6738 33.9684 90.3423L32.3956 90.8299L27.8815 95.3125L27.4883 96.8853C30.0197 98.7968 33.1085 99.8246 36.2805 99.8108Z" fill="#34A853"/>
<path d="M36.2803 70.7286C33.246 70.7467 30.2931 71.7121 27.8341 73.4899C25.3751 75.2677 23.5327 77.7691 22.5643 80.6448C21.596 83.5205 21.5499 86.6268 22.4327 89.5299C23.3154 92.433 25.0828 94.9879 27.4881 96.8378L33.9839 90.342C33.1584 89.969 32.4357 89.4014 31.8779 88.6877C31.32 87.9741 30.9436 87.1357 30.781 86.2446C30.6183 85.3535 30.6743 84.4362 30.9441 83.5715C31.2139 82.7068 31.6895 81.9205 32.33 81.2799C32.9705 80.6394 33.7568 80.1639 34.6216 79.8941C35.4863 79.6243 36.4035 79.5683 37.2946 79.7309C38.1857 79.8936 39.0241 80.27 39.7377 80.8278C40.4514 81.3857 41.0191 82.1084 41.392 82.9339L47.8879 76.438C46.5244 74.6556 44.7672 73.2128 42.7535 72.2223C40.7398 71.2318 38.5243 70.7206 36.2803 70.7286Z" fill="#FBBC05"/>
<path d="M103.19 93.5511C101.262 93.5757 99.3485 93.2108 97.5648 92.4784C95.7811 91.746 94.1635 90.6611 92.809 89.2887C91.4119 87.9745 90.3032 86.3843 89.5532 84.619C88.8032 82.8536 88.4283 80.9517 88.4523 79.0337C88.4292 77.116 88.8046 75.2143 89.5545 73.4491C90.3045 71.6839 91.4127 70.0936 92.809 68.7788C94.1569 67.3922 95.7714 66.2927 97.5555 65.5467C99.3395 64.8006 101.256 64.4234 103.19 64.4378C105.032 64.4132 106.861 64.7551 108.57 65.4437C110.28 66.1322 111.835 67.1536 113.146 68.4485L110.346 71.2954C108.429 69.4425 105.856 68.4245 103.19 68.4642C101.807 68.4473 100.435 68.7181 99.1628 69.2597C97.8902 69.8012 96.7441 70.6016 95.7974 71.6099C94.8136 72.586 94.0374 73.7511 93.5157 75.035C92.994 76.319 92.7376 77.6953 92.7618 79.0809C92.7503 80.4508 93.0129 81.8091 93.5343 83.076C94.0556 84.3428 94.8251 85.4926 95.7974 86.4576C97.7452 88.3986 100.374 89.5028 103.123 89.5351C105.873 89.5674 108.526 88.5253 110.519 86.6306C111.753 85.2795 112.51 83.5613 112.674 81.739H103.237V77.7126H116.59C116.722 78.5235 116.774 79.3452 116.748 80.1662C116.831 81.8655 116.568 83.564 115.976 85.159C115.384 86.754 114.475 88.2124 113.303 89.446C112 90.8023 110.427 91.8689 108.684 92.5762C106.941 93.2836 105.069 93.6157 103.19 93.5511ZM134.238 90.8773C132.446 92.5951 130.059 93.5542 127.577 93.5542C125.094 93.5542 122.708 92.5951 120.916 90.8773C120.024 90.0124 119.321 88.9716 118.853 87.8209C118.384 86.6701 118.16 85.4346 118.195 84.1927C118.161 82.9509 118.386 81.7156 118.854 80.565C119.323 79.4144 120.025 78.3735 120.916 77.5081C122.71 75.7939 125.095 74.8372 127.577 74.8372C130.058 74.8372 132.444 75.7939 134.238 77.5081C135.129 78.3735 135.831 79.4144 136.299 80.565C136.768 81.7156 136.992 82.9509 136.959 84.1927C136.991 85.4358 136.765 86.672 136.293 87.8228C135.822 88.9736 135.117 90.0138 134.222 90.8773H134.238ZM123.857 88.2506C124.334 88.7597 124.91 89.1655 125.55 89.4429C126.189 89.7203 126.879 89.8634 127.577 89.8634C128.274 89.8634 128.964 89.7203 129.604 89.4429C130.244 89.1655 130.82 88.7597 131.297 88.2506C131.816 87.7134 132.223 87.0776 132.493 86.3807C132.763 85.6838 132.891 84.9398 132.869 84.1927C132.893 83.443 132.765 82.6963 132.495 81.9967C132.225 81.297 131.817 80.6586 131.297 80.119C130.814 79.6152 130.234 79.2143 129.592 78.9404C128.95 78.6665 128.259 78.5253 127.561 78.5253C126.863 78.5253 126.172 78.6665 125.53 78.9404C124.888 79.2143 124.309 79.6152 123.826 80.119C123.305 80.6586 122.897 81.297 122.627 81.9967C122.357 82.6963 122.229 83.443 122.253 84.1927C122.233 84.9409 122.363 85.6855 122.636 86.3825C122.909 87.0795 123.319 87.7147 123.841 88.2506H123.857ZM154.716 90.8773C152.924 92.5951 150.538 93.5542 148.055 93.5542C145.573 93.5542 143.186 92.5951 141.394 90.8773C140.502 90.0124 139.8 88.9716 139.331 87.8209C138.863 86.6701 138.639 85.4346 138.673 84.1927C138.64 82.9509 138.864 81.7156 139.333 80.565C139.801 79.4144 140.503 78.3735 141.394 77.5081C143.186 75.7903 145.573 74.8312 148.055 74.8312C150.538 74.8312 152.924 75.7903 154.716 77.5081C155.607 78.3735 156.309 79.4144 156.778 80.565C157.246 81.7156 157.471 82.9509 157.437 84.1927C157.472 85.4346 157.247 86.6701 156.779 87.8209C156.311 88.9716 155.608 90.0124 154.716 90.8773ZM144.335 88.2506C144.812 88.7597 145.388 89.1655 146.028 89.4429C146.668 89.7203 147.358 89.8634 148.055 89.8634C148.753 89.8634 149.443 89.7203 150.082 89.4429C150.722 89.1655 151.298 88.7597 151.775 88.2506C152.295 87.7134 152.702 87.0776 152.972 86.3807C153.242 85.6838 153.37 84.9398 153.348 84.1927C153.371 83.443 153.244 82.6963 152.974 81.9967C152.703 81.297 152.296 80.6586 151.775 80.119C151.292 79.6152 150.712 79.2143 150.07 78.9404C149.428 78.6665 148.737 78.5253 148.039 78.5253C147.341 78.5253 146.651 78.6665 146.009 78.9404C145.367 79.2143 144.787 79.6152 144.304 80.119C143.783 80.6586 143.375 81.297 143.105 81.9967C142.835 82.6963 142.708 83.443 142.731 84.1927C142.711 84.9409 142.842 85.6855 143.114 86.3825C143.387 87.0795 143.797 87.7147 144.32 88.2506H144.335ZM168.18 101.95C166.295 102.01 164.446 101.422 162.942 100.283C161.607 99.2792 160.556 97.9459 159.891 96.4137L163.477 94.9195C163.867 95.8352 164.478 96.6402 165.254 97.263C166.085 97.933 167.128 98.2844 168.195 98.2539C168.872 98.2951 169.55 98.1899 170.182 97.9457C170.815 97.7014 171.387 97.3237 171.86 96.8383C172.808 95.6953 173.276 94.2296 173.166 92.7489V91.3963H173.024C172.425 92.1082 171.668 92.6707 170.813 93.0392C169.959 93.4078 169.03 93.5723 168.101 93.5196C166.92 93.5232 165.751 93.2818 164.668 92.8108C163.586 92.3397 162.612 91.6492 161.81 90.7829C160.939 89.9235 160.252 88.8963 159.789 87.7635C159.327 86.6307 159.099 85.416 159.12 84.1927C159.098 82.9622 159.325 81.7401 159.788 80.5995C160.25 79.459 160.938 78.4235 161.81 77.5553C162.61 76.6853 163.583 75.9914 164.666 75.5175C165.749 75.0437 166.919 74.8003 168.101 74.8028C169.102 74.801 170.09 75.0213 170.995 75.4477C171.778 75.7896 172.476 76.2997 173.04 76.9419H173.181V75.4477H177.082V92.1985C177.185 93.5235 177.016 94.8556 176.586 96.1132C176.156 97.3708 175.474 98.5274 174.581 99.5122C173.731 100.325 172.727 100.96 171.627 101.379C170.528 101.798 169.355 101.992 168.18 101.95ZM168.463 89.8706C169.134 89.8854 169.801 89.7521 170.415 89.4803C171.03 89.2085 171.577 88.8048 172.017 88.2978C172.988 87.1857 173.5 85.7464 173.449 84.2713C173.507 82.7713 172.996 81.3048 172.017 80.1662C171.577 79.6584 171.031 79.2541 170.416 78.9822C169.802 78.7103 169.135 78.5775 168.463 78.5934C167.773 78.5792 167.088 78.7121 166.453 78.9833C165.819 79.2545 165.249 79.6577 164.782 80.1662C163.742 81.2639 163.177 82.7278 163.21 84.2399C163.194 84.9815 163.324 85.7191 163.594 86.41C163.864 87.101 164.268 87.7319 164.782 88.2663C165.247 88.7797 165.815 89.1883 166.45 89.4649C167.084 89.7415 167.771 89.8798 168.463 89.8706ZM184.018 65.4916V92.9849H179.913V65.4916H184.018ZM195.28 93.5511C194.05 93.5827 192.828 93.3601 191.688 92.8973C190.549 92.4345 189.517 91.7415 188.658 90.8615C187.786 89.9881 187.101 88.9465 186.644 87.8001C186.187 86.6537 185.968 85.4264 186 84.1927C185.954 82.9559 186.157 81.7225 186.597 80.566C187.037 79.4094 187.706 78.3534 188.564 77.4609C189.372 76.6092 190.349 75.9355 191.432 75.4832C192.515 75.0309 193.681 74.8099 194.855 74.8343C195.934 74.8229 197.005 75.0316 198.001 75.4477C198.898 75.8098 199.716 76.3441 200.407 77.0205C201.001 77.5939 201.529 78.2323 201.98 78.9236C202.345 79.5074 202.656 80.1234 202.908 80.7639L203.333 81.8334L190.75 87.0081C191.131 87.8824 191.767 88.6209 192.576 89.1263C193.384 89.6317 194.327 89.8803 195.28 89.8392C196.207 89.8417 197.118 89.604 197.926 89.1491C198.734 88.6943 199.41 88.0379 199.888 87.244L203.034 89.3673C202.231 90.5158 201.204 91.4897 200.014 92.2299C198.599 93.1238 196.953 93.5832 195.28 93.5511ZM190.027 83.9096L198.394 80.4336C198.136 79.8207 197.675 79.3153 197.089 79.0023C196.432 78.6313 195.688 78.4414 194.934 78.4518C193.654 78.4849 192.439 79.0219 191.552 79.946C191.022 80.4536 190.61 81.072 190.346 81.7572C190.082 82.4424 189.973 83.1773 190.027 83.9096ZM224.834 93.5511C223.088 93.5812 221.354 93.2583 219.736 92.6016C218.118 91.9449 216.649 90.9681 215.418 89.7298C214.187 88.4914 213.219 87.0171 212.572 85.3953C211.925 83.7735 211.613 82.0377 211.653 80.292C211.613 78.5464 211.925 76.8106 212.572 75.1888C213.219 73.567 214.187 72.0926 215.418 70.8543C216.649 69.6159 218.118 68.6391 219.736 67.9824C221.354 67.3258 223.088 67.0028 224.834 67.033C226.601 66.9777 228.357 67.3225 229.972 68.0415C231.587 68.7605 233.019 69.8352 234.161 71.1853L231.896 73.3872C231.058 72.3333 229.983 71.4919 228.758 70.9317C227.534 70.3714 226.195 70.108 224.849 70.1629C223.554 70.1337 222.267 70.3667 221.064 70.8478C219.861 71.3289 218.768 72.0483 217.85 72.9626C216.896 73.922 216.151 75.0684 215.661 76.3297C215.171 77.5911 214.947 78.9401 215.003 80.292C214.947 81.644 215.171 82.993 215.661 84.2543C216.151 85.5156 216.896 86.662 217.85 87.6215C218.768 88.5358 219.861 89.2551 221.064 89.7362C222.267 90.2173 223.554 90.4503 224.849 90.4211C226.352 90.438 227.84 90.1158 229.202 89.4787C230.563 88.8415 231.763 87.9056 232.713 86.7407L234.978 89.0056C233.793 90.4236 232.304 91.5577 230.622 92.3243C228.808 93.1614 226.83 93.5806 224.834 93.5511ZM241.065 92.9849H237.81V67.5834H241.065V92.9849ZM246.382 77.6968C248.088 76.0026 250.394 75.0517 252.799 75.0517C255.203 75.0517 257.51 76.0026 259.216 77.6968C260.05 78.5777 260.702 79.6148 261.134 80.7485C261.566 81.8822 261.769 83.0901 261.732 84.3028C261.769 85.5154 261.566 86.7233 261.134 87.8571C260.702 88.9908 260.05 90.0279 259.216 90.9087C257.51 92.603 255.203 93.5539 252.799 93.5539C250.394 93.5539 248.088 92.603 246.382 90.9087C245.547 90.0279 244.895 88.9908 244.464 87.8571C244.032 86.7233 243.828 85.5154 243.865 84.3028C243.828 83.0901 244.032 81.8822 244.464 80.7485C244.895 79.6148 245.547 78.5777 246.382 77.6968ZM248.804 88.864C249.317 89.4062 249.935 89.838 250.62 90.1331C251.306 90.4282 252.044 90.5804 252.791 90.5804C253.537 90.5804 254.276 90.4282 254.961 90.1331C255.647 89.838 256.265 89.4062 256.778 88.864C257.347 88.2534 257.789 87.5356 258.078 86.7525C258.367 85.9694 258.497 85.1367 258.461 84.3028C258.497 83.4689 258.367 82.6361 258.078 81.853C257.789 81.0699 257.347 80.3522 256.778 79.7415C256.265 79.1994 255.647 78.7676 254.961 78.4724C254.276 78.1773 253.537 78.0251 252.791 78.0251C252.044 78.0251 251.306 78.1773 250.62 78.4724C249.935 78.7676 249.317 79.1994 248.804 79.7415C248.235 80.3522 247.793 81.0699 247.504 81.853C247.215 82.6361 247.085 83.4689 247.121 84.3028C247.089 85.1352 247.223 85.9656 247.514 86.7459C247.806 87.5262 248.249 88.2408 248.819 88.8483L248.804 88.864ZM279.773 92.9849H276.627V90.5784H276.533C275.973 91.4924 275.181 92.2414 274.237 92.7489C273.257 93.3167 272.145 93.6152 271.012 93.614C270.093 93.6769 269.171 93.5313 268.316 93.1882C267.461 92.845 266.694 92.3131 266.074 91.6322C264.882 90.1252 264.283 88.2342 264.391 86.316V75.6207H267.646V85.7183C267.646 88.9584 269.078 90.5784 271.94 90.5784C272.576 90.5983 273.208 90.4659 273.782 90.1923C274.357 89.9187 274.858 89.5118 275.243 89.0056C276.087 87.9361 276.537 86.6087 276.517 85.2465V75.6207H279.773V92.9849ZM290.83 93.5511C289.726 93.5548 288.633 93.319 287.629 92.8602C286.624 92.4013 285.731 91.7302 285.011 90.893C283.38 89.092 282.507 86.7314 282.573 84.3028C282.507 81.8741 283.38 79.5136 285.011 77.7126C285.731 76.8754 286.624 76.2042 287.629 75.7454C288.633 75.2865 289.726 75.0508 290.83 75.0545C292.067 75.0349 293.29 75.327 294.385 75.9038C295.347 76.3879 296.161 77.1212 296.744 78.0271H296.886L296.744 75.6207V67.5834H300V92.9849H296.854V90.5784H296.713C296.13 91.4844 295.315 92.2176 294.353 92.7018C293.268 93.2734 292.057 93.5654 290.83 93.5511ZM291.365 90.5784C292.101 90.5891 292.831 90.4432 293.506 90.1504C294.181 89.8575 294.786 89.4244 295.281 88.8797C296.387 87.6204 296.952 85.9759 296.854 84.3028C296.952 82.6296 296.387 80.9851 295.281 79.7258C294.783 79.1782 294.176 78.7407 293.499 78.4414C292.822 78.142 292.089 77.9874 291.349 77.9874C290.609 77.9874 289.877 78.142 289.199 78.4414C288.522 78.7407 287.915 79.1782 287.417 79.7258C286.868 80.3452 286.446 81.0669 286.176 81.8497C285.906 82.6324 285.793 83.4607 285.844 84.287C285.793 85.1134 285.906 85.9417 286.176 86.7244C286.446 87.5072 286.868 88.2289 287.417 88.8483C287.913 89.4027 288.522 89.844 289.203 90.1425C289.884 90.441 290.621 90.5897 291.365 90.5784Z" fill="#5F6368"/>
</svg>
