<?xml version="1.0"?>
<svg xmlns="http://www.w3.org/2000/svg" width="320" height="160" viewBox="0 0 320 160" fill="none">
<path d="M159.74 10C121.563 10 90.6152 41.3345 90.6152 80C90.6152 118.665 121.563 150 159.74 150C197.917 150 228.865 118.66 228.865 80C228.865 41.3396 197.917 10 159.74 10ZM196.389 43.74C196.012 43.4473 195.529 43.1978 194.956 42.9967C194.349 42.78 193.738 42.578 193.121 42.3909C192.487 42.1984 191.879 41.9283 191.309 41.5865C190.756 41.2556 190.293 40.8102 189.926 40.2705C189.56 39.7309 189.381 39.008 189.381 38.1196C189.381 37.2542 189.549 36.4905 189.884 35.8465C190.218 35.2025 190.676 34.6425 191.236 34.2073C191.797 33.772 192.455 33.4309 193.184 33.2145C193.913 32.9982 194.692 32.8836 195.446 32.8836C196.351 32.8836 197.239 33.0185 198.081 33.2731C198.89 33.5276 199.634 33.9425 200.293 34.5153L197.98 37.0811C197.689 36.74 197.301 36.4778 196.824 36.3124C196.321 36.1342 195.834 36.0425 195.384 36.0425C195.107 36.0419 194.831 36.0726 194.562 36.1342C194.28 36.1978 194.009 36.2971 193.757 36.432C193.506 36.5669 193.287 36.7553 193.129 36.9818C192.97 37.2084 192.883 37.4985 192.883 37.8218C192.883 38.3309 193.074 38.7509 193.471 39.036C193.84 39.3033 194.315 39.5375 194.883 39.7233C195.479 39.9233 196.079 40.1092 196.683 40.2807C197.312 40.464 197.91 40.7262 198.46 41.0596C199.011 41.3931 199.466 41.8487 199.818 42.4011C200.17 42.9535 200.356 43.7069 200.356 44.6487C200.356 45.5396 200.19 46.3287 199.86 46.9982C199.531 47.6676 199.081 48.22 198.523 48.6578C197.938 49.1066 197.273 49.4383 196.565 49.6353C195.816 49.8516 195.019 49.9585 194.195 49.9585C193.159 49.9585 192.184 49.7982 191.294 49.4749C190.432 49.1644 189.622 48.6604 188.873 47.9782L191.279 45.3004C191.642 45.7636 192.104 46.1371 192.631 46.3924C193.199 46.6622 193.795 46.7996 194.401 46.7996C194.702 46.7996 195.004 46.764 195.306 46.6978C195.594 46.6293 195.871 46.5205 196.13 46.3745C196.382 46.2269 196.583 46.036 196.733 45.8145C196.884 45.5931 196.967 45.3055 196.967 44.9949C196.978 44.7534 196.929 44.513 196.824 44.2956C196.72 44.0783 196.563 43.8908 196.369 43.7502L196.389 43.74ZM177.336 33.2909H180.729V46.3695H187.35V49.5258H177.336V33.2858V33.2909ZM169.958 33.2909H173.347V49.5309H169.958V33.2909ZM158.059 33.2909H160.894L167.869 49.5309H164.039L162.643 46.0487H156.216L154.864 49.5309H151.126L158.059 33.2909ZM137.045 33.2909H143.228C144.011 33.2866 144.792 33.3677 145.558 33.5327C146.24 33.6723 146.89 33.9428 147.471 34.3295C148.022 34.7092 148.469 35.2241 148.771 35.8262C149.092 36.4498 149.253 37.2465 149.253 38.1833C149.253 39.316 148.959 40.296 148.379 41.0851C147.821 41.8487 147.004 42.34 145.95 42.5615L145.699 42.6124L149.796 49.5182H145.732L142.343 42.956H140.433V49.5182H137.04V33.2782L137.045 33.2909ZM119.223 37.8727C119.65 36.824 120.228 35.9178 121.023 35.1822C121.817 34.4465 122.707 33.8713 123.788 33.4716C124.869 33.072 126.012 32.876 127.262 32.876C128.465 32.8656 129.663 33.0241 130.823 33.3469C131.852 33.643 132.8 34.1751 133.593 34.9022L131.205 37.5444C130.703 37.0607 130.182 36.6891 129.592 36.432C128.971 36.1622 128.192 36.0324 127.267 36.0324C126.495 36.0324 125.784 36.1596 125.16 36.432C124.537 36.7044 123.986 37.076 123.536 37.552C123.079 38.0458 122.726 38.6287 122.498 39.2651C122.259 39.9218 122.141 40.6447 122.141 41.4109C122.141 42.1898 122.259 42.9127 122.498 43.5669C122.737 44.2211 123.089 44.7887 123.536 45.2673C123.984 45.7458 124.532 46.1225 125.16 46.3873C125.789 46.652 126.497 46.7869 127.267 46.7869C127.957 46.8009 128.646 46.7099 129.31 46.5171C129.848 46.3465 130.29 46.1735 130.627 45.9953L130.652 45.98L130.69 45.9444L130.725 45.8782V43.1215H127.82V39.9702H133.978V48.4058C132.958 48.939 131.873 49.3328 130.75 49.5767C129.605 49.8245 128.438 49.9482 127.267 49.9458C126.017 49.9458 124.848 49.7473 123.793 49.3502C122.774 48.9767 121.841 48.3954 121.053 47.6422C120.27 46.8835 119.657 45.9645 119.253 44.9465C118.826 43.8978 118.607 42.7065 118.607 41.4135C118.607 40.1204 118.826 38.9291 119.253 37.8753L119.223 37.8727ZM141.353 93.5927C140.317 94.0509 138.995 94.5778 138.477 94.8553C137.522 95.3694 136.049 96.4945 135.222 97.7876C134.609 98.7473 134.041 100.079 133.852 100.911C133.739 101.451 133.684 102.24 133.694 103.166C133.719 105.33 134.084 108.206 134.818 110.179C135.652 112.419 136.107 113.165 137.07 115.435L138.05 117.757C138.125 117.935 138.105 118.139 138 118.296C137.743 118.691 137.17 119.442 136.22 119.956C134.561 120.862 131.077 121.188 129.348 121.203H129.34C127.613 121.191 124.127 120.865 122.468 119.956C121.751 119.558 121.14 118.988 120.691 118.296C120.585 118.136 120.565 117.935 120.641 117.757L121.646 115.435C122.609 113.165 123.064 112.419 123.898 110.179C124.632 108.206 124.999 105.33 125.022 103.166C125.032 102.24 124.979 101.451 124.861 100.911C124.675 100.053 124.107 98.7473 123.494 97.7876C122.664 96.4971 121.189 95.3694 120.238 94.8553C119.522 94.4734 117.222 93.608 116.355 93.1065C115.093 92.3872 113.882 91.5783 112.733 90.6858C111.242 89.4299 109.856 88.0525 108.588 86.5673C106.954 84.5131 105.446 82.1051 104.717 79.5087C103.812 76.2887 103.845 74.9116 103.726 73.8705C103.706 73.6924 103.837 73.5396 104.013 73.5269C104.888 73.5015 108.035 73.4251 119.034 73.4073C119.251 73.4047 119.447 73.5422 119.522 73.7458C122.614 82.044 130.683 88.9091 141.333 92.6433C141.768 92.796 141.805 93.4069 141.383 93.5927H141.353ZM168.432 117.209C169.785 120.849 170.524 122.056 172.09 125.744L173.678 129.512C173.804 129.804 173.769 130.123 173.598 130.395C172.864 131.517 171.872 132.441 170.707 133.088C168.018 134.559 162.354 135.094 159.547 135.104H159.537C156.726 135.094 151.066 134.559 148.376 133.088C147.212 132.441 146.222 131.517 145.49 130.395C145.32 130.128 145.289 129.804 145.41 129.512L146.994 125.744C148.56 122.053 149.299 120.847 150.653 117.209C151.845 114.002 152.446 109.334 152.481 105.816C152.496 104.319 152.405 103.031 152.222 102.151C151.92 100.763 150.995 98.648 149.997 97.0596C148.655 94.9571 146.252 93.1345 144.714 92.2996C143.547 91.6709 139.857 90.2684 138.43 89.4564C136.58 88.4255 134.166 86.8091 132.548 85.5287C130.745 84.1033 127.204 80.5829 125.821 78.8342C123.164 75.4996 120.719 71.5873 119.537 67.3745C118.069 62.1436 118.13 59.9113 117.928 58.2211C117.896 57.9284 118.109 57.6738 118.396 57.6611C120.186 57.5949 127.837 57.4269 159.574 57.4575L200.748 57.6611C201.037 57.6713 201.25 57.9284 201.215 58.2211C201.019 59.9113 201.077 62.1462 199.607 67.3745C198.425 71.5873 195.974 75.4945 193.322 78.8342C191.94 80.5778 188.401 84.0956 186.596 85.5287C184.728 86.9769 182.762 88.2894 180.712 89.4564C179.261 90.2709 175.569 91.6709 174.402 92.2996C172.856 93.132 170.456 94.9545 169.114 97.0596C168.118 98.6225 167.191 100.738 166.894 102.151C166.706 103.029 166.618 104.314 166.635 105.816C166.665 109.334 167.269 114.005 168.46 117.209H168.432ZM210.92 86.5622C209.654 88.0478 208.27 89.4253 206.78 90.6807C205.783 91.4698 204.297 92.4625 203.156 93.0989C202.261 93.5978 199.989 94.4607 199.275 94.8476C198.32 95.3618 196.844 96.4869 196.015 97.78C195.404 98.7396 194.833 100.071 194.647 100.903C194.529 101.443 194.479 102.232 194.486 103.159C194.511 105.322 194.878 108.199 195.612 110.171C196.449 112.411 196.902 113.157 197.865 115.428L198.87 117.749C198.945 117.927 198.925 118.131 198.82 118.289C198.561 118.683 197.99 119.434 197.043 119.948C195.384 120.855 191.9 121.18 190.17 121.196H190.165C188.436 121.183 184.947 120.857 183.293 119.948C182.338 119.432 181.77 118.686 181.513 118.289C181.408 118.128 181.388 117.927 181.463 117.749L182.469 115.428C183.431 113.157 183.884 112.411 184.718 110.171C185.452 108.199 185.824 105.322 185.849 103.159C185.854 102.232 185.804 101.443 185.688 100.903C185.502 100.045 184.934 98.7396 184.321 97.78C183.492 96.4895 182.016 95.3618 181.063 94.8476C180.548 94.5676 179.221 94.0458 178.19 93.5851C177.763 93.3967 177.801 92.7884 178.241 92.6356C188.823 88.904 196.892 82.0364 199.958 73.7382C200.034 73.5345 200.235 73.3971 200.446 73.3996L215.468 73.5193C215.644 73.5295 215.774 73.6873 215.754 73.8629C215.638 74.9015 215.669 76.2811 214.764 79.5011C214.01 82.0975 212.527 84.5055 210.893 86.5596L210.92 86.5622ZM145.717 38.1629C145.717 38.6364 145.611 39.0029 145.41 39.2651C145.209 39.5273 144.953 39.7182 144.646 39.8378C144.339 39.9575 144.012 40.0287 143.648 40.0567C143.307 40.0787 142.966 40.0905 142.625 40.0924H140.425V36.1724H142.851C143.173 36.1724 143.505 36.1927 143.849 36.2436C144.168 36.2816 144.479 36.3728 144.769 36.5135C145.04 36.6535 145.272 36.8571 145.448 37.1167C145.64 37.4309 145.733 37.7939 145.717 38.1629ZM159.366 37.7251L161.492 43.1775H157.262L159.366 37.7251Z" fill="#FEB672"/>
</svg>
