<?xml version="1.0"?>
<svg xmlns="http://www.w3.org/2000/svg" width="320" height="160" viewBox="0 0 320 160" fill="none">
<path fill-rule="evenodd" clip-rule="evenodd" d="M58.1472 47.2644L86.6225 63.6976V96.564L58.1472 112.997L29.6719 96.564V63.6976L58.1472 47.2644ZM32.8669 65.5414V89.6827L53.7828 53.4708L32.8669 65.5414ZM58.1472 52.3019L34.0363 94.0453H82.2581L58.1472 52.3019ZM79.0631 97.2389H37.2313L58.1472 109.31L79.0631 97.2389ZM83.4275 89.6827L62.5116 53.4708L83.4275 65.5414V89.6827Z" fill="#E10098"/>
<path d="M58.1471 55.8346C61.8635 55.8346 64.8763 52.8232 64.8763 49.1084C64.8763 45.3935 61.8635 42.3821 58.1471 42.3821C54.4307 42.3821 51.418 45.3935 51.418 49.1084C51.418 52.8232 54.4307 55.8346 58.1471 55.8346Z" fill="#E10098"/>
<path d="M85.0241 71.3459C88.7405 71.3459 91.7532 68.3344 91.7532 64.6196C91.7532 60.9048 88.7405 57.8933 85.0241 57.8933C81.3077 57.8933 78.2949 60.9048 78.2949 64.6196C78.2949 68.3344 81.3077 71.3459 85.0241 71.3459Z" fill="#E10098"/>
<path d="M85.0241 102.368C88.7405 102.368 91.7532 99.357 91.7532 95.6422C91.7532 91.9274 88.7405 88.9159 85.0241 88.9159C81.3077 88.9159 78.2949 91.9274 78.2949 95.6422C78.2949 99.357 81.3077 102.368 85.0241 102.368Z" fill="#E10098"/>
<path d="M58.1471 117.88C61.8635 117.88 64.8763 114.868 64.8763 111.153C64.8763 107.439 61.8635 104.427 58.1471 104.427C54.4307 104.427 51.418 107.439 51.418 111.153C51.418 114.868 54.4307 117.88 58.1471 117.88Z" fill="#E10098"/>
<path d="M31.2663 102.368C34.9827 102.368 37.9954 99.357 37.9954 95.6422C37.9954 91.9274 34.9827 88.9159 31.2663 88.9159C27.5499 88.9159 24.5371 91.9274 24.5371 95.6422C24.5371 99.357 27.5499 102.368 31.2663 102.368Z" fill="#E10098"/>
<path d="M31.2663 71.3459C34.9827 71.3459 37.9954 68.3344 37.9954 64.6196C37.9954 60.9048 34.9827 57.8933 31.2663 57.8933C27.5499 57.8933 24.5371 60.9048 24.5371 64.6196C24.5371 68.3344 27.5499 71.3459 31.2663 71.3459Z" fill="#E10098"/>
<path d="M125.953 96.6224C121.98 96.6224 118.896 95.4785 116.702 93.1907C114.509 90.9028 113.349 87.8365 113.222 83.9916C113.19 83.0383 113.174 81.529 113.174 79.4636C113.174 77.3982 113.19 75.8888 113.222 74.9355C113.349 71.0906 114.509 68.0243 116.702 65.7365C118.896 63.4486 121.98 62.3047 125.953 62.3047C128.655 62.3047 130.928 62.8131 132.772 63.8299C134.616 64.8467 135.983 66.0542 136.873 67.4524C137.795 68.8187 138.288 70.042 138.351 71.1224V71.2178C138.351 71.472 138.256 71.6785 138.065 71.8374C137.874 71.9963 137.636 72.0757 137.349 72.0757H136.301C136.015 72.0757 135.808 72.0122 135.681 71.8851C135.553 71.7579 135.427 71.5038 135.299 71.1224C134.759 69.4384 133.71 68.0243 132.152 66.8804C130.626 65.7365 128.56 65.1645 125.953 65.1645C122.997 65.1645 120.661 65.9748 118.944 67.5953C117.259 69.2159 116.353 71.7421 116.226 75.1738C116.194 76.1271 116.178 77.557 116.178 79.4636C116.178 81.3701 116.194 82.8 116.226 83.7533C116.353 87.1851 117.259 89.7112 118.944 91.3318C120.661 92.9524 122.997 93.7626 125.953 93.7626C128.91 93.7626 131.294 92.9206 133.106 91.2365C134.918 89.5524 135.823 87.0579 135.823 83.7533V81.3224H127.527C127.209 81.3224 126.955 81.2271 126.764 81.0365C126.573 80.814 126.478 80.544 126.478 80.2262V79.5589C126.478 79.2411 126.573 78.9869 126.764 78.7963C126.955 78.5738 127.209 78.4626 127.527 78.4626H137.731C138.081 78.4626 138.351 78.558 138.542 78.7486C138.732 78.9393 138.828 79.2094 138.828 79.5589V83.7533C138.828 86.2953 138.319 88.5355 137.302 90.4738C136.285 92.4122 134.806 93.9215 132.868 95.0019C130.928 96.0823 128.623 96.6224 125.953 96.6224Z" fill="#E10098"/>
<path d="M146.604 96.1458C146.286 96.1458 146.032 96.0504 145.841 95.8598C145.65 95.6691 145.555 95.415 145.555 95.0972V72.457C145.555 72.1392 145.65 71.885 145.841 71.6944C146.032 71.4719 146.286 71.3607 146.604 71.3607H147.367C147.685 71.3607 147.939 71.4719 148.13 71.6944C148.352 71.885 148.464 72.1392 148.464 72.457V74.6495C149.608 72.457 151.77 71.3607 154.949 71.3607H156.713C157.031 71.3607 157.285 71.456 157.476 71.6467C157.666 71.8374 157.762 72.0915 157.762 72.4093V73.0766C157.762 73.3944 157.666 73.6486 157.476 73.8392C157.285 74.0299 157.031 74.1252 156.713 74.1252H154.663C152.755 74.1252 151.245 74.6813 150.132 75.7934C149.02 76.9056 148.464 78.4149 148.464 80.3215V95.0972C148.464 95.415 148.352 95.6691 148.13 95.8598C147.939 96.0504 147.685 96.1458 147.367 96.1458H146.604Z" fill="#E10098"/>
<path d="M168.436 96.6225C166.91 96.6225 165.495 96.3047 164.192 95.6692C162.889 95.0337 161.84 94.1758 161.045 93.0954C160.282 92.015 159.9 90.8234 159.9 89.5206C159.9 87.4234 160.743 85.7075 162.428 84.3729C164.145 83.0384 166.449 82.1804 169.342 81.7991L176.876 80.7505V79.0823C176.876 77.3346 176.336 76 175.255 75.0785C174.206 74.1253 172.584 73.6486 170.391 73.6486C168.77 73.6486 167.434 73.9664 166.385 74.6019C165.368 75.2374 164.717 76 164.431 76.8898C164.303 77.2711 164.145 77.5412 163.954 77.7C163.794 77.8272 163.572 77.8907 163.286 77.8907H162.619C162.333 77.8907 162.078 77.7954 161.856 77.6047C161.665 77.3823 161.57 77.1281 161.57 76.8421C161.57 76.143 161.887 75.3327 162.523 74.4113C163.159 73.458 164.145 72.6318 165.48 71.9328C166.815 71.2337 168.451 70.8842 170.391 70.8842C173.792 70.8842 176.208 71.6944 177.639 73.315C179.069 74.9356 179.785 76.9056 179.785 79.2253V95.0972C179.785 95.415 179.69 95.6692 179.499 95.8599C179.308 96.0505 179.053 96.1458 178.736 96.1458H177.925C177.607 96.1458 177.353 96.0505 177.162 95.8599C176.971 95.6692 176.876 95.415 176.876 95.0972V92.8571C176.176 93.9057 175.143 94.7954 173.777 95.5262C172.442 96.257 170.661 96.6225 168.436 96.6225ZM168.913 93.858C171.233 93.858 173.141 93.0954 174.635 91.5701C176.129 90.0449 176.876 87.8524 176.876 84.9926V83.372L170.725 84.2299C168.118 84.5795 166.147 85.1832 164.812 86.0412C163.477 86.8991 162.809 87.9795 162.809 89.2823C162.809 90.744 163.413 91.872 164.621 92.6664C165.861 93.4608 167.292 93.858 168.913 93.858Z" fill="#E10098"/>
<path d="M188.422 105.202C188.105 105.202 187.85 105.107 187.659 104.916C187.468 104.725 187.373 104.471 187.373 104.153V72.4094C187.373 72.0916 187.468 71.8374 187.659 71.6468C187.85 71.4561 188.105 71.3608 188.422 71.3608H189.233C189.551 71.3608 189.805 71.4561 189.996 71.6468C190.187 71.8374 190.282 72.0916 190.282 72.4094V74.6496C192.126 72.1393 194.796 70.8842 198.293 70.8842C201.726 70.8842 204.253 71.9804 205.874 74.1729C207.528 76.3337 208.402 79.0028 208.497 82.1804C208.529 82.4982 208.545 83.0225 208.545 83.7533C208.545 84.4841 208.529 85.0084 208.497 85.3262C208.402 88.5038 207.528 91.1888 205.874 93.3814C204.253 95.5421 201.726 96.6225 198.293 96.6225C194.828 96.6225 192.157 95.3674 190.282 92.8571V104.153C190.282 104.471 190.187 104.725 189.996 104.916C189.805 105.107 189.551 105.202 189.233 105.202H188.422ZM198.007 93.858C200.582 93.858 202.457 93.0477 203.634 91.4271C204.841 89.7748 205.493 87.6617 205.588 85.0879C205.62 84.7701 205.636 84.3253 205.636 83.7533C205.636 80.7982 205.064 78.3832 203.92 76.5085C202.775 74.6019 200.805 73.6486 198.007 73.6486C195.495 73.6486 193.604 74.4907 192.332 76.1748C191.061 77.8272 190.378 79.7814 190.282 82.0374L190.234 83.8963L190.282 85.7552C190.314 87.1216 190.616 88.4243 191.188 89.6636C191.76 90.871 192.618 91.872 193.763 92.6664C194.907 93.4608 196.322 93.858 198.007 93.858Z" fill="#E10098"/>
<path d="M216.127 96.1458C215.81 96.1458 215.555 96.0505 215.364 95.8598C215.173 95.6692 215.078 95.415 215.078 95.0972V63.3533C215.078 63.0355 215.173 62.7813 215.364 62.5907C215.555 62.4 215.81 62.3047 216.127 62.3047H216.938C217.256 62.3047 217.51 62.4 217.701 62.5907C217.892 62.7813 217.987 63.0355 217.987 63.3533V74.6495C218.941 73.4103 220.022 72.4729 221.23 71.8374C222.47 71.2019 224.059 70.8841 225.998 70.8841C229.113 70.8841 231.513 71.8851 233.198 73.8869C234.883 75.857 235.726 78.415 235.726 81.5608V95.0972C235.726 95.415 235.63 95.6692 235.44 95.8598C235.249 96.0505 234.995 96.1458 234.677 96.1458H233.866C233.548 96.1458 233.293 96.0505 233.103 95.8598C232.912 95.6692 232.817 95.415 232.817 95.0972V81.7991C232.817 79.2252 232.181 77.2234 230.909 75.7935C229.669 74.3636 227.873 73.6486 225.521 73.6486C223.232 73.6486 221.404 74.3794 220.037 75.8411C218.671 77.271 217.987 79.257 217.987 81.7991V95.0972C217.987 95.415 217.892 95.6692 217.701 95.8598C217.51 96.0505 217.256 96.1458 216.938 96.1458H216.127Z" fill="#E10098"/>
<path d="M265.426 99.2439C264.949 99.2439 264.44 98.8785 263.9 98.1477L261.802 95.2402C259.894 96.1617 257.669 96.6224 255.126 96.6224C246.957 96.6224 242.76 92.2374 242.538 83.4673C242.506 82.514 242.49 81.1795 242.49 79.4636C242.49 77.7477 242.506 76.4131 242.538 75.4598C242.665 71.1383 243.841 67.8655 246.066 65.6411C248.292 63.4168 251.311 62.3047 255.126 62.3047C258.941 62.3047 261.961 63.4168 264.186 65.6411C266.412 67.8655 267.587 71.1383 267.715 75.4598C267.778 77.3664 267.81 78.701 267.81 79.4636C267.81 80.2262 267.778 81.5608 267.715 83.4673C267.556 88.0112 266.396 91.3477 264.234 93.4767L267.286 97.7664C267.381 97.957 267.429 98.1318 267.429 98.2907C267.429 98.5449 267.333 98.7673 267.142 98.958C266.952 99.1486 266.729 99.2439 266.475 99.2439H265.426ZM255.126 93.7626C257.987 93.7626 260.26 92.9047 261.945 91.1888C263.662 89.4411 264.584 86.7879 264.711 83.229C264.774 81.3224 264.806 80.0673 264.806 79.4636C264.806 78.8598 264.774 77.6047 264.711 75.6981C264.584 72.1392 263.662 69.5019 261.945 67.786C260.229 66.0383 257.955 65.1645 255.126 65.1645C252.297 65.1645 250.024 66.0383 248.308 67.786C246.591 69.5019 245.669 72.1392 245.542 75.6981C245.51 76.6514 245.494 77.9065 245.494 79.4636C245.494 81.0206 245.51 82.2757 245.542 83.229C245.669 86.7879 246.575 89.4411 248.26 91.1888C249.976 92.9047 252.265 93.7626 255.126 93.7626Z" fill="#E10098"/>
<path d="M276.446 96.1457C276.128 96.1457 275.873 96.0504 275.683 95.8598C275.492 95.6691 275.396 95.4149 275.396 95.0971V63.8298C275.396 63.5121 275.492 63.2579 275.683 63.0672C275.873 62.8766 276.128 62.7812 276.446 62.7812H277.352C277.67 62.7812 277.924 62.8766 278.115 63.0672C278.306 63.2579 278.401 63.5121 278.401 63.8298V93.2859H294.852C295.202 93.2859 295.472 93.3813 295.663 93.5719C295.853 93.7626 295.949 94.0327 295.949 94.3822V95.0971C295.949 95.4149 295.837 95.6691 295.614 95.8598C295.424 96.0504 295.17 96.1457 294.852 96.1457H276.446Z" fill="#E10098"/>
</svg>
