<?xml version="1.0"?>
<svg xmlns="http://www.w3.org/2000/svg" width="320" height="160" viewBox="0 0 320 160" fill="none">
<g clip-path="url(#clip0_462_3563)">
<path d="M119.038 138.75L110 37.5171H209.316L200.268 138.734L159.597 149.994L119.038 138.75Z" fill="black"/>
<path d="M159.658 141.387L192.522 132.289L200.255 45.7944H159.658V141.387Z" fill="black"/>
<path d="M159.658 83.3402H143.205L142.069 70.6262H159.658V58.2102H128.48L128.778 61.5412L131.834 95.7559H159.658V83.3402ZM159.658 115.585L159.603 115.6L145.756 111.866L144.871 101.964H132.39L134.131 121.459L159.6 128.519L159.658 128.503V115.585Z" fill="#EBEBEB"/>
<path d="M119.24 10.0061H125.559V16.2399H131.339V10.0061H137.657V28.8836H131.339V22.5623H125.559V28.8836H119.241V10.0061H119.24ZM145.966 16.2662H140.404V10.0061H157.851V16.2662H152.286V28.8836H145.967L145.966 16.2662ZM160.619 10.0061H167.208L171.26 16.6391L175.309 10.0061H181.9V28.8836H175.608V19.5269L171.261 26.2389H171.152L166.802 19.5269V28.8836H160.62V10.0061H160.619ZM185.045 10.0061H191.365V22.6438H200.251V28.8836H185.045V10.0061Z" fill="black"/>
<path d="M159.615 83.3404V95.7561H174.925L173.482 111.858L159.615 115.596V128.513L185.104 121.459L185.291 119.361L188.213 86.6744L188.516 83.3404H185.166H159.615ZM159.615 58.2104V70.6264H189.648L189.897 67.8357L190.463 61.5414L190.761 58.2104H159.615Z" fill="white"/>
</g>
<defs>
<clipPath id="clip0_462_3563">
<rect width="99.3162" height="140" fill="white" transform="translate(110 10)"/>
</clipPath>
</defs>
</svg>
