<?xml version="1.0"?>
<svg xmlns="http://www.w3.org/2000/svg" width="320" height="160" viewBox="0 0 320 160" fill="none">
<g clip-path="url(#clip0_715_12753)">
<path d="M65.2823 55.9863V75.3198H47.5206V55.9863H39.0938V102.138H47.5229V83.4318H65.28V102.138H73.7115V55.9863H65.2823ZM100.692 87.221C100.692 89.0708 99.9568 90.8449 98.6487 92.1529C97.3407 93.461 95.5666 94.1958 93.7167 94.1958C91.8669 94.1958 90.0928 93.461 88.7848 92.1529C87.4767 90.8449 86.7419 89.0708 86.7419 87.221V67.4518H78.7461V87.221C78.7461 91.1875 80.3218 94.9915 83.1266 97.7963C85.9313 100.601 89.7354 102.177 93.7019 102.177C97.6684 102.177 101.472 100.601 104.277 97.7963C107.082 94.9915 108.658 91.1875 108.658 87.221V67.4518H100.692V87.221ZM159.938 69.4889C159.938 65.4352 162.618 64.1509 165.554 64.1509C167.922 64.1509 171.047 65.953 173.093 68.1385L178.329 61.9654C175.715 58.4295 170.413 55.9863 166.072 55.9863C157.396 55.9863 151.123 61.0666 151.123 69.4889C151.123 85.1154 170.221 80.156 170.221 88.9022C170.221 91.5987 167.602 93.9803 164.605 93.9803C159.876 93.9803 158.343 91.6694 156.171 89.2239L150.359 95.2669C154.077 99.8293 158.662 102.147 164.153 102.147C172.395 102.147 179.025 97.0052 179.025 88.9661C179.025 71.6196 159.924 77.0102 159.924 69.4889M278.092 94.765C273.367 94.765 272.024 92.721 272.024 89.5912V75.7327H279.369V68.711H272.024V59.447L263.916 63.0855V91.3135C263.916 98.5336 268.898 102.172 275.728 102.172C276.801 102.19 277.873 102.104 278.927 101.917L280.904 94.635C280.013 94.6966 278.988 94.7582 278.092 94.7582M131.128 67.6822C127.168 67.6822 124.403 68.832 121.729 71.4531V56.2624H113.722V84.4196C113.722 94.9589 121.341 102.181 129.905 102.181C139.404 102.181 147.76 94.8312 147.76 84.9352C147.76 75.1624 140.07 67.6891 131.128 67.6891M131.078 94.1217C129.884 94.1217 128.703 93.8866 127.6 93.43C126.498 92.9733 125.496 92.3039 124.652 91.4601C123.808 90.6163 123.139 89.6145 122.682 88.512C122.225 87.4094 121.99 86.2278 121.99 85.0344C121.99 83.8411 122.225 82.6594 122.682 81.5569C123.139 80.4543 123.808 79.4526 124.652 78.6087C125.496 77.7649 126.498 77.0955 127.6 76.6388C128.703 76.1822 129.884 75.9471 131.078 75.9471C133.488 75.9471 135.799 76.9045 137.503 78.6087C139.208 80.3129 140.165 82.6243 140.165 85.0344C140.165 87.4445 139.208 89.7559 137.503 91.4601C135.799 93.1643 133.488 94.1217 131.078 94.1217ZM218.088 84.5154C218.088 74.6012 209.751 67.2693 200.233 67.2693C191.672 67.2693 184.05 74.4894 184.05 85.031V113.204H192.057V97.993C194.726 100.61 197.496 101.764 201.451 101.764C210.394 101.764 218.088 94.2905 218.088 84.5154ZM210.506 84.4151C210.506 86.8252 209.548 89.1365 207.844 90.8407C206.14 92.5449 203.828 93.5023 201.418 93.5023C199.008 93.5023 196.697 92.5449 194.993 90.8407C193.288 89.1365 192.331 86.8252 192.331 84.4151C192.331 82.005 193.288 79.6936 194.993 77.9894C196.697 76.2852 199.008 75.3278 201.418 75.3278C203.828 75.3278 206.14 76.2852 207.844 77.9894C209.548 79.6936 210.506 82.005 210.506 84.4151Z" fill="#33475B"/>
<path d="M243.961 66.8813V58.8354C245.024 58.3385 245.925 57.5498 246.557 56.5612C247.19 55.5725 247.528 54.4246 247.534 53.251V53.0662C247.534 49.6444 244.76 46.8704 241.338 46.8704H241.153C239.51 46.8704 237.934 47.5231 236.772 48.6851C235.61 49.847 234.957 51.423 234.957 53.0662V53.251C234.963 54.4246 235.301 55.5725 235.934 56.5612C236.566 57.5498 237.466 58.3385 238.53 58.8354V66.8813C235.474 67.3493 232.596 68.6163 230.187 70.5541L208.121 53.3673C208.278 52.7993 208.36 52.2153 208.369 51.629C208.372 50.2482 207.965 48.8976 207.2 47.7481C206.435 46.5985 205.346 45.7017 204.072 45.1709C202.797 44.6402 201.393 44.4995 200.039 44.7666C198.684 45.0336 197.439 45.6965 196.461 46.6713C195.483 47.6461 194.816 48.889 194.544 50.2429C194.273 51.5967 194.409 53.0007 194.936 54.2772C195.462 55.5537 196.355 56.6453 197.503 57.4141C198.65 58.1828 199.999 58.5941 201.38 58.5959C202.588 58.5902 203.773 58.2677 204.817 57.6606L226.546 74.5691C224.594 77.518 223.576 80.9865 223.624 84.5226C223.672 88.0586 224.784 91.4982 226.815 94.393L220.207 101.004C219.672 100.833 219.116 100.742 218.555 100.735C217.422 100.736 216.314 101.073 215.372 101.703C214.43 102.333 213.696 103.229 213.262 104.276C212.829 105.323 212.716 106.475 212.937 107.587C213.159 108.699 213.704 109.72 214.506 110.521C215.307 111.323 216.328 111.869 217.44 112.09C218.552 112.311 219.704 112.198 220.751 111.765C221.799 111.331 222.694 110.597 223.324 109.655C223.955 108.713 224.291 107.606 224.292 106.472C224.285 105.911 224.194 105.355 224.023 104.821L230.561 98.2802C232.693 99.9216 235.173 101.053 237.809 101.588C240.446 102.123 243.171 102.048 245.774 101.367C248.377 100.687 250.79 99.4197 252.828 97.6627C254.865 95.9057 256.474 93.7056 257.53 91.2309C258.586 88.7562 259.062 86.0726 258.921 83.3857C258.779 80.6988 258.025 78.0798 256.715 75.7295C255.406 73.3791 253.575 71.3598 251.364 69.8261C249.154 68.2924 246.621 67.2851 243.961 66.8813ZM241.251 93.3437C240.043 93.3769 238.84 93.1676 237.714 92.7282C236.588 92.2888 235.561 91.6281 234.695 90.7852C233.829 89.9423 233.14 88.9343 232.67 87.8208C232.199 86.7072 231.957 85.5107 231.957 84.302C231.957 83.0932 232.199 81.8967 232.67 80.7832C233.14 79.6697 233.829 78.6617 234.695 77.8188C235.561 76.9759 236.588 76.3152 237.714 75.8758C238.84 75.4364 240.043 75.2271 241.251 75.2603C243.593 75.3423 245.812 76.33 247.44 78.0153C249.068 79.7006 249.978 81.952 249.98 84.2953C249.981 86.6386 249.072 88.8909 247.446 90.5779C245.82 92.2648 243.602 93.2547 241.26 93.3391" fill="#FF7A59"/>
</g>
<defs>
<clipPath id="clip0_715_12753">
<rect width="241.811" height="70.7182" fill="white" transform="translate(39.0938 44.6406)"/>
</clipPath>
</defs>
</svg>
