<?xml version="1.0"?>
<svg xmlns="http://www.w3.org/2000/svg" width="320" height="160" viewBox="0 0 320 160" fill="none">
<g clip-path="url(#clip0_715_12806)">
<path d="M90.6043 63.8828C87.4169 63.8828 84.301 64.828 81.6507 66.5989C79.0005 68.3697 76.9348 70.8867 75.715 73.8315C74.4953 76.7763 74.1761 80.0167 74.798 83.143C75.4198 86.2692 76.9547 89.1408 79.2086 91.3946C81.4624 93.6485 84.3341 95.1834 87.4603 95.8053C90.5865 96.4271 93.8269 96.1079 96.7717 94.8882C99.7165 93.6684 102.234 91.6027 104.004 88.9525C105.775 86.3022 106.72 83.1863 106.72 79.9989C106.715 75.7262 105.016 71.63 101.994 68.6087C98.9733 65.5875 94.877 63.8879 90.6043 63.8828Z" fill="#478AFF"/>
<path d="M113.746 65.3133C117.8 65.3133 121.087 62.0265 121.087 57.9721C121.087 53.9176 117.8 50.6309 113.746 50.6309C109.691 50.6309 106.404 53.9176 106.404 57.9721C106.404 62.0265 109.691 65.3133 113.746 65.3133Z" fill="#478AFF"/>
<path d="M122.785 65.3508L122.477 64.6773L121.996 65.2353C120.793 66.601 119.271 67.6486 117.565 68.2853L117.084 68.4585L117.277 68.9396C119.869 75.1746 120.198 82.1204 118.204 88.572C116.211 95.0236 112.022 100.574 106.364 104.26C100.707 107.946 93.9372 109.535 87.2303 108.751C80.5234 107.968 74.3024 104.861 69.6466 99.9704C64.9908 95.0796 62.1941 88.7132 61.7416 81.9759C61.2891 75.2386 63.2095 68.5554 67.1694 63.086C71.1294 57.6165 76.8791 53.7059 83.421 52.0326C89.9629 50.3593 96.8841 51.0289 102.984 53.9252L103.436 54.1417L103.633 53.6606C104.352 51.9885 105.473 50.5195 106.895 49.3839L107.472 48.9028L106.813 48.5612C101.806 45.9589 96.2439 44.6071 90.601 44.6212C82.9611 44.6223 75.5269 47.0975 69.4112 51.6764C63.2954 56.2553 58.827 62.6917 56.6746 70.0222C54.5222 77.3527 54.8017 85.1831 57.4711 92.3415C60.1406 99.4999 65.0564 105.601 71.483 109.733C77.9096 113.864 85.5013 115.803 93.1219 115.259C100.742 114.716 107.982 111.719 113.757 106.718C119.533 101.716 123.533 94.9787 125.159 87.5139C126.786 80.0491 125.951 72.2583 122.78 65.3075L122.785 65.3508Z" fill="#478AFF"/>
<path d="M151.619 64.6055H144.162V95.3944H151.619V64.6055Z" fill="#478AFF"/>
<path d="M232.089 64.6055H224.633V95.3944H232.089V64.6055Z" fill="#478AFF"/>
<path d="M207.416 63.8828C202.172 63.8828 198.121 67.0435 197.193 67.9142L196.712 64.6044H190.506V95.3933H197.963V76.7516C197.963 73.1147 202.927 70.1031 206.559 70.1031C210.192 70.1031 212.919 73.5765 212.919 77.7138V95.3933H220.376V78.4498C220.352 70.3773 216.869 63.8828 207.416 63.8828Z" fill="#478AFF"/>
<path d="M251.665 89.7984C246.061 89.7984 242.357 85.411 242.357 79.9989C242.357 74.5868 246.061 70.1993 251.665 70.1993C256.447 70.1993 259.363 74.8321 259.363 74.8321L264.765 71.2192C263.202 68.8138 261.398 67.3706 258.935 65.8793C256.809 64.5896 254.373 63.8997 251.887 63.8828C242.559 63.8828 235.434 70.8873 235.391 79.9989C235.434 89.1105 242.559 96.1149 251.887 96.1149C254.363 96.0928 256.788 95.4031 258.906 94.1185C261.369 92.6319 263.173 91.1839 264.736 88.7785L259.334 85.1656C259.334 85.1656 256.447 89.7984 251.665 89.7984Z" fill="#478AFF"/>
<path d="M171.064 63.8849C168.949 63.8508 166.848 64.24 164.885 65.0295C162.922 65.819 161.137 66.993 159.634 68.4823C158.131 69.9717 156.941 71.7464 156.134 73.7021C155.327 75.6579 154.919 77.7553 154.934 79.871C154.934 88.6026 161.467 96.117 171.175 96.117C179.964 96.117 187.166 89.3819 187.166 80.0587C187.166 69.3836 178.791 63.8849 171.064 63.8849ZM171.156 70.2158C175.779 70.2158 180.157 73.9682 180.157 80.0154C180.157 85.9326 175.798 89.7908 171.137 89.7908C166.013 89.7908 161.996 85.6728 161.996 79.9672C161.996 74.3868 165.984 70.2158 171.18 70.2158H171.156Z" fill="#478AFF"/>
</g>
<defs>
<clipPath id="clip0_715_12806">
<rect width="209.509" height="70.7182" fill="white" transform="translate(55.2461 44.6406)"/>
</clipPath>
</defs>
</svg>
