<?xml version="1.0"?>
<svg xmlns="http://www.w3.org/2000/svg" width="320" height="160" viewBox="0 0 320 160" fill="none">
<g clip-path="url(#clip0_481_13127)">
<path d="M81.1589 117.768H94.3386V61.6627H81.1589V117.768ZM87.7223 54.305C91.8509 54.305 95.0796 51.1291 95.0796 47.1594C95.0796 43.1367 91.8509 39.9609 87.7223 39.9609C83.6467 39.9609 80.418 43.1368 80.418 47.1594C80.418 51.1292 83.6467 54.305 87.7223 54.305ZM138.22 40.1193C115.936 40.1193 101.962 55.3104 101.962 79.6058C101.962 103.901 115.935 119.039 138.22 119.039C160.45 119.039 174.424 103.901 174.424 79.6058C174.424 55.3104 160.451 40.1193 138.22 40.1193ZM138.22 51.764C151.823 51.764 160.503 62.5619 160.503 79.6055C160.503 96.596 151.822 107.394 138.22 107.394C124.564 107.394 115.936 96.5963 115.936 79.6055C115.936 62.5621 124.564 51.764 138.22 51.764ZM179.984 96.2789C180.566 110.359 192.105 119.039 209.678 119.039C228.15 119.039 239.795 109.935 239.795 95.432C239.795 84.0521 233.232 77.6475 217.724 74.1014L208.937 72.0901C199.568 69.867 195.705 66.9029 195.705 61.8216C195.705 55.47 201.527 51.2356 210.154 51.2356C218.888 51.2356 224.869 55.523 225.504 62.6685H238.525C238.207 49.2242 227.092 40.1197 210.261 40.1197C193.64 40.1197 181.837 49.2767 181.837 62.8271C181.837 73.7307 188.506 80.5059 202.585 83.7349L212.483 86.0639C222.116 88.3399 226.033 91.5157 226.033 97.0204C226.033 103.372 219.628 107.924 210.419 107.924C201.103 107.924 194.064 103.319 193.217 96.2793H179.984L179.984 96.2789Z" fill="black"/>
</g>
<defs>
<clipPath id="clip0_481_13127">
<rect width="160" height="79.6887" fill="white" transform="translate(80 39.9609)"/>
</clipPath>
</defs>
</svg>
