<?xml version="1.0"?>
<svg xmlns="http://www.w3.org/2000/svg" width="320" height="160" viewBox="0 0 320 160" fill="none">
<path d="M207.99 107.743C206.896 107.743 205.815 107.603 204.747 107.323C203.704 107.044 202.725 106.649 201.809 106.14C200.919 105.606 200.155 104.996 199.52 104.309L202.839 100.951C203.45 101.613 204.175 102.134 205.014 102.516C205.853 102.872 206.769 103.05 207.761 103.05C208.448 103.05 208.97 102.948 209.326 102.745C209.707 102.541 209.898 102.261 209.898 101.905C209.898 101.447 209.669 101.104 209.211 100.875C208.779 100.621 208.219 100.404 207.532 100.226C206.846 100.023 206.121 99.8065 205.357 99.5776C204.594 99.3487 203.869 99.0307 203.183 98.6237C202.496 98.2167 201.936 97.6571 201.504 96.9448C201.071 96.2071 200.855 95.2787 200.855 94.1594C200.855 92.9638 201.16 91.9336 201.771 91.0688C202.381 90.1784 203.246 89.4789 204.365 88.9702C205.485 88.4614 206.795 88.207 208.295 88.207C209.873 88.207 211.323 88.4868 212.645 89.0465C213.993 89.5807 215.087 90.3819 215.927 91.4503L212.607 94.8081C212.022 94.1213 211.361 93.6379 210.623 93.3581C209.911 93.0783 209.211 92.9384 208.524 92.9384C207.863 92.9384 207.367 93.0402 207.036 93.2437C206.706 93.4217 206.54 93.6888 206.54 94.0449C206.54 94.4265 206.757 94.7318 207.189 94.9607C207.621 95.1896 208.181 95.3931 208.868 95.5712C209.555 95.7493 210.28 95.9655 211.043 96.2199C211.806 96.4742 212.531 96.8176 213.218 97.2501C213.904 97.6825 214.464 98.2676 214.897 99.0053C215.329 99.7175 215.545 100.659 215.545 101.829C215.545 103.635 214.858 105.072 213.485 106.14C212.137 107.209 210.305 107.743 207.99 107.743Z" fill="#8718DE"/>
<path d="M186.814 115.603C184.779 115.603 182.985 115.247 181.434 114.535C179.907 113.848 178.699 112.868 177.809 111.597L181.395 108.01C182.057 108.798 182.794 109.396 183.608 109.803C184.448 110.21 185.453 110.414 186.623 110.414C188.073 110.414 189.205 110.058 190.019 109.345C190.858 108.633 191.278 107.628 191.278 106.331V101.6L192.27 97.555L191.392 93.5105V88.7409H197.116V106.178C197.116 108.086 196.671 109.74 195.78 111.139C194.89 112.538 193.669 113.632 192.117 114.42C190.566 115.209 188.798 115.603 186.814 115.603ZM186.547 106.713C184.842 106.713 183.329 106.306 182.006 105.492C180.683 104.678 179.64 103.571 178.877 102.172C178.114 100.773 177.732 99.2212 177.732 97.5169C177.732 95.7871 178.114 94.2354 178.877 92.8618C179.64 91.4627 180.683 90.3689 182.006 89.5804C183.329 88.7664 184.842 88.3594 186.547 88.3594C187.818 88.3594 188.95 88.601 189.942 89.0843C190.96 89.5422 191.774 90.2036 192.384 91.0685C193.02 91.9079 193.376 92.8873 193.453 94.0065V101.065C193.376 102.159 193.02 103.139 192.384 104.003C191.774 104.843 190.96 105.504 189.942 105.988C188.925 106.471 187.793 106.713 186.547 106.713ZM187.653 101.523C188.467 101.523 189.167 101.345 189.752 100.989C190.362 100.633 190.82 100.162 191.125 99.5773C191.456 98.9668 191.621 98.28 191.621 97.5169C191.621 96.7538 191.456 96.0669 191.125 95.4564C190.82 94.8459 190.362 94.3626 189.752 94.0065C189.167 93.6504 188.467 93.4723 187.653 93.4723C186.864 93.4723 186.165 93.6504 185.554 94.0065C184.944 94.3626 184.473 94.8459 184.143 95.4564C183.812 96.0669 183.647 96.7538 183.647 97.5169C183.647 98.2291 183.812 98.9032 184.143 99.5392C184.473 100.15 184.931 100.633 185.516 100.989C186.127 101.345 186.839 101.523 187.653 101.523Z" fill="#8718DE"/>
<path d="M169.367 107.285V96.7156C169.367 95.749 169.062 94.9731 168.452 94.3881C167.866 93.7776 167.116 93.4723 166.2 93.4723C165.564 93.4723 165.005 93.6122 164.521 93.892C164.038 94.1464 163.657 94.528 163.377 95.0367C163.097 95.52 162.957 96.0797 162.957 96.7156L160.706 95.6091C160.706 94.1591 161.024 92.8873 161.66 91.7934C162.296 90.6996 163.173 89.8602 164.293 89.2751C165.437 88.6646 166.722 88.3594 168.146 88.3594C169.52 88.3594 170.728 88.6901 171.771 89.3514C172.84 89.9874 173.679 90.8395 174.289 91.9079C174.9 92.9763 175.205 94.1464 175.205 95.4183V107.285H169.367ZM157.119 107.285V88.7409H162.957V107.285H157.119Z" fill="#8718DE"/>
<path d="M147.17 107.284V88.7402H153.008V107.284H147.17ZM150.108 86.1837C149.193 86.1837 148.43 85.8784 147.819 85.2679C147.234 84.632 146.941 83.8689 146.941 82.9786C146.941 82.0628 147.234 81.2997 147.819 80.6892C148.43 80.0787 149.193 79.7734 150.108 79.7734C151.024 79.7734 151.775 80.0787 152.36 80.6892C152.945 81.2997 153.237 82.0628 153.237 82.9786C153.237 83.8689 152.945 84.632 152.36 85.2679C151.775 85.8784 151.024 86.1837 150.108 86.1837Z" fill="#8718DE"/>
<path d="M137.582 107.285V96.7162C137.582 95.7495 137.277 94.9737 136.666 94.3886C136.081 93.7781 135.331 93.4729 134.415 93.4729C133.779 93.4729 133.22 93.6128 132.736 93.8926C132.253 94.147 131.871 94.5285 131.592 95.0373C131.312 95.5206 131.172 96.0802 131.172 96.7162L128.921 95.6096C128.921 94.1597 129.226 92.8878 129.836 91.794C130.447 90.7002 131.299 89.8607 132.393 89.2757C133.487 88.6652 134.746 88.3599 136.17 88.3599C137.62 88.3599 138.892 88.6652 139.986 89.2757C141.08 89.8607 141.919 90.6875 142.504 91.7558C143.115 92.7988 143.42 94.0198 143.42 95.4188V107.285H137.582ZM125.334 107.285V79.584H131.172V107.285H125.334Z" fill="#8718DE"/>
<path d="M108.101 107.286V80.7292H114.091V107.286H108.101ZM99.668 85.5751V80.3477H122.524V85.5751H99.668Z" fill="#8718DE"/>
<path d="M239.487 72.5157V52.3692C239.487 50.8684 239.818 49.5202 240.479 48.3246C241.166 47.1036 242.12 46.1497 243.341 45.4629C244.562 44.7507 246.012 44.3945 247.691 44.3945C248.962 44.3945 250.069 44.6108 251.01 45.0432C251.977 45.4502 252.816 46.0225 253.529 46.7602L249.866 50.4232C249.611 50.1688 249.319 49.9781 248.988 49.8509C248.683 49.6983 248.314 49.6219 247.881 49.6219C247.093 49.6219 246.47 49.8509 246.012 50.3088C245.554 50.7666 245.325 51.3899 245.325 52.1784V72.5157H239.487ZM235.404 58.9321V53.9718H250.667V58.9321H235.404Z" fill="#9A1AFF"/>
<path d="M224.437 72.9361C222.529 72.9361 220.799 72.5164 219.247 71.677C217.721 70.8121 216.513 69.642 215.623 68.1666C214.732 66.6912 214.287 65.0378 214.287 63.2063C214.287 61.3748 214.732 59.7341 215.623 58.2841C216.513 56.8342 217.721 55.6895 219.247 54.85C220.774 53.9852 222.503 53.5527 224.437 53.5527C226.37 53.5527 228.1 53.9725 229.626 54.8119C231.152 55.6513 232.36 56.8087 233.251 58.2841C234.141 59.7341 234.586 61.3748 234.586 63.2063C234.586 65.0378 234.141 66.6912 233.251 68.1666C232.36 69.642 231.152 70.8121 229.626 71.677C228.1 72.5164 226.37 72.9361 224.437 72.9361ZM224.437 67.6324C225.276 67.6324 226.014 67.4543 226.65 67.0982C227.286 66.7167 227.769 66.1952 228.1 65.5338C228.456 64.847 228.634 64.0712 228.634 63.2063C228.634 62.3414 228.456 61.591 228.1 60.9551C227.744 60.2937 227.248 59.7849 226.612 59.4288C226.001 59.0472 225.276 58.8565 224.437 58.8565C223.623 58.8565 222.898 59.0472 222.262 59.4288C221.626 59.7849 221.13 60.2937 220.774 60.9551C220.418 61.6164 220.239 62.3796 220.239 63.2444C220.239 64.0839 220.418 64.847 220.774 65.5338C221.13 66.1952 221.626 66.7167 222.262 67.0982C222.898 67.4543 223.623 67.6324 224.437 67.6324Z" fill="#9A1AFF"/>
<path d="M195.635 72.5161V46.3027H201.473V72.5161H195.635ZM191.438 58.9325V53.9721H205.67V58.9325H191.438Z" fill="#9A1AFF"/>
<path d="M181.666 72.9361C179.656 72.9361 177.863 72.5291 176.286 71.7151C174.734 70.8757 173.513 69.7183 172.623 68.2429C171.732 66.7675 171.287 65.1014 171.287 63.2444C171.287 61.3875 171.72 59.7341 172.584 58.2841C173.475 56.8087 174.67 55.6513 176.171 54.8119C177.672 53.9725 179.364 53.5527 181.246 53.5527C183.077 53.5527 184.693 53.947 186.092 54.7356C187.491 55.5241 188.585 56.618 189.373 58.017C190.187 59.4161 190.594 61.0186 190.594 62.8247C190.594 63.1554 190.569 63.5115 190.518 63.8931C190.492 64.2492 190.429 64.6689 190.327 65.1522L174.34 65.1904V61.184L187.847 61.1458L185.329 62.8247C185.303 61.7563 185.138 60.8787 184.833 60.1919C184.527 59.4797 184.069 58.9455 183.459 58.5894C182.874 58.2078 182.149 58.017 181.284 58.017C180.368 58.017 179.567 58.2332 178.88 58.6657C178.219 59.0727 177.697 59.6577 177.316 60.4209C176.96 61.184 176.782 62.1125 176.782 63.2063C176.782 64.3001 176.972 65.2413 177.354 66.0298C177.761 66.793 178.321 67.3907 179.033 67.8232C179.771 68.2302 180.635 68.4337 181.627 68.4337C182.543 68.4337 183.37 68.2811 184.108 67.9758C184.845 67.6451 185.494 67.1618 186.054 66.5259L189.259 69.731C188.343 70.7994 187.236 71.6007 185.939 72.1348C184.642 72.669 183.217 72.9361 181.666 72.9361Z" fill="#9A1AFF"/>
<path d="M162.92 72.5154V61.9461C162.92 60.9794 162.615 60.2036 162.004 59.6185C161.419 59.008 160.669 58.7028 159.753 58.7028C159.117 58.7028 158.558 58.8427 158.074 59.1225C157.591 59.3769 157.209 59.7584 156.93 60.2672C156.65 60.7505 156.51 61.3101 156.51 61.9461L154.259 60.8395C154.259 59.3896 154.577 58.1177 155.212 57.0239C155.848 55.9301 156.726 55.0907 157.845 54.5056C158.99 53.8951 160.275 53.5898 161.699 53.5898C163.073 53.5898 164.281 53.9205 165.324 54.5819C166.392 55.2178 167.232 56.07 167.842 57.1384C168.453 58.2068 168.758 59.3769 168.758 60.6488V72.5154H162.92ZM150.672 72.5154V53.9714H156.51V72.5154H150.672Z" fill="#9A1AFF"/>
<path d="M134.5 72.5154V53.9714H140.338V72.5154H134.5ZM140.338 62.3276L137.896 60.4198C138.379 58.2576 139.193 56.5788 140.338 55.3832C141.483 54.1876 143.072 53.5898 145.107 53.5898C145.998 53.5898 146.774 53.7298 147.435 54.0096C148.122 54.2639 148.72 54.6709 149.228 55.2306L145.756 59.6185C145.502 59.3387 145.184 59.1225 144.802 58.9699C144.421 58.8173 143.988 58.7409 143.505 58.7409C142.538 58.7409 141.762 59.0462 141.177 59.6567C140.618 60.2418 140.338 61.1321 140.338 62.3276Z" fill="#9A1AFF"/>
<path d="M122.754 72.9361C120.744 72.9361 118.951 72.5291 117.373 71.7151C115.822 70.8757 114.601 69.7183 113.71 68.2429C112.82 66.7675 112.375 65.1014 112.375 63.2444C112.375 61.3875 112.807 59.7341 113.672 58.2841C114.563 56.8087 115.758 55.6513 117.259 54.8119C118.76 53.9725 120.451 53.5527 122.334 53.5527C124.165 53.5527 125.781 53.947 127.18 54.7356C128.579 55.5241 129.673 56.618 130.461 58.017C131.275 59.4161 131.682 61.0186 131.682 62.8247C131.682 63.1554 131.657 63.5115 131.606 63.8931C131.58 64.2492 131.517 64.6689 131.415 65.1522L115.428 65.1904V61.184L128.935 61.1458L126.417 62.8247C126.391 61.7563 126.226 60.8787 125.92 60.1919C125.615 59.4797 125.157 58.9455 124.547 58.5894C123.962 58.2078 123.237 58.017 122.372 58.017C121.456 58.017 120.655 58.2332 119.968 58.6657C119.307 59.0727 118.785 59.6577 118.404 60.4209C118.048 61.184 117.87 62.1125 117.87 63.2063C117.87 64.3001 118.06 65.2413 118.442 66.0298C118.849 66.793 119.408 67.3907 120.121 67.8232C120.858 68.2302 121.723 68.4337 122.715 68.4337C123.631 68.4337 124.458 68.2811 125.196 67.9758C125.933 67.6451 126.582 67.1618 127.141 66.5259L130.347 69.731C129.431 70.7994 128.324 71.6007 127.027 72.1348C125.73 72.669 124.305 72.9361 122.754 72.9361Z" fill="#9A1AFF"/>
<path d="M101.361 72.5161V46.3027H107.199V72.5161H101.361ZM97.1641 58.9325V53.9721H111.396V58.9325H97.1641Z" fill="#9A1AFF"/>
<path d="M89.3654 72.5154V61.9461C89.3654 60.9794 89.0601 60.2036 88.4496 59.6185C87.8645 59.008 87.1141 58.7028 86.1984 58.7028C85.5624 58.7028 85.0028 58.8427 84.5195 59.1225C84.0362 59.3769 83.6546 59.7584 83.3748 60.2672C83.095 60.7505 82.9551 61.3101 82.9551 61.9461L80.7039 60.8395C80.7039 59.3896 81.0218 58.1177 81.6578 57.0239C82.2937 55.9301 83.1713 55.0907 84.2906 54.5056C85.4353 53.8951 86.7199 53.5898 88.1444 53.5898C89.518 53.5898 90.7263 53.9205 91.7692 54.5819C92.8376 55.2178 93.677 56.07 94.2875 57.1384C94.898 58.2068 95.2033 59.3769 95.2033 60.6488V72.5154H89.3654ZM77.1172 72.5154V53.9714H82.9551V72.5154H77.1172Z" fill="#9A1AFF"/>
<path d="M66.4727 72.5165V45.5781H72.4632V72.5165H66.4727Z" fill="#9A1AFF"/>
</svg>
