<?xml version="1.0"?>
<svg xmlns="http://www.w3.org/2000/svg" width="320" height="160" viewBox="0 0 320 160" fill="none">
<path opacity="0.85" d="M192.057 10.0554C193.61 10.0333 195.173 10.0111 196.737 10C196.759 10.8649 196.792 12.5836 196.814 13.4485C195.218 13.4485 193.621 13.4374 192.035 13.4374C192.035 12.5947 192.057 10.9092 192.057 10.0554Z" fill="#101010"/>
<path d="M97.3286 10.7654C100.178 10.7876 103.039 10.7986 105.911 10.8097C105.667 15.9104 106.665 21.2106 105.223 26.1782C103.361 29.7486 98.7257 29.0501 95.3881 29.1166C95.255 27.9856 95.122 26.8546 95 25.7236C96.9183 25.5683 99.0029 25.9453 100.766 24.9585C101.908 21.4213 101.398 17.6402 101.11 14.0032C100.134 14.0254 98.1934 14.0475 97.2177 14.0586C97.2509 13.2381 97.2953 11.5859 97.3286 10.7654Z" fill="#131313"/>
<path d="M154.423 12.1593C157.783 9.56458 162.196 10.6291 165.933 11.6381C165.922 12.625 165.911 14.5987 165.911 15.5856C163.017 14.4213 157.517 11.8821 156.785 16.6722C159.524 17.5038 162.418 17.9917 164.902 19.4776C167.541 21.6287 166.798 26.5187 163.76 27.9934C160.3 30.0448 156.197 28.9248 152.549 28.1819C152.339 26.6628 152.128 25.1548 151.939 23.6357C155.011 24.9885 161.232 28.193 162.152 23.0148C159.069 21.8505 155.233 21.6841 152.993 19.0229C152.006 16.7609 152.172 13.6118 154.423 12.1593Z" fill="#131313"/>
<path d="M215.732 11.3943C217.029 11.3943 218.338 11.3943 219.657 11.3943C219.69 12.6473 219.735 13.9003 219.79 15.1532C220.788 15.1643 222.795 15.1865 223.804 15.1976C223.826 15.9627 223.86 17.4818 223.882 18.2358C222.862 18.2247 220.821 18.2025 219.801 18.1804C219.857 20.7196 219.203 23.4917 220.478 25.8313C221.431 25.9311 223.339 26.1196 224.292 26.2194C224.192 30.8876 218.87 28.7697 216.054 28.0379C215.798 25.1882 215.677 22.3385 215.677 19.4777C214.956 18.4687 214.235 17.4485 213.525 16.4395C214.069 15.9405 215.155 14.9426 215.699 14.4436C215.71 13.6785 215.721 12.1483 215.732 11.3943Z" fill="#131313"/>
<path d="M109.37 15.3028C112.985 15.1143 118.041 13.7726 120.314 17.5094C121.124 21.2129 120.614 25.0605 120.736 28.8306C119.117 28.6864 117.498 28.5312 115.89 28.3871C114.05 28.5423 111.887 29.9062 110.191 28.6864C107.374 27.3337 107.33 22.3439 110.291 21.1353C112.442 20.2482 114.792 20.093 117.043 19.5607C114.903 17.3431 111.865 18.1858 109.171 18.4741C109.226 17.6757 109.326 16.0901 109.37 15.3028ZM112.896 22.9205C112.774 23.9961 112.663 25.0716 112.564 26.1583C113.794 26.0918 115.025 26.0363 116.267 25.9698C116.356 24.8055 116.456 23.6412 116.555 22.477C115.325 22.6211 114.105 22.7763 112.896 22.9205Z" fill="#131313"/>
<path d="M122.389 14.915C123.453 15.1257 125.593 15.5471 126.658 15.7578C127.778 18.3302 128.543 21.0358 129.629 23.6305C130.539 20.8584 131.381 18.053 132.202 15.2477C133.266 15.2255 135.406 15.1922 136.471 15.1701C134.963 19.927 133.277 24.6284 131.392 29.2634C129.929 29.0749 128.487 28.7644 127.09 28.3541C125.072 24.0518 123.741 19.4613 122.389 14.915Z" fill="#131313"/>
<path d="M137.844 18.4483C138.155 17.3949 138.509 16.3415 138.897 15.3103C142.335 14.8114 146.992 14.0795 149.354 17.2951C150.163 21.1317 149.664 25.1013 149.742 28.9934C148.112 28.7716 146.493 28.5498 144.874 28.3281C141.969 29.8693 137.123 29.3149 137.19 25.2233C136.635 20.3666 142.701 20.3001 145.994 19.657C144.009 16.9958 140.572 18.404 137.844 18.4483ZM141.858 23.0167C141.736 24.0147 141.625 25.0237 141.514 26.0217C142.734 26.0549 143.954 26.0882 145.185 26.1104C145.295 24.8796 145.406 23.6599 145.517 22.429C144.297 22.6175 143.078 22.8171 141.858 23.0167Z" fill="#131313"/>
<path d="M167.508 22.0753C167.165 16.0432 174.838 12.8831 179.428 16.0987C179.539 16.9525 179.75 18.6712 179.85 19.525C177.743 18.8597 175.581 17.3517 173.319 18.3718C170.923 20.656 171.422 26.4552 175.481 26.1115C176.601 25.7566 178.829 25.047 179.949 24.6921C179.75 25.6457 179.362 27.5529 179.173 28.4955C174.372 30.7575 167.131 28.0852 167.508 22.0753Z" fill="#131313"/>
<path d="M181.688 14.8672C183.352 15.3107 185.048 15.7543 186.723 16.2311C187.976 15.7764 189.24 15.3329 190.515 14.8783C190.57 15.9428 190.703 18.0717 190.77 19.1362C189.173 19.2138 187.576 19.2914 186.002 19.3691C185.891 22.5514 185.858 25.7227 185.835 28.905C184.793 28.9161 182.697 28.9272 181.655 28.9383C181.6 24.2479 181.589 19.5576 181.688 14.8672Z" fill="#131313"/>
<path d="M199.719 15.1645C202.779 15.852 205.862 15.6414 208.911 15.0315C213.69 16.0184 213.801 22.7933 211.983 26.3416C210.475 29.402 206.782 29.1137 203.933 28.9585C203.955 30.5774 203.977 32.1852 203.999 33.8041C202.935 33.793 200.783 33.7708 199.708 33.7486C199.708 27.5613 199.697 21.3629 199.719 15.1645ZM204.043 18.4245C203.999 21.0081 203.977 23.6028 203.999 26.1864C205.374 25.8094 207.148 26.0755 208.19 24.889C208.967 22.7823 208.357 20.5091 208.202 18.3358C206.815 18.358 205.429 18.3913 204.043 18.4245Z" fill="#131313"/>
<path d="M192.455 15.2019C193.442 15.2019 195.415 15.2019 196.391 15.2019C196.458 19.7814 196.458 24.3498 196.391 28.9293C195.404 28.9293 193.442 28.9293 192.455 28.9293C192.377 24.3609 192.377 19.7814 192.455 15.2019Z" fill="#131313"/>
<path d="M110.18 37.8278C121.235 37.3621 132.312 37.9608 143.378 37.7723C155.586 37.3842 167.784 37.7058 180.003 37.7502C189.694 37.7723 199.385 37.7058 209.077 37.7834C206.027 71.4144 202.956 105.045 200.128 138.698C187.144 142.391 174.148 146.028 161.164 149.698C159.501 150.386 157.793 149.742 156.196 149.31C143.855 145.762 131.514 142.247 119.15 138.832C115.935 105.189 112.907 71.5142 110.18 37.8278ZM159.833 46.5987C159.379 63.1868 159.767 79.775 159.634 96.3632C159.756 111.532 159.412 126.712 159.811 141.881C170.722 139.308 181.489 136.148 192.256 133.032C194.961 104.236 197.6 75.4394 199.862 46.6097C186.523 46.4767 173.173 46.6319 159.833 46.5987ZM145.951 111.377C139.542 109.625 133.21 107.607 126.712 106.221C126.524 110.079 126.59 113.938 127.034 117.775C136.548 120.092 145.862 123.142 155.387 125.415C155.453 103.449 155.354 81.4715 155.431 59.5055C152.327 59.4279 149.222 59.3835 146.117 59.317C145.762 76.6592 146.095 94.0235 145.951 111.377Z" fill="#D6BA32"/>
<path d="M159.832 46.6033C173.171 46.6366 186.521 46.4813 199.861 46.6144C197.599 75.4441 194.96 104.241 192.254 133.037C181.487 136.153 170.721 139.313 159.81 141.886C159.411 126.717 159.754 111.537 159.632 96.3678C159.765 79.7797 159.377 63.1915 159.832 46.6033ZM163.569 59.4991C163.613 73.7809 163.624 88.0738 163.569 102.356C170.089 101.302 176.586 100.094 183.084 98.9071C182.984 102.234 182.851 105.56 182.707 108.887C176.376 110.572 170.055 112.313 163.691 113.876C163.591 117.713 163.58 121.549 163.613 125.397C171.63 123.601 179.525 121.339 187.486 119.332C188.484 118.866 190.402 118.922 190.314 117.358C191.278 107.09 191.877 96.7781 192.809 86.4881C186.211 87.0315 179.68 88.1403 173.082 88.5949C173.027 82.7624 173.016 76.93 173.105 71.0975C180.046 71.0975 186.976 71.0975 193.917 71.1086C194.361 67.2166 194.749 63.3135 195.048 59.4104C184.559 59.4547 174.058 59.3106 163.569 59.4991Z" fill="#FFDA3E"/>
<path d="M145.951 111.382C146.095 94.029 145.762 76.6647 146.117 59.3225C149.222 59.389 152.326 59.4334 155.431 59.511C155.354 81.4771 155.453 103.454 155.387 125.42C145.862 123.147 136.548 120.098 127.034 117.78C126.59 113.944 126.524 110.085 126.712 106.226C133.21 107.612 139.542 109.63 145.951 111.382Z" fill="#EBEBEB"/>
</svg>
