<?xml version="1.0"?>
<svg xmlns="http://www.w3.org/2000/svg" width="320" height="160" viewBox="0 0 320 160" fill="none">
<path d="M199.411 125.367H198.818V125.035H200.413V125.367H199.825V127.021H199.411V125.367ZM202.591 125.453H202.581L201.995 127.022H201.726L201.143 125.453H201.136V127.022H200.746V125.035H201.32L201.86 126.442L202.399 125.035H202.971V127.022H202.59L202.591 125.453Z" fill="#5382A1"/>
<path d="M146.392 84.75C146.392 84.75 142.272 87.1485 149.325 87.9602C157.869 88.9359 162.236 88.796 171.652 87.0121C171.652 87.0121 174.128 88.5658 177.585 89.9116C156.477 98.967 129.813 89.3871 146.392 84.75Z" fill="#5382A1"/>
<path d="M143.813 72.9316C143.813 72.9316 139.192 76.3559 146.25 77.0867C155.377 78.0292 162.585 78.1063 175.058 75.7023C175.058 75.7023 176.783 77.4529 179.496 78.4103C153.975 85.8803 125.549 78.9994 143.813 72.9316Z" fill="#5382A1"/>
<path d="M165.558 52.887C170.759 58.8809 164.191 64.2746 164.191 64.2746C164.191 64.2746 177.398 57.4505 171.332 48.905C165.668 40.9359 161.324 36.9763 184.84 23.3242C184.84 23.3242 147.927 32.5524 165.558 52.887Z" fill="#F8981D"/>
<path d="M193.476 93.489C193.476 93.489 196.525 96.004 190.117 97.9496C177.933 101.644 139.406 102.76 128.704 98.0968C124.856 96.4214 132.071 94.0965 134.341 93.6086C136.708 93.0949 138.06 93.1906 138.06 93.1906C133.782 90.1735 110.405 99.1146 126.186 101.675C169.223 108.661 204.639 98.5293 193.476 93.489Z" fill="#5382A1"/>
<path d="M148.373 60.6894C148.373 60.6894 128.776 65.3486 141.433 67.0406C146.778 67.7568 157.432 67.5947 167.355 66.7625C175.466 66.0777 183.609 64.6217 183.609 64.6217C183.609 64.6217 180.75 65.8476 178.681 67.2617C158.78 72.5006 120.335 70.0634 131.403 64.7046C140.763 60.1757 148.373 60.6894 148.373 60.6894Z" fill="#5382A1"/>
<path d="M183.53 80.3587C203.76 69.8363 194.406 59.7243 187.877 61.0866C186.277 61.42 185.564 61.7089 185.564 61.7089C185.564 61.7089 186.158 60.7774 187.292 60.3742C200.208 55.829 210.141 73.7795 183.123 80.8891C183.123 80.8891 183.436 80.6092 183.53 80.3587Z" fill="#5382A1"/>
<path d="M171.333 1.2793C171.333 1.2793 182.537 12.4976 160.707 29.7482C143.202 43.5862 156.715 51.4762 160.7 60.4909C150.482 51.2627 142.983 43.1391 148.014 35.5784C155.398 24.4799 175.854 19.0989 171.333 1.2793Z" fill="#F8981D"/>
<path d="M150.361 108.872C169.78 110.116 199.599 108.181 200.305 98.9844C200.305 98.9844 198.948 102.471 184.257 105.24C167.683 108.362 147.241 107.997 135.117 105.996C135.117 105.996 137.599 108.053 150.361 108.872Z" fill="#5382A1"/>
<path d="M147.179 144.015C145.347 145.605 143.412 146.498 141.676 146.498C139.198 146.498 137.859 145.011 137.859 142.625C137.859 140.044 139.293 138.158 145.049 138.158H147.178L147.179 144.015ZM152.233 149.724V132.053C152.233 127.539 149.661 124.561 143.46 124.561C139.84 124.561 136.668 125.455 134.091 126.597L134.835 129.724C136.864 128.979 139.491 128.285 142.069 128.285C145.642 128.285 147.179 129.724 147.179 132.701V134.934H145.396C136.716 134.934 132.801 138.307 132.801 143.369C132.801 147.738 135.381 150.221 140.239 150.221C143.362 150.221 145.693 148.93 147.872 147.042L148.268 149.724L152.233 149.724Z" fill="#5382A1"/>
<path d="M169.104 149.723H162.8L155.213 125.008H160.718L165.426 140.193L166.473 144.76C168.854 138.157 170.539 131.458 171.381 125.008H176.737C175.302 133.147 172.72 142.08 169.104 149.723Z" fill="#5382A1"/>
<path d="M193.288 144.015C191.453 145.605 189.514 146.498 187.778 146.498C185.304 146.498 183.962 145.011 183.962 142.625C183.962 140.044 185.4 138.158 191.155 138.158H193.288V144.015ZM198.342 149.724V132.053C198.342 127.539 195.764 124.561 189.569 124.561C185.946 124.561 182.774 125.455 180.198 126.597L180.94 129.724C182.971 128.979 185.603 128.285 188.179 128.285C191.749 128.285 193.288 129.724 193.288 132.701V134.934H191.502C182.82 134.934 178.906 138.307 178.906 143.369C178.906 147.738 181.484 150.221 186.342 150.221C189.466 150.221 191.796 148.93 193.979 147.042L194.376 149.724L198.342 149.724Z" fill="#5382A1"/>
<path d="M127.259 153.919C125.818 156.025 123.491 157.691 120.943 158.634L118.447 155.694C120.387 154.698 122.05 153.09 122.823 151.591C123.491 150.258 123.768 148.541 123.768 144.434V116.217H129.138V144.047C129.138 149.538 128.699 151.756 127.259 153.919Z" fill="#5382A1"/>
</svg>
