<?xml version="1.0"?>
<svg xmlns="http://www.w3.org/2000/svg" width="320" height="160" viewBox="0 0 320 160" fill="none">
<path d="M47.2258 27.3677C45.8127 25.9492 43.8522 25.0753 41.6668 25.0753C39.4868 25.0753 37.5414 25.9492 36.1462 27.3677H36.1105C34.7015 28.7767 33.8276 30.7427 33.8276 32.9144C33.8276 35.0985 34.7015 37.0521 36.1105 38.4474L36.1462 38.4858C37.5414 39.892 39.4868 40.7536 41.6668 40.7536C43.8522 40.7536 45.8127 39.892 47.2258 38.4858L47.2423 38.4474C48.6567 37.0521 49.5196 35.0985 49.5196 32.9144C49.5196 30.7427 48.6567 28.7767 47.2423 27.3677H47.2258ZM41.6668 134.68C43.8522 134.68 45.8127 133.789 47.2258 132.397L47.2423 132.355C48.6567 130.966 49.5196 129 49.5196 126.839C49.5196 124.655 48.6567 122.699 47.2423 121.283H47.2258C45.8127 119.85 43.8522 118.985 41.6668 118.985C39.4868 118.985 37.5414 119.85 36.1462 121.283H36.1105C34.7015 122.699 33.8276 124.655 33.8276 126.839C33.8276 129 34.7015 130.966 36.1105 132.355L36.1462 132.397C37.5414 133.789 39.4868 134.68 41.6668 134.68ZM84.3788 110.927C86.3201 110.417 88.0775 109.171 89.1517 107.286L89.2958 107.011C90.2506 105.226 90.4249 103.162 89.9145 101.331C89.4 99.3758 88.1406 97.6417 86.2597 96.562L86.1486 96.4879C84.3157 95.4809 82.2304 95.2614 80.3124 95.7841C78.3629 96.2712 76.611 97.569 75.5436 99.4376C74.4626 101.295 74.2376 103.43 74.7548 105.394C75.2885 107.327 76.5383 109.074 78.4082 110.166H78.4192C80.2932 111.243 82.4115 111.436 84.3788 110.927ZM49.7076 71.8441C47.6497 69.7917 44.8098 68.5048 41.6668 68.5048C38.5278 68.5048 35.6962 69.7917 33.6424 71.8441C31.5955 73.8937 30.3333 76.7213 30.3333 79.8643C30.3333 83.0074 31.5955 85.8473 33.6424 87.9203C35.6962 89.9603 38.5278 91.2348 41.6668 91.2348C44.8098 91.2348 47.6497 89.9603 49.7076 87.9203C51.76 85.8473 53.0222 83.0074 53.0222 79.8643C53.0222 76.7213 51.76 73.8937 49.7076 71.8441ZM45.1857 58.4829C49.7488 59.2348 53.8453 61.4202 56.9774 64.5743H57.0007C57.4987 65.0709 57.983 65.6183 58.4344 66.1643L66.2612 61.637C65.209 58.4569 65.1596 55.1327 66.006 52.0143C67.1214 47.8396 69.8282 44.1025 73.8864 41.7606L74.0181 41.6769C78.0323 39.4064 82.5939 38.9331 86.7111 40.0484C90.8817 41.1665 94.6435 43.8857 96.9854 47.937V47.9493C99.3163 51.9787 99.7882 56.602 98.677 60.7645C97.5671 64.9378 94.8507 68.701 90.7967 71.0292L89.7279 71.6603H89.6196C85.8701 73.4451 81.7475 73.725 77.961 72.7276C74.8522 71.9045 72.0013 70.1676 69.7678 67.705L61.952 72.22C62.8506 74.5962 63.3473 77.1575 63.3473 79.8643C63.3473 82.5574 62.8506 85.1559 61.952 87.5444L69.7678 92.047C72.0013 89.546 74.8522 87.8489 77.961 87.023C82.133 85.883 86.7564 86.3673 90.7967 88.7229L91.056 88.8436V88.8559C94.9591 91.2225 97.5794 94.8745 98.677 98.9999C99.7882 103.138 99.3163 107.764 96.9854 111.801L96.8441 112.083L96.8276 112.059C94.4871 115.951 90.7967 118.588 86.7234 119.704C82.5459 120.805 77.9212 120.335 73.8864 118.013V117.982C69.8282 115.636 67.1214 111.891 66.006 107.724C65.1596 104.619 65.209 101.295 66.2612 98.1164L58.4344 93.6C57.983 94.1461 57.4987 94.6688 57.0007 95.1654L56.9774 95.1901C53.8453 98.3332 49.7488 100.517 45.1857 101.244V110.288C48.4372 110.967 51.3484 112.593 53.6286 114.874L53.6409 114.898C56.6975 117.941 58.5908 122.18 58.5908 126.839C58.5908 131.484 56.6975 135.699 53.6409 138.757L53.6286 138.805C50.55 141.862 46.3272 143.755 41.6668 143.755C37.031 143.755 32.7973 141.862 29.7256 138.805H29.7132V138.757C26.6538 135.699 24.7565 131.484 24.7565 126.839C24.7565 122.18 26.6538 117.941 29.7132 114.898V114.874H29.7256C32.0043 112.593 34.921 110.967 38.1601 110.288V101.244C33.5985 100.517 29.5088 98.3332 26.3822 95.1901L26.3493 95.1654C22.4448 91.2472 20 85.8473 20 79.8643C20 73.8937 22.4448 68.4939 26.3493 64.5743H26.3822C29.5088 61.4202 33.5985 59.2348 38.1601 58.4829V49.4776C34.921 48.7752 32.0043 47.1495 29.7256 44.8803H29.7132V44.8556C26.6538 41.7853 24.7565 37.5749 24.7565 32.9144C24.7565 28.2787 26.6538 24.0312 29.7132 20.9732L29.7256 20.9609C32.7973 17.8919 37.031 16 41.6668 16C46.3272 16 50.55 17.8919 53.6286 20.9609V20.9732H53.6409C56.6975 24.0312 58.5908 28.2787 58.5908 32.9144C58.5908 37.5749 56.6975 41.7853 53.6409 44.8556L53.6286 44.8803C51.3484 47.1495 48.4372 48.7752 45.1857 49.4776V58.4829ZM89.1517 52.4767L89.0845 52.3779C88.0062 50.5587 86.283 49.3459 84.3788 48.8232C82.4115 48.3005 80.2932 48.52 78.4082 49.6011H78.4192C76.5383 50.6685 75.2802 52.4136 74.7548 54.3699C74.2376 56.3112 74.4626 58.4569 75.5436 60.3268L75.5807 60.3748C76.6631 62.2201 78.3876 63.4575 80.3124 63.9555C82.2468 64.5029 84.4021 64.2711 86.2597 63.19L86.3599 63.142C88.1886 62.0499 89.4069 60.3268 89.9145 58.4336C90.4331 56.4799 90.2259 54.3452 89.1517 52.4767Z" fill="#1A1919"/>
<path d="M123.881 55.1216H132.615V81.7808L145.209 67.8503H155.681L140.476 83.9896L155.744 104.448H145.744L132.615 86.1737V104.448H123.881V55.1216ZM165.826 86.3067C165.826 90.8464 169.091 97.4467 176.958 97.4467C181.825 97.4467 185.029 94.9101 186.69 91.5859C187.56 89.9725 187.961 88.248 188.095 86.4535C188.155 84.7167 187.828 82.9112 187.089 81.3074C185.558 77.8502 182.16 74.8526 176.893 74.8526C169.831 74.8526 165.826 80.579 165.826 86.2464V86.3067ZM196.759 104.448H188.021V99.1822C185.696 103.441 180.827 105.578 175.691 105.578C163.957 105.578 157.094 96.4397 157.094 86.1133C157.094 74.585 165.425 66.7212 175.691 66.7212C182.358 66.7212 186.423 70.2539 188.021 73.1898V67.8503H196.759V104.448ZM206.648 74.585H202.122V67.8503H206.648V65.7883C206.648 54.9144 214.916 54.2586 221.186 54.1859V60.9083C218.981 60.9083 215.385 60.9083 215.385 66.053V67.8503H221.186V74.585H215.385V104.448H206.648V74.585ZM227.125 55.1216H235.856V81.7808L248.453 67.8503H258.925L243.72 83.9896L258.985 104.448H248.985L235.856 86.1737V104.448H227.125V55.1216ZM269.07 86.3067C269.07 90.8464 272.334 97.4467 280.202 97.4467C285.063 97.4467 288.266 94.9101 289.93 91.5859C290.803 89.9725 291.205 88.248 291.336 86.4535C291.397 84.7167 291.069 82.9112 290.329 81.3074C288.801 77.8502 285.403 74.8526 280.137 74.8526C273.073 74.8526 269.07 80.579 269.07 86.2464V86.3067ZM300 104.448H291.265V99.1822C288.933 103.441 284.068 105.578 278.936 105.578C267.201 105.578 260.343 96.4397 260.343 86.1133C260.343 74.585 268.672 66.7212 278.936 66.7212C285.598 66.7212 289.667 70.2539 291.265 73.1898V67.8503H300V104.448Z" fill="#1A1919"/>
</svg>
