<?xml version="1.0"?>
<svg xmlns="http://www.w3.org/2000/svg" width="320" height="160" viewBox="0 0 320 160" fill="none">
<path d="M133.289 59.3235H142.659V77.9405L159.948 59.3235H171.261L153.915 77.2998L172.053 101.815H160.787L147.59 83.6876L142.659 88.7941V101.815H133.289V59.3235ZM167.075 85.7792V85.6567C167.075 76.2917 174.617 68.698 184.798 68.698C194.903 68.698 202.388 76.1787 202.388 85.6567V85.7792C202.388 95.1442 194.847 102.738 184.666 102.738C174.56 102.738 167.075 95.2572 167.075 85.7792ZM193.244 85.7792V85.6567C193.244 80.9459 189.775 76.6497 184.76 76.6497C179.462 76.6497 176.295 80.7292 176.295 85.5342V85.6567C176.295 90.3675 179.764 94.6637 184.779 94.6637C190.077 94.6637 193.235 90.5842 193.235 85.7792H193.244Z" fill="#000400"/>
<path d="M204.934 92.6569V77.2998H201.041V69.3858H204.934V61.0477H214.173V69.3858H221.846V77.2998H214.173V91.2437C214.173 93.373 215.087 94.4093 217.152 94.4093C218.746 94.4157 220.316 94.017 221.714 93.2505V100.675C219.763 101.833 217.519 102.559 214.408 102.559C208.752 102.559 204.915 100.298 204.915 92.7606L204.934 92.6569ZM224.514 57.4958H233.752V101.899H224.514V57.4958ZM237.108 57.4958H246.846V65.7114H237.118L237.108 57.4958ZM237.353 69.301H246.592V101.899H237.353V69.301ZM250.127 69.301H259.365V73.9175C261.496 71.1853 264.239 68.6886 268.924 68.6886C275.928 68.6886 280.001 73.3051 280.001 80.7952V101.899H270.762V83.7065C270.762 79.3255 268.689 77.0737 265.163 77.0737C261.637 77.0737 259.384 79.3349 259.384 83.7065V101.89H250.146L250.127 69.301Z" fill="#000400"/>
<path d="M80.2529 40.0188L40 82.2932V120.102L80.1775 79.8719L120.148 40L80.2529 40.0188Z" fill="url(#paint0_linear_462_5063)"/>
<path d="M40 120.111L80.1775 79.8813L120.148 120.111H40Z" fill="url(#paint1_linear_462_5063)"/>
<path d="M40 40.0189H80.2529L40 82.2933V40.0189Z" fill="url(#paint2_linear_462_5063)"/>
<defs>
<linearGradient id="paint0_linear_462_5063" x1="26.5195" y1="113.658" x2="101.053" y2="39.0812" gradientUnits="userSpaceOnUse">
<stop offset="0.108" stop-color="#C757BC"/>
<stop offset="0.173" stop-color="#CD5CA9"/>
<stop offset="0.492" stop-color="#E8744F"/>
<stop offset="0.716" stop-color="#F88316"/>
<stop offset="0.823" stop-color="#FF8900"/>
</linearGradient>
<linearGradient id="paint1_linear_462_5063" x1="65.5846" y1="134.564" x2="101.914" y2="98.2137" gradientUnits="userSpaceOnUse">
<stop offset="0.296" stop-color="#00AFFF"/>
<stop offset="0.694" stop-color="#5282FF"/>
<stop offset="1" stop-color="#945DFF"/>
</linearGradient>
<linearGradient id="paint2_linear_462_5063" x1="39.0479" y1="62.1218" x2="64.5331" y2="36.622" gradientUnits="userSpaceOnUse">
<stop offset="0.296" stop-color="#00AFFF"/>
<stop offset="0.694" stop-color="#5282FF"/>
<stop offset="1" stop-color="#945DFF"/>
</linearGradient>
</defs>
</svg>
