<?xml version="1.0"?>
<svg xmlns="http://www.w3.org/2000/svg" width="320" height="160" viewBox="0 0 320 160" fill="none">
<path d="M65.8187 66.7652C65.5425 65.8828 64.8797 65.1659 64.0512 64.7248L47.2043 56.6735C46.7625 56.4529 46.2653 56.3978 45.8235 56.3978C45.3816 56.3978 44.8844 56.3978 44.4426 56.508L27.5957 64.6145C26.7672 65.0005 26.1596 65.7174 25.9387 66.6549L21.796 84.7978C21.6303 85.7353 21.8512 86.6728 22.4036 87.4448L34.0583 101.838C34.7211 102.5 35.6601 102.941 36.5991 102.996H55.1583C56.1525 103.106 57.0915 102.665 57.6991 101.838L69.3538 87.4448C69.9061 86.6728 70.1271 85.7353 70.0166 84.7978L65.8187 66.7652Z" fill="#326DE6"/>
<path d="M63.2224 84.0803C63.1672 84.0803 63.112 84.0803 63.112 84.0251C63.112 83.97 63.0015 83.97 62.891 83.97C62.6701 83.9148 62.4491 83.9148 62.2282 83.9148C62.1177 83.9148 62.0073 83.9148 61.8968 83.8597H61.8415C61.234 83.8045 60.5711 83.6942 59.9635 83.5288C59.7978 83.4737 59.6321 83.3082 59.5769 83.1428L59.135 83.0325C59.3559 81.4333 59.2455 79.7789 58.9141 78.1797C58.5274 76.5804 57.8646 75.0364 56.9808 73.6577L57.3122 73.3268V73.2717C57.3122 73.1063 57.3675 72.8857 57.4779 72.7754C57.9751 72.3342 58.4722 72.0033 59.0245 71.6725C59.135 71.6173 59.2455 71.5622 59.3559 71.507C59.5769 71.3967 59.7426 71.2864 59.9635 71.1762C60.0188 71.121 60.074 71.121 60.1292 71.0659C60.1845 71.0107 60.1292 71.0107 60.1292 70.9556C60.6264 70.5696 60.7368 69.9078 60.3502 69.4115C60.1845 69.1909 59.8531 69.0255 59.5769 69.0255C59.3007 69.0255 59.0245 69.1358 58.8036 69.3012L58.7484 69.3563C58.6931 69.4115 58.6379 69.4666 58.5826 69.4666C58.4169 69.6321 58.2512 69.7975 58.1408 69.963C58.0855 70.0732 57.9751 70.1284 57.9198 70.1835C57.5332 70.6247 57.0361 71.0659 56.5389 71.3967C56.4285 71.4519 56.318 71.507 56.2075 71.507C56.1523 71.507 56.0418 71.507 55.9866 71.4519H55.9313L55.4895 71.7276C55.0476 71.2864 54.5505 70.8453 54.1086 70.4041C52.0649 68.8049 49.524 67.8123 46.928 67.5365L46.8727 67.0954V67.1505C46.707 67.0402 46.6518 66.8748 46.5965 66.7094C46.5965 66.1027 46.5965 65.4961 46.707 64.8344V64.7792C46.707 64.669 46.7623 64.5587 46.7623 64.4484C46.8175 64.2278 46.8175 64.0072 46.8727 63.7866V63.4558C46.928 62.9043 46.4861 62.3528 45.9337 62.2977C45.6023 62.2425 45.2709 62.408 44.9947 62.6837C44.7738 62.9043 44.6633 63.18 44.6633 63.4558V63.7315C44.6633 63.9521 44.7185 64.1726 44.7738 64.3932C44.829 64.5035 44.829 64.6138 44.829 64.7241V64.7792C44.9395 65.3859 44.9395 65.9925 44.9395 66.6542C44.8842 66.8196 44.829 66.9851 44.6633 67.0954V67.2057L44.6081 67.6468C44.0005 67.702 43.3929 67.8123 42.7301 67.9226C40.134 68.474 37.7589 69.8527 35.9361 71.7828L35.6047 71.5622H35.5494C35.4942 71.5622 35.439 71.6173 35.3285 71.6173C35.218 71.6173 35.1076 71.5622 34.9971 71.507C34.5 71.121 34.0028 70.6798 33.6162 70.2387C33.561 70.1284 33.4505 70.0732 33.3953 70.0181C33.2296 69.8527 33.1191 69.6872 32.9534 69.5218C32.8981 69.4666 32.8429 69.4666 32.7877 69.4115C32.7324 69.3563 32.7324 69.3563 32.7324 69.3563C32.5115 69.1909 32.2353 69.0806 31.9591 69.0806C31.6277 69.0806 31.3515 69.1909 31.1858 69.4666C30.8544 69.963 30.9649 70.6247 31.4068 71.0107C31.462 71.0107 31.462 71.0659 31.462 71.0659C31.462 71.0659 31.5725 71.1762 31.6277 71.1762C31.7934 71.2864 32.0144 71.3967 32.2353 71.507C32.3458 71.5622 32.4563 71.6173 32.5667 71.6725C33.1191 72.0033 33.6714 72.3342 34.1133 72.7754C34.2238 72.8857 34.3343 73.1063 34.279 73.2717V73.2166L34.6104 73.5474C34.5552 73.6577 34.5 73.7129 34.4447 73.8232C32.7324 76.5253 32.0144 79.7238 32.5115 82.8671L32.0696 82.9774C32.0696 83.0325 32.0144 83.0325 32.0144 83.0325C31.9591 83.1979 31.7934 83.3082 31.6277 83.4185C31.0201 83.584 30.4125 83.6942 29.7497 83.7494C29.6392 83.7494 29.5288 83.7494 29.4183 83.8045C29.1974 83.8045 28.9764 83.8597 28.7555 83.8597C28.7002 83.8597 28.645 83.9148 28.5345 83.9148C28.4793 83.9148 28.4793 83.9148 28.4241 83.97C27.8165 84.0803 27.4298 84.6317 27.5403 85.2383C27.6508 85.7346 28.1479 86.0655 28.645 86.0104C28.7555 86.0104 28.8107 86.0104 28.9212 85.9552C28.9764 85.9552 28.9764 85.9552 28.9764 85.9001C28.9764 85.8449 29.1421 85.9001 29.1974 85.9001C29.4183 85.8449 29.6392 85.7346 29.8049 85.6795C29.9154 85.6243 30.0259 85.5692 30.1364 85.5692H30.1916C30.7992 85.3486 31.3515 85.1832 32.0144 85.0729H32.0696C32.2353 85.0729 32.401 85.128 32.5115 85.2383C32.5667 85.2383 32.5667 85.2935 32.5667 85.2935L33.0638 85.2383C33.8924 87.775 35.439 90.036 37.5932 91.6904C38.0903 92.0764 38.5322 92.4073 39.0845 92.683L38.8083 93.069C38.8083 93.1242 38.8636 93.1242 38.8636 93.1242C38.974 93.2896 38.974 93.5102 38.9188 93.6756C38.6979 94.2271 38.3665 94.7785 38.035 95.2749V95.33C37.9798 95.4403 37.9246 95.4954 37.8141 95.6057C37.7036 95.716 37.5932 95.9366 37.4275 96.1572C37.3722 96.2123 37.3722 96.2675 37.317 96.3226C37.317 96.3226 37.317 96.3778 37.2617 96.3778C36.9856 96.9292 37.2065 97.591 37.7036 97.8667C37.8141 97.9218 37.9798 97.977 38.0903 97.977C38.5322 97.977 38.9188 97.7013 39.1398 97.3152C39.1398 97.3152 39.1398 97.2601 39.195 97.2601C39.195 97.205 39.2502 97.1498 39.3055 97.0947C39.3607 96.8741 39.4712 96.7086 39.5264 96.4881L39.6369 96.1572C39.8026 95.5506 40.0788 94.9991 40.3549 94.4477C40.4654 94.2822 40.6311 94.1719 40.7968 94.1168C40.8521 94.1168 40.8521 94.1168 40.8521 94.0616L41.073 93.6205C42.6196 94.2271 44.2214 94.5028 45.8785 94.5028C46.8727 94.5028 47.867 94.3925 48.8612 94.1168C49.4688 94.0065 50.0764 93.7859 50.6287 93.6205L50.8497 94.0065C50.9049 94.0065 50.9049 94.0065 50.9049 94.0616C51.0706 94.1168 51.2363 94.2271 51.3468 94.3925C51.623 94.944 51.8992 95.4954 52.0649 96.102V96.1572L52.1753 96.4881C52.2306 96.7086 52.2858 96.9292 52.3963 97.0947C52.4515 97.1498 52.4515 97.205 52.5067 97.2601C52.5067 97.2601 52.5067 97.3152 52.562 97.3152C52.7829 97.7013 53.1696 97.977 53.6115 97.977C53.7772 97.977 53.8876 97.9218 54.0533 97.8667C54.2743 97.7564 54.4952 97.5358 54.5505 97.2601C54.6057 96.9844 54.6057 96.7086 54.4952 96.4329C54.4952 96.3778 54.44 96.3778 54.44 96.3778C54.44 96.3226 54.3848 96.2675 54.3295 96.2123C54.219 95.9917 54.1086 95.8263 53.9429 95.6609C53.8876 95.5506 53.8324 95.4954 53.7219 95.3851V95.2749C53.3353 94.7785 53.0591 94.2271 52.8382 93.6756C52.7829 93.5102 52.7829 93.2896 52.8934 93.1242C52.8934 93.069 52.9486 93.069 52.9486 93.069L52.7829 92.6279C55.5999 90.9183 57.7541 88.2713 58.7484 85.128L59.1902 85.1832C59.2455 85.1832 59.2455 85.128 59.2455 85.128C59.3559 85.0177 59.5217 84.9626 59.6874 84.9626H59.7426C60.3502 85.0729 60.9578 85.2383 61.5101 85.4589H61.5654C61.6758 85.5141 61.7863 85.5692 61.8968 85.5692C62.1177 85.6795 62.2834 85.7898 62.5044 85.8449C62.5596 85.8449 62.6148 85.9001 62.7253 85.9001C62.7805 85.9001 62.7806 85.9001 62.8358 85.9552C62.9463 86.0104 63.0015 86.0104 63.112 86.0104C63.6091 86.0104 64.051 85.6795 64.2167 85.2383C64.1614 84.6317 63.7196 84.1906 63.2224 84.0803ZM47.2594 82.3707L45.768 83.0876L44.2767 82.3707L43.89 80.7715L44.9395 79.448H46.5965L47.646 80.7715L47.2594 82.3707ZM56.2628 78.7863C56.5389 79.9443 56.5942 81.1024 56.4837 82.2605L51.2363 80.7715C50.7392 80.6612 50.463 80.1649 50.5735 79.6686C50.6287 79.5032 50.684 79.3929 50.7944 79.2826L54.9371 75.5327C55.5447 76.5253 55.9866 77.6282 56.2628 78.7863ZM53.28 73.4923L48.7507 76.6907C48.3641 76.9113 47.8117 76.8562 47.5355 76.4702C47.4251 76.3599 47.3698 76.2496 47.3698 76.0841L47.0384 70.5144C49.4688 70.7901 51.623 71.8379 53.28 73.4923ZM43.2824 70.6798L44.3871 70.4593L44.1109 75.9738C44.1109 76.4702 43.6691 76.8562 43.1719 76.8562C43.0062 76.8562 42.8958 76.801 42.7301 76.7459L38.1455 73.4923C39.5816 72.1136 41.3492 71.121 43.2824 70.6798ZM36.5437 75.5327L40.6311 79.1723C41.0178 79.5032 41.073 80.0546 40.7416 80.4406C40.6311 80.6061 40.5206 80.6612 40.2997 80.7164L34.9419 82.2605C34.7761 79.9443 35.3285 77.5731 36.5437 75.5327ZM35.6047 84.8523L41.073 83.9148C41.5149 83.9148 41.9568 84.1906 42.012 84.6317C42.0672 84.7972 42.0672 85.0177 41.9568 85.1832L39.8578 90.2566C37.9246 88.9882 36.378 87.0581 35.6047 84.8523ZM48.1431 91.6904C47.3698 91.8558 46.5965 91.9661 45.768 91.9661C44.6081 91.9661 43.3929 91.7455 42.2882 91.4147L44.9947 86.5067C45.2709 86.1758 45.7128 86.0655 46.0994 86.2861C46.2651 86.3964 46.3756 86.5067 46.5413 86.6721L49.1926 91.4698C48.8612 91.5249 48.5298 91.5801 48.1431 91.6904ZM54.8819 86.8927C54.0533 88.2162 52.8934 89.3743 51.5677 90.2014L49.4136 85.0177C49.3031 84.5766 49.524 84.1354 49.9107 83.97C50.0764 83.9148 50.2421 83.8597 50.4078 83.8597L55.9313 84.7972C55.6552 85.5692 55.3238 86.2861 54.8819 86.8927Z" fill="white"/>
<path d="M289.356 90.8673C290.129 90.9225 290.958 90.8122 291.676 90.5365C292.118 90.3159 292.394 89.8196 292.339 89.3232C292.284 88.7718 291.952 88.2755 291.455 88.11C290.626 87.6137 289.687 87.1726 288.748 86.8968C287.809 86.566 286.981 86.1799 286.208 85.7939C285.49 85.463 284.882 85.0219 284.274 84.4704C283.722 83.919 283.335 83.3124 283.059 82.5955C282.728 81.7683 282.617 80.886 282.617 80.0036C282.562 78.1838 283.391 76.4191 284.827 75.3162C286.318 74.1582 288.307 73.6067 290.847 73.6067C292.063 73.6067 293.333 73.717 294.548 73.9927C295.487 74.1582 296.426 74.3788 297.365 74.7096L296.316 79.397C295.542 79.1213 294.824 78.9558 294.051 78.7353C293.167 78.5147 292.228 78.4595 291.345 78.4595C289.467 78.4595 288.528 78.9558 288.528 80.0036C288.528 80.2242 288.583 80.4448 288.638 80.6654C288.749 80.886 288.914 81.0514 289.135 81.2168C289.356 81.3823 289.687 81.5477 290.074 81.7683C290.461 81.9889 291.013 82.2094 291.676 82.43C292.781 82.8161 293.885 83.3124 294.88 83.8638C295.653 84.2498 296.316 84.7462 296.868 85.4079C297.365 85.9042 297.697 86.5108 297.918 87.2277C298.139 87.9998 298.249 88.7718 298.249 89.5438C298.359 91.4188 297.476 93.2386 295.874 94.2864C294.327 95.3341 292.118 95.8856 289.246 95.8856C287.644 95.9407 286.097 95.7753 284.551 95.3893C283.667 95.1687 282.838 94.893 282.01 94.6172L283.004 89.7644C283.998 90.1504 285.048 90.4813 286.097 90.7019C287.202 90.757 288.251 90.8673 289.356 90.8673ZM258.921 84.8013C258.866 83.1469 259.197 81.4926 259.75 79.9485C260.247 78.625 261.02 77.4669 262.015 76.4191C262.954 75.4817 264.003 74.7648 265.218 74.3236C266.433 73.8273 267.704 73.6067 268.974 73.6067C271.957 73.6067 274.332 74.5442 276.044 76.364C277.757 78.1838 278.64 80.886 278.64 84.4153C278.64 84.7462 278.64 85.1322 278.585 85.5733C278.585 86.0145 278.53 86.3454 278.53 86.6763H265.052C265.163 87.8343 265.771 88.9372 266.765 89.599C267.98 90.371 269.416 90.757 270.852 90.7019C271.902 90.7019 273.006 90.5916 274.056 90.4262C274.94 90.2607 275.823 89.985 276.652 89.599L277.48 94.4518C277.094 94.6724 276.652 94.7827 276.21 94.9481C275.602 95.1136 274.995 95.279 274.387 95.3341C273.724 95.4444 273.062 95.5547 272.288 95.665C271.57 95.7202 270.797 95.7753 270.024 95.7753C268.311 95.8304 266.654 95.5547 265.052 94.9481C263.727 94.4518 262.567 93.6798 261.573 92.6871C260.634 91.6945 259.971 90.4813 259.529 89.213C259.142 87.724 258.921 86.2351 258.921 84.8013ZM272.896 82.5403C272.896 82.044 272.785 81.5477 272.62 81.0514C272.509 80.5551 272.233 80.1691 271.957 79.783C271.625 79.397 271.239 79.0661 270.797 78.8456C270.245 78.5698 269.692 78.4595 269.085 78.4595C268.477 78.4595 267.925 78.5698 267.372 78.8456C266.93 79.0661 266.489 79.3419 266.157 79.7279C265.826 80.1139 265.55 80.5551 265.384 81.0514C265.218 81.5477 265.108 82.044 265.052 82.5403H272.896ZM242.737 68.8642L248.703 67.9267V74.103H255.883V79.0661H248.703V86.4557C248.647 87.5034 248.868 88.5512 249.366 89.4335C249.807 90.1504 250.691 90.5365 252.072 90.5365C252.735 90.5365 253.398 90.4813 254.005 90.371C254.668 90.2607 255.276 90.0953 255.883 89.8747L256.712 94.5069C255.939 94.8378 255.11 95.0584 254.282 95.279C253.232 95.4996 252.127 95.6099 251.023 95.6099C249.642 95.665 248.261 95.4444 246.99 94.9481C245.996 94.5621 245.112 93.9003 244.45 93.1283C243.787 92.3011 243.345 91.3085 243.069 90.2607C242.793 89.0475 242.682 87.7792 242.737 86.566V68.8642ZM218.599 84.8013C218.544 83.1469 218.876 81.4926 219.428 79.9485C219.925 78.625 220.698 77.4669 221.693 76.4191C222.632 75.4817 223.681 74.7648 224.896 74.3236C226.111 73.8273 227.382 73.6067 228.652 73.6067C231.635 73.6067 234.01 74.5442 235.722 76.364C237.435 78.1838 238.318 80.886 238.318 84.4153C238.318 84.7462 238.318 85.1322 238.263 85.5733C238.208 86.0145 238.208 86.3454 238.208 86.6763H224.675C224.786 87.8343 225.393 88.9372 226.388 89.599C227.603 90.371 229.039 90.757 230.475 90.7019C231.524 90.7019 232.629 90.5916 233.679 90.4262C234.562 90.2607 235.446 89.985 236.33 89.599L237.159 94.4518C236.772 94.6724 236.33 94.7827 235.888 94.9481C235.281 95.1136 234.673 95.279 234.065 95.3341C233.402 95.4444 232.74 95.5547 231.966 95.665C231.248 95.7202 230.475 95.7753 229.702 95.7753C227.989 95.8304 226.332 95.5547 224.731 94.9481C223.405 94.4518 222.245 93.6798 221.251 92.6871C220.312 91.6945 219.649 90.4813 219.207 89.213C218.765 87.724 218.544 86.2351 218.599 84.8013ZM232.574 82.5403C232.574 82.044 232.464 81.5477 232.298 81.0514C232.187 80.5551 231.911 80.1691 231.635 79.783C231.304 79.397 230.917 79.0661 230.475 78.8456C229.923 78.5698 229.37 78.4595 228.763 78.4595C228.155 78.4595 227.603 78.5698 227.05 78.8456C226.609 79.0661 226.222 79.3419 225.89 79.7279C225.559 80.1139 225.283 80.5551 225.117 81.0514C224.951 81.5477 224.841 82.044 224.786 82.5403H232.574ZM195.953 74.8199C197.223 74.489 198.549 74.2133 199.875 73.9927C201.532 73.717 203.244 73.6067 204.901 73.6067C206.392 73.5516 207.884 73.8273 209.32 74.3236C210.425 74.7096 211.419 75.3714 212.137 76.2537C212.855 77.136 213.352 78.1838 213.628 79.2867C213.96 80.5551 214.07 81.8786 214.07 83.2021V95.0584H208.16V83.9741C208.16 82.044 207.884 80.7205 207.387 79.8933C206.889 79.1213 205.95 78.6801 204.57 78.6801C204.128 78.6801 203.686 78.6801 203.189 78.7353C202.692 78.7353 202.305 78.7904 201.918 78.8456V95.0584H195.953V74.8199ZM191.755 79.397C191.203 79.2867 190.595 79.1213 189.877 79.011C189.104 78.8456 188.33 78.7904 187.557 78.7904C187.115 78.7904 186.673 78.8456 186.176 78.9007C185.789 78.9558 185.403 79.011 185.016 79.1213V95.1687H179.051V75.2059C180.266 74.7648 181.536 74.4339 182.807 74.1582C184.409 73.7721 186.066 73.6067 187.667 73.6619C188.054 73.6619 188.441 73.717 188.827 73.717C189.269 73.717 189.711 73.7721 190.208 73.8824C190.65 73.9376 191.092 73.9927 191.589 74.103C191.976 74.1582 192.363 74.2685 192.749 74.4339L191.755 79.397ZM154.692 84.8013C154.637 83.1469 154.968 81.4926 155.52 79.9485C156.018 78.625 156.791 77.4669 157.785 76.4191C158.724 75.4817 159.774 74.7648 160.989 74.3236C162.204 73.8273 163.474 73.6067 164.745 73.6067C167.727 73.6067 170.103 74.5442 171.815 76.364C173.527 78.1838 174.411 80.886 174.411 84.3601C174.411 84.691 174.411 85.077 174.356 85.5182C174.301 85.9594 174.301 86.2902 174.301 86.6211H160.768C160.878 87.7792 161.486 88.8821 162.48 89.5438C163.695 90.3159 165.131 90.7019 166.568 90.6467C167.617 90.6467 168.722 90.5365 169.771 90.371C170.655 90.2056 171.539 89.9299 172.367 89.599L173.196 94.4518C172.809 94.6724 172.367 94.7827 171.925 94.9481C171.318 95.1136 170.71 95.279 170.103 95.3341C169.44 95.4444 168.777 95.5547 168.004 95.665C167.286 95.7202 166.512 95.7753 165.739 95.7753C164.027 95.8304 162.37 95.5547 160.768 94.9481C159.442 94.4518 158.282 93.6798 157.288 92.6871C156.349 91.6945 155.686 90.4813 155.244 89.213C154.913 87.724 154.692 86.2902 154.692 84.8013ZM168.722 82.5403C168.722 82.044 168.611 81.5477 168.446 81.0514C168.335 80.5551 168.059 80.1691 167.783 79.783C167.451 79.397 167.065 79.0661 166.623 78.8456C166.07 78.5698 165.518 78.4595 164.91 78.4595C164.303 78.4595 163.751 78.5698 163.198 78.8456C162.756 79.0661 162.314 79.3419 161.983 79.7279C161.652 80.1139 161.375 80.5551 161.21 81.0514C161.044 81.5477 160.934 82.044 160.878 82.5403H168.722ZM145.026 84.4704C145.026 80.6102 143.59 78.7353 140.773 78.7353C140.165 78.7353 139.557 78.7904 138.95 78.9558C138.453 79.0661 137.956 79.2867 137.514 79.5625V90.371C137.79 90.4262 138.176 90.4813 138.618 90.5365C139.06 90.5916 139.557 90.5916 140.11 90.5916C141.546 90.7019 142.927 90.0953 143.811 88.9372C144.639 87.6137 145.081 86.0697 145.026 84.4704ZM151.102 84.691C151.102 86.2351 150.881 87.7792 150.328 89.2681C149.886 90.5916 149.168 91.7497 148.229 92.7423C147.235 93.7349 146.075 94.5069 144.805 95.0033C143.313 95.5547 141.767 95.7753 140.165 95.7753C139.447 95.7753 138.674 95.7202 137.9 95.665C137.127 95.6099 136.354 95.4996 135.58 95.4444C134.862 95.3341 134.144 95.2238 133.426 95.0584C132.708 94.9481 132.101 94.7827 131.603 94.5621V65.0591L137.569 64.1216V74.5993C138.232 74.3236 138.95 74.103 139.668 73.9376C140.441 73.7721 141.214 73.717 141.988 73.717C143.369 73.717 144.694 73.9376 145.965 74.5442C147.069 75.0405 148.064 75.8125 148.837 76.75C149.665 77.7978 150.273 78.9558 150.604 80.2242C150.936 81.6028 151.102 83.1469 151.102 84.691ZM125.914 94.3967C124.644 94.7275 123.318 95.0033 121.992 95.1687C120.335 95.4444 118.623 95.5547 116.966 95.5547C115.419 95.6099 113.928 95.3341 112.492 94.8378C111.387 94.3967 110.448 93.7349 109.675 92.8526C108.957 91.9151 108.46 90.8673 108.184 89.7093C107.852 88.4409 107.742 87.0623 107.742 85.7388V74.103H113.707V85.077C113.707 87.0071 113.983 88.3858 114.48 89.213C114.978 90.0401 115.917 90.4813 117.297 90.4813C117.739 90.4813 118.181 90.4813 118.678 90.4262C119.175 90.371 119.562 90.371 119.949 90.2607V74.103H125.914V94.3967ZM91.1158 81.7131C91.7234 81.0514 92.2758 80.3896 92.9386 79.7279C93.5462 79.011 94.1538 78.3492 94.7614 77.6875C95.369 76.9706 95.9213 76.364 96.4184 75.7574C96.9156 75.1508 97.4127 74.5993 97.7993 74.1582H104.869C103.433 75.7574 102.052 77.3566 100.727 78.8456C99.3459 80.3345 97.9098 81.8786 96.308 83.4227C97.1917 84.2498 98.0203 85.077 98.7936 86.0145C99.6221 87.0071 100.451 87.9998 101.279 89.1027C102.052 90.1504 102.826 91.2533 103.489 92.3011C104.151 93.3489 104.704 94.3415 105.146 95.2238H98.2964C97.8546 94.507 97.3574 93.7901 96.8051 92.9629C96.2527 92.1357 95.6451 91.3085 95.0928 90.4262C94.4852 89.599 93.8224 88.7718 93.1043 87.9998C92.4967 87.2829 91.8339 86.6211 91.1158 86.0697V95.279H85.1504V65.0591L91.1158 64.1216V81.7131Z" fill="black"/>
</svg>
