<?xml version="1.0"?>
<svg xmlns="http://www.w3.org/2000/svg" width="320" height="160" viewBox="0 0 320 160" fill="none">
<g clip-path="url(#clip0_462_5135)">
<path d="M227.091 41.9424C227.141 42.1279 227.167 42.3191 227.167 42.5113V72.3791C227.167 72.7624 227.066 73.139 226.874 73.4707C226.682 73.8024 226.405 74.0775 226.073 74.2683L201.004 88.7013V117.309C201.004 118.087 200.591 118.806 199.915 119.198L147.587 149.322C147.467 149.39 147.336 149.433 147.206 149.479C147.157 149.496 147.111 149.526 147.059 149.539C146.693 149.636 146.309 149.636 145.943 149.539C145.883 149.523 145.828 149.49 145.771 149.469C145.651 149.425 145.526 149.387 145.412 149.322L93.0943 119.198C92.762 119.007 92.4858 118.732 92.2937 118.4C92.1016 118.068 92.0003 117.692 92 117.309V27.7054C92 27.5094 92.0272 27.3188 92.0762 27.1337C92.0926 27.0711 92.1307 27.0139 92.1524 26.9513C92.1933 26.837 92.2314 26.7199 92.2913 26.6138C92.3321 26.543 92.392 26.4858 92.441 26.4205C92.5036 26.3334 92.5608 26.2435 92.6343 26.1673C92.6969 26.1047 92.7785 26.0584 92.8493 26.004C92.9283 25.9387 92.999 25.8679 93.0889 25.8162L119.252 10.7543C119.583 10.5637 119.958 10.4634 120.341 10.4634C120.723 10.4634 121.098 10.5637 121.429 10.7543L147.59 25.8162H147.595C147.682 25.8706 147.756 25.9387 147.835 26.0013C147.905 26.0557 147.984 26.1047 148.047 26.1646C148.123 26.2435 148.178 26.3334 148.243 26.4205C148.289 26.4858 148.352 26.543 148.39 26.6138C148.453 26.7226 148.488 26.837 148.532 26.9513C148.553 27.0139 148.591 27.0711 148.608 27.1364C148.658 27.3219 148.683 27.5132 148.684 27.7054V83.6707L170.483 71.1187V42.5086C170.483 42.318 170.51 42.1248 170.559 41.9424C170.578 41.877 170.614 41.8199 170.636 41.7573C170.679 41.6429 170.717 41.5259 170.777 41.4197C170.818 41.3489 170.878 41.2918 170.924 41.2264C170.99 41.1393 171.044 41.0495 171.12 40.9733C171.183 40.9107 171.262 40.8644 171.333 40.8099C171.414 40.7446 171.485 40.6738 171.572 40.6221L197.738 25.5603C198.069 25.3694 198.444 25.2689 198.827 25.2689C199.209 25.2689 199.584 25.3694 199.915 25.5603L226.076 40.6221C226.168 40.6765 226.239 40.7446 226.321 40.8072C226.389 40.8617 226.468 40.9107 226.53 40.9705C226.606 41.0495 226.661 41.1393 226.726 41.2264C226.775 41.2918 226.835 41.3489 226.873 41.4197C226.936 41.5259 226.971 41.6429 227.015 41.7573C227.039 41.8199 227.075 41.877 227.091 41.9424ZM222.806 71.1187V46.2815L213.652 51.5517L201.004 58.8335V83.6707L222.809 71.1187H222.806ZM196.646 116.048V91.1948L184.206 98.2997L148.681 118.574V143.662L196.646 116.048ZM96.3609 31.4756V116.048L144.32 143.659V118.577L119.265 104.397L119.257 104.392L119.246 104.386C119.162 104.337 119.091 104.267 119.012 104.207C118.944 104.152 118.865 104.109 118.805 104.049L118.8 104.041C118.729 103.973 118.68 103.888 118.62 103.812C118.566 103.739 118.5 103.676 118.457 103.6L118.454 103.592C118.405 103.51 118.375 103.412 118.34 103.319C118.304 103.238 118.258 103.161 118.236 103.074C118.209 102.971 118.204 102.859 118.193 102.753C118.182 102.672 118.16 102.59 118.16 102.508V44.0276L105.516 36.743L96.3609 31.4756ZM120.343 15.1588L98.5468 27.7054L120.338 40.2519L142.132 27.7026L120.338 15.1588H120.343ZM131.679 93.4596L144.323 86.1805V31.4756L135.168 36.7457L122.521 44.0276V98.7325L131.679 93.4596ZM198.827 29.9648L177.033 42.5113L198.827 55.0578L220.618 42.5086L198.827 29.9648ZM196.646 58.8335L183.999 51.5517L174.844 46.2815V71.1187L187.489 78.3978L196.646 83.6707V58.8335ZM146.498 114.804L178.465 96.5548L194.444 87.4355L172.666 74.8971L147.592 89.3328L124.74 102.489L146.498 114.804Z" fill="#FF2D20"/>
</g>
<defs>
<clipPath id="clip0_462_5135">
<rect width="135.408" height="140" fill="white" transform="translate(92 10)"/>
</clipPath>
</defs>
</svg>
