<?xml version="1.0"?>
<svg xmlns="http://www.w3.org/2000/svg" width="320" height="160" viewBox="0 0 320 160" fill="none">
<path d="M48.1811 21.9736L51.0286 27.3092C51.6485 28.2717 52.3701 29.1652 53.1812 29.9744C55.5662 32.3507 57.8364 34.8415 59.8688 37.5093C64.6964 43.8261 67.954 50.8405 70.2816 58.4352C71.6766 63.0733 72.4342 67.8259 72.4917 72.6357C72.7268 87.0105 67.779 99.3553 57.7737 109.615C56.1525 111.242 54.4017 112.734 52.5385 114.079C51.5458 114.079 51.0834 113.298 50.6759 112.629C49.8922 111.328 49.4533 109.904 49.2208 108.457C48.8708 106.718 48.6383 104.98 48.7558 103.181V102.369C48.6984 102.195 47.8258 22.3823 48.1733 21.9762L48.1811 21.9736Z" fill="#599636"/>
<path d="M47.8996 22.0884C47.7838 21.855 47.6681 22.0314 47.5549 22.1455C47.6115 23.2994 47.2103 24.3392 46.5776 25.3219C45.8909 26.3073 44.9728 27.0541 44.0572 27.8631C38.9597 32.3102 34.9527 37.6804 31.743 43.6859C27.5045 51.771 25.2721 60.4318 24.6445 69.5568C24.3616 72.8499 25.6733 84.4564 26.7072 87.804C29.5106 96.6982 34.5515 104.145 41.1098 110.613C42.7146 112.168 44.4327 113.615 46.2073 115C46.7217 115 46.7808 114.538 46.894 114.191C47.1196 113.453 47.2916 112.7 47.4083 111.938C47.9227 109.051 48.2108 106.163 48.5528 103.277L47.9227 22.0884H47.8996Z" fill="#6CAC48"/>
<path d="M51.1468 117.299C51.272 115.952 51.9819 114.839 52.6974 113.727C51.9541 113.437 51.3945 112.848 50.9603 112.201C50.5872 111.614 50.2782 110.886 50.0305 110.268C49.1619 107.808 48.9726 105.23 48.7276 102.71V101.184C48.4214 101.421 48.3546 103.41 48.3546 103.704C48.1681 106.398 47.7978 109.036 47.241 111.612C47.0545 112.664 46.9348 113.721 46.25 114.658C46.25 114.776 46.25 114.895 46.3112 115.068C47.4248 118.172 47.7366 121.337 47.9259 124.559V125.73C47.9259 127.135 47.8646 126.843 49.1034 127.308C49.599 127.484 50.1613 127.545 50.654 127.895C51.0271 127.895 51.0883 127.605 51.0883 127.369L50.9018 125.435V120.043C50.8405 119.106 51.0271 118.167 51.1523 117.289L51.1468 117.299Z" fill="#C2BFBF"/>
<path d="M94.8499 93.2597V98.7655C94.8437 98.9835 94.8562 99.2017 94.887 99.4176C94.9586 100.07 95.3589 100.467 95.9473 100.65C96.4964 100.795 97.0542 100.904 97.6174 100.976C97.9434 101.013 98.0521 101.157 98.0892 101.506C98.1263 102.739 98.0176 102.885 96.8221 102.811C94.0334 102.665 91.2421 102.63 88.4534 102.811H88.1883C87.3189 102.848 87.2473 102.774 87.2473 101.904C87.2473 101.758 87.2844 101.578 87.2844 101.432C87.2844 101.167 87.4647 101.035 87.7192 101.035C88.3023 100.963 88.8431 100.817 89.3892 100.709C90.15 100.528 90.582 100.056 90.6563 99.2957C90.7623 98.4633 90.7623 97.5938 90.7623 96.7588L90.7994 87.0515C90.8114 86.7699 90.7429 86.4908 90.6021 86.2467C90.4613 86.0026 90.2539 85.8036 90.0042 85.673C89.3486 85.3089 88.6553 85.0174 87.9365 84.8036C87.7192 84.732 87.5018 84.6975 87.3215 84.5862C86.7914 84.3317 86.7781 83.8625 87.2844 83.5709C87.4647 83.4649 87.682 83.3907 87.8994 83.3536C90.0979 83.0291 92.2578 82.4829 94.3462 81.7233C94.781 81.5775 94.8897 81.6173 94.9294 82.0494C94.9665 82.3144 94.9294 82.6325 94.8923 82.8817C94.8207 83.3536 94.8207 83.8228 94.8207 84.2602C94.8207 84.4404 94.8578 84.6233 95.0381 84.732C95.2184 84.8407 95.4013 84.732 95.5683 84.626C96.3291 84.0428 97.0898 83.502 97.9222 83.0355C99.1151 82.3834 100.387 81.8028 101.766 81.6226C103.436 81.4052 104.881 81.8399 106.15 82.9268C106.675 83.3967 107.138 83.9321 107.526 84.5199C107.889 85.0501 107.924 85.0634 108.396 84.7002C109.774 83.6849 111.221 82.781 112.78 82.1289C114.41 81.4397 116.078 81.3336 117.742 81.9115C119.444 82.5265 120.605 83.722 121.295 85.3523C121.878 86.6565 122.127 88.0031 122.127 89.4081V99.1154C122.127 99.7675 122.392 100.176 123.034 100.494C123.723 100.759 124.484 100.891 125.207 101.037C125.679 101.143 125.679 101.143 125.679 101.62C125.608 102.813 125.499 102.888 124.338 102.813C121.43 102.65 118.516 102.65 115.609 102.813C115.025 102.85 115.025 102.85 114.994 102.27V102.09C114.956 101.109 114.956 101.109 115.9 100.897L116.841 100.642C117.16 100.567 117.444 100.387 117.648 100.131C117.852 99.8744 117.964 99.5569 117.965 99.2294L118.071 96.5123L118 89.4134C117.972 88.7795 117.837 88.1549 117.602 87.5657C116.695 85.3549 114.705 84.5597 112.783 84.7771C111.333 84.9229 110.066 85.5007 108.87 86.3358C108.616 86.516 108.435 86.7334 108.473 87.0965C108.799 89.416 108.579 91.7355 108.618 94.0523V99.0889C108.618 99.9955 108.981 100.43 109.851 100.648L111.521 101.011C111.775 101.048 111.919 101.157 111.919 101.445V101.711C111.881 102.726 111.813 102.771 110.795 102.76C107.897 102.615 104.997 102.654 102.137 102.76C101.156 102.797 101.077 102.689 101.122 101.7C101.159 101.117 101.228 101.085 101.774 100.976L102.967 100.759C104.027 100.542 104.417 100.144 104.488 99.02L104.594 96.5918L104.523 89.31C104.451 88.4034 104.258 87.5339 103.762 86.7016C103.038 85.3602 101.906 84.6737 100.356 84.5995C98.797 84.4934 97.4212 85.0713 96.1143 85.7923C95.2078 86.3225 94.8101 86.9507 94.8817 88.0031V93.2915L94.8499 93.2597ZM163.101 93.4798V98.5879C163.107 98.9511 163.131 99.3139 163.172 99.6747C163.188 99.9153 163.281 100.144 163.438 100.327C163.595 100.51 163.807 100.638 164.042 100.69C164.667 100.872 165.311 100.982 165.961 101.016C166.324 101.053 166.396 101.196 166.433 101.488V101.742C166.396 103.009 166.253 103.155 165.02 103.084C162.263 102.903 159.514 102.938 156.76 103.084L155.7 103.121C155.482 103.121 155.435 103.015 155.374 102.866C155.268 102.365 155.268 101.846 155.374 101.345C155.411 101.127 155.554 101.08 155.771 101.019C156.302 100.947 156.752 100.838 157.256 100.754C158.162 100.536 158.488 100.17 158.523 99.2321L158.629 96.1889V87.2768C158.629 86.6247 158.374 86.2271 157.797 85.9355C157.144 85.5723 156.455 85.3205 155.729 85.066C155.512 84.9944 155.294 84.9202 155.114 84.8115C154.642 84.4855 154.584 84.0163 155.042 83.6531C155.248 83.4841 155.501 83.3823 155.766 83.3615C158.086 82.9984 160.331 82.492 162.504 81.6226C162.759 81.5165 162.868 81.5855 162.976 81.8028C163.085 82.0202 163.122 82.2747 163.082 82.5265L162.976 84.2283C162.976 84.4457 162.87 84.7585 163.048 84.8433C163.265 84.9891 163.411 84.6631 163.591 84.5783C164.661 83.681 165.842 82.9263 167.106 82.333C168.23 81.8028 169.386 81.4635 170.693 81.5377C173.121 81.6835 174.86 82.9162 175.981 85.0528C176.564 86.1767 176.814 87.4067 176.922 88.6764L177.028 91.3273L177.065 99.3328C177.103 99.9478 177.32 100.348 177.935 100.565C178.573 100.778 179.227 100.936 179.891 101.037C180.474 101.109 180.506 101.218 180.543 101.761V101.941C180.472 103.174 180.398 103.208 179.165 103.134C176.462 102.989 173.754 102.989 171.051 103.134C170.688 103.171 170.327 103.134 169.99 103.171C169.773 103.171 169.627 103.134 169.593 102.917C169.521 102.445 169.447 101.976 169.556 101.467C169.593 101.249 169.701 101.141 169.953 101.104L171.623 100.838C172.207 100.693 172.53 100.308 172.604 99.7781L172.676 98.7629L172.639 91.1921C172.639 90.3226 172.601 89.4531 172.421 88.5837C171.986 86.7281 170.574 85.4027 168.657 85.2171C166.987 85.0368 165.476 85.4716 164.092 86.3755C163.403 86.8103 163.111 87.4252 163.111 88.186V93.6574C163.111 93.5513 163.111 93.5513 163.149 93.5513L163.101 93.4798Z" fill="#47474A"/>
<path d="M269.204 83.2263C268.806 80.5808 267.826 78.2269 266.124 76.1619C264.641 74.3376 262.722 72.9171 260.544 72.0319C258.264 71.0908 255.833 70.7992 253.371 70.7276C252.355 70.6905 238.518 70.9079 237.503 70.7276C237.248 70.6905 237.068 70.7648 236.919 70.9821C236.739 71.2472 236.556 71.5255 236.448 71.8145C236.013 72.7953 236.013 72.7211 237.063 72.8642C237.932 73.01 238.764 73.0816 239.599 73.3361C240.36 73.5905 240.904 74.0253 241.084 74.8576C241.155 75.2553 241.23 88.0058 241.23 93.9489L241.084 98.1903C241.047 98.5163 241.012 98.8424 240.904 99.1313C240.758 99.5661 240.506 99.9266 240.071 100.112C239.593 100.337 239.077 100.472 238.55 100.51C237.569 100.616 237.426 100.656 237.1 101.742L236.994 102.14C236.922 102.612 236.957 102.683 237.428 102.683L248.26 102.789L252.501 102.718L255.436 102.355C258.768 101.74 261.739 100.361 264.273 98.1532C265.721 96.8746 266.903 95.3236 267.751 93.5884C268.767 91.5605 269.201 89.3471 269.31 87.1045C269.49 85.8374 269.416 84.5332 269.204 83.229V83.2263ZM263.95 88.3689C263.804 90.6884 263.335 92.9337 262.139 94.9616C260.618 97.6071 258.444 99.4547 255.438 100.104C254.134 100.369 252.83 100.502 251.462 100.322C250.481 100.216 249.543 100.104 248.636 99.7781C247.006 99.1949 246.425 98.1876 246.391 96.5971L246.354 74.7543C246.354 73.45 246.937 73.1638 247.875 73.124C249.288 73.018 250.738 73.0524 252.151 73.1956C253.655 73.341 255.131 73.698 256.536 74.2559C257.579 74.6907 258.546 75.2904 259.399 76.032C261.355 77.702 262.659 79.7961 263.375 82.2614C263.958 84.2548 264.064 86.2827 263.958 88.3106L263.95 88.3689ZM299.312 91.9211C299.312 91.7037 299.312 91.5234 299.275 91.3061C298.949 89.3126 297.897 87.7911 296.269 86.6326C295.219 85.8718 294.024 85.3655 292.791 85.0024C292.574 84.9308 292.393 84.8566 292.176 84.8221C292.213 84.6419 292.322 84.6048 292.431 84.5676C293.154 84.2045 293.843 83.8069 294.458 83.2634C295.582 82.3224 296.314 81.1613 296.704 79.7484C296.921 78.9876 296.921 78.2268 296.849 77.4289C296.79 76.4955 296.522 75.5874 296.064 74.772C295.606 73.9565 294.97 73.2546 294.204 72.7184C292.534 71.4858 290.58 70.9795 288.552 70.9424C284.64 70.8708 280.693 70.9424 276.783 70.9424C275.659 70.9424 274.537 71.0139 273.376 70.8363C273.159 70.7992 272.846 70.7303 272.687 70.9821C272.422 71.454 272.104 71.9232 271.998 72.4666C271.961 72.7211 272.035 72.8642 272.324 72.9013L274.824 73.2645C275.805 73.4103 276.494 73.9537 276.563 74.8232C276.634 75.4241 276.669 76.0286 276.669 76.6337L276.597 83.4066L276.56 96.8092C276.56 97.6044 276.454 98.3679 276.306 99.1631C276.27 99.4156 276.162 99.6524 275.995 99.8452C275.828 100.038 275.609 100.179 275.365 100.25C274.641 100.467 273.952 100.685 273.191 100.685C272.987 100.665 272.784 100.716 272.613 100.827C272.442 100.939 272.314 101.106 272.25 101.3C272.104 101.626 271.985 101.989 271.924 102.315C271.852 102.75 271.961 102.898 272.396 102.845C272.722 102.808 284.677 103.1 286.922 102.882C288.263 102.736 289.573 102.556 290.906 102.159C293.186 101.435 295.291 100.383 296.956 98.6065C298.334 97.1564 299.129 95.4175 299.201 93.3896C299.307 92.9178 299.307 92.4486 299.307 91.9396L299.312 91.9211ZM281.742 77.0764L281.848 74.179C281.848 73.6356 282.066 73.3838 282.609 73.2724C283.479 73.0922 284.348 73.1664 285.218 73.2009C286.087 73.2724 286.919 73.3811 287.789 73.6356C289.379 74.1075 290.615 75.014 291.341 76.533C291.671 77.2236 291.843 77.9785 291.847 78.7438C291.884 79.759 291.81 80.7372 291.413 81.7127C290.798 83.054 289.822 83.9235 288.407 84.178C286.991 84.4325 282.972 84.3238 282.357 84.3238C281.814 84.3238 281.774 84.2522 281.774 83.7088V80.2971C281.689 79.2363 281.677 78.1708 281.737 77.1082L281.742 77.0764ZM293.512 96.5653C292.897 98.1956 291.773 99.3222 290.18 99.9319C289.311 100.258 288.441 100.462 287.529 100.404C286.405 100.367 285.284 100.404 284.163 100.186C282.641 99.8603 281.952 98.4103 281.843 97.3606C281.663 95.5129 281.772 93.6282 281.737 92.2524V87.4703C281.737 86.8871 281.809 86.7095 282.426 86.7095L285.833 86.7466L288.152 87.0117C289.782 87.3749 291.267 87.9925 292.428 89.257C293.369 90.2722 293.878 91.5022 293.987 92.8435C294.093 94.1106 294.024 95.3433 293.552 96.5388L293.512 96.5653Z" fill="#C2BFBF"/>
<path d="M201.466 85.6518L202.407 85.7976C203.423 85.8347 204.618 85.4715 204.979 84.0586C205.177 83.3838 205.177 82.6659 204.979 81.991C204.761 81.991 204.652 82.1712 204.544 82.2455C204 82.6802 203.385 82.9347 202.733 83.0063C201.429 83.1521 200.125 83.0778 198.858 82.6086L197.082 81.9936C195.843 81.588 194.539 81.4172 193.238 81.49C191.39 81.6358 189.651 82.2508 188.021 83.1202C186.282 84.0613 185.052 85.4742 184.469 87.396C184.143 88.52 184.106 89.6758 184.252 90.8368C184.615 93.4824 185.991 95.33 188.453 96.3081C188.599 96.3452 188.708 96.4142 188.851 96.4539C189.177 96.6342 189.214 96.8171 188.922 97.0689L188.016 97.6839L185.842 99.0252C185.299 99.3513 185.227 99.6084 185.407 100.184C185.623 100.86 186.024 101.463 186.566 101.923C187.063 102.349 187.626 102.692 188.233 102.938C188.631 103.118 188.631 103.203 188.27 103.521L186.203 105.006C185.513 105.536 184.824 106.066 184.246 106.744C183.844 107.175 183.555 107.697 183.403 108.266C183.252 108.835 183.243 109.432 183.377 110.005C183.646 111.263 184.305 112.403 185.259 113.266C186.201 114.138 187.347 114.76 188.591 115.076C190.619 115.659 192.721 115.691 194.786 115.293C197.755 114.75 200.353 113.438 202.394 111.201C203.807 109.716 204.639 107.977 204.713 105.899C204.793 104.697 204.443 103.506 203.726 102.538C203.01 101.569 201.973 100.886 200.801 100.61L198.845 100.247L192.867 99.7171C192.215 99.68 191.563 99.5713 191.019 99.2453C190.33 98.8105 190.15 97.9782 190.585 97.4347C190.911 97.0371 191.308 96.7826 191.817 96.7455L192.976 96.6395C195.266 96.4064 197.417 95.4266 199.096 93.8508C199.993 93.021 200.634 91.9523 200.944 90.7705C201.379 89.2119 201.379 87.5896 201.016 85.9991C200.91 85.6014 200.944 85.5643 201.45 85.6359L201.466 85.6518ZM192.586 103.696C192.803 103.733 193.021 103.696 193.238 103.696C194.76 103.768 196.318 103.876 197.803 104.279C198.287 104.422 198.76 104.604 199.216 104.823C200.666 105.618 201.209 106.996 201.026 108.481C200.809 110.111 199.902 111.269 198.489 112.033C197.548 112.563 196.496 112.794 195.409 112.902C195.011 112.939 194.648 112.902 194.251 112.902C192.984 112.939 191.751 112.796 190.555 112.287C189.723 111.961 189.034 111.492 188.419 110.837C187.152 109.57 186.563 107.251 188.456 105.366C189.614 104.306 190.921 103.556 192.586 103.696ZM196.716 92.3929C195.955 94.3121 194.288 94.8926 192.623 94.6381C191.101 94.4208 189.977 93.5884 189.256 92.21C188.315 90.3623 188.064 88.4458 188.604 86.4497C189.002 84.9652 189.909 83.8413 191.502 83.5868C193.53 83.2236 195.478 83.95 196.501 85.9778C197.031 86.9587 197.262 88.1515 197.262 89.8534C197.225 90.5426 197.082 91.4836 196.719 92.3902L196.716 92.3929ZM151.074 89.9276C150.748 87.9713 150.024 86.1952 148.683 84.7107C146.689 82.5 144.155 81.5297 141.292 81.5218C138.793 81.4847 136.441 82.211 134.336 83.5152C132.267 84.7535 130.751 86.7368 130.098 89.0581C129.483 91.1602 129.515 93.2994 129.992 95.4334C131.259 101.159 135.68 103.619 140.966 103.259C142.525 103.153 144.009 102.644 145.42 101.954C147.522 100.974 149.043 99.4176 150.093 97.3526C150.925 95.6507 151.286 93.8376 151.251 91.7726L151.071 89.9249L151.074 89.9276ZM145.931 97.9702C145.672 98.7853 145.181 99.5072 144.518 100.048C143.855 100.588 143.049 100.924 142.199 101.013C140.608 101.231 139.119 100.833 137.78 99.8894C136.814 99.1785 136.031 98.2469 135.498 97.1723C134.013 94.1292 133.759 90.9429 134.517 87.6823C134.761 86.6732 135.289 85.7552 136.038 85.0368C137.38 83.8042 138.936 83.5152 140.677 83.8784C142.347 84.2415 143.612 85.1455 144.654 86.5239C145.695 87.9024 146.175 89.4929 146.464 91.1629C146.61 91.9952 146.61 92.8647 146.644 93.4081C146.644 95.1471 146.499 96.5891 145.955 97.9729L145.931 97.9702ZM230.228 90.2192C229.963 88.1171 229.178 86.1979 227.691 84.6047C225.735 82.4681 223.198 81.5616 220.375 81.5244C217.946 81.4873 215.701 82.1765 213.636 83.3721C211.317 84.7505 209.724 86.7042 209.109 89.3497C208.374 92.2359 208.682 95.2888 209.978 97.9702C211.171 100.507 213.201 102.137 215.884 102.861C218.853 103.656 221.681 103.296 224.433 101.954C226.824 100.796 228.526 98.9855 229.504 96.5202C230.087 95.0702 230.299 93.5142 230.336 91.701C230.374 91.3749 230.299 90.7944 230.23 90.2165L230.228 90.2192ZM225.228 97.501C224.645 99.4573 223.418 100.724 221.353 101.016C219.831 101.233 218.384 100.87 217.077 100.001C215.953 99.24 215.158 98.2247 214.577 97.0318C213.925 95.7647 213.562 94.4234 213.419 93.0476C213.201 91.3458 213.201 89.6811 213.599 87.9766C213.675 87.6405 213.784 87.3128 213.925 86.9984C214.94 84.4616 217.186 83.3032 219.831 83.8837C221.607 84.2813 222.946 85.2621 223.961 86.7466C224.942 88.1966 225.411 89.7897 225.631 91.5181C225.737 92.2073 225.777 92.931 225.737 93.546C225.737 94.9589 225.631 96.2631 225.207 97.5302L225.228 97.501Z" fill="#47474A"/>
</svg>
