<?xml version="1.0"?>
<svg xmlns="http://www.w3.org/2000/svg" width="320" height="160" viewBox="0 0 320 160" fill="none">
<path d="M52.2335 121.727C29.3522 121.727 10.8122 103.187 10.8122 80.306C10.7611 57.4247 29.3522 38.8337 52.2335 38.8337C75.1147 38.8337 93.6547 57.3737 93.6547 80.2549C93.6547 103.136 75.1147 121.727 52.2335 121.727ZM52.1824 34.7988C27.156 34.7988 6.77734 55.0753 6.77734 79.9996C6.77734 104.924 27.156 125.2 52.1824 125.2C77.2088 125.2 97.5874 104.924 97.5874 79.9996C97.6385 55.0753 77.2598 34.7988 52.1824 34.7988Z" fill="#00A1DF"/>
<path d="M40.6898 100.327C33.8458 97.1097 29.0959 89.8572 29.0959 81.4299C29.0959 76.9865 30.4238 72.8494 32.6711 69.5296L47.5848 91.798H56.625L71.5386 69.5296C73.7859 72.9005 75.1138 77.0375 75.1138 81.4299C75.1138 89.2953 70.9768 96.0882 64.899 99.6124L67.7591 110.644C78.7401 104.975 86.197 93.5856 86.197 80.4084C86.197 67.9463 79.5062 57.1186 69.5467 51.1939L52.1815 77.9569L35.0205 51.0918C24.9589 57.0164 18.166 67.9463 18.166 80.4084C18.166 94.0453 26.1847 105.843 37.7785 111.206L40.6898 100.327Z" fill="#00A1DF"/>
<path d="M131.857 84.7498L120.723 60.9492H114.9V99.1528H120.723V73.6156L129.712 92.2577H134.053L142.787 73.6156V99.1528H148.609V60.9492H142.787L131.857 84.7498Z" fill="#00A1DF"/>
<path d="M170.368 88.5288C170.368 92.7169 167.815 94.6067 164.75 94.6067C161.686 94.6067 159.285 92.768 159.285 88.5288V71.9297H153.82V89.346C153.82 92.4105 154.484 95.0153 156.578 97.0582C158.213 98.5905 160.511 99.5098 163.269 99.5098C166.027 99.5098 168.632 98.4883 170.522 96.4453V99.2033H175.884V71.9808H170.419V88.5288H170.368Z" fill="#00A1DF"/>
<path d="M186.559 91.3384V60.9492H181.094V91.6449C181.094 95.6797 183.341 99.1528 188.551 99.1528H191.921V94.505H189.521C187.325 94.505 186.559 93.4325 186.559 91.3384Z" fill="#00A1DF"/>
<path d="M199.02 83.3191C199.071 81.6847 199.173 80.8675 199.735 79.6417C200.603 77.5987 202.595 76.2197 205.149 76.2197C207.702 76.2197 209.643 77.5987 210.511 79.6417C211.022 80.8675 211.226 81.6847 211.277 83.3191H199.02ZM205.097 71.623C198.151 71.623 193.555 76.7305 193.555 85.5153C193.555 95.8833 198.969 99.4585 205.813 99.4585C210.613 99.4585 213.218 98.0285 215.976 95.2194L212.452 91.9506C210.511 93.8914 208.877 94.7597 205.864 94.7597C201.42 94.7597 198.917 91.8485 198.917 87.1496H216.589V84.7491C216.64 77.0369 212.401 71.623 205.097 71.623Z" fill="#00A1DF"/>
<path d="M243.66 80.4089C242.025 78.9788 240.034 78.1106 236.509 77.5487L232.168 76.8848C230.432 76.6294 228.848 75.9654 227.878 75.1482C226.856 74.2289 226.448 73.0031 226.448 71.573C226.448 68.2021 228.899 65.5974 233.394 65.5974C236.612 65.5974 239.37 66.3124 241.719 68.5086L245.396 64.8823C242.128 61.8689 238.603 60.541 233.547 60.541C225.579 60.541 220.779 65.0866 220.779 71.7774C220.779 74.8929 221.698 77.2934 223.588 79.081C225.222 80.6643 227.725 81.6858 230.84 82.1454L235.335 82.8094C237.582 83.1158 238.552 83.5244 239.523 84.4438C240.544 85.3631 241.055 86.7421 241.055 88.4276C241.055 92.1049 238.144 94.25 233.19 94.25C229.257 94.25 226.243 93.3818 223.434 90.6238L219.553 94.4033C223.179 98.0806 227.316 99.4596 233.087 99.4596C241.106 99.4596 246.826 95.2715 246.826 88.2233C246.775 85.0056 245.754 82.2987 243.66 80.4089Z" fill="#00A1DF"/>
<path d="M265.264 93.0232C264.243 94.0447 262.863 94.6065 261.229 94.6065C259.595 94.6065 258.267 94.0447 257.245 93.0232C255.56 91.3888 255.356 88.5286 255.356 85.5663C255.356 82.604 255.56 79.7949 257.245 78.1095C258.267 77.088 259.595 76.5262 261.229 76.5262C262.812 76.5262 264.243 77.0369 265.264 78.1095C266.898 79.7439 267.154 82.604 267.154 85.5663C267.154 88.4776 266.898 91.3377 265.264 93.0232ZM261.229 71.623C257.552 71.623 254.896 73.0021 253.108 74.8407C250.555 77.5477 249.891 80.9696 249.891 85.5153C249.891 90.1119 250.555 93.585 253.108 96.2409C254.845 98.0795 257.501 99.4585 261.229 99.4585C264.906 99.4585 267.613 98.0795 269.401 96.2409C271.955 93.5339 272.619 90.1119 272.619 85.5153C272.619 80.9696 271.955 77.4966 269.401 74.8407C267.613 73.0531 264.906 71.623 261.229 71.623Z" fill="#00A1DF"/>
<path d="M278.135 68.2526V72.4407H275.02V76.6288H278.135V99.1526H283.6V76.6288H289.014V72.4407H283.6V68.508C283.6 66.5161 284.57 65.3414 286.613 65.3414H289.014V60.6426H285.592C280.484 60.6937 278.135 64.371 278.135 68.2526Z" fill="#00A1DF"/>
<path d="M301.016 64.166H295.551V72.4401H292.436V76.6282H295.551V91.5929C295.551 95.5256 297.901 99.1519 303.008 99.1519H306.277V94.5042H304.029C301.986 94.5042 301.016 93.3294 301.016 91.3375V76.6282H306.277V72.4401H301.016V64.166Z" fill="#00A1DF"/>
<path d="M312.559 70.5516C312.457 70.858 312.304 71.1134 312.048 71.3177C311.793 71.522 311.589 71.7263 311.282 71.8284C311.027 71.9816 310.669 72.0327 310.312 72.0327C309.954 72.0327 309.648 71.9816 309.342 71.8284C309.035 71.6752 308.78 71.522 308.575 71.3177C308.371 71.1134 308.167 70.8069 308.065 70.5516C307.963 70.2451 307.86 69.8876 307.86 69.5301C307.86 69.1725 307.911 68.8661 308.065 68.5597C308.167 68.2532 308.32 67.9978 308.575 67.7935C308.831 67.5892 309.035 67.385 309.342 67.2828C309.648 67.1296 309.954 67.0785 310.312 67.0785C310.669 67.0785 310.976 67.1296 311.282 67.2828C311.538 67.436 311.844 67.5892 312.048 67.7935C312.253 67.9978 312.457 68.2532 312.559 68.5597C312.661 68.8661 312.764 69.2236 312.764 69.5301C312.712 69.9387 312.661 70.2451 312.559 70.5516ZM313.019 68.4064C312.866 68.0489 312.661 67.7425 312.355 67.4871C312.1 67.2317 311.793 67.0274 311.436 66.8742C311.078 66.721 310.721 66.6699 310.312 66.6699C309.903 66.6699 309.546 66.7721 309.188 66.8742C308.831 67.0274 308.524 67.2317 308.218 67.4871C307.963 67.7425 307.758 68.0489 307.554 68.4064C307.401 68.764 307.35 69.1215 307.35 69.5301C307.35 69.9387 307.452 70.3473 307.554 70.7048C307.707 71.0623 307.911 71.3687 308.218 71.6241C308.473 71.8795 308.78 72.0838 309.188 72.237C309.546 72.3902 309.903 72.4413 310.312 72.4413C310.721 72.4413 311.078 72.3392 311.436 72.237C311.793 72.0838 312.1 71.8795 312.355 71.6241C312.61 71.3687 312.815 71.0623 313.019 70.7048C313.172 70.3473 313.223 69.9387 313.223 69.5301C313.223 69.1215 313.172 68.764 313.019 68.4064Z" fill="#00A1DF"/>
<path d="M310.26 69.3757H309.699V68.3031H310.414C310.516 68.3031 310.567 68.3031 310.669 68.3542C310.771 68.3542 310.822 68.4053 310.924 68.4564C311.026 68.5074 311.078 68.5585 311.078 68.6096C311.129 68.6606 311.129 68.7628 311.129 68.8649C311.129 69.0182 311.078 69.1203 311.026 69.1714C310.975 69.2735 310.924 69.3246 310.822 69.3246C310.72 69.3757 310.669 69.3757 310.567 69.3757C310.516 69.3757 310.414 69.3757 310.26 69.3757ZM311.435 69.5289C311.588 69.3757 311.69 69.1714 311.69 68.8649C311.69 68.5074 311.588 68.3031 311.384 68.1499C311.18 67.9967 310.873 67.8945 310.465 67.8945H309.137V71.3165H309.647V69.8353H310.209L311.129 71.3165H311.69L310.72 69.7843C311.078 69.7332 311.282 69.6821 311.435 69.5289Z" fill="#00A1DF"/>
</svg>
