<?xml version="1.0"?>
<svg xmlns="http://www.w3.org/2000/svg" width="320" height="160" viewBox="0 0 320 160" fill="none">
<g clip-path="url(#clip0_462_6457)">
<path d="M40 131.244H47.9066V100.037L60.1469 127.252C61.5906 130.532 63.5688 131.711 67.4453 131.711C71.3219 131.711 73.2227 130.545 74.6688 127.252L86.9102 100.037V131.255H94.818V100.089C94.818 97.0484 93.5992 95.578 91.0914 94.8187C85.0856 92.9441 81.0555 94.5656 79.232 98.6196L67.2203 125.478L55.5859 98.6079C53.8375 94.5539 49.7324 92.9323 43.7266 94.807C41.2164 95.5674 40 97.0379 40 100.077V131.244ZM101.39 105.835H109.294V123.035C109.22 123.97 109.594 126.163 113.925 126.23C116.136 126.265 130.981 126.23 131.119 126.23V105.749H139.041C139.076 105.749 139.033 133.675 139.034 133.794C139.077 140.681 130.486 142.178 126.528 142.294H101.562V136.974L126.572 136.973C131.661 136.434 131.061 133.907 131.061 133.055V130.981H114.256C106.437 130.911 101.459 127.498 101.397 123.573C101.391 123.221 101.566 106.003 101.392 105.834L101.39 105.835Z" fill="#00618A"/>
<path d="M145.137 131.244H167.869C170.529 131.244 173.115 130.687 175.17 129.723C178.591 128.153 180.264 126.024 180.264 123.236V117.46C180.264 115.179 178.363 113.051 174.639 111.632C172.662 110.871 170.229 110.466 167.872 110.466H158.292C155.1 110.466 153.579 109.503 153.199 107.375C153.123 107.122 153.123 106.907 153.123 106.665V103.068C153.123 102.866 153.123 102.662 153.199 102.409C153.579 100.787 154.416 100.33 157.228 100.065C157.457 100.065 157.76 100.014 157.99 100.014H180.57V94.7449H158.37C155.176 94.7449 153.504 94.9476 151.983 95.4034C147.265 96.8738 145.212 99.2171 145.212 103.271V107.883C145.212 111.431 149.243 114.471 156.007 115.18C156.769 115.23 157.528 115.281 158.288 115.281H166.499C166.804 115.281 167.108 115.281 167.336 115.332C169.843 115.535 170.91 115.991 171.669 116.902C172.138 117.371 172.279 117.816 172.279 118.308V122.92C172.279 123.478 171.899 124.188 171.138 124.795C170.454 125.404 169.314 125.808 167.793 125.91C167.488 125.91 167.261 125.96 166.957 125.96H145.137V131.231V131.244ZM229.587 122.072C229.587 127.494 233.616 130.535 241.751 131.143C242.51 131.202 243.27 131.235 244.031 131.244H264.635V125.973H243.879C239.242 125.973 237.492 124.808 237.492 122.02V94.7554H229.586V122.069L229.587 122.072ZM185.307 122.346V103.558C185.307 98.7848 188.659 95.8896 195.287 94.9757C195.994 94.8747 196.707 94.8239 197.421 94.8234H212.429C213.169 94.8238 213.907 94.8747 214.639 94.9757C221.268 95.8896 224.619 98.7836 224.619 103.558V122.346C224.619 126.218 223.195 128.291 219.914 129.642L227.702 136.672H218.522L212.221 130.985L205.877 131.387H197.421C195.974 131.387 194.45 131.183 192.773 130.726C187.734 129.355 185.307 126.714 185.307 122.346ZM193.842 121.877C193.842 122.131 193.918 122.385 193.995 122.69C194.463 124.874 196.508 126.093 199.62 126.093H206.803L200.205 120.137H209.386L215.128 125.331C216.189 124.767 216.886 123.902 217.12 122.792C217.196 122.539 217.196 122.285 217.196 122.031V104.016C217.196 103.814 217.196 103.548 217.12 103.305C216.652 101.275 214.605 100.106 211.559 100.106H199.634C196.118 100.106 193.845 101.63 193.845 104.016V121.891L193.842 121.877Z" fill="#E48E00"/>
<path d="M271.59 86.0126C266.73 85.8813 263.016 86.3324 259.843 87.6705C258.941 88.0513 257.503 88.0606 257.355 89.1913C257.851 89.7103 257.929 90.486 258.322 91.1245C259.08 92.3513 260.361 93.9951 261.501 94.8551C262.748 95.796 264.032 96.8036 265.372 97.6203C267.751 99.0708 270.406 99.8992 272.696 101.351C274.046 102.206 275.387 103.284 276.704 104.252C277.354 104.73 277.794 105.473 278.637 105.772V105.633C278.192 105.067 278.078 104.289 277.671 103.7L275.874 101.904C274.116 99.5606 271.887 97.5254 269.517 95.8229C267.626 94.4661 263.395 92.6337 262.606 90.4333L262.468 90.295C263.809 90.1427 265.378 89.6588 266.616 89.3284C268.694 88.7718 270.551 88.9148 272.698 88.3617L275.601 87.5322V86.9792C274.516 85.8661 273.742 84.3933 272.56 83.3868C269.466 80.7506 266.088 78.1202 262.611 75.9233C260.682 74.7048 258.298 73.9151 256.253 72.8828C255.566 72.536 254.357 72.3556 253.904 71.7768C252.83 70.4083 252.246 68.6718 251.417 67.0901C249.683 63.7508 247.979 60.1023 246.441 56.5884C245.392 54.1924 244.707 51.8291 243.401 49.6791C237.126 39.3637 230.37 33.1375 219.908 27.019C217.681 25.7184 215.001 25.2029 212.167 24.5315L207.607 24.255C206.678 23.8684 205.713 22.7319 204.841 22.1812C201.375 19.9901 192.484 15.2297 189.916 21.4782C188.295 25.4302 192.338 29.2862 193.785 31.2897C194.8 32.6957 196.101 34.2693 196.825 35.8499C197.302 36.888 197.385 37.9296 197.793 39.0286C198.798 41.7234 199.672 44.6796 200.971 47.1811C201.628 48.4465 202.352 49.7798 203.183 50.9117C203.692 51.6065 204.566 51.9123 204.703 52.9855C203.85 54.1806 203.8 56.0319 203.32 57.5457C201.16 64.3554 201.975 72.8184 205.116 77.8589C206.081 79.4055 208.351 82.7237 211.474 81.4512C214.204 80.3382 213.583 76.8934 214.376 73.8518C214.552 73.1605 214.444 72.6567 214.791 72.1939V72.3321L217.279 77.3059C219.119 80.2702 222.389 83.3693 225.157 85.4607C226.592 86.5445 227.735 88.4192 229.579 89.053V88.9148H229.441C229.081 88.3524 228.519 88.1216 228.058 87.6728C226.976 86.6124 225.773 85.2943 224.879 84.0805C222.359 80.6615 220.135 76.9216 218.108 73.0258C217.14 71.1663 216.297 69.1147 215.483 67.2225C215.169 66.4925 215.172 65.39 214.516 65.0115C213.622 66.3988 212.305 67.5189 211.613 69.1569C210.507 71.7744 210.364 74.966 209.955 78.2772C209.712 78.3639 209.82 78.3041 209.678 78.4154C207.754 77.9515 207.077 75.9702 206.362 74.2701C204.553 69.9701 204.217 63.0502 205.809 58.1034C206.219 56.8239 208.082 52.791 207.329 51.6088C206.969 50.429 205.782 49.7341 205.117 48.8437C204.297 47.7306 203.475 46.2613 202.906 44.9748C201.425 41.6239 200.734 37.8628 199.175 34.4732C198.43 32.8539 197.171 31.2159 196.135 29.7865C194.989 28.193 193.706 27.0166 192.819 25.0998C192.502 24.4144 192.073 23.3189 192.542 22.6123C192.587 22.4093 192.689 22.2234 192.836 22.0764C192.983 21.9294 193.169 21.8275 193.372 21.7828C194.173 21.1653 196.407 21.9878 197.241 22.3358C199.456 23.2568 201.308 24.1332 203.185 25.3763C204.087 25.9621 204.998 27.1291 206.087 27.4502H207.329C209.274 27.8977 211.454 27.5908 213.27 28.1415C216.484 29.1175 219.362 30.6371 221.977 32.2868C229.944 37.3156 236.456 44.4745 240.911 53.0254C241.628 54.3997 241.938 55.7132 242.569 57.1707C243.843 60.0999 245.448 63.138 246.716 66.0133C247.981 68.8839 249.212 71.7779 251 74.1658C251.94 75.4195 255.57 76.0944 257.219 76.7903C258.376 77.2789 260.269 77.7886 261.365 78.4482C263.457 79.7101 265.484 81.2134 267.447 82.596C268.428 83.2872 271.443 84.8022 271.593 86.05L271.59 86.0126Z" fill="#00618A"/>
<path fill-rule="evenodd" clip-rule="evenodd" d="M209.816 33.3671C208.802 33.3483 208.086 33.4772 207.328 33.6436V33.7819H207.466C207.949 34.7754 208.802 35.414 209.4 36.2693L210.783 39.1704L210.921 39.0321C211.777 38.4287 212.169 37.4644 212.163 35.9916C211.82 35.6308 211.77 35.1785 211.472 34.7473C211.077 34.1732 210.3 33.8475 209.814 33.3647L209.816 33.3671Z" fill="#00618A"/>
<path fill-rule="evenodd" clip-rule="evenodd" d="M268.346 125.823C268.346 129.303 271.096 131.649 274.172 131.649C277.248 131.649 279.999 129.303 279.999 125.823C279.999 122.343 277.248 119.998 274.172 119.998C271.096 119.998 268.346 122.343 268.346 125.823ZM278.693 125.823C278.693 128.464 276.674 130.437 274.17 130.437C271.639 130.437 269.646 128.464 269.646 125.823C269.646 123.182 271.636 121.209 274.17 121.209C276.672 121.209 278.693 123.182 278.693 125.823ZM275.74 129.149H277.045L275.134 126.229C276.16 126.12 276.936 125.622 276.936 124.41C276.936 123.058 276.08 122.5 274.435 122.5H271.839V129.15H272.958V126.276H273.999L275.739 129.15L275.74 129.149ZM272.958 125.341V123.431H274.247C274.915 123.431 275.724 123.555 275.724 124.333C275.724 125.264 274.994 125.343 274.154 125.343H272.958V125.341Z" fill="#E48E00"/>
</g>
<defs>
<clipPath id="clip0_462_6457">
<rect width="240" height="124.666" fill="white" transform="translate(40 18)"/>
</clipPath>
</defs>
</svg>
