<?xml version="1.0"?>
<svg xmlns="http://www.w3.org/2000/svg" width="320" height="160" viewBox="0 0 320 160" fill="none">
<path d="M73.2621 81.9189C72.7698 81.3959 72.1698 80.9805 71.5083 80.6882C70.8468 80.3959 70.1392 80.2575 69.4162 80.2575C68.6931 80.2421 67.9855 80.3959 67.324 80.6728C66.6625 80.9651 66.0626 81.3805 65.5703 81.9035C65.0626 82.4112 64.6626 83.0112 64.4011 83.6726C64.1396 84.3495 64.0012 85.0572 64.0012 85.7648C63.9858 86.4878 64.1242 87.1955 64.4011 87.857C64.678 88.5185 65.078 89.1184 65.5857 89.6261C66.0781 90.1493 66.6748 90.5635 67.3373 90.8417C67.9997 91.1199 68.7132 91.2561 69.4316 91.2414C70.1484 91.2453 70.8586 91.1042 71.5195 90.8267C72.1805 90.5491 72.7784 90.1407 73.2775 89.6261C73.8005 89.1338 74.2005 88.5339 74.4774 87.8724C74.7543 87.2109 74.8927 86.5032 74.8927 85.7802C74.8927 85.0572 74.7543 84.3495 74.4774 83.688C74.1851 83.0112 73.7851 82.4112 73.2621 81.9189ZM137.642 69.4275C137.565 72.8734 137.735 76.3347 138.135 79.7652H137.95C137.519 78.9191 136.566 77.35 135.104 75.0578L100.03 20H89.3841V90.2876H97.5681V39.4756C97.6604 36.2604 97.522 33.0453 97.1835 29.8301H97.4912C98.0758 31.3685 98.8296 32.8453 99.7218 34.2298L135.75 90.2876H145.826V20H137.642V69.4275ZM201.315 82.565H172.394V58.2128H197.7V50.7979H172.394V27.4457H199.546V20H164.01V90.2876H201.269L201.315 82.565ZM207.576 20V27.4457H227.729V90.2876H235.913V27.4457H256.296V20H207.576ZM127.366 107.763C125.322 108.579 123.476 109.822 121.951 111.409C120.382 113.086 119.151 115.055 118.351 117.224C117.551 119.393 117.198 121.685 117.29 123.978C117.136 128.223 118.613 132.377 121.443 135.546C122.859 137.038 124.582 138.192 126.489 138.961C128.397 139.73 130.443 140.069 132.489 139.977C135.566 140.084 138.627 139.438 141.411 138.084L141.442 134.5C138.888 135.992 135.981 136.731 133.027 136.654C131.443 136.715 129.858 136.438 128.397 135.838C126.935 135.238 125.612 134.315 124.536 133.146C122.284 130.531 121.127 127.148 121.305 123.701C121.12 120.055 122.366 116.486 124.766 113.748C125.905 112.486 127.305 111.502 128.858 110.825C130.418 110.161 132.102 109.841 133.796 109.886C136.489 109.84 139.135 110.502 141.488 111.809V107.948C139.047 106.964 136.427 106.502 133.796 106.594C131.597 106.563 129.397 106.948 127.366 107.763ZM165.717 118.778C164.689 117.697 163.439 116.851 162.053 116.298C160.667 115.746 159.177 115.5 157.687 115.578C156.103 115.501 154.534 115.763 153.057 116.332C151.58 116.901 150.242 117.763 149.103 118.855C147.996 120.086 147.149 121.516 146.596 123.085C146.042 124.655 145.811 126.301 145.919 127.962C145.765 131.116 146.857 134.208 148.949 136.561C149.995 137.684 151.257 138.577 152.672 139.177C154.087 139.761 155.61 140.053 157.133 139.992C158.687 140.038 160.241 139.746 161.687 139.146C163.133 138.546 164.425 137.638 165.487 136.484C167.644 134.052 168.76 130.87 168.594 127.624C168.779 124.393 167.748 121.239 165.717 118.778ZM162.902 134.577C162.225 135.358 161.378 135.974 160.426 136.377C159.474 136.779 158.442 136.958 157.41 136.9C156.349 136.946 155.303 136.746 154.334 136.346C153.364 135.931 152.503 135.315 151.795 134.515C150.321 132.69 149.58 130.381 149.718 128.039C149.58 125.624 150.318 123.239 151.795 121.332C152.488 120.532 153.349 119.901 154.318 119.47C155.287 119.055 156.349 118.855 157.395 118.901C158.441 118.84 159.472 119.04 160.425 119.455C161.379 119.87 162.225 120.501 162.902 121.301C164.3 123.235 164.98 125.596 164.825 127.977C164.979 130.316 164.302 132.669 162.902 134.577ZM180.732 117.27C179.578 118.301 178.732 119.639 178.317 121.132V116.301H174.471V139.438H178.317V127.639C178.193 125.501 178.747 123.362 179.886 121.547C180.301 120.886 180.855 120.332 181.532 119.947C182.209 119.563 182.962 119.332 183.732 119.316C184.716 119.239 185.701 119.501 186.531 120.055V116.24C185.824 116.009 185.085 115.901 184.347 115.932C183.024 115.917 181.747 116.394 180.732 117.27ZM209.038 126.824C209.222 123.885 208.345 120.993 206.576 118.655C205.699 117.67 204.622 116.886 203.407 116.378C202.192 115.87 200.884 115.64 199.577 115.717C198.131 115.671 196.685 115.963 195.346 116.547C194.023 117.132 192.839 118.009 191.885 119.116C189.796 121.553 188.713 124.694 188.854 127.9C188.654 131.1 189.654 134.269 191.654 136.761C192.623 137.823 193.823 138.654 195.146 139.207C196.469 139.761 197.915 139.992 199.346 139.93C202.192 140.069 205.007 139.3 207.376 137.731V134.254C205.352 135.898 202.831 136.809 200.223 136.838C199.223 136.9 198.208 136.746 197.269 136.377C196.331 136.008 195.469 135.469 194.762 134.746C193.387 133.083 192.69 130.963 192.808 128.808H209.068L209.038 126.824ZM192.777 125.747C192.977 123.916 193.777 122.193 195.038 120.855C195.604 120.247 196.29 119.765 197.053 119.439C197.816 119.113 198.639 118.951 199.469 118.963C200.269 118.916 201.053 119.055 201.792 119.363C202.53 119.67 203.176 120.132 203.699 120.732C204.776 122.162 205.315 123.916 205.238 125.701L192.777 125.747Z" fill="#621EE5"/>
</svg>
