<?xml version="1.0"?>
<svg xmlns="http://www.w3.org/2000/svg" width="320" height="160" viewBox="0 0 320 160" fill="none">
<g clip-path="url(#clip0_462_6645)">
<path d="M158.873 135.077C158.28 135.077 157.69 134.922 157.17 134.622L151.749 131.414C150.939 130.962 151.335 130.801 151.602 130.709C152.681 130.331 152.9 130.246 154.053 129.592C154.174 129.523 154.332 129.547 154.456 129.62L158.621 132.091C158.771 132.172 158.985 132.172 159.124 132.091L175.362 122.721C175.513 122.636 175.61 122.461 175.61 122.283V103.553C175.61 103.366 175.513 103.199 175.359 103.106L159.127 93.7446C158.977 93.6552 158.778 93.6552 158.627 93.7446L142.399 103.106C142.242 103.195 142.142 103.37 142.142 103.548V122.279C142.142 122.457 142.239 122.628 142.394 122.713L146.84 125.281C149.255 126.488 150.73 125.066 150.73 123.636V105.149C150.73 104.885 150.937 104.682 151.202 104.682H153.258C153.514 104.682 153.726 104.885 153.726 105.149V123.644C153.726 126.862 151.97 128.71 148.917 128.71C147.978 128.71 147.239 128.71 145.174 127.694L140.914 125.24C139.861 124.631 139.211 123.493 139.211 122.279V103.548C139.211 102.33 139.861 101.192 140.914 100.591L157.169 91.2175C158.197 90.6365 159.563 90.6365 160.583 91.2175L176.817 100.595C177.866 101.2 178.52 102.334 178.52 103.553V122.283C178.52 123.497 177.866 124.631 176.817 125.24L160.583 134.614C160.063 134.914 159.473 135.069 158.872 135.069" fill="#689F63"/>
<path d="M163.888 122.171C156.783 122.171 155.293 118.911 155.293 116.176C155.293 115.916 155.503 115.709 155.763 115.709H157.861C158.092 115.709 158.287 115.878 158.324 116.106C158.641 118.243 159.584 119.32 163.88 119.32C167.303 119.32 168.758 118.547 168.758 116.733C168.758 115.689 168.343 114.913 163.027 114.393C158.58 113.954 155.832 112.975 155.832 109.42C155.832 106.145 158.596 104.195 163.226 104.195C168.425 104.195 171.002 105.999 171.327 109.875C171.339 110.009 171.29 110.139 171.201 110.237C171.111 110.33 170.985 110.387 170.855 110.387H168.746C168.526 110.387 168.335 110.233 168.291 110.021C167.782 107.774 166.555 107.055 163.218 107.055C159.482 107.055 159.047 108.355 159.047 109.331C159.047 110.513 159.56 110.858 164.6 111.525C169.591 112.187 171.961 113.121 171.961 116.628C171.961 120.162 169.01 122.19 163.864 122.19M183.643 102.326H184.187C184.634 102.326 184.72 102.013 184.72 101.83C184.72 101.351 184.391 101.351 184.208 101.351H183.647L183.643 102.326ZM182.98 100.79H184.187C184.602 100.79 185.415 100.79 185.415 101.717C185.415 102.363 185 102.497 184.752 102.578C185.236 102.61 185.269 102.927 185.334 103.374C185.366 103.655 185.419 104.138 185.517 104.301H184.773C184.752 104.138 184.639 103.244 184.639 103.196C184.59 102.996 184.521 102.899 184.273 102.899H183.659V104.305H182.98V100.79ZM181.529 102.537C181.529 103.992 182.704 105.17 184.147 105.17C185.602 105.17 186.777 103.967 186.777 102.537C186.777 101.079 185.586 99.9208 184.143 99.9208C182.72 99.9208 181.525 101.062 181.525 102.533M187.281 102.545C187.281 104.268 185.87 105.674 184.151 105.674C182.444 105.674 181.021 104.284 181.021 102.545C181.021 100.774 182.476 99.417 184.151 99.417C185.838 99.417 187.276 100.778 187.276 102.545" fill="#689F63"/>
<path fill-rule="evenodd" clip-rule="evenodd" d="M108.588 61.7898C108.588 61.0422 108.194 60.3556 107.548 59.9838L90.3322 50.0824C90.0416 49.9118 89.716 49.8224 89.3859 49.8102H89.2079C88.8779 49.8224 88.5523 49.9118 88.2568 50.0824L71.0414 59.9838C70.4 60.3576 70 61.0442 70 61.7918L70.0378 88.4609C70.0378 88.8306 70.2288 89.176 70.554 89.3588C70.8711 89.5538 71.2694 89.5538 71.5864 89.3588L81.8212 83.5C82.4675 83.1157 82.8618 82.4364 82.8618 81.6961V69.2371C82.8618 68.4936 83.256 67.807 83.9003 67.4372L88.2576 64.9288C88.5811 64.7419 88.9364 64.6493 89.2982 64.6493C89.6542 64.6493 90.0176 64.7411 90.3322 64.9284L94.6875 67.436C95.3321 67.8057 95.728 68.4924 95.728 69.2359V81.6941C95.728 82.4335 96.1276 83.1161 96.7706 83.498L106.999 89.3527C107.32 89.5437 107.72 89.5437 108.039 89.3527C108.355 89.1699 108.555 88.8245 108.555 88.4548L108.588 61.7898ZM189.828 75.6752C189.828 75.8609 189.729 76.0328 189.567 76.1246L183.654 79.5318C183.494 79.624 183.295 79.624 183.135 79.5318L177.221 76.1246C177.058 76.0324 176.961 75.8605 176.961 75.6752V68.8511C176.961 68.6651 177.058 68.4936 177.217 68.4002L183.127 64.9873C183.29 64.8938 183.489 64.8938 183.651 64.9873L189.565 68.4002C189.728 68.4936 189.826 68.6651 189.826 68.8511L189.828 75.6752ZM191.425 25.1316C191.102 24.952 190.71 24.9568 190.391 25.1425C190.074 25.3294 189.878 25.6707 189.878 26.0404V52.4495C189.878 52.7095 189.74 52.9492 189.515 53.0792C189.291 53.2093 189.013 53.2093 188.787 53.0792L184.474 50.5964C183.832 50.225 183.041 50.225 182.397 50.5964L165.175 60.5315C164.531 60.9012 164.134 61.5878 164.134 62.3273V82.2032C164.134 82.9467 164.531 83.6292 165.175 84.003L182.397 93.945C183.04 94.3148 183.831 94.3148 184.476 93.945L201.698 83.999C202.341 83.6252 202.739 82.9426 202.739 82.1991V32.6638C202.739 31.9097 202.328 31.2162 201.67 30.8477L191.425 25.1316ZM248.774 68.6716C249.414 68.3002 249.808 67.6144 249.808 66.8749V62.0579C249.808 61.3168 249.414 60.6331 248.773 60.2601L231.661 50.3303C231.014 49.9565 230.222 49.9565 229.575 50.3303L212.357 60.2641C211.711 60.6379 211.317 61.3205 211.317 62.064V81.9318C211.317 82.6793 211.719 83.37 212.366 83.7398L229.474 93.4867C230.104 93.8483 230.876 93.8524 231.514 93.4989L241.863 87.7499C242.188 87.567 242.395 87.2217 242.395 86.8479C242.395 86.4741 242.196 86.1247 241.871 85.9419L224.547 76.0039C224.222 75.8211 224.023 75.4758 224.023 75.106V68.8735C224.023 68.5013 224.218 68.1584 224.543 67.9731L229.933 64.865C230.254 64.6781 230.648 64.6781 230.97 64.865L236.363 67.9731C236.684 68.156 236.884 68.5013 236.884 68.871V73.771C236.884 74.1407 237.083 74.486 237.404 74.6729C237.725 74.8558 238.123 74.8558 238.444 74.6689L248.774 68.6716Z" fill="#333333"/>
<path fill-rule="evenodd" clip-rule="evenodd" d="M230.367 67.7419C230.489 67.67 230.642 67.67 230.765 67.7419L234.07 69.6474C234.194 69.7189 234.269 69.8506 234.269 69.9928V73.8079C234.269 73.9501 234.194 74.0817 234.07 74.1532L230.765 76.0587C230.642 76.1307 230.489 76.1307 230.367 76.0587L227.065 74.1532C226.939 74.0817 226.861 73.9501 226.861 73.8079V69.9928C226.861 69.8506 226.935 69.7189 227.061 69.6474L230.367 67.7419Z" fill="#689F63"/>
<mask id="mask0_462_6645" style="mask-type:luminance" maskUnits="userSpaceOnUse" x="117" y="50" width="39" height="44">
<path d="M135.329 50.4296L118.205 60.3094C117.563 60.6792 117.17 61.3617 117.17 62.0996V81.873C117.17 82.6113 117.563 83.2934 118.205 83.6632L135.33 93.5507C135.971 93.9192 136.76 93.9192 137.399 93.5507L154.522 83.6632C155.16 83.2934 155.554 82.6109 155.554 81.873V62.0996C155.554 61.3617 155.16 60.6792 154.518 60.3094L137.398 50.4296C137.077 50.2455 136.719 50.1533 136.361 50.1533C136.003 50.1533 135.646 50.2455 135.325 50.4296" fill="white"/>
</mask>
<g mask="url(#mask0_462_6645)">
<path d="M172.858 58.632L124.605 34.9897L99.8633 85.4408L148.116 109.084L172.858 58.632Z" fill="url(#paint0_linear_462_6645)"/>
</g>
<mask id="mask1_462_6645" style="mask-type:luminance" maskUnits="userSpaceOnUse" x="117" y="50" width="39" height="44">
<path d="M117.596 83.1286C117.76 83.3411 117.964 83.5251 118.205 83.6633L132.895 92.1446L135.342 93.5504C135.708 93.7617 136.125 93.8511 136.535 93.8206C136.671 93.8096 136.808 93.784 136.941 93.7462L155.002 60.6902C154.864 60.5399 154.702 60.4139 154.521 60.3083L143.308 53.836L137.381 50.4272C137.213 50.3297 137.03 50.2607 136.844 50.2119L117.596 83.1286Z" fill="white"/>
</mask>
<g mask="url(#mask1_462_6645)">
<path d="M96.7324 65.6243L130.804 111.719L175.865 78.4416L141.791 32.3477L96.7324 65.6243Z" fill="url(#paint1_linear_462_6645)"/>
</g>
<mask id="mask2_462_6645" style="mask-type:luminance" maskUnits="userSpaceOnUse" x="118" y="50" width="38" height="44">
<path d="M136.157 50.1645C135.869 50.1929 135.588 50.2823 135.33 50.4294L118.254 60.2808L136.667 93.804C136.923 93.7674 137.175 93.6821 137.402 93.5505L154.527 83.6629C155.055 83.3566 155.417 82.8381 155.527 82.2506L136.756 50.1982C136.618 50.171 136.48 50.1567 136.338 50.1567C136.281 50.1567 136.224 50.1596 136.167 50.1649" fill="white"/>
</mask>
<g mask="url(#mask2_462_6645)">
<path d="M118.254 50.1567V93.8048H155.52V50.1567H118.254Z" fill="url(#paint2_linear_462_6645)"/>
</g>
</g>
<defs>
<linearGradient id="paint0_linear_462_6645" x1="148.717" y1="46.7737" x2="123.994" y2="97.2296" gradientUnits="userSpaceOnUse">
<stop offset="0.3" stop-color="#3E863D"/>
<stop offset="0.5" stop-color="#55934F"/>
<stop offset="0.8" stop-color="#5AAD45"/>
</linearGradient>
<linearGradient id="paint1_linear_462_6645" x1="113.973" y1="88.9361" x2="159.022" y2="55.6361" gradientUnits="userSpaceOnUse">
<stop offset="0.57" stop-color="#3E863D"/>
<stop offset="0.72" stop-color="#619857"/>
<stop offset="1" stop-color="#76AC64"/>
</linearGradient>
<linearGradient id="paint2_linear_462_6645" x1="118.266" y1="71.982" x2="155.527" y2="71.982" gradientUnits="userSpaceOnUse">
<stop offset="0.16" stop-color="#6BBF47"/>
<stop offset="0.38" stop-color="#79B461"/>
<stop offset="0.47" stop-color="#75AC64"/>
<stop offset="0.7" stop-color="#659E5A"/>
<stop offset="0.9" stop-color="#3E863D"/>
</linearGradient>
<clipPath id="clip0_462_6645">
<rect width="179.808" height="110.077" fill="white" transform="translate(70 25)"/>
</clipPath>
</defs>
</svg>
