<?xml version="1.0"?>
<svg xmlns="http://www.w3.org/2000/svg" width="320" height="160" viewBox="0 0 320 160" fill="none">
<path d="M236.365 102.383V54.6406H246.982V102.383H236.365ZM244.548 102.383V93.0512H268.149V102.383H244.548Z" fill="#142D5E"/>
<path d="M203.353 103.196C199.791 103.196 196.478 102.565 193.412 101.302C190.346 100.04 187.664 98.2818 185.365 96.0276C183.111 93.7735 181.33 91.1587 180.022 88.1832C178.76 85.1627 178.129 81.9167 178.129 78.4453C178.129 74.9289 178.76 71.6829 180.022 68.7074C181.285 65.732 183.043 63.1397 185.297 60.9306C187.596 58.6765 190.256 56.9408 193.277 55.7236C196.342 54.4612 199.656 53.8301 203.218 53.8301C206.824 53.8301 210.138 54.4612 213.158 55.7236C216.224 56.9408 218.884 58.6765 221.138 60.9306C223.437 63.1397 225.218 65.7545 226.48 68.7751C227.743 71.7505 228.374 74.9965 228.374 78.513C228.374 81.9843 227.743 85.2303 226.48 88.2509C225.218 91.2263 223.437 93.8411 221.138 96.0953C218.884 98.3043 216.246 100.04 213.226 101.302C210.205 102.565 206.914 103.196 203.353 103.196ZM203.218 93.5255C206.103 93.5255 208.605 92.8944 210.724 91.6321C212.843 90.3697 214.488 88.6115 215.66 86.3574C216.878 84.0581 217.486 81.4208 217.486 78.4453C217.486 76.1912 217.148 74.1625 216.472 72.3591C215.796 70.5107 214.826 68.9328 213.564 67.6254C212.302 66.273 210.791 65.2586 209.033 64.5823C207.32 63.861 205.382 63.5004 203.218 63.5004C200.377 63.5004 197.898 64.1315 195.779 65.3938C193.66 66.6111 191.992 68.3468 190.775 70.6009C189.602 72.81 189.016 75.4248 189.016 78.4453C189.016 80.6995 189.355 82.7507 190.031 84.5991C190.707 86.4475 191.676 88.048 192.939 89.4005C194.201 90.7079 195.689 91.7222 197.402 92.4436C199.16 93.1649 201.099 93.5255 203.218 93.5255ZM224.654 106.171L202.338 83.8553L208.492 77.7015L230.808 100.017L224.654 106.171Z" fill="#142D5E"/>
<path d="M155.077 103.129C151.155 103.129 147.774 102.498 144.934 101.235C142.139 99.928 139.569 97.9669 137.225 95.3521L144.122 88.5221C145.655 90.2803 147.346 91.6553 149.194 92.6472C151.088 93.5939 153.274 94.0673 155.754 94.0673C158.008 94.0673 159.744 93.6615 160.961 92.85C162.223 92.0385 162.854 90.9115 162.854 89.4688C162.854 88.1614 162.448 87.102 161.637 86.2905C160.825 85.479 159.744 84.7802 158.391 84.1941C157.084 83.608 155.618 83.0445 153.995 82.5035C152.418 81.9625 150.84 81.3539 149.262 80.6777C147.684 79.9563 146.219 79.0772 144.866 78.0403C143.559 76.9583 142.499 75.6284 141.688 74.0505C140.876 72.4275 140.471 70.3988 140.471 67.9643C140.471 65.0339 141.169 62.5093 142.567 60.3904C144.01 58.2715 145.993 56.671 148.518 55.589C151.043 54.462 153.95 53.8984 157.241 53.8984C160.578 53.8984 163.621 54.4845 166.371 55.6567C169.166 56.8288 171.465 58.4293 173.268 60.458L166.371 67.288C164.928 65.8003 163.463 64.6958 161.975 63.9745C160.532 63.2531 158.887 62.8925 157.039 62.8925C155.19 62.8925 153.725 63.2531 152.643 63.9745C151.561 64.6507 151.02 65.6425 151.02 66.9499C151.02 68.1672 151.426 69.159 152.237 69.9254C153.049 70.6467 154.108 71.2779 155.416 71.8189C156.768 72.3599 158.233 72.9009 159.811 73.4419C161.434 73.9829 163.035 74.614 164.612 75.3353C166.19 76.0567 167.633 76.9809 168.94 78.1079C170.293 79.1899 171.375 80.5875 172.186 82.3006C172.998 83.9687 173.404 86.0425 173.404 88.5221C173.404 93.0755 171.781 96.6595 168.535 99.2743C165.289 101.844 160.803 103.129 155.077 103.129Z" fill="#142D5E"/>
<path d="M116.654 103.129C113.273 103.129 110.207 102.385 107.457 100.897C104.752 99.3641 102.611 97.2903 101.033 94.6755C99.455 92.0607 98.666 89.1303 98.666 85.8843C98.666 82.6384 99.455 79.7305 101.033 77.1608C102.611 74.5911 104.752 72.5624 107.457 71.0746C110.162 69.5418 113.228 68.7754 116.654 68.7754C120.08 68.7754 123.146 69.5193 125.851 71.007C128.556 72.4947 130.697 74.546 132.275 77.1608C133.853 79.7305 134.642 82.6384 134.642 85.8843C134.642 89.1303 133.853 92.0607 132.275 94.6755C130.697 97.2903 128.556 99.3641 125.851 100.897C123.146 102.385 120.08 103.129 116.654 103.129ZM116.654 93.7288C118.142 93.7288 119.449 93.4132 120.576 92.782C121.703 92.1058 122.56 91.1816 123.146 90.0094C123.777 88.7922 124.093 87.4172 124.093 85.8843C124.093 84.3515 123.777 83.0216 123.146 81.8945C122.515 80.7224 121.636 79.8207 120.509 79.1895C119.427 78.5133 118.142 78.1752 116.654 78.1752C115.211 78.1752 113.927 78.5133 112.799 79.1895C111.672 79.8207 110.793 80.7224 110.162 81.8945C109.531 83.0667 109.215 84.4191 109.215 85.952C109.215 87.4397 109.531 88.7922 110.162 90.0094C110.793 91.1816 111.672 92.1058 112.799 92.782C113.927 93.4132 115.211 93.7288 116.654 93.7288Z" fill="#585A8F"/>
<path d="M51.8516 102.383V54.6406H59.2902L62.4686 64.1757V102.383H51.8516ZM84.7846 102.383L56.6529 66.3396L59.2902 54.6406L87.422 90.6844L84.7846 102.383ZM84.7846 102.383L81.9444 92.8484V54.6406H92.5614V102.383H84.7846Z" fill="#585A8F"/>
</svg>
