<?xml version="1.0"?>
<svg xmlns="http://www.w3.org/2000/svg" width="320" height="160" viewBox="0 0 320 160" fill="none">
<path d="M293.636 93.2014C290.665 93.2014 287.901 92.6937 285.344 91.6784C282.825 90.6254 280.606 89.1588 278.688 87.2786C276.808 85.3983 275.341 83.2173 274.288 80.7353C273.235 78.2158 272.709 75.5082 272.709 72.6126C272.709 69.7171 273.235 67.0283 274.288 64.5464C275.341 62.0268 276.808 59.8457 278.688 58.0031C280.568 56.1605 282.768 54.7315 285.288 53.7161C287.845 52.6632 290.609 52.1367 293.58 52.1367C296.739 52.1367 299.54 52.6444 301.984 53.6597C304.466 54.6751 306.629 56.0664 308.471 57.8339L302.549 63.8131C301.496 62.6849 300.217 61.8012 298.713 61.1619C297.246 60.5226 295.535 60.203 293.58 60.203C291.85 60.203 290.252 60.5038 288.785 61.1055C287.356 61.6696 286.115 62.4969 285.062 63.5874C284.047 64.678 283.238 65.9942 282.637 67.536C282.073 69.0778 281.791 70.77 281.791 72.6126C281.791 74.4929 282.073 76.2039 282.637 77.7457C283.238 79.2875 284.047 80.6037 285.062 81.6943C286.115 82.7848 287.356 83.6309 288.785 84.2326C290.252 84.8343 291.85 85.1351 293.58 85.1351C295.61 85.1351 297.378 84.8155 298.882 84.1762C300.386 83.5369 301.684 82.6532 302.774 81.525L308.753 87.5042C306.836 89.2717 304.636 90.663 302.154 91.6784C299.709 92.6937 296.87 93.2014 293.636 93.2014Z" fill="#CC3737"/>
<path d="M245.843 93.2019C242.872 93.2019 240.221 92.6002 237.889 91.3969C235.595 90.1559 233.79 88.4449 232.474 86.2638C231.158 84.0827 230.5 81.6196 230.5 78.8744C230.5 76.1292 231.139 73.6849 232.418 71.5414C233.734 69.3603 235.501 67.6493 237.72 66.4083C239.939 65.1674 242.44 64.5469 245.222 64.5469C247.93 64.5469 250.318 65.1298 252.386 66.2955C254.454 67.4613 256.071 69.0783 257.237 71.1466C258.441 73.2148 259.042 75.5839 259.042 78.2539C259.042 78.7428 259.005 79.2692 258.929 79.8333C258.892 80.3598 258.798 80.9803 258.647 81.6948L235.013 81.7512V75.8284L254.981 75.772L251.258 78.2539C251.22 76.6745 250.976 75.3771 250.525 74.3618C250.073 73.3088 249.397 72.5191 248.494 71.9927C247.629 71.4286 246.557 71.1466 245.279 71.1466C243.925 71.1466 242.74 71.4662 241.725 72.1055C240.747 72.7072 239.976 73.5721 239.412 74.7002C238.886 75.8284 238.623 77.201 238.623 78.818C238.623 80.435 238.905 81.8264 239.469 82.9921C240.07 84.1203 240.898 85.004 241.951 85.6433C243.041 86.245 244.32 86.5458 245.786 86.5458C247.14 86.5458 248.362 86.3202 249.453 85.8689C250.543 85.3801 251.502 84.6656 252.33 83.7254L257.068 88.4637C255.714 90.0431 254.078 91.2276 252.16 92.0173C250.243 92.807 248.137 93.2019 245.843 93.2019Z" fill="#F44B4B"/>
<path d="M211.409 92.5801L199.789 65.166H209.096L216.993 88.0111H212.932L220.829 65.166H229.967L218.347 92.5237L211.409 92.5801Z" fill="#F44B4B"/>
<path d="M188.071 92.58V65.1659H196.701V92.58H188.071ZM192.414 61.3866C191.06 61.3866 189.932 60.9354 189.03 60.0328C188.165 59.0927 187.732 57.9646 187.732 56.6484C187.732 55.2946 188.165 54.1665 189.03 53.2639C189.932 52.3614 191.06 51.9102 192.414 51.9102C193.768 51.9102 194.877 52.3614 195.742 53.2639C196.607 54.1665 197.04 55.2946 197.04 56.6484C197.04 57.9646 196.607 59.0927 195.742 60.0328C194.877 60.9354 193.768 61.3866 192.414 61.3866Z" fill="#F44B4B"/>
<path d="M169.433 92.5801V53.8281H178.064V92.5801H169.433ZM163.229 72.499V65.166H184.269V72.499H163.229Z" fill="#F44B4B"/>
<path d="M151.254 93.2019C148.434 93.2019 145.877 92.5814 143.583 91.3404C141.289 90.0995 139.484 88.3885 138.168 86.2074C136.851 84.0263 136.193 81.5819 136.193 78.8744C136.193 76.1292 136.851 73.6849 138.168 71.5414C139.521 69.3603 141.345 67.6493 143.639 66.4083C145.933 65.1674 148.509 64.5469 151.367 64.5469C153.51 64.5469 155.466 64.9229 157.233 65.675C159.038 66.3895 160.637 67.4801 162.028 68.9467L156.5 74.4746C155.861 73.7601 155.109 73.2336 154.244 72.8952C153.416 72.5567 152.458 72.3875 151.367 72.3875C150.126 72.3875 149.017 72.6696 148.039 73.2336C147.099 73.7601 146.347 74.5122 145.783 75.4899C145.256 76.4301 144.993 77.5394 144.993 78.818C144.993 80.0965 145.256 81.2247 145.783 82.2024C146.347 83.1802 147.118 83.9511 148.095 84.5151C149.073 85.0792 150.164 85.3612 151.367 85.3612C152.495 85.3612 153.492 85.1732 154.357 84.7972C155.259 84.3835 156.03 83.8194 156.669 83.1049L162.141 88.6329C160.712 90.1371 159.095 91.284 157.29 92.0737C155.485 92.8258 153.473 93.2019 151.254 93.2019Z" fill="#F44B4B"/>
<path d="M120.632 93.2019C117.661 93.2019 115.01 92.6002 112.678 91.3969C110.385 90.1559 108.58 88.4449 107.263 86.2638C105.947 84.0827 105.289 81.6196 105.289 78.8744C105.289 76.1292 105.928 73.6849 107.207 71.5414C108.523 69.3603 110.291 67.6493 112.509 66.4083C114.728 65.1674 117.229 64.5469 120.011 64.5469C122.719 64.5469 125.107 65.1298 127.175 66.2955C129.243 67.4613 130.86 69.0783 132.026 71.1466C133.23 73.2148 133.831 75.5839 133.831 78.2539C133.831 78.7428 133.794 79.2692 133.718 79.8333C133.681 80.3598 133.587 80.9803 133.436 81.6948L109.802 81.7512V75.8284L129.77 75.772L126.047 78.2539C126.009 76.6745 125.765 75.3771 125.314 74.3618C124.862 73.3088 124.186 72.5191 123.283 71.9927C122.418 71.4286 121.346 71.1466 120.068 71.1466C118.714 71.1466 117.529 71.4662 116.514 72.1055C115.536 72.7072 114.766 73.5721 114.201 74.7002C113.675 75.8284 113.412 77.201 113.412 78.818C113.412 80.435 113.694 81.8264 114.258 82.9921C114.86 84.1203 115.687 85.004 116.74 85.6433C117.83 86.245 119.109 86.5458 120.575 86.5458C121.929 86.5458 123.151 86.3202 124.242 85.8689C125.333 85.3801 126.291 84.6656 127.119 83.7254L131.857 88.4637C130.503 90.0431 128.867 91.2276 126.95 92.0173C125.032 92.807 122.926 93.2019 120.632 93.2019Z" fill="#F44B4B"/>
<path d="M90.0928 104.877C88.0997 104.877 86.4075 104.538 85.0161 103.861C83.6247 103.222 82.4025 102.301 81.3496 101.098L86.7083 95.7388C87.122 96.2277 87.5544 96.5661 88.0057 96.7541C88.4193 96.9798 88.9082 97.0926 89.4723 97.0926C90.2996 97.0926 90.9765 96.8481 91.503 96.3593C92.067 95.8704 92.3491 95.1183 92.3491 94.103V65.1659H100.979V93.9902C100.979 96.2089 100.509 98.1267 99.5692 99.7437C98.6291 101.361 97.3317 102.621 95.6771 103.523C94.0601 104.426 92.1987 104.877 90.0928 104.877ZM96.7489 61.3866C95.3951 61.3866 94.2669 60.9354 93.3644 60.0328C92.4995 59.0927 92.067 57.9646 92.067 56.6484C92.067 55.2946 92.4995 54.1665 93.3644 53.2639C94.2669 52.3614 95.3951 51.9102 96.7489 51.9102C98.1026 51.9102 99.212 52.3614 100.077 53.2639C100.942 54.1665 101.374 55.2946 101.374 56.6484C101.374 57.9646 100.942 59.0927 100.077 60.0328C99.212 60.9354 98.1026 61.3866 96.7489 61.3866Z" fill="#F44B4B"/>
<path d="M73.9171 93.1448C72.0745 93.1448 70.3823 92.7688 68.8405 92.0167C67.2987 91.227 66.0389 90.1928 65.0612 88.9143C64.0834 87.5981 63.5194 86.1315 63.3689 84.5145V72.9509C63.5194 71.3339 64.0834 69.9049 65.0612 68.664C66.0389 67.3854 67.2987 66.3889 68.8405 65.6744C70.3823 64.9599 72.0745 64.6026 73.9171 64.6026C76.5119 64.6026 78.8058 65.2231 80.7989 66.4641C82.8295 67.705 84.4089 69.3973 85.5371 71.5408C86.7028 73.6842 87.2857 76.1286 87.2857 78.8737C87.2857 81.6189 86.7028 84.0632 85.5371 86.2067C84.4089 88.3502 82.8295 90.0424 80.7989 91.2834C78.8058 92.5244 76.5119 93.1448 73.9171 93.1448ZM72.3941 85.3606C73.5975 85.3606 74.6504 85.0786 75.553 84.5145C76.4931 83.9504 77.2264 83.1795 77.7529 82.2018C78.2793 81.224 78.5426 80.1147 78.5426 78.8737C78.5426 77.5952 78.2793 76.467 77.7529 75.4893C77.2264 74.5116 76.4931 73.7595 75.553 73.233C74.6504 72.6689 73.5975 72.3869 72.3941 72.3869C71.1908 72.3869 70.119 72.6689 69.1789 73.233C68.2388 73.7595 67.5055 74.5116 66.979 75.4893C66.4902 76.467 66.2457 77.5952 66.2457 78.8737C66.2457 80.1523 66.509 81.2805 67.0354 82.2582C67.5619 83.2359 68.2764 84.0068 69.1789 84.5709C70.119 85.0974 71.1908 85.3606 72.3941 85.3606ZM58.123 92.5808V51.6289H66.7534V71.8792L65.3432 78.5353L66.6406 85.1914V92.5808H58.123Z" fill="#F44B4B"/>
<path d="M32.4775 93.2576C29.4691 93.2576 26.6863 92.7311 24.1292 91.6782C21.6097 90.6252 19.391 89.1586 17.4731 87.2784C15.5552 85.3981 14.0699 83.217 13.0169 80.7351C11.964 78.2156 11.4375 75.508 11.4375 72.6124C11.4375 69.6792 11.964 66.9717 13.0169 64.4897C14.0699 62.0078 15.5364 59.8455 17.4167 58.0029C19.2969 56.1226 21.4968 54.6748 24.0164 53.6595C26.5735 52.6065 29.3563 52.0801 32.3647 52.0801C35.3355 52.0801 38.0806 52.6065 40.6002 53.6595C43.1573 54.6748 45.376 56.1226 47.2563 58.0029C49.1741 59.8455 50.6595 62.0266 51.7125 64.5461C52.7654 67.0281 53.2919 69.7356 53.2919 72.6688C53.2919 75.5644 52.7654 78.272 51.7125 80.7915C50.6595 83.2734 49.1929 85.4545 47.3127 87.3348C45.4324 89.1774 43.2137 90.6252 40.6566 91.6782C38.1371 92.7311 35.4107 93.2576 32.4775 93.2576ZM32.3647 85.1913C34.7338 85.1913 36.8021 84.6648 38.5695 83.6119C40.3746 82.5589 41.7659 81.0923 42.7437 79.2121C43.7214 77.2942 44.2103 75.0943 44.2103 72.6124C44.2103 70.7322 43.9282 69.0399 43.3642 67.5357C42.8001 65.9939 41.9916 64.6778 40.9386 63.5872C39.8857 62.4591 38.6259 61.6129 37.1593 61.0489C35.7303 60.4472 34.1321 60.1464 32.3647 60.1464C29.9956 60.1464 27.9085 60.6728 26.1035 61.7258C24.336 62.7411 22.9634 64.1889 21.9857 66.0691C21.008 67.9118 20.5191 70.0929 20.5191 72.6124C20.5191 74.4927 20.8011 76.2037 21.3652 77.7455C21.9293 79.2873 22.719 80.6223 23.7343 81.7504C24.7873 82.841 26.047 83.6871 27.5136 84.2888C28.9802 84.8904 30.5972 85.1913 32.3647 85.1913Z" fill="#F44B4B"/>
</svg>
