<?xml version="1.0"?>
<svg xmlns="http://www.w3.org/2000/svg" width="320" height="160" viewBox="0 0 320 160" fill="none">
<path d="M136.554 85.1656H154.394L144.961 69.989L127.648 97.4287H119.769L140.827 64.4678C141.743 63.1359 143.269 62.3315 144.961 62.3315C146.598 62.3315 148.124 63.1083 149.012 64.4121L170.154 97.4287H162.274L158.556 91.2972H140.494L136.554 85.1656ZM218.402 91.2972V62.6642H211.715V94.0992C211.715 94.9594 212.049 95.7919 212.687 96.4299C213.325 97.068 214.185 97.4287 215.128 97.4287H245.62L249.559 91.2972H218.402ZM107.783 86.1644C114.275 86.1644 119.547 80.9202 119.547 74.4284C119.547 67.9361 114.275 62.6642 107.783 62.6642H78.5312V97.4287H85.2148V68.7958H107.339C110.446 68.7958 112.943 71.3209 112.943 74.4284C112.943 77.5354 110.446 80.0605 107.339 80.0605L88.4891 80.0329L108.449 97.4287H118.159L104.731 86.1644H107.783ZM37.3849 97.4283C27.7882 97.4283 20 89.6598 20 80.0601C20 70.4603 27.7882 62.6642 37.3849 62.6642H57.5916C67.1914 62.6642 74.9739 70.4603 74.9739 80.0601C74.9739 89.6598 67.1918 97.4283 57.5921 97.4283H37.3849ZM57.1418 91.2967C63.3603 91.2967 68.3956 86.275 68.3956 80.0601C68.3956 73.8451 63.3603 68.7958 57.1427 68.7958H37.8321C31.6172 68.7958 26.5788 73.8456 26.5788 80.0605C26.5788 86.2755 31.6172 91.2972 37.8321 91.2972L57.1418 91.2967ZM184.109 97.4283C174.509 97.4283 166.713 89.6598 166.713 80.0601C166.713 70.4603 174.509 62.6642 184.109 62.6642H208.108L204.196 68.7953H184.553C178.338 68.7953 173.288 73.8451 173.288 80.0601C173.288 86.275 178.338 91.2967 184.553 91.2967H208.663L204.723 97.4283H184.109ZM265.873 91.2967C260.74 91.2967 256.384 87.8562 255.052 83.1123H283.63L287.57 76.9802H255.053C256.385 72.2635 260.74 68.7958 265.874 68.7958H285.489L289.457 62.6637H265.43C255.83 62.6637 248.034 70.4603 248.034 80.0596C248.034 89.6598 255.83 97.4283 265.43 97.4283H286.044L289.984 91.2967H265.873ZM293.036 66.3545C293.035 65.9533 293.113 65.5559 293.266 65.1851C293.419 64.8143 293.643 64.4773 293.927 64.1937C294.211 63.91 294.548 63.6852 294.918 63.5323C295.289 63.3793 295.687 63.3011 296.088 63.3023C297.808 63.3023 299.168 64.6618 299.168 66.3545C299.168 68.0747 297.808 69.4343 296.088 69.4343C294.395 69.4343 293.036 68.0747 293.036 66.3545ZM296.088 70.294C298.252 70.294 300 68.5461 300 66.3821C300 64.2181 298.252 62.4702 296.088 62.4702C293.951 62.4702 292.204 64.2181 292.204 66.3821C292.204 68.5461 293.951 70.294 296.088 70.294ZM295.727 64.0514C296.337 64.0514 296.587 64.0795 296.865 64.1901C297.642 64.4402 297.725 65.1336 297.725 65.4109C297.725 65.4667 297.725 65.6053 297.669 65.7717C297.642 65.9384 297.531 66.2711 297.142 66.5208C297.087 66.5484 297.059 66.5765 296.948 66.6318L297.947 68.4355H296.975L296.088 66.7705H295.478V68.4355H294.618V64.0514H295.727ZM296.032 66.049C296.31 66.0214 296.587 66.0214 296.753 65.7717C296.837 65.6606 296.865 65.5496 296.865 65.3833C296.865 65.1612 296.726 64.9673 296.531 64.8562C296.337 64.7728 296.143 64.7728 295.727 64.7728H295.478V66.049H296.032Z" fill="#F80000"/>
</svg>
