<?xml version="1.0"?>
<svg xmlns="http://www.w3.org/2000/svg" width="320" height="160" viewBox="0 0 320 160" fill="none">
<g clip-path="url(#clip0_462_6845)">
<mask id="mask0_462_6845" style="mask-type:luminance" maskUnits="userSpaceOnUse" x="69" y="32" width="182" height="96">
<path d="M69.9062 79.7231C69.9062 105.897 110.244 127.116 160.001 127.116C209.758 127.116 250.095 105.897 250.095 79.7231C250.095 53.5492 209.758 32.33 160.001 32.33C110.244 32.33 69.9062 53.5492 69.9062 79.7231Z" fill="white"/>
</mask>
<g mask="url(#mask0_462_6845)">
<path d="M69.9082 79.7231C69.9082 105.897 110.246 127.116 160.003 127.116C209.76 127.116 250.097 105.897 250.097 79.7231C250.097 53.5492 209.76 32.33 160.003 32.33C110.246 32.33 69.9082 53.5492 69.9082 79.7231Z" fill="url(#paint0_radial_462_6845)"/>
</g>
<mask id="mask1_462_6845" style="mask-type:luminance" maskUnits="userSpaceOnUse" x="66" y="26" width="188" height="107">
<path d="M66.1543 26.9348H253.851V132.514H66.1543V26.9348Z" fill="white"/>
</mask>
<g mask="url(#mask1_462_6845)">
<path d="M160.001 123.599C207.814 123.599 246.576 103.955 246.576 79.7242C246.576 55.4934 207.814 35.8498 160.001 35.8498C112.187 35.8498 73.4258 55.4934 73.4258 79.7242C73.4258 103.955 112.187 123.599 160.001 123.599Z" fill="#777BB3"/>
</g>
<mask id="mask2_462_6845" style="mask-type:luminance" maskUnits="userSpaceOnUse" x="66" y="26" width="188" height="107">
<path d="M66.1543 26.9348H253.851V132.514H66.1543V26.9348Z" fill="white"/>
</mask>
<g mask="url(#mask2_462_6845)">
<path d="M118.857 85.164C122.789 85.164 125.724 84.439 127.581 83.0098C129.418 81.5952 130.687 79.1444 131.352 75.7258C131.972 72.5303 131.736 70.2992 130.65 69.0951C129.54 67.8653 127.14 67.2416 123.516 67.2416H117.233L113.75 85.164H118.857ZM98.3074 107.241C98.0158 107.241 97.7388 107.111 97.5534 106.885C97.3676 106.66 97.2923 106.364 97.3481 106.077L106.579 58.5825C106.668 58.1233 107.071 57.7916 107.539 57.7916H127.434C133.687 57.7916 138.341 59.4893 141.266 62.8382C144.207 66.2047 145.115 70.9105 143.965 76.8246C143.497 79.234 142.692 81.4717 141.573 83.4751C140.452 85.4808 138.971 87.3366 137.17 88.9919C135.014 91.0097 132.574 92.4728 129.924 93.3337C127.316 94.1833 123.967 94.614 119.97 94.614H111.914L109.613 106.45C109.524 106.909 109.122 107.241 108.654 107.241H98.3074Z" fill="black"/>
<path d="M118.038 68.2187H123.515C127.889 68.2187 129.408 69.1783 129.924 69.7502C130.78 70.6998 130.942 72.7019 130.392 75.5398C129.773 78.717 128.627 80.9696 126.984 82.2346C125.302 83.5296 122.567 84.1859 118.856 84.1859H114.935L118.038 68.2187ZM127.433 56.8135H107.538C106.602 56.8135 105.797 57.4769 105.619 58.3955L96.3875 105.89C96.2761 106.463 96.4266 107.056 96.7978 107.507C97.1693 107.958 97.7226 108.218 98.3065 108.218H108.653C109.589 108.218 110.393 107.555 110.572 106.636L112.719 95.5911H119.969C124.069 95.5911 127.52 95.144 130.227 94.2626C133.01 93.3583 135.571 91.8251 137.837 89.7057C139.711 87.9812 141.255 86.0456 142.425 83.9519C143.595 81.8576 144.436 79.5222 144.924 77.0104C146.134 70.7851 145.151 65.8001 142.001 62.1948C138.882 58.624 133.98 56.8135 127.433 56.8135ZM112.563 86.1411H118.856C123.028 86.1411 126.135 85.3554 128.176 83.7838C130.218 82.2118 131.595 79.5883 132.311 75.9119C132.996 72.3822 132.684 69.8913 131.375 68.4402C130.065 66.9892 127.446 66.2635 123.515 66.2635H116.426L112.563 86.1411ZM127.433 58.7686C133.418 58.7686 137.784 60.3393 140.529 63.4809C143.273 66.6226 144.099 71.0077 143.004 76.6376C142.554 78.9568 141.792 81.0772 140.718 82.9981C139.644 84.9204 138.241 86.6781 136.508 88.2719C134.442 90.2052 132.147 91.583 129.621 92.4035C127.096 93.2263 123.879 93.6359 119.969 93.6359H111.107L108.653 106.263H98.3065L107.538 58.7686H127.433Z" fill="white"/>
<path d="M167.688 94.6138C167.396 94.6138 167.12 94.4834 166.934 94.2579C166.748 94.0328 166.673 93.7365 166.729 93.4498L170.812 72.4353C171.201 70.4367 171.105 69.0023 170.543 68.3962C170.199 68.0257 169.165 67.4043 166.109 67.4043H158.711L153.577 93.8226C153.488 94.282 153.085 94.6138 152.617 94.6138H142.353C142.061 94.6138 141.784 94.4834 141.598 94.2579C141.413 94.0328 141.337 93.7362 141.393 93.4498L150.624 45.955C150.713 45.4959 151.116 45.1642 151.584 45.1642H161.848C162.14 45.1642 162.417 45.2945 162.603 45.5197C162.788 45.7452 162.864 46.0414 162.808 46.3281L160.58 57.7913H168.539C174.601 57.7913 178.712 58.8601 181.107 61.0591C183.548 63.3023 184.309 66.8891 183.371 71.721L179.076 93.8226C178.986 94.282 178.584 94.6138 178.116 94.6138H167.688Z" fill="black"/>
<path d="M161.847 44.187H151.583C150.647 44.187 149.842 44.8505 149.663 45.7691L140.432 93.2638C140.321 93.837 140.472 94.4298 140.843 94.8804C141.215 95.3311 141.768 95.5918 142.352 95.5918H152.616C153.552 95.5918 154.357 94.9283 154.536 94.0097L159.516 68.3823H166.108C169.159 68.3823 169.799 69.034 169.825 69.062C170.01 69.2611 170.253 70.1833 169.852 72.2493L165.768 93.2638C165.657 93.837 165.807 94.4298 166.179 94.8804C166.55 95.3311 167.104 95.5918 167.688 95.5918H178.115C179.051 95.5918 179.856 94.9283 180.035 94.0097L184.329 71.9081C185.337 66.7201 184.475 62.8283 181.767 60.34C179.184 57.9674 174.857 56.8142 168.538 56.8142H161.765L163.767 46.5153C163.878 45.9421 163.728 45.349 163.356 44.8987C162.985 44.448 162.431 44.187 161.847 44.187ZM161.847 46.1422L159.393 58.7693H168.538C174.292 58.7693 178.26 59.7737 180.444 61.7797C182.629 63.787 183.283 67.0394 182.41 71.5353L178.115 93.6366H167.688L171.771 72.6224C172.236 70.2319 172.065 68.6013 171.258 67.7319C170.451 66.8625 168.734 66.4271 166.108 66.4271H157.904L152.616 93.6366H142.352L151.583 46.1422H161.847Z" fill="white"/>
<path d="M199.611 85.164C203.543 85.164 206.478 84.439 208.335 83.0098C210.172 81.5955 211.441 79.1447 212.106 75.7258C212.726 72.5303 212.49 70.2992 211.404 69.0951C210.294 67.8653 207.894 67.2416 204.27 67.2416H197.987L194.504 85.164H199.611ZM179.062 107.241C178.77 107.241 178.493 107.111 178.308 106.885C178.122 106.66 178.046 106.364 178.102 106.077L187.333 58.5825C187.423 58.1233 187.825 57.7916 188.293 57.7916H208.188C214.441 57.7916 219.094 59.4893 222.02 62.8382C224.961 66.2044 225.869 70.9102 224.719 76.8246C224.251 79.234 223.446 81.4717 222.327 83.4751C221.206 85.4808 219.725 87.3366 217.924 88.9919C215.768 91.0097 213.328 92.4728 210.678 93.3337C208.07 94.1833 204.721 94.614 200.724 94.614H192.667L190.368 106.45C190.278 106.909 189.876 107.241 189.408 107.241H179.062Z" fill="black"/>
<path d="M198.792 68.2187H204.269C208.642 68.2187 210.161 69.1783 210.678 69.7502C211.534 70.6998 211.696 72.7019 211.145 75.5395C210.527 78.717 209.38 80.9696 207.737 82.2346C206.055 83.5296 203.321 84.1859 199.61 84.1859H195.689L198.792 68.2187ZM208.187 56.8135H188.291C187.356 56.8135 186.551 57.4769 186.372 58.3955L177.141 105.89C177.03 106.463 177.181 107.056 177.552 107.507C177.923 107.958 178.476 108.218 179.06 108.218H189.407C190.342 108.218 191.147 107.555 191.326 106.636L193.472 95.5911H200.722C204.822 95.5911 208.274 95.144 210.98 94.2626C213.763 93.3583 216.325 91.8248 218.591 89.705C220.465 87.9809 222.009 86.0456 223.179 83.9519C224.349 81.8576 225.19 79.5222 225.677 77.0104C226.888 70.7848 225.904 65.7998 222.755 62.1944C219.636 58.624 214.734 56.8135 208.187 56.8135ZM193.317 86.1411H199.61C203.781 86.1411 206.888 85.3554 208.93 83.7838C210.972 82.2118 212.349 79.5883 213.065 75.9119C213.749 72.3822 213.438 69.8913 212.129 68.4402C210.819 66.9892 208.199 66.2635 204.269 66.2635H197.18L193.317 86.1411ZM208.187 58.7686C214.172 58.7686 218.538 60.3393 221.282 63.4809C224.027 66.6226 224.853 71.0077 223.758 76.6376C223.307 78.9568 222.545 81.0772 221.472 82.9981C220.398 84.9204 218.995 86.6781 217.261 88.2719C215.195 90.2052 212.9 91.583 210.375 92.4035C207.849 93.2263 204.633 93.6359 200.722 93.6359H191.86L189.407 106.263H179.06L188.291 58.7686H208.187Z" fill="white"/>
</g>
</g>
<defs>
<radialGradient id="paint0_radial_462_6845" cx="0" cy="0" r="1" gradientUnits="userSpaceOnUse" gradientTransform="translate(124.001 48.992) scale(118.307 118.307)">
<stop stop-color="#AEB2D5"/>
<stop offset="0.3" stop-color="#AEB2D5"/>
<stop offset="0.75" stop-color="#484C89"/>
<stop offset="1" stop-color="#484C89"/>
</radialGradient>
<clipPath id="clip0_462_6845">
<rect width="185.403" height="100" fill="white" transform="translate(67.2988 29.7236)"/>
</clipPath>
</defs>
</svg>
