<?xml version="1.0"?>
<svg xmlns="http://www.w3.org/2000/svg" width="320" height="160" viewBox="0 0 320 160" fill="none">
<path d="M55.0043 111.347H43.3596V99.5812H55.6379C60.1307 99.5812 62.3793 101.598 62.3793 105.556C62.3793 109.418 59.921 111.35 55.0066 111.35M63.3765 99.4445C61.7815 98.0102 59.5485 97.293 56.6774 97.293L40 97.3826V125.532H43.3596L43.3283 113.548H55.7383C58.8502 113.548 61.2996 112.831 63.0865 111.397C64.8734 109.962 65.7679 107.968 65.7679 105.422C65.7679 102.876 64.9693 100.881 63.3743 99.4467L63.3765 99.4445ZM85.1201 119.624C84.7997 120.545 84.2507 121.369 83.5251 122.018C82.0193 123.497 79.7238 124.23 76.6096 124.23C73.8211 124.23 71.7018 123.512 70.1849 122.078C68.668 120.644 67.943 118.723 67.943 116.318C67.943 115.063 68.1393 113.954 68.5296 112.983C68.8999 112.044 69.4817 111.203 70.2295 110.527C71.7732 109.115 73.9014 108.405 76.6096 108.405C82.6327 108.405 85.6064 111.043 85.6064 116.316C85.6064 117.571 85.4346 118.669 85.0933 119.62M85.7023 109.236C83.6544 107.36 80.6228 106.421 76.6074 106.421C72.815 106.421 69.8815 107.38 67.8136 109.297C65.9464 111.031 65.0139 113.371 65.0139 116.316C65.0139 119.241 65.9776 121.601 67.905 123.398C68.9691 124.366 70.2094 125.068 71.6238 125.5C73.0381 125.933 74.7023 126.173 76.6074 126.173C80.6228 126.173 83.6433 125.245 85.7536 123.389C87.6208 121.695 88.5533 119.346 88.5533 116.341C88.5533 113.315 87.6097 110.955 85.7202 109.259L85.7023 109.236ZM111.133 120.435C111.133 124.245 107.754 126.119 100.997 126.119C98.9309 126.119 97.1909 125.984 95.7766 125.724C94.3623 125.465 93.2156 125.023 92.3322 124.416C91.6573 123.956 91.1007 123.341 90.7082 122.623C90.3067 121.899 90.0457 120.942 89.9274 119.81L93.0506 119.781C93.0506 121.271 93.6016 122.369 94.7014 123.075C95.8837 123.923 97.9739 124.346 100.977 124.346C105.699 124.346 108.062 123.158 108.062 120.778C108.062 119.389 107.27 118.432 105.686 117.91C105.365 117.809 103.455 117.542 99.9526 117.109C96.4503 116.677 94.273 116.287 93.4097 115.944C91.5448 115.198 90.6123 113.86 90.6123 111.923C90.578 111.051 90.7956 110.187 91.2389 109.436C91.6822 108.684 92.3323 108.078 93.1108 107.69C93.9362 107.309 94.9624 107.011 96.1982 106.798C97.4341 106.585 98.864 106.48 100.49 106.48C106.995 106.48 110.248 108.53 110.248 112.632H107.259C107.259 109.749 104.972 108.306 100.399 108.306C98.0721 108.306 96.3388 108.597 95.1944 109.203C94.05 109.808 93.4766 110.682 93.4766 111.892C93.4766 113.022 94.2485 113.837 95.7922 114.342C96.6957 114.604 98.7703 114.906 102.021 115.249C104.93 115.511 106.924 115.883 108.008 116.37C110.074 117.177 111.131 118.544 111.131 120.48L111.133 120.435ZM123.483 125.59L122.205 125.769L121.406 125.83C119.358 125.83 117.882 125.532 116.978 124.933C116.075 124.335 115.64 123.293 115.64 121.796V108.954H111.914V107.064H115.617L115.646 100.995H118.513V107.064H123.505V108.985L118.513 108.954V121.453C118.513 122.383 118.736 123.026 119.249 123.38C119.762 123.734 120.619 123.911 121.881 123.911C122.06 123.934 122.261 123.925 122.484 123.889C122.707 123.853 123.035 123.777 123.476 123.66L123.508 125.588L123.483 125.59ZM143.308 121.305C142.512 121.957 141.605 122.459 140.631 122.786C139.627 123.129 138.476 123.302 137.173 123.302C131.177 123.302 128.183 120.836 128.183 115.839C128.183 113.524 128.951 111.71 130.481 110.402C132.011 109.093 134.175 108.438 136.962 108.438C139.768 108.438 141.898 109.097 143.353 110.417C144.807 111.737 145.535 113.503 145.535 115.72C145.535 118.136 144.792 119.978 143.308 121.309M148.401 107.056H145.535L145.503 110.231C144.241 108.943 143.339 108.125 142.795 107.784C141.189 106.899 139.114 106.455 136.567 106.455C132.835 106.455 129.986 107.311 128.023 109.023C126.158 110.592 125.225 112.871 125.225 115.852C125.225 117.322 125.462 118.638 125.932 119.797C126.403 120.955 127.093 121.937 127.996 122.741C129.966 124.393 132.748 125.22 136.344 125.22C140.662 125.22 143.705 124.032 145.535 121.634V124.922C145.535 127.018 144.876 128.642 143.562 129.79C142.249 130.937 140.087 131.516 137.078 131.516C134.249 131.516 132.232 131.123 131.054 130.341C130.151 129.741 129.529 128.696 129.189 127.21H126.256C126.577 129.283 127.449 130.785 128.875 131.711C130.521 132.777 133.301 133.311 137.214 133.311C144.7 133.311 148.443 130.516 148.443 124.924V107.033L148.401 107.056ZM163.905 108.927C163.11 108.792 162.306 108.721 161.5 108.716C156.789 108.716 154.433 111.312 154.433 116.504V125.532H151.6L151.569 107.058L154.435 107.087V110.381H154.585C155.067 109.082 155.827 108.095 156.871 107.428C158.014 106.755 159.718 106.453 161.984 106.453H163.91V108.925L163.905 108.927ZM166.573 115.126C166.935 113.026 167.747 111.401 169.009 110.249C169.835 109.584 170.765 109.084 171.807 108.748C172.848 108.411 174.024 108.248 175.327 108.248C177.874 108.248 179.953 108.949 181.569 110.355C183.184 111.76 184.011 113.349 184.011 115.128H166.595M184.292 109.429C183.244 108.392 181.964 107.622 180.558 107.186C179.072 106.699 177.337 106.457 175.349 106.457C171.635 106.457 168.755 107.324 166.707 109.057C164.659 110.789 163.635 113.152 163.635 116.139C163.635 119.126 164.617 121.518 166.584 123.248C168.71 125.184 171.711 126.153 175.586 126.153C177.129 126.153 178.559 125.973 179.873 125.626C181.187 125.278 182.336 124.774 183.32 124.135C185.046 122.889 186.137 121.356 186.599 119.528H183.476C182.412 122.665 179.766 124.265 175.534 124.265C172.545 124.265 170.247 123.495 168.619 121.948C167.236 120.603 166.544 118.909 166.544 116.802H186.978C186.978 113.669 186.086 111.211 184.239 109.407L184.292 109.429Z" fill="#231F20"/>
<path d="M217.316 117.983C217.316 123.467 212.913 126.208 204.11 126.208C198.834 126.208 194.981 125.266 192.554 123.373C190.547 121.82 189.576 119.451 189.576 116.268H193.145C193.145 121.389 196.804 123.949 204.132 123.949C207.643 123.949 210.184 123.424 211.748 122.38C213.073 121.454 213.756 120.004 213.756 118.032C213.756 116.078 212.852 114.708 211.045 113.922C210.019 113.473 207.521 112.965 203.55 112.319C198.553 111.553 195.312 110.789 193.828 110.024C191.682 108.897 190.607 106.983 190.607 104.282C190.607 101.766 191.499 99.8897 193.346 98.6615C195.309 97.3124 198.685 96.6378 203.461 96.6378C212.094 96.6378 216.406 99.5177 216.406 105.277H212.81C212.81 100.963 209.604 98.8072 203.217 98.8072C200.005 98.8072 197.654 99.242 196.168 100.107C194.763 101.035 194.06 102.393 194.06 104.191C194.06 106.066 194.964 107.386 196.77 108.153C197.73 108.597 200.563 109.211 205.261 110C209.678 110.665 212.656 111.441 214.184 112.33C216.292 113.42 217.345 115.304 217.345 117.987L217.316 117.983ZM246.111 120.784C244.776 121.856 243.254 122.67 241.623 123.184C239.954 123.718 238.087 123.985 236.019 123.985C231.781 123.985 228.39 122.864 225.789 120.556C223.188 118.247 221.885 115.228 221.885 111.425C221.885 107.458 223.174 104.372 225.755 102.158C228.336 99.9435 231.778 98.8364 236.017 98.8364C240.336 98.8364 243.731 99.9928 246.2 102.31C247.505 103.437 248.469 104.775 249.094 106.266C249.718 107.756 250.031 109.493 250.031 111.427C250.031 115.372 248.723 118.491 246.113 120.786M247.998 122.653C249.846 121.344 251.211 119.74 252.096 117.895C252.982 116.051 253.424 113.861 253.424 111.445C253.424 107.075 251.978 103.57 249.087 100.912C247.541 99.4616 245.674 98.3836 243.51 97.6799C241.346 96.9762 238.825 96.6221 236.015 96.6221C230.556 96.6221 226.271 97.9511 223.159 100.611C220.047 103.272 218.492 106.875 218.492 111.427C218.492 115.858 220.06 119.433 223.176 122.151C226.293 124.87 230.605 126.23 236.044 126.23C238.17 126.23 240.026 126.085 241.612 125.798C243.198 125.511 244.541 125.065 245.645 124.466L250.883 128.113L253.069 126.096L247.998 122.64V122.653ZM279.966 125.529H255.744V97.346L259.074 97.2855V123.171H279.999L279.968 125.524L279.966 125.529Z" fill="#367FAF"/>
<path d="M175.144 74.6572C175.583 70.9816 175.452 70.4438 178.178 71.0399L178.847 71.1004C180.944 71.1968 183.681 70.7643 185.294 70.0112C188.758 68.3976 190.813 65.6992 187.397 66.4074C179.603 68.0211 179.068 65.372 179.068 65.372C187.299 53.1038 190.735 37.5299 187.768 33.7199C179.67 23.3209 165.647 28.2403 165.415 28.368L165.342 28.3814C163.802 28.061 162.078 27.866 160.144 27.8368C156.619 27.7786 153.942 28.7647 151.89 30.3133C151.89 30.3133 126.878 19.9591 128.02 43.3345C128.266 48.3055 135.114 80.9549 143.279 71.0937C146.264 67.4854 149.146 64.4374 149.146 64.4374C150.578 65.3944 152.269 65.8807 154.092 65.7059L154.23 65.5871C154.188 66.0553 154.207 66.5268 154.286 66.9901C152.182 69.3501 152.8 69.7692 148.597 70.6365C144.343 71.5173 146.842 73.0861 148.475 73.4962C150.453 73.9938 155.033 74.6975 158.123 70.3474L158 70.8449C158.825 71.5083 158.77 75.6119 158.886 78.5434C159.002 81.4748 159.198 84.2135 159.794 85.8272C160.389 87.4408 161.087 91.5959 166.62 90.4059C171.238 89.4108 174.771 87.9809 175.092 74.6661" fill="#231F20"/>
<path d="M175.144 74.6572C175.583 70.9816 175.452 70.4438 178.178 71.0399L178.847 71.1004C180.944 71.1968 183.681 70.7643 185.294 70.0112C188.758 68.3976 190.813 65.6992 187.397 66.4074C179.603 68.0211 179.068 65.372 179.068 65.372C187.299 53.1038 190.735 37.5299 187.768 33.7199C179.67 23.3209 165.647 28.2403 165.415 28.368L165.342 28.3814C163.802 28.061 162.078 27.866 160.144 27.8368C156.619 27.7786 153.942 28.7647 151.89 30.3133C151.89 30.3133 126.878 19.9591 128.02 43.3345C128.266 48.3055 135.114 80.9549 143.279 71.0937C146.264 67.4854 149.146 64.4374 149.146 64.4374C150.578 65.3944 152.269 65.8807 154.092 65.7059L154.23 65.5871C154.188 66.0553 154.207 66.5268 154.286 66.9901C152.182 69.3501 152.8 69.7692 148.597 70.6365C144.343 71.5173 146.842 73.0861 148.475 73.4962C150.453 73.9938 155.033 74.6975 158.123 70.3474L158 70.8449C158.825 71.5083 158.77 75.6119 158.886 78.5434C159.002 81.4748 159.198 84.2135 159.794 85.8272C160.389 87.4408 161.087 91.5959 166.62 90.4059C171.238 89.4108 174.771 87.9809 175.092 74.6661" stroke="#231F20" stroke-width="3.23476"/>
<path d="M187.415 66.4072C179.621 68.0209 179.086 65.3718 179.086 65.3718C187.317 53.1036 190.753 37.5297 187.786 33.7175C179.688 23.3184 165.665 28.2378 165.433 28.3656L165.357 28.379C163.818 28.0585 162.094 27.8635 160.159 27.8344C156.635 27.7761 153.958 28.7622 151.906 30.3109C151.906 30.3109 126.894 19.9567 128.036 43.3321C128.281 48.3075 135.13 80.9524 143.295 71.0913C146.279 67.483 149.162 64.435 149.162 64.435C150.594 65.392 152.307 65.8783 154.105 65.7035L154.246 65.5847C154.201 66.0329 154.223 66.47 154.301 66.9877C152.198 69.3476 152.816 69.7667 148.613 70.6341C144.359 71.5149 146.857 73.0837 148.49 73.4938C150.469 73.9913 155.049 74.6951 158.138 70.345L158.016 70.8425C158.841 71.5059 159.421 75.1568 159.321 78.4625C159.22 81.7682 159.16 84.043 159.811 85.818C160.463 87.593 161.105 91.5868 166.638 90.3967C171.255 89.4016 173.651 86.8243 173.984 82.5257C174.22 79.4688 174.756 79.9215 174.787 77.1917L175.215 75.8986C175.71 71.7524 175.293 70.4189 178.137 71.042L178.807 71.1025C180.904 71.1988 183.643 70.7663 185.254 70.0133C188.718 68.3996 190.773 65.7012 187.357 66.4095L187.415 66.4072Z" fill="#417BA2"/>
<path d="M158.51 68.7828C158.296 76.4924 158.563 84.2536 159.313 86.1407C160.062 88.0278 161.671 91.6988 167.201 90.5065C171.819 89.5114 173.501 87.5862 174.228 83.3347L175.935 69.7465M151.907 30.1383C151.907 30.1383 126.877 19.8603 128.037 43.2312C128.26 48.2066 135.131 80.8538 143.296 70.9926C146.281 67.4067 148.978 64.5605 148.978 64.5605M165.403 28.2624C164.511 28.5359 179.323 22.8321 187.729 33.6412C190.696 37.4512 187.283 53.0274 179.029 65.2956" stroke="white" stroke-width="1.07825" stroke-linecap="round" stroke-linejoin="round"/>
<path d="M179.026 65.2757C179.026 65.2757 179.561 67.927 187.358 66.3111C190.771 65.6029 188.696 68.299 185.254 69.9149C182.412 71.2372 176.041 71.5801 175.934 69.749C175.666 65.0202 179.289 66.459 179.026 65.2757ZM179.026 65.2757C178.789 64.2089 177.17 63.1622 176.099 60.5535C175.162 58.2742 163.272 40.8043 179.401 43.3996C179.992 43.2763 175.193 27.987 160.1 27.7383C145.006 27.4895 145.506 46.3848 145.506 46.3848" stroke="white" stroke-width="1.07825" stroke-linecap="round" stroke-linejoin="bevel"/>
<path d="M154.287 66.8886C152.183 69.2485 152.801 69.6676 148.598 70.535C144.344 71.4157 146.843 72.9846 148.476 73.3947C150.454 73.8922 155.034 74.596 158.124 70.2458C159.065 68.9236 158.119 66.8079 156.826 66.2678C156.201 66.0078 155.364 65.6851 154.291 66.8886H154.287Z" stroke="white" stroke-width="1.07825" stroke-linejoin="round"/>
<path d="M154.148 66.8487C153.936 65.4592 154.603 63.8097 155.314 61.8733C156.385 58.9732 158.884 56.0732 156.883 46.8754C155.41 40.0219 145.51 45.4478 145.506 46.3779C145.501 47.3079 145.952 51.0888 145.341 55.4927C144.537 61.2391 148.977 66.1002 154.092 65.6004" stroke="white" stroke-width="1.07825" stroke-linecap="round" stroke-linejoin="round"/>
<path d="M151.793 46.2411C151.749 46.5593 152.373 47.4065 153.183 47.5186C153.993 47.6306 154.689 46.9695 154.731 46.6535C154.774 46.3375 154.151 45.9856 153.339 45.8691C152.527 45.7525 151.833 45.9206 151.791 46.2389L151.793 46.2411Z" fill="white" stroke="white" stroke-width="0.359833"/>
<path d="M176.499 45.5927C176.544 45.911 175.919 46.7582 175.109 46.8702C174.3 46.9823 173.604 46.3211 173.559 46.0051C173.514 45.6891 174.139 45.3373 174.951 45.2252C175.763 45.1131 176.457 45.2767 176.501 45.595L176.499 45.5927Z" fill="white" stroke="white" stroke-width="0.179294"/>
<path d="M179.401 43.3965C179.535 45.8842 178.866 47.583 178.783 50.2321C178.658 54.0869 180.613 58.4953 177.668 62.9104" stroke="white" stroke-width="1.07825" stroke-linecap="round" stroke-linejoin="round"/>
</svg>
