<?xml version="1.0"?>
<svg xmlns="http://www.w3.org/2000/svg" width="320" height="160" viewBox="0 0 320 160" fill="none">
<path d="M262.623 126.825C260.851 126.825 259.223 126.481 257.74 125.794C256.257 125.106 255.046 124.166 254.105 122.972C253.165 121.743 252.622 120.35 252.477 118.795V107.672C252.622 106.117 253.165 104.706 254.105 103.44C255.046 102.174 256.257 101.18 257.74 100.456C259.223 99.7328 260.851 99.3711 262.623 99.3711C265.119 99.3711 267.325 99.9679 269.242 101.162C271.196 102.355 272.715 103.983 273.8 106.045C274.921 108.106 275.482 110.457 275.482 113.098C275.482 115.738 274.921 118.089 273.8 120.151C272.715 122.213 271.196 123.84 269.242 125.034C267.325 126.228 265.119 126.825 262.623 126.825ZM261.104 119.337C262.298 119.337 263.329 119.066 264.197 118.523C265.101 117.981 265.806 117.239 266.313 116.299C266.819 115.358 267.072 114.291 267.072 113.098C267.072 111.868 266.819 110.783 266.313 109.842C265.806 108.902 265.101 108.179 264.197 107.672C263.329 107.13 262.316 106.858 261.158 106.858C260.001 106.858 258.97 107.13 258.066 107.672C257.198 108.179 256.51 108.902 256.004 109.842C255.498 110.783 255.244 111.868 255.244 113.098C255.244 114.291 255.48 115.358 255.95 116.299C256.456 117.239 257.162 117.981 258.066 118.523C258.97 119.066 259.983 119.337 261.104 119.337ZM247.432 137.404V99.9137H255.733V106.696L254.376 113.098L255.624 119.5V137.404H247.432Z" fill="url(#paint0_linear_715_13506)"/>
<path d="M230.356 126.825C228.583 126.825 226.956 126.481 225.473 125.794C223.99 125.106 222.778 124.166 221.838 122.972C220.897 121.743 220.355 120.35 220.21 118.795V107.672C220.355 106.117 220.897 104.706 221.838 103.44C222.778 102.174 223.99 101.18 225.473 100.456C226.956 99.7328 228.583 99.3711 230.356 99.3711C232.851 99.3711 235.058 99.9679 236.975 101.162C238.928 102.355 240.447 103.983 241.532 106.045C242.654 108.106 243.214 110.457 243.214 113.098C243.214 115.738 242.654 118.089 241.532 120.151C240.447 122.213 238.928 123.84 236.975 125.034C235.058 126.228 232.851 126.825 230.356 126.825ZM228.837 119.337C230.03 119.337 231.061 119.066 231.929 118.523C232.833 117.981 233.539 117.239 234.045 116.299C234.551 115.358 234.805 114.291 234.805 113.098C234.805 111.868 234.551 110.783 234.045 109.842C233.539 108.902 232.833 108.179 231.929 107.672C231.061 107.13 230.048 106.858 228.891 106.858C227.733 106.858 226.702 107.13 225.798 107.672C224.93 108.179 224.243 108.902 223.736 109.842C223.23 110.783 222.977 111.868 222.977 113.098C222.977 114.291 223.212 115.358 223.682 116.299C224.189 117.239 224.894 117.981 225.798 118.523C226.702 119.066 227.715 119.337 228.837 119.337ZM215.164 137.404V99.9137H223.465V106.696L222.109 113.098L223.357 119.5V137.404H215.164Z" fill="url(#paint1_linear_715_13506)"/>
<path d="M173.521 126.281L188.713 87.9766H196.417L211.446 126.281H202.44L190.938 94.4873H194.03L182.365 126.281H173.521ZM182.148 119.336V112.392H203.037V119.336H182.148Z" fill="url(#paint2_linear_715_13506)"/>
<path d="M149.768 126.823C147.995 126.823 146.368 126.461 144.885 125.738C143.402 124.978 142.19 123.984 141.25 122.754C140.309 121.488 139.767 120.077 139.622 118.522V107.399C139.767 105.844 140.309 104.47 141.25 103.276C142.19 102.046 143.402 101.088 144.885 100.4C146.368 99.7131 147.995 99.3695 149.768 99.3695C152.264 99.3695 154.47 99.9663 156.387 101.16C158.34 102.354 159.859 103.981 160.944 106.043C162.066 108.105 162.626 110.456 162.626 113.096C162.626 115.737 162.066 118.088 160.944 120.149C159.859 122.211 158.34 123.839 156.387 125.032C154.47 126.226 152.264 126.823 149.768 126.823ZM148.303 119.336C149.46 119.336 150.473 119.064 151.341 118.522C152.245 117.979 152.951 117.238 153.457 116.297C153.964 115.357 154.217 114.29 154.217 113.096C154.217 111.866 153.964 110.781 153.457 109.841C152.951 108.9 152.245 108.177 151.341 107.671C150.473 107.128 149.46 106.857 148.303 106.857C147.145 106.857 146.115 107.128 145.21 107.671C144.306 108.177 143.601 108.9 143.094 109.841C142.624 110.781 142.389 111.866 142.389 113.096C142.389 114.326 142.642 115.411 143.149 116.352C143.655 117.292 144.342 118.033 145.21 118.576C146.115 119.082 147.145 119.336 148.303 119.336ZM134.576 126.28V86.8906H142.877V106.368L141.521 112.771L142.769 119.173V126.28H134.576Z" fill="url(#paint3_linear_715_13506)"/>
<path d="M117.873 126.878C115.015 126.878 112.465 126.3 110.223 125.142C108.016 123.949 106.28 122.303 105.014 120.205C103.748 118.107 103.115 115.738 103.115 113.097C103.115 110.457 103.73 108.106 104.96 106.044C106.226 103.946 107.926 102.3 110.06 101.107C112.194 99.9132 114.599 99.3164 117.276 99.3164C119.88 99.3164 122.177 99.877 124.166 100.998C126.156 102.12 127.711 103.675 128.832 105.664C129.99 107.654 130.569 109.932 130.569 112.501C130.569 112.971 130.533 113.477 130.46 114.02C130.424 114.526 130.334 115.123 130.189 115.81L107.456 115.864V110.168L126.662 110.113L123.081 112.501C123.045 110.981 122.81 109.734 122.376 108.757C121.942 107.744 121.291 106.985 120.423 106.478C119.591 105.936 118.56 105.664 117.33 105.664C116.028 105.664 114.889 105.972 113.912 106.587C112.972 107.165 112.23 107.997 111.688 109.082C111.181 110.168 110.928 111.488 110.928 113.043C110.928 114.598 111.199 115.937 111.742 117.058C112.321 118.143 113.116 118.993 114.129 119.608C115.178 120.187 116.408 120.476 117.819 120.476C119.121 120.476 120.296 120.259 121.345 119.825C122.394 119.355 123.316 118.668 124.112 117.763L128.67 122.321C127.368 123.84 125.794 124.979 123.949 125.739C122.105 126.499 120.079 126.878 117.873 126.878Z" fill="url(#paint4_linear_715_13506)"/>
<path d="M64.1891 126.281L51.873 87.9766H60.337L69.3434 117.437H66.0338L74.8233 87.9766H81.4967L90.2862 117.437H87.0308L95.983 87.9766H104.393L92.0766 126.281H85.4031L76.5594 96.8203H79.7063L70.8626 126.281H64.1891Z" fill="url(#paint5_linear_715_13506)"/>
<path d="M291.687 62.3139C288.83 62.3139 286.28 61.7352 284.037 60.5777C281.831 59.3841 280.095 57.7383 278.829 55.6404C277.563 53.5425 276.93 51.1734 276.93 48.5329C276.93 45.8925 277.545 43.5414 278.774 41.4797C280.04 39.3818 281.74 37.736 283.874 36.5424C286.008 35.3488 288.414 34.752 291.09 34.752C293.695 34.752 295.992 35.3126 297.981 36.4339C299.97 37.5552 301.526 39.1105 302.647 41.0999C303.804 43.0893 304.383 45.368 304.383 47.9361C304.383 48.4063 304.347 48.9127 304.275 49.4553C304.238 49.9617 304.148 50.5585 304.003 51.2457L281.27 51.3V45.6031L300.477 45.5489L296.896 47.9361C296.86 46.417 296.625 45.1691 296.19 44.1925C295.756 43.1797 295.105 42.4201 294.237 41.9137C293.405 41.3712 292.375 41.0999 291.145 41.0999C289.843 41.0999 288.703 41.4073 287.727 42.0222C286.786 42.601 286.045 43.4329 285.502 44.518C284.996 45.6031 284.743 46.9233 284.743 48.4787C284.743 50.034 285.014 51.3723 285.556 52.4936C286.135 53.5787 286.931 54.4287 287.944 55.0436C288.993 55.6224 290.222 55.9117 291.633 55.9117C292.935 55.9117 294.111 55.6947 295.16 55.2606C296.209 54.7904 297.131 54.1032 297.927 53.1989L302.484 57.7564C301.182 59.2756 299.609 60.4149 297.764 61.1745C295.919 61.9341 293.894 62.3139 291.687 62.3139Z" fill="url(#paint6_linear_715_13506)"/>
<path d="M258.567 61.716L247.391 35.3477H256.343L263.939 57.3213H260.032L267.628 35.3477H276.417L265.241 61.6617L258.567 61.716Z" fill="url(#paint7_linear_715_13506)"/>
<path d="M236.12 61.7161V35.3478H244.422V61.7161H236.12ZM240.298 31.7126C238.996 31.7126 237.911 31.2786 237.043 30.4105C236.211 29.5062 235.795 28.4211 235.795 27.1551C235.795 25.853 236.211 24.7679 237.043 23.8998C237.911 23.0317 238.996 22.5977 240.298 22.5977C241.6 22.5977 242.667 23.0317 243.499 23.8998C244.331 24.7679 244.747 25.853 244.747 27.1551C244.747 28.4211 244.331 29.5062 243.499 30.4105C242.667 31.2786 241.6 31.7126 240.298 31.7126Z" fill="url(#paint8_linear_715_13506)"/>
<path d="M220.873 62.3669C219.318 62.3669 217.78 62.1679 216.261 61.77C214.778 61.3722 213.386 60.8115 212.083 60.0881C210.818 59.3285 209.732 58.4604 208.828 57.4838L213.548 52.7093C214.416 53.6498 215.447 54.3913 216.641 54.9338C217.835 55.4402 219.137 55.6934 220.547 55.6934C221.524 55.6934 222.265 55.5487 222.772 55.2593C223.314 54.97 223.586 54.5721 223.586 54.0657C223.586 53.4147 223.26 52.9263 222.609 52.6008C221.994 52.2391 221.198 51.9317 220.222 51.6785C219.245 51.3891 218.214 51.0817 217.129 50.7561C216.044 50.4306 215.013 49.9784 214.037 49.3997C213.06 48.821 212.264 48.0252 211.649 47.0125C211.035 45.9635 210.727 44.6433 210.727 43.0518C210.727 41.3518 211.161 39.8869 212.029 38.6571C212.897 37.3911 214.127 36.3964 215.719 35.673C217.31 34.9496 219.173 34.5879 221.307 34.5879C223.55 34.5879 225.611 34.9858 227.492 35.7815C229.409 36.5411 230.964 37.6805 232.158 39.1996L227.438 43.9741C226.606 42.9975 225.666 42.3103 224.617 41.9124C223.604 41.5145 222.609 41.3156 221.632 41.3156C220.692 41.3156 219.987 41.4603 219.517 41.7497C219.046 42.0028 218.811 42.3826 218.811 42.889C218.811 43.4316 219.119 43.8656 219.734 44.1912C220.348 44.5167 221.144 44.8061 222.121 45.0593C223.097 45.3125 224.128 45.6199 225.213 45.9816C226.299 46.3433 227.329 46.8316 228.306 47.4465C229.283 48.0614 230.078 48.8933 230.693 49.9423C231.308 50.9551 231.616 52.2934 231.616 53.9572C231.616 56.5253 230.639 58.569 228.686 60.0881C226.769 61.6073 224.164 62.3669 220.873 62.3669Z" fill="url(#paint9_linear_715_13506)"/>
<path d="M196.023 62.3669C194.468 62.3669 192.931 62.1679 191.412 61.77C189.929 61.3722 188.536 60.8115 187.234 60.0881C185.968 59.3285 184.883 58.4604 183.979 57.4838L188.699 52.7093C189.567 53.6498 190.598 54.3913 191.791 54.9338C192.985 55.4402 194.287 55.6934 195.698 55.6934C196.674 55.6934 197.416 55.5487 197.922 55.2593C198.465 54.97 198.736 54.5721 198.736 54.0657C198.736 53.4147 198.411 52.9263 197.759 52.6008C197.145 52.2391 196.349 51.9317 195.372 51.6785C194.396 51.3891 193.365 51.0817 192.28 50.7561C191.195 50.4306 190.164 49.9784 189.187 49.3997C188.21 48.821 187.415 48.0252 186.8 47.0125C186.185 45.9635 185.877 44.6433 185.877 43.0518C185.877 41.3518 186.312 39.8869 187.18 38.6571C188.048 37.3911 189.278 36.3964 190.869 35.673C192.461 34.9496 194.323 34.5879 196.457 34.5879C198.7 34.5879 200.762 34.9858 202.643 35.7815C204.56 36.5411 206.115 37.6805 207.309 39.1996L202.588 43.9741C201.756 42.9975 200.816 42.3103 199.767 41.9124C198.754 41.5145 197.759 41.3156 196.783 41.3156C195.842 41.3156 195.137 41.4603 194.667 41.7497C194.197 42.0028 193.962 42.3826 193.962 42.889C193.962 43.4316 194.269 43.8656 194.884 44.1912C195.499 44.5167 196.295 44.8061 197.271 45.0593C198.248 45.3125 199.279 45.6199 200.364 45.9816C201.449 46.3433 202.48 46.8316 203.456 47.4465C204.433 48.0614 205.229 48.8933 205.844 49.9423C206.459 50.9551 206.766 52.2934 206.766 53.9572C206.766 56.5253 205.789 58.569 203.836 60.0881C201.919 61.6073 199.315 62.3669 196.023 62.3669Z" fill="url(#paint10_linear_715_13506)"/>
<path d="M169.719 62.3139C166.861 62.3139 164.311 61.7352 162.068 60.5777C159.862 59.3841 158.126 57.7383 156.86 55.6404C155.594 53.5425 154.961 51.1734 154.961 48.5329C154.961 45.8925 155.576 43.5414 156.806 41.4797C158.072 39.3818 159.772 37.736 161.906 36.5424C164.04 35.3488 166.445 34.752 169.122 34.752C171.726 34.752 174.023 35.3126 176.012 36.4339C178.002 37.5552 179.557 39.1105 180.678 41.0999C181.836 43.0893 182.414 45.368 182.414 47.9361C182.414 48.4063 182.378 48.9127 182.306 49.4553C182.27 49.9617 182.179 50.5585 182.035 51.2457L159.301 51.3V45.6031L178.508 45.5489L174.927 47.9361C174.891 46.417 174.656 45.1691 174.222 44.1925C173.788 43.1797 173.137 42.4201 172.269 41.9137C171.437 41.3712 170.406 41.0999 169.176 41.0999C167.874 41.0999 166.734 41.4073 165.758 42.0222C164.817 42.601 164.076 43.4329 163.533 44.518C163.027 45.6031 162.774 46.9233 162.774 48.4787C162.774 50.034 163.045 51.3723 163.588 52.4936C164.166 53.5787 164.962 54.4287 165.975 55.0436C167.024 55.6224 168.254 55.9117 169.664 55.9117C170.966 55.9117 172.142 55.6947 173.191 55.2606C174.24 54.7904 175.162 54.1032 175.958 53.1989L180.515 57.7564C179.213 59.2756 177.64 60.4149 175.795 61.1745C173.95 61.9341 171.925 62.3139 169.719 62.3139Z" fill="url(#paint11_linear_715_13506)"/>
<path d="M134.285 61.7156V35.3472H142.586V61.7156H134.285ZM142.586 47.2293L139.114 44.5165C139.801 41.442 140.959 39.0547 142.586 37.3547C144.214 35.6547 146.475 34.8047 149.368 34.8047C150.634 34.8047 151.737 35.0036 152.678 35.4015C153.654 35.7632 154.504 36.3419 155.228 37.1377L150.291 43.3771C149.929 42.9792 149.477 42.6718 148.934 42.4548C148.392 42.2377 147.777 42.1292 147.09 42.1292C145.715 42.1292 144.612 42.5633 143.78 43.4314C142.984 44.2633 142.586 45.5292 142.586 47.2293Z" fill="url(#paint12_linear_715_13506)"/>
<path d="M113.776 73.5433C110.883 73.5433 108.332 73.0369 106.126 72.0242C103.956 71.0476 102.238 69.655 100.972 67.8465L106.072 62.7464C107.012 63.8677 108.061 64.7177 109.219 65.2965C110.412 65.8752 111.841 66.1645 113.505 66.1645C115.567 66.1645 117.176 65.6582 118.334 64.6454C119.527 63.6326 120.124 62.2039 120.124 60.3592V53.6315L121.535 47.8803L120.287 42.1292V35.3472H128.425V60.1422C128.425 62.8549 127.792 65.206 126.526 67.1954C125.26 69.1848 123.524 70.7401 121.318 71.8614C119.111 72.9827 116.597 73.5433 113.776 73.5433ZM113.396 60.9017C110.973 60.9017 108.821 60.323 106.94 59.1655C105.059 58.0081 103.576 56.4347 102.491 54.4453C101.406 52.4559 100.863 50.2495 100.863 47.8261C100.863 45.3665 101.406 43.1601 102.491 41.2069C103.576 39.2175 105.059 37.6622 106.94 36.5409C108.821 35.3834 110.973 34.8047 113.396 34.8047C115.205 34.8047 116.814 35.1483 118.225 35.8355C119.672 36.4866 120.829 37.4271 121.698 38.6569C122.602 39.8505 123.108 41.243 123.217 42.8345V52.8719C123.108 54.4272 122.602 55.8198 121.698 57.0496C120.829 58.2432 119.672 59.1836 118.225 59.8709C116.778 60.5581 115.169 60.9017 113.396 60.9017ZM114.97 53.5229C116.127 53.5229 117.122 53.2697 117.954 52.7634C118.822 52.257 119.473 51.5878 119.907 50.7559C120.377 49.8878 120.612 48.9112 120.612 47.8261C120.612 46.741 120.377 45.7644 119.907 44.8963C119.473 44.0282 118.822 43.3409 117.954 42.8345C117.122 42.3282 116.127 42.075 114.97 42.075C113.849 42.075 112.854 42.3282 111.986 42.8345C111.118 43.3409 110.448 44.0282 109.978 44.8963C109.508 45.7644 109.273 46.741 109.273 47.8261C109.273 48.8389 109.508 49.7974 109.978 50.7016C110.448 51.5697 111.1 52.257 111.931 52.7634C112.8 53.2697 113.812 53.5229 114.97 53.5229Z" fill="url(#paint13_linear_715_13506)"/>
<path d="M84.0356 62.3139C81.3228 62.3139 78.8632 61.7171 76.6568 60.5235C74.4865 59.2937 72.7684 57.6298 71.5025 55.5319C70.2365 53.434 69.6035 51.0829 69.6035 48.4787C69.6035 45.8744 70.2365 43.5414 71.5025 41.4797C72.7684 39.418 74.4865 37.7903 76.6568 36.5966C78.827 35.3669 81.2866 34.752 84.0356 34.752C86.7845 34.752 89.2441 35.3488 91.4144 36.5424C93.5846 37.736 95.3027 39.3818 96.5687 41.4797C97.8346 43.5414 98.4676 45.8744 98.4676 48.4787C98.4676 51.0829 97.8346 53.434 96.5687 55.5319C95.3027 57.6298 93.5846 59.2937 91.4144 60.5235C89.2441 61.7171 86.7845 62.3139 84.0356 62.3139ZM84.0356 54.7723C85.2292 54.7723 86.2781 54.5192 87.1824 54.0128C88.0867 53.4702 88.7739 52.7287 89.2441 51.7883C89.7505 50.8117 90.0037 49.7085 90.0037 48.4787C90.0037 47.2489 89.7505 46.1818 89.2441 45.2776C88.7377 44.3371 88.0324 43.6137 87.1281 43.1073C86.26 42.5648 85.2292 42.2935 84.0356 42.2935C82.8781 42.2935 81.8472 42.5648 80.943 43.1073C80.0387 43.6137 79.3334 44.3371 78.827 45.2776C78.3206 46.218 78.0674 47.3031 78.0674 48.5329C78.0674 49.7266 78.3206 50.8117 78.827 51.7883C79.3334 52.7287 80.0387 53.4702 80.943 54.0128C81.8472 54.5192 82.8781 54.7723 84.0356 54.7723Z" fill="url(#paint14_linear_715_13506)"/>
<path d="M48.9277 61.7156V35.3472H57.2289V61.7156H48.9277ZM57.2289 47.2293L53.7565 44.5165C54.4437 41.442 55.6012 39.0547 57.2289 37.3547C58.8565 35.6547 61.1172 34.8047 64.0108 34.8047C65.2768 34.8047 66.38 35.0036 67.3205 35.4015C68.2971 35.7632 69.1471 36.3419 69.8705 37.1377L64.9332 43.3771C64.5715 42.9792 64.1194 42.6718 63.5768 42.4548C63.0342 42.2377 62.4193 42.1292 61.7321 42.1292C60.3576 42.1292 59.2544 42.5633 58.4225 43.4314C57.6267 44.2633 57.2289 45.5292 57.2289 47.2293Z" fill="url(#paint15_linear_715_13506)"/>
<path d="M22.1279 47.773V41.1538H30.3748C31.4237 41.1538 32.3822 40.9367 33.2503 40.5027C34.1184 40.0686 34.8057 39.4357 35.312 38.6037C35.8184 37.7718 36.0716 36.759 36.0716 35.5654C36.0716 34.408 35.8184 33.4133 35.312 32.5813C34.8057 31.7494 34.1184 31.1164 33.2503 30.6824C32.3822 30.2483 31.4237 30.0313 30.3748 30.0313H22.1279V23.4121H31.6226C34.0461 23.4121 36.2344 23.9004 38.1876 24.877C40.1408 25.8536 41.6781 27.2643 42.7993 29.109C43.9568 30.9175 44.5355 33.0696 44.5355 35.5654C44.5355 38.0612 43.9568 40.2314 42.7993 42.0761C41.6781 43.8846 40.1408 45.2953 38.1876 46.3081C36.2344 47.2847 34.0461 47.773 31.6226 47.773H22.1279ZM15.6172 61.7167V23.4121H24.1353V61.7167H15.6172Z" fill="url(#paint16_linear_715_13506)"/>
<defs>
<linearGradient id="paint0_linear_715_13506" x1="163.86" y1="9.08949" x2="163.86" y2="138.761" gradientUnits="userSpaceOnUse">
<stop stop-color="#2293E5"/>
<stop offset="1" stop-color="#3350B5"/>
</linearGradient>
<linearGradient id="paint1_linear_715_13506" x1="163.859" y1="9.08949" x2="163.859" y2="138.761" gradientUnits="userSpaceOnUse">
<stop stop-color="#2293E5"/>
<stop offset="1" stop-color="#3350B5"/>
</linearGradient>
<linearGradient id="paint2_linear_715_13506" x1="163.859" y1="9.08869" x2="163.859" y2="138.76" gradientUnits="userSpaceOnUse">
<stop stop-color="#2293E5"/>
<stop offset="1" stop-color="#3350B5"/>
</linearGradient>
<linearGradient id="paint3_linear_715_13506" x1="163.861" y1="9.08785" x2="163.861" y2="138.759" gradientUnits="userSpaceOnUse">
<stop stop-color="#2293E5"/>
<stop offset="1" stop-color="#3350B5"/>
</linearGradient>
<linearGradient id="paint4_linear_715_13506" x1="163.86" y1="9.08911" x2="163.86" y2="138.76" gradientUnits="userSpaceOnUse">
<stop stop-color="#2293E5"/>
<stop offset="1" stop-color="#3350B5"/>
</linearGradient>
<linearGradient id="paint5_linear_715_13506" x1="163.86" y1="9.08869" x2="163.86" y2="138.76" gradientUnits="userSpaceOnUse">
<stop stop-color="#2293E5"/>
<stop offset="1" stop-color="#3350B5"/>
</linearGradient>
<linearGradient id="paint6_linear_715_13506" x1="163.86" y1="9.08906" x2="163.86" y2="138.76" gradientUnits="userSpaceOnUse">
<stop stop-color="#2293E5"/>
<stop offset="1" stop-color="#3350B5"/>
</linearGradient>
<linearGradient id="paint7_linear_715_13506" x1="163.86" y1="9.0879" x2="163.86" y2="138.759" gradientUnits="userSpaceOnUse">
<stop stop-color="#2293E5"/>
<stop offset="1" stop-color="#3350B5"/>
</linearGradient>
<linearGradient id="paint8_linear_715_13506" x1="163.861" y1="9.08802" x2="163.861" y2="138.759" gradientUnits="userSpaceOnUse">
<stop stop-color="#2293E5"/>
<stop offset="1" stop-color="#3350B5"/>
</linearGradient>
<linearGradient id="paint9_linear_715_13506" x1="163.859" y1="9.08767" x2="163.859" y2="138.759" gradientUnits="userSpaceOnUse">
<stop stop-color="#2293E5"/>
<stop offset="1" stop-color="#3350B5"/>
</linearGradient>
<linearGradient id="paint10_linear_715_13506" x1="163.859" y1="9.08767" x2="163.859" y2="138.759" gradientUnits="userSpaceOnUse">
<stop stop-color="#2293E5"/>
<stop offset="1" stop-color="#3350B5"/>
</linearGradient>
<linearGradient id="paint11_linear_715_13506" x1="163.861" y1="9.08906" x2="163.861" y2="138.76" gradientUnits="userSpaceOnUse">
<stop stop-color="#2293E5"/>
<stop offset="1" stop-color="#3350B5"/>
</linearGradient>
<linearGradient id="paint12_linear_715_13506" x1="163.861" y1="9.08749" x2="163.861" y2="138.759" gradientUnits="userSpaceOnUse">
<stop stop-color="#2293E5"/>
<stop offset="1" stop-color="#3350B5"/>
</linearGradient>
<linearGradient id="paint13_linear_715_13506" x1="163.86" y1="9.08749" x2="163.86" y2="138.759" gradientUnits="userSpaceOnUse">
<stop stop-color="#2293E5"/>
<stop offset="1" stop-color="#3350B5"/>
</linearGradient>
<linearGradient id="paint14_linear_715_13506" x1="163.861" y1="9.08906" x2="163.861" y2="138.76" gradientUnits="userSpaceOnUse">
<stop stop-color="#2293E5"/>
<stop offset="1" stop-color="#3350B5"/>
</linearGradient>
<linearGradient id="paint15_linear_715_13506" x1="163.861" y1="9.08749" x2="163.861" y2="138.759" gradientUnits="userSpaceOnUse">
<stop stop-color="#2293E5"/>
<stop offset="1" stop-color="#3350B5"/>
</linearGradient>
<linearGradient id="paint16_linear_715_13506" x1="163.86" y1="9.08863" x2="163.86" y2="138.76" gradientUnits="userSpaceOnUse">
<stop stop-color="#2293E5"/>
<stop offset="1" stop-color="#3350B5"/>
</linearGradient>
</defs>
</svg>
