<?xml version="1.0"?>
<svg xmlns="http://www.w3.org/2000/svg" width="320" height="160" viewBox="0 0 320 160" fill="none">
<g clip-path="url(#clip0_467_27933)">
<path d="M125.551 74.0376C125.551 66.0866 123.105 62.0073 118.205 61.7826C116.255 61.6962 114.351 61.9814 112.503 62.6469C111.028 63.1395 110.029 63.6235 109.507 64.1074V83.0863C112.643 84.9099 115.424 85.7568 117.841 85.6186C122.984 85.3074 125.551 81.4442 125.551 74.0376ZM131.589 74.3661C131.589 78.4021 130.563 81.7554 128.509 84.4259C126.213 87.4421 123.04 88.9978 118.971 89.0842C115.909 89.1706 112.745 88.2891 109.507 86.4223V103.673L104.252 101.936V63.6494C105.111 62.6728 106.221 61.8258 107.565 61.1171C110.692 59.4319 114.491 58.559 118.961 58.5158L119.036 58.5849C123.124 58.533 126.269 60.0887 128.481 63.2432C130.563 66.1298 131.589 69.8374 131.589 74.3661ZM163.705 85.6877C163.705 91.1065 163.117 94.8574 161.951 96.9488C160.775 99.0317 158.535 100.7 155.221 101.944C152.533 102.921 149.631 103.457 146.513 103.543L145.645 100.475C148.809 100.077 151.04 99.6799 152.337 99.2737C154.885 98.4786 156.631 97.2513 157.592 95.6093C158.367 94.2697 158.74 91.7201 158.74 87.952V86.6816C155.147 88.194 151.385 88.9459 147.447 88.9459C144.861 88.9459 142.575 88.194 140.615 86.6816C138.412 85.0395 137.301 82.948 137.301 80.4244V60.1838L142.556 58.5158V78.8947C142.556 81.0726 143.312 82.7493 144.833 83.9246C146.355 85.1 148.315 85.6618 150.723 85.6186C153.131 85.5667 155.707 84.7111 158.451 83.0172V59.2504H163.705V85.6877ZM184.229 88.8163C183.604 88.8681 183.025 88.8854 182.503 88.8854C179.535 88.8854 177.211 88.2286 175.559 86.9149C173.907 85.6013 173.085 83.7864 173.085 81.4702V62.3098H169.483V59.2504H173.085V51.1265L178.331 49.398V59.2504H184.229V62.3098H178.331V81.3405C178.331 83.1641 178.863 84.4605 179.917 85.2124C180.823 85.8346 182.269 86.189 184.229 86.284V88.8163ZM216.009 88.4187H210.755V69.6386C210.755 67.7286 210.269 66.0866 209.308 64.7124C208.197 63.1568 206.657 62.379 204.679 62.379C202.271 62.379 199.256 63.5543 195.644 65.9051V88.4101H190.389V43.5297L195.653 42V62.4394C199.013 60.1751 202.672 59.043 206.667 59.043C209.448 59.043 211.697 59.9072 213.424 61.6443C215.151 63.3728 216.019 65.5335 216.019 68.1003L216.009 88.4187ZM243.963 73.2685C243.963 70.2177 243.337 67.6941 242.087 65.6977C240.603 63.2691 238.297 61.9814 235.18 61.8518C229.421 62.1629 226.547 65.9829 226.547 73.303C226.547 76.665 227.144 79.4651 228.348 81.7208C229.888 84.5901 232.203 86.0075 235.283 85.9556C241.069 85.9124 243.963 81.6862 243.963 73.2685ZM249.712 73.303C249.712 77.6502 248.508 81.2714 246.109 84.158C243.468 87.3903 239.828 89.015 235.18 89.015C230.569 89.015 226.976 87.3903 224.381 84.158C222.029 81.2714 220.863 77.6502 220.863 73.303C220.863 69.2151 222.132 65.7754 224.671 62.9753C227.359 60.0023 230.887 58.5158 235.245 58.5158C239.604 58.5158 243.16 60.0023 245.895 62.9753C248.433 65.7754 249.703 69.2151 249.712 73.303ZM279.812 88.4187H274.557V68.5756C274.557 66.3977 273.848 64.7038 272.439 63.4765C271.02 62.258 269.144 61.6703 266.792 61.7135C264.3 61.7567 261.92 62.5086 259.671 63.9778V88.4187H254.416V63.3728C257.44 61.3332 260.221 60.0023 262.76 59.38C265.159 58.801 267.268 58.5158 269.097 58.5158C270.348 58.5158 271.515 58.6281 272.616 58.8528C274.679 59.2936 276.359 60.1146 277.647 61.3159C279.093 62.6469 279.812 64.2457 279.812 66.1125V88.4187Z" fill="#646464"/>
<path d="M52.3871 43.7112C49.6805 43.7199 47.1045 43.9359 44.8365 44.3075C38.1445 45.4051 36.9311 47.6954 36.9311 51.9216V57.5046H52.7418V59.3627H30.9858C26.3938 59.3627 22.3618 61.9209 21.1111 66.7866C19.6551 72.361 19.5991 75.8439 21.1111 81.669C22.2311 86.0075 24.9191 89.0928 29.5111 89.0928H34.9431V82.4036C34.9431 77.5724 39.4605 73.303 44.8178 73.303H60.6098C65.0058 73.303 68.5152 69.9498 68.5152 65.8705V51.9216C68.5152 47.9547 64.9032 44.973 60.6098 44.3075C57.9032 43.8927 55.0845 43.7026 52.3871 43.7112ZM43.8378 48.2053C45.4711 48.2053 46.8058 49.4585 46.8058 51.0055C46.8058 52.5438 45.4711 53.7883 43.8378 53.7883C42.1951 53.7883 40.8698 52.5438 40.8698 51.0055C40.8698 49.4585 42.1951 48.2053 43.8378 48.2053Z" fill="url(#paint0_linear_467_27933)"/>
<path d="M70.4939 59.3542V65.8533C70.4939 70.8919 65.8832 75.1354 60.6192 75.1354H44.8272C40.5059 75.1354 36.9219 78.5664 36.9219 82.5679V96.5082C36.9219 100.475 40.6459 102.809 44.8272 103.941C49.8299 105.306 54.6365 105.548 60.6192 103.941C64.5952 102.878 68.5245 100.726 68.5245 96.5082V90.9251H52.7419V89.067H76.4392C81.0312 89.067 82.7485 86.1027 84.3445 81.6431C85.9965 77.054 85.9219 72.6463 84.3445 66.7608C83.2059 62.526 81.0405 59.3369 76.4392 59.3369L70.4939 59.3542ZM61.6179 94.6673C63.2605 94.6673 64.5859 95.9119 64.5859 97.4502C64.5859 98.9972 63.2605 100.25 61.6179 100.25C59.9845 100.25 58.6499 98.9972 58.6499 97.4502C58.6499 95.9032 59.9845 94.6673 61.6179 94.6673Z" fill="url(#paint1_linear_467_27933)"/>
<path d="M290.069 54.9116H290.993V49.5619H293.177V48.9224H287.895V49.5619H290.079L290.069 54.9116ZM293.989 54.9116H294.773V50.0286L296.481 54.9116H297.359L299.141 50.0459V54.9116H300V48.931H298.861L296.92 54.056L295.259 48.931H293.989V54.9116Z" fill="#646464"/>
<path opacity="0.4438" d="M74.1155 113.447C74.1155 115.547 64.6329 117.25 52.9289 117.25C41.2249 117.25 31.7422 115.547 31.7422 113.447C31.7422 111.347 41.2249 109.645 52.9289 109.645C64.6329 109.645 74.1155 111.347 74.1155 113.447Z" fill="url(#paint2_radial_467_27933)"/>
</g>
<defs>
<linearGradient id="paint0_linear_467_27933" x1="18.391" y1="45.4607" x2="52.4773" y2="76.8174" gradientUnits="userSpaceOnUse">
<stop stop-color="#5A9FD4"/>
<stop offset="1" stop-color="#306998"/>
</linearGradient>
<linearGradient id="paint1_linear_467_27933" x1="68.5534" y1="92.1572" x2="56.7485" y2="74.3201" gradientUnits="userSpaceOnUse">
<stop stop-color="#FFD43B"/>
<stop offset="1" stop-color="#FFE873"/>
</linearGradient>
<radialGradient id="paint2_radial_467_27933" cx="0" cy="0" r="1" gradientUnits="userSpaceOnUse" gradientTransform="translate(52.9289 113.427) rotate(-90) scale(3.80101 18.0501)">
<stop stop-color="#B8B8B8" stop-opacity="0.498"/>
<stop offset="1" stop-color="#7F7F7F" stop-opacity="0"/>
</radialGradient>
<clipPath id="clip0_467_27933">
<rect width="280" height="75.25" fill="white" transform="translate(20 42)"/>
</clipPath>
</defs>
</svg>
