<?xml version="1.0"?>
<svg xmlns="http://www.w3.org/2000/svg" width="320" height="160" viewBox="0 0 320 160" fill="none">
<path fill-rule="evenodd" clip-rule="evenodd" d="M245.899 110.821V121.39H264.994C268.906 121.39 275.621 118.529 275.855 110.529V106.441C275.855 99.6089 270.249 95.5797 264.994 95.5797H255.475V90.6746H274.337V80.0469H256.234C251.563 80.0469 245.315 83.9009 245.315 91.0833V94.7622C245.315 101.945 251.505 105.623 256.234 105.623C269.373 105.682 253.081 105.623 265.227 105.623V110.762M143.592 108.251C143.592 108.251 153.811 107.375 153.811 94.1782C153.811 80.9812 141.432 79.7549 141.432 79.7549H119.125V121.39H130.337V111.346L140.03 121.39H156.614L143.592 108.251ZM139.271 99.7257H130.337V90.2074H139.329C139.329 90.2074 141.84 91.1417 141.84 94.9374C141.84 98.733 139.271 99.7257 139.271 99.7257ZM181.49 80.0469H170.103C161.986 80.0469 159.242 87.4045 159.242 90.9082V121.39H170.629V114.091H181.315V121.39H192.351V90.9082C192.351 82.0323 184.293 80.0469 181.49 80.0469ZM181.315 102.295H170.57V92.1928C170.57 92.1928 170.57 89.9155 174.132 89.9155H178.045C181.198 89.9155 181.256 92.1928 181.256 92.1928V102.295H181.315Z" fill="#CC0000"/>
<path d="M209.401 80.0498H197.547V121.393H209.401V80.0498Z" fill="#CC0000"/>
<path fill-rule="evenodd" clip-rule="evenodd" d="M226.046 110.707V80.0498H214.25V110.707V121.393H226.046H241.987V110.707H226.046Z" fill="#CC0000"/>
<path fill-rule="evenodd" clip-rule="evenodd" d="M48.7598 121.391H94.8912C94.8912 121.391 86.0736 81.1574 115.271 64.8655C121.636 61.7706 141.898 50.2085 175.066 74.7341C176.117 73.8582 177.11 73.1574 177.11 73.1574C177.11 73.1574 146.745 42.8509 112.935 46.2377C95.9422 47.756 75.0371 63.2304 62.7744 83.6684C50.5116 104.106 48.7598 121.391 48.7598 121.391Z" fill="#CC0000"/>
<path fill-rule="evenodd" clip-rule="evenodd" d="M48.7598 121.391H94.8912C94.8912 121.391 86.0736 81.1574 115.271 64.8655C121.636 61.7706 141.898 50.2085 175.066 74.7341C176.117 73.8582 177.11 73.1574 177.11 73.1574C177.11 73.1574 146.745 42.8509 112.935 46.2377C95.9422 47.756 75.0371 63.2304 62.7744 83.6684C50.5116 104.106 48.7598 121.391 48.7598 121.391Z" fill="#CC0000"/>
<path fill-rule="evenodd" clip-rule="evenodd" d="M48.7598 121.388H94.8912C94.8912 121.388 86.0736 81.1547 115.271 64.8627C121.636 61.7678 141.898 50.2058 175.066 74.7313C176.117 73.8554 177.11 73.1547 177.11 73.1547C177.11 73.1547 146.745 42.8481 112.935 46.235C95.8839 47.7532 74.9787 63.2277 62.716 83.6656C50.4532 104.104 48.7598 121.388 48.7598 121.388ZM144.877 49.505L145.11 45.5926C144.585 45.3007 143.125 44.5999 139.446 43.5488L139.212 47.4028C141.139 48.0452 143.008 48.7459 144.877 49.505Z" fill="#CC0000"/>
<path fill-rule="evenodd" clip-rule="evenodd" d="M139.329 61.8865L139.095 65.5653C141.022 65.6237 142.949 65.8573 144.876 66.2661L145.11 62.6456C143.124 62.2369 141.197 62.0033 139.329 61.8865ZM117.723 43.6675H118.307L117.139 40.1055C115.329 40.1055 113.46 40.2223 111.533 40.4558L112.643 43.9011C114.336 43.7259 116.03 43.6675 117.723 43.6675ZM120.526 65.1566L121.869 69.1858C123.562 68.3682 125.256 67.6675 126.949 67.142L125.665 63.288C123.679 63.8719 121.986 64.5142 120.526 65.1566ZM94.0149 49.7989L91.3872 45.7697C89.9274 46.5288 88.4091 47.3463 86.8325 48.2807L89.5186 52.3682C91.0368 51.4339 92.4967 50.558 94.0149 49.7989ZM105.986 76.0763L108.789 80.2807C109.781 78.8208 110.949 77.4777 112.234 76.1347L109.606 72.1639C108.263 73.3901 107.037 74.7332 105.986 76.0763ZM97.5186 94.8792L102.249 98.6164C102.482 96.339 102.891 94.0617 103.475 91.7843L99.2704 88.4558C98.5113 90.6164 97.9857 92.777 97.5186 94.8792ZM71.9419 67.142L67.796 63.5215C66.2777 64.9814 64.8179 66.4412 63.4748 67.9011L67.9711 71.7551C69.1974 70.1785 70.5405 68.6018 71.9419 67.142ZM54.3069 93.2442L47.5916 90.7916C46.4821 93.3026 45.2558 96.2223 44.6719 97.7989L51.3872 100.251C52.1463 98.2661 53.3726 95.4047 54.3069 93.2442ZM96.6427 109.711C96.7595 112.806 97.0514 115.317 97.3434 117.069L104.351 119.58C103.825 117.303 103.3 114.733 102.949 111.989L96.6427 109.711Z" fill="#CC0000"/>
</svg>
