<?xml version="1.0"?>
<svg xmlns="http://www.w3.org/2000/svg" width="320" height="160" viewBox="0 0 320 160" fill="none">
<path d="M222.958 66.3921C222.958 58.0044 212.454 50.0553 196.349 45.1259C200.066 28.7114 198.414 15.6522 191.136 11.4711C189.458 10.4904 187.497 10.0258 185.355 10.0258V15.7812C186.542 15.7812 187.497 16.0135 188.297 16.4522C191.807 18.4653 193.33 26.1306 192.142 35.9895C191.859 38.4156 191.394 40.9706 190.826 43.5773C185.767 42.3385 180.244 41.3836 174.437 40.7642C170.953 35.9895 167.34 31.6536 163.701 27.8597C172.115 20.0397 180.012 15.7554 185.381 15.7554V10C178.283 10 168.992 15.0586 159.598 23.8335C150.203 15.1101 140.912 10.1032 133.815 10.1032V15.8586C139.157 15.8586 147.08 20.1171 155.494 27.8855C151.88 31.6795 148.267 35.9895 144.835 40.7642C139.002 41.3836 133.479 42.3385 128.42 43.6031C127.826 41.0223 127.388 38.5188 127.078 36.1186C125.865 26.2596 127.362 18.5943 130.846 16.5555C131.62 16.0909 132.627 15.8845 133.815 15.8845V10.129C131.646 10.129 129.685 10.5936 127.982 11.5744C120.729 15.7554 119.103 28.7888 122.845 45.1517C106.792 50.107 96.3398 58.0304 96.3398 66.3921C96.3398 74.7805 106.844 82.7296 122.949 87.6587C119.232 104.073 120.884 117.132 128.162 121.314C129.84 122.294 131.801 122.759 133.969 122.759C141.067 122.759 150.358 117.7 159.752 108.925C169.146 117.649 178.438 122.656 185.535 122.656C187.703 122.656 189.665 122.191 191.368 121.21C198.62 117.029 200.246 103.996 196.504 87.6333C212.505 82.7036 222.958 74.7545 222.958 66.3921ZM189.355 49.1778C188.4 52.5074 187.213 55.9395 185.871 59.3722C184.813 57.3078 183.703 55.2429 182.49 53.178C181.303 51.1135 180.038 49.1004 178.773 47.139C182.438 47.6809 185.974 48.352 189.355 49.1778ZM177.534 76.6641C175.521 80.1488 173.457 83.4521 171.315 86.5235C167.469 86.8588 163.572 87.0395 159.649 87.0395C155.752 87.0395 151.854 86.8588 148.035 86.5489C145.893 83.4775 143.802 80.2001 141.789 76.7415C139.827 73.3608 138.047 69.9281 136.421 66.4701C138.021 63.0114 139.827 59.5528 141.764 56.1721C143.777 52.6881 145.841 49.3843 147.983 46.3131C151.829 45.9775 155.726 45.7969 159.649 45.7969C163.546 45.7969 167.443 45.9775 171.263 46.2873C173.405 49.3585 175.496 52.6361 177.509 56.0947C179.47 59.4755 181.251 62.9081 182.877 66.3668C181.251 69.8248 179.47 73.2834 177.534 76.6641ZM185.871 73.3094C187.225 76.6728 188.414 80.1008 189.433 83.5808C186.051 84.4067 182.49 85.1038 178.799 85.6457C180.064 83.6587 181.328 81.6198 182.516 79.5289C183.703 77.4646 184.813 75.3737 185.871 73.3094ZM159.7 100.847C157.3 98.3693 154.9 95.6078 152.526 92.5884C154.849 92.6917 157.223 92.769 159.623 92.769C162.049 92.769 164.449 92.7177 166.798 92.5884C164.583 95.4673 162.213 98.2243 159.7 100.847ZM140.499 85.6457C136.834 85.1038 133.298 84.4326 129.917 83.6068C130.872 80.2774 132.06 76.8448 133.401 73.4121C134.46 75.477 135.57 77.5419 136.782 79.6063C137.995 81.6712 139.234 83.6841 140.499 85.6457ZM159.572 31.9376C161.972 34.4152 164.372 37.1767 166.746 40.1964C164.423 40.0931 162.049 40.0157 159.649 40.0157C157.223 40.0157 154.823 40.0673 152.474 40.1964C154.69 37.3175 157.059 34.5606 159.572 31.9376ZM140.473 47.139C139.208 49.1262 137.944 51.1651 136.757 53.2554C135.57 55.3203 134.46 57.3852 133.401 59.4495C132.046 56.0861 130.858 52.6581 129.84 49.1778C133.221 48.3778 136.782 47.6809 140.473 47.139ZM117.116 79.4516C107.98 75.5544 102.069 70.4446 102.069 66.3921C102.069 62.3402 107.98 57.2045 117.116 53.3333C119.335 52.3782 121.762 51.5264 124.265 50.7264C125.736 55.7848 127.672 61.0498 130.072 66.4441C127.698 71.8124 125.788 77.0514 124.342 82.0844C121.788 81.2839 119.361 80.4067 117.116 79.4516ZM131.001 116.332C127.491 114.32 125.968 106.654 127.156 96.795C127.44 94.3694 127.904 91.8139 128.472 89.2071C133.531 90.4462 139.054 91.4013 144.86 92.0205C148.344 96.795 151.958 101.131 155.597 104.925C147.183 112.745 139.286 117.029 133.917 117.029C132.756 117.004 131.776 116.771 131.001 116.332ZM192.22 96.6663C193.432 106.525 191.936 114.19 188.451 116.229C187.678 116.694 186.671 116.9 185.483 116.9C180.141 116.9 172.218 112.642 163.804 104.873C167.417 101.079 171.031 96.7695 174.463 91.9945C180.296 91.3753 185.819 90.4202 190.878 89.1557C191.471 91.7625 191.936 94.2661 192.22 96.6663ZM202.156 79.4516C199.937 80.4067 197.51 81.2585 195.007 82.0584C193.536 77 191.6 71.735 189.2 66.3408C191.575 60.9725 193.484 55.7335 194.93 50.7005C197.485 51.5007 199.911 52.3782 202.182 53.3333C211.318 57.2299 217.229 62.3402 217.229 66.3921C217.203 70.4446 211.292 75.5803 202.156 79.4516Z" fill="#61DAFB"/>
<path d="M159.624 78.1871C166.139 78.1871 171.419 72.9065 171.419 66.3921C171.419 59.8782 166.139 54.5977 159.624 54.5977C153.11 54.5977 147.83 59.8782 147.83 66.3921C147.83 72.9065 153.11 78.1871 159.624 78.1871ZM102.091 143.067H98.1972V149.772H96V133.196H101.487C103.354 133.196 104.789 133.621 105.791 134.472C106.8 135.321 107.305 136.558 107.305 138.182C107.305 139.215 107.024 140.114 106.462 140.881C105.908 141.647 105.134 142.22 104.14 142.6L108.033 149.635V149.772H105.688L102.091 143.067ZM98.1972 141.279H101.556C102.641 141.279 103.502 140.998 104.14 140.437C104.785 139.875 105.108 139.124 105.108 138.182C105.108 137.158 104.8 136.373 104.185 135.826C103.578 135.28 102.698 135.003 101.544 134.995H98.1972V141.279ZM115.16 150C113.49 150 112.132 149.453 111.084 148.36C110.037 147.26 109.513 145.791 109.513 143.955V143.567C109.513 142.346 109.745 141.257 110.208 140.3C110.678 139.336 111.331 138.585 112.166 138.046C113.008 137.5 113.919 137.226 114.898 137.226C116.5 137.226 117.745 137.754 118.632 138.809C119.52 139.864 119.964 141.374 119.964 143.339V144.216H111.619C111.65 145.431 112.003 146.414 112.678 147.165C113.361 147.908 114.226 148.281 115.274 148.281C116.018 148.281 116.647 148.129 117.163 147.825C117.68 147.522 118.131 147.12 118.518 146.619L119.805 147.62C118.772 149.206 117.225 150 115.16 150ZM114.898 138.957C114.048 138.957 113.335 139.268 112.758 139.89C112.181 140.505 111.824 141.37 111.688 142.486H117.858V142.327C117.798 141.257 117.509 140.429 116.993 139.844C116.477 139.253 115.778 138.957 114.898 138.957ZM130.017 149.772C129.895 149.529 129.796 149.097 129.721 148.474C128.741 149.491 127.573 150 126.214 150C125 150 124.002 149.658 123.22 148.975C122.446 148.284 122.059 147.412 122.059 146.357C122.059 145.074 122.545 144.08 123.516 143.374C124.495 142.66 125.869 142.304 127.637 142.304H129.687V141.336C129.687 140.6 129.466 140.015 129.026 139.583C128.586 139.143 127.937 138.923 127.079 138.923C126.328 138.923 125.698 139.112 125.19 139.492C124.681 139.871 124.427 140.33 124.427 140.869H122.309C122.309 140.255 122.526 139.663 122.958 139.093C123.398 138.517 123.991 138.061 124.734 137.727C125.486 137.394 126.309 137.226 127.205 137.226C128.624 137.226 129.736 137.583 130.54 138.297C131.345 139.002 131.762 139.978 131.793 141.222V146.892C131.793 148.023 131.937 148.922 132.225 149.59V149.772H130.017ZM126.522 148.167C127.182 148.167 127.808 147.996 128.4 147.655C128.992 147.313 129.421 146.869 129.687 146.323V143.795H128.036C125.455 143.795 124.165 144.55 124.165 146.061C124.165 146.721 124.385 147.237 124.825 147.609C125.265 147.981 125.831 148.167 126.522 148.167ZM140.035 148.281C140.786 148.281 141.443 148.053 142.005 147.597C142.566 147.142 142.877 146.573 142.938 145.89H144.93C144.892 146.596 144.649 147.267 144.202 147.905C143.754 148.543 143.154 149.051 142.403 149.43C141.659 149.81 140.87 150 140.035 150C138.358 150 137.022 149.442 136.027 148.326C135.041 147.203 134.548 145.67 134.548 143.727V143.374C134.548 142.175 134.768 141.108 135.208 140.175C135.648 139.241 136.278 138.517 137.098 138.001C137.925 137.484 138.9 137.226 140.023 137.226C141.405 137.226 142.551 137.64 143.462 138.468C144.38 139.295 144.869 140.369 144.93 141.689H142.938C142.877 140.892 142.574 140.239 142.027 139.731C141.489 139.215 140.82 138.957 140.023 138.957C138.953 138.957 138.122 139.344 137.53 140.118C136.946 140.884 136.654 141.997 136.654 143.454V143.852C136.654 145.271 136.946 146.364 137.53 147.131C138.115 147.897 138.95 148.281 140.035 148.281ZM150.156 134.472V137.454H152.455V139.082H150.156V146.721C150.156 147.214 150.258 147.586 150.463 147.836C150.668 148.079 151.017 148.201 151.511 148.201C151.753 148.201 152.087 148.155 152.512 148.064V149.772C151.958 149.924 151.42 150 150.896 150C149.955 150 149.245 149.715 148.767 149.146C148.289 148.577 148.05 147.768 148.05 146.721V139.082H145.807V137.454H148.05V134.472H150.156ZM173.779 149.772H171.581L163.236 136.999V149.772H161.039V133.196H163.236L171.604 146.027V133.196H173.779V149.772ZM184.935 149.772C184.814 149.529 184.715 149.097 184.639 148.474C183.66 149.491 182.491 150 181.133 150C179.918 150 178.92 149.658 178.139 148.975C177.365 148.284 176.977 147.412 176.977 146.357C176.977 145.074 177.463 144.08 178.435 143.374C179.413 142.66 180.788 142.304 182.556 142.304H184.605V141.336C184.605 140.6 184.385 140.015 183.944 139.583C183.505 139.143 182.855 138.923 181.998 138.923C181.246 138.923 180.617 139.112 180.108 139.492C179.6 139.871 179.345 140.33 179.345 140.869H177.228C177.228 140.255 177.444 139.663 177.877 139.093C178.317 138.517 178.909 138.061 179.653 137.727C180.404 137.394 181.227 137.226 182.123 137.226C183.542 137.226 184.654 137.583 185.459 138.297C186.263 139.002 186.68 139.978 186.711 141.222V146.892C186.711 148.023 186.855 148.922 187.144 149.59V149.772H184.935ZM181.44 148.167C182.101 148.167 182.727 147.996 183.319 147.655C183.91 147.313 184.339 146.869 184.605 146.323V143.795H182.954C180.374 143.795 179.083 144.55 179.083 146.061C179.083 146.721 179.304 147.237 179.744 147.609C180.184 147.981 180.749 148.167 181.44 148.167ZM192.87 134.472V137.454H195.17V139.082H192.87V146.721C192.87 147.214 192.973 147.586 193.178 147.836C193.382 148.079 193.732 148.201 194.225 148.201C194.467 148.201 194.802 148.155 195.227 148.064V149.772C194.672 149.924 194.134 150 193.61 150C192.669 150 191.959 149.715 191.481 149.146C191.003 148.577 190.764 147.768 190.764 146.721V139.082H188.521V137.454H190.764V134.472H192.87ZM199.929 149.772H197.822V137.454H199.929V149.772ZM197.651 134.186C197.651 133.845 197.754 133.557 197.959 133.321C198.171 133.086 198.482 132.969 198.892 132.969C199.302 132.969 199.614 133.086 199.826 133.321C200.038 133.557 200.144 133.845 200.144 134.186C200.144 134.528 200.038 134.813 199.826 135.041C199.614 135.268 199.302 135.382 198.892 135.382C198.482 135.382 198.171 135.268 197.959 135.041C197.754 134.813 197.651 134.528 197.651 134.186ZM207.374 146.915L210.425 137.454H212.577L208.159 149.772H206.554L202.092 137.454H204.243L207.374 146.915ZM219.555 150C217.885 150 216.527 149.453 215.479 148.36C214.432 147.26 213.909 145.791 213.909 143.955V143.567C213.909 142.346 214.14 141.257 214.603 140.3C215.073 139.336 215.726 138.585 216.561 138.046C217.404 137.5 218.314 137.226 219.293 137.226C220.895 137.226 222.139 137.754 223.028 138.809C223.915 139.864 224.359 141.374 224.359 143.339V144.216H216.014C216.045 145.431 216.398 146.414 217.073 147.165C217.756 147.908 218.622 148.281 219.669 148.281C220.413 148.281 221.043 148.129 221.559 147.825C222.075 147.522 222.527 147.12 222.914 146.619L224.2 147.62C223.168 149.206 221.619 150 219.555 150ZM219.293 138.957C218.444 138.957 217.73 139.268 217.153 139.89C216.576 140.505 216.219 141.37 216.083 142.486H222.253V142.327C222.192 141.257 221.904 140.429 221.388 139.844C220.872 139.253 220.174 138.957 219.293 138.957Z" fill="#61DAFB"/>
</svg>
