<?xml version="1.0"?>
<svg xmlns="http://www.w3.org/2000/svg" width="320" height="160" viewBox="0 0 320 160" fill="none">
<path d="M77.546 88.8513C82.4449 88.8513 86.4162 84.8799 86.4162 79.981C86.4162 75.0822 82.4449 71.1108 77.546 71.1108C72.6471 71.1108 68.6758 75.0822 68.6758 79.981C68.6758 84.8799 72.6471 88.8513 77.546 88.8513Z" fill="#00D8FF"/>
<path fill-rule="evenodd" clip-rule="evenodd" d="M77.5469 61.9468C89.4564 61.9468 100.52 63.6557 108.862 66.5275C118.913 69.9877 125.092 75.2325 125.092 79.9818C125.092 84.9308 118.543 90.5027 107.75 94.0788C99.5899 96.7822 88.852 98.1936 77.5469 98.1936C65.9561 98.1936 54.9802 96.8689 46.7283 94.049C36.2882 90.4806 30 84.8365 30 79.9818C30 75.2711 35.9003 70.0668 45.8098 66.6118C54.1828 63.6926 65.5195 61.9468 77.5453 61.9468H77.5469Z" stroke="#00D8FF" stroke-width="4.24352"/>
<path fill-rule="evenodd" clip-rule="evenodd" d="M61.8483 71.0153C67.7981 60.6986 74.8052 51.9683 81.4604 46.1766C89.4789 39.1984 97.1097 36.4656 101.224 38.8379C105.511 41.3103 107.066 49.7675 104.772 60.9035C103.039 69.323 98.8955 79.3296 93.2477 89.123C87.4571 99.1639 80.8266 108.01 74.262 113.748C65.9553 121.01 57.9244 123.637 53.7189 121.212C49.6381 118.86 48.0775 111.148 50.0352 100.837C51.6893 92.1256 55.8423 81.433 61.8483 71.0153Z" stroke="#00D8FF" stroke-width="4.24352"/>
<path fill-rule="evenodd" clip-rule="evenodd" d="M61.8637 89.1492C55.8971 78.8442 51.8348 68.4113 50.1392 59.7531C48.098 49.3211 49.5412 41.345 53.6514 38.9658C57.9345 36.4862 66.0381 39.3626 74.5401 46.9118C80.9684 52.6194 87.5692 61.2049 93.2334 70.9891C99.0407 81.0202 103.393 91.183 105.086 99.7358C107.229 110.559 105.495 118.829 101.293 121.261C97.2163 123.621 89.756 121.122 81.8012 114.277C75.08 108.493 67.8891 99.5567 61.8637 89.1491V89.1492Z" stroke="#00D8FF" stroke-width="4.24352"/>
<path fill-rule="evenodd" clip-rule="evenodd" d="M176.009 102.644L165.136 86.2183C170.631 85.7334 175.582 81.7521 175.582 74.4784C175.582 67.0771 170.33 62.3403 162.962 62.3403H146.781V102.613H151.794V86.6114H159.825L170.09 102.613L176.009 102.644ZM162.362 82.2344H151.796V66.8372H162.362C167.135 66.8372 170.394 69.9764 170.394 74.5065C170.394 79.0366 167.132 82.2395 162.362 82.2395V82.2344ZM194.667 103.366C199.44 103.366 203.363 101.797 206.262 98.9L204.087 95.9395C201.79 98.2951 198.411 99.6223 195.091 99.6223C188.813 99.6223 184.946 95.0335 184.584 89.5412H208.191V88.3928C208.191 79.6389 202.998 72.7531 194.18 72.7531C185.847 72.7531 179.811 79.5776 179.811 88.0304C179.811 97.1492 186.031 103.343 194.665 103.343L194.667 103.366ZM203.728 86.2158H184.586C184.829 81.7495 187.904 76.4921 194.126 76.4921C200.77 76.4921 203.666 81.8669 203.728 86.2158ZM238.268 102.641V82.5943C238.268 75.5299 233.139 72.7506 226.978 72.7506C222.205 72.7506 218.464 74.3202 215.325 77.5818L217.438 80.721C220.033 77.9442 222.874 76.6758 226.375 76.6758C230.602 76.6758 233.744 78.9089 233.744 82.8342V88.0865C231.388 85.3685 228.068 84.1 224.081 84.1C219.13 84.1 213.872 87.1805 213.872 93.7013C213.872 100.041 219.125 103.364 224.081 103.364C228.006 103.364 231.329 101.975 233.744 99.3186V102.636L238.268 102.641ZM225.712 100.105C221.486 100.105 218.525 97.4504 218.525 93.7651C218.525 90.021 221.486 87.3643 225.712 87.3643C228.912 87.3643 231.99 88.5714 233.744 90.9883V96.4831C231.993 98.8974 228.912 100.105 225.712 100.105ZM260.166 103.366C265.48 103.366 268.619 101.192 270.854 98.2952L267.835 95.5184C265.903 98.1139 263.428 99.3211 260.434 99.3211C254.214 99.3211 250.353 94.4899 250.353 88.0304C250.353 81.5709 254.217 76.8009 260.434 76.8009C263.453 76.8009 265.929 77.9493 267.835 80.6036L270.854 77.8268C268.621 74.9276 265.48 72.7557 260.166 72.7557C251.471 72.7557 245.614 79.399 245.614 88.0329C245.614 96.7281 251.471 103.346 260.166 103.346V103.366ZM284.565 103.366C287.219 103.366 288.852 102.58 290.001 101.496L288.674 98.1139C288.069 98.7775 286.887 99.3211 285.593 99.3211C283.602 99.3211 282.633 97.7515 282.633 95.5771V77.4619H288.554V73.478H282.633V65.5076H278.103V73.478H273.271V77.4644H278.103V96.5469C278.103 100.896 280.277 103.371 284.565 103.371V103.366Z" fill="#00D8FF"/>
</svg>
