<?xml version="1.0"?>
<svg xmlns="http://www.w3.org/2000/svg" width="320" height="160" viewBox="0 0 320 160" fill="none">
<path d="M79.1335 39.4612C78.7787 39.4896 78.424 39.525 78.0728 39.5641L74.9589 36.265C74.4608 35.7435 73.6295 35.7151 73.1028 36.2082C72.9559 36.343 72.8448 36.5097 72.7731 36.6942L71.175 40.9192C70.8346 41.0185 70.4941 41.1178 70.1573 41.2243L66.4486 38.585C65.8609 38.1664 65.044 38.2976 64.6211 38.8794C64.5029 39.0426 64.424 39.2306 64.3918 39.4293L63.6536 43.9026C63.3419 44.0622 63.0301 44.2289 62.7256 44.3957L58.5582 42.5155C58.3862 42.4375 58.2034 42.3985 58.0171 42.3985C57.2897 42.402 56.702 42.9909 56.7056 43.711C56.7056 43.7217 56.7056 43.7323 56.7056 43.7429L56.8669 48.2872C56.5981 48.5001 56.333 48.7164 56.0714 48.9364L51.5959 47.8934C50.8899 47.7303 50.184 48.1701 50.0192 48.869C49.9726 49.0606 49.9726 49.2628 50.0192 49.4543L51.0727 53.8851C50.8505 54.144 50.632 54.4101 50.417 54.6726L45.8268 54.513H45.7766C45.0563 54.5165 44.4723 55.0947 44.4687 55.8078C44.4687 55.9958 44.5081 56.1767 44.5869 56.347L46.4861 60.4727C46.3177 60.7742 46.1493 61.0828 45.988 61.3914L41.4695 62.1222C40.7528 62.2428 40.2691 62.9133 40.3909 63.6228C40.4231 63.8179 40.502 63.9988 40.6166 64.1584L43.2826 67.83C43.1751 68.167 43.0712 68.5005 42.9745 68.8375L38.7068 70.4197C38.0295 70.6715 37.6855 71.42 37.9399 72.094C38.0116 72.2785 38.1227 72.4488 38.2696 72.5836L41.602 75.6663C41.5626 76.014 41.5268 76.3652 41.4981 76.7164L37.621 79.0931C37.0047 79.4692 36.8148 80.2709 37.1982 80.8811C37.3057 81.0513 37.449 81.1968 37.621 81.2996L41.5017 83.6764C41.5304 84.0276 41.5662 84.3788 41.6056 84.7265L38.2732 87.8092C37.7428 88.2952 37.7142 89.1147 38.2051 89.6397C38.3448 89.7887 38.5168 89.9022 38.7103 89.9731L42.978 91.5553C43.0784 91.8923 43.1787 92.2293 43.2862 92.5628L40.6202 96.2344C40.1974 96.8126 40.3264 97.6249 40.9141 98.0435C41.0789 98.1606 41.2724 98.2422 41.4731 98.2741L45.9916 99.0049C46.1528 99.3135 46.3212 99.6186 46.4897 99.9201L44.5905 104.049C44.2895 104.702 44.5798 105.472 45.2391 105.766C45.4111 105.844 45.5974 105.883 45.7838 105.883H45.8303L50.4241 105.724C50.6391 105.99 50.8577 106.252 51.0763 106.511L50.0228 110.942C49.858 111.641 50.3023 112.34 51.0082 112.503C51.2017 112.549 51.4059 112.549 51.5994 112.503L56.0786 111.46C56.3401 111.68 56.6053 111.893 56.8705 112.106L56.7092 116.653V116.703C56.7128 117.416 57.2969 117.994 58.0171 117.998C58.207 117.998 58.3934 117.959 58.5618 117.881L62.7327 116.001C63.0409 116.171 63.3491 116.334 63.6608 116.494L64.399 120.967C64.5172 121.677 65.1945 122.155 65.9111 122.035C66.1082 122.003 66.2945 121.925 66.4594 121.811L70.1681 119.172C70.5049 119.278 70.8453 119.381 71.1857 119.477L72.7839 123.702C73.0383 124.373 73.7944 124.713 74.4716 124.461C74.6615 124.39 74.8299 124.28 74.9697 124.131L78.0836 120.832C78.4347 120.871 78.7895 120.907 79.1442 120.935L81.545 124.773C81.9249 125.384 82.7311 125.572 83.3474 125.196C83.5194 125.089 83.6663 124.944 83.7738 124.773L86.1746 120.935C86.5294 120.907 86.8841 120.871 87.2353 120.832L90.3492 124.131C90.6573 124.458 91.116 124.607 91.5639 124.518C92.0082 124.429 92.3773 124.121 92.535 123.702L94.1331 119.477C94.4735 119.378 94.814 119.278 95.1508 119.172L98.8595 121.811C99.4472 122.23 100.268 122.095 100.691 121.51C100.809 121.347 100.884 121.162 100.92 120.964L101.658 116.49C101.97 116.331 102.278 116.164 102.583 115.997L106.753 117.877C106.925 117.955 107.112 117.994 107.298 117.994C108.015 117.994 108.606 117.409 108.606 116.7V116.653L108.445 112.106C108.714 111.893 108.979 111.68 109.24 111.46L113.716 112.503C114.422 112.666 115.128 112.226 115.292 111.527C115.339 111.336 115.339 111.134 115.292 110.942L114.239 106.511C114.461 106.252 114.676 105.99 114.891 105.724L119.485 105.883H119.532C120.252 105.883 120.843 105.298 120.843 104.585C120.843 104.397 120.804 104.216 120.725 104.046L118.826 99.9166C118.998 99.6151 119.162 99.3064 119.324 99.0013L123.842 98.2706C124.559 98.1535 125.043 97.4866 124.924 96.7771C124.892 96.582 124.813 96.394 124.695 96.2308L122.029 92.5592C122.137 92.2257 122.24 91.8887 122.337 91.5517L126.605 89.9696C127.282 89.7213 127.626 88.9763 127.375 88.3058C127.304 88.1143 127.189 87.944 127.039 87.8056L123.706 84.7229C123.745 84.3717 123.781 84.0241 123.81 83.6729L127.687 81.2961C128.303 80.9165 128.493 80.1183 128.11 79.5082C128.002 79.3379 127.859 79.196 127.687 79.0896L123.81 76.7128C123.781 76.3616 123.745 76.0104 123.706 75.6628L127.039 72.58C127.569 72.0905 127.594 71.2675 127.099 70.7425C126.963 70.597 126.795 70.4871 126.605 70.4161L122.337 68.834C122.237 68.4969 122.137 68.1599 122.029 67.8265L124.695 64.1549C125.118 63.5731 124.982 62.7607 124.394 62.3421C124.229 62.2251 124.039 62.147 123.842 62.1151L119.324 61.3843C119.162 61.0757 118.994 60.7706 118.826 60.4656L120.725 56.3363C120.804 56.1661 120.843 55.9816 120.843 55.7971C120.843 55.0841 120.252 54.5023 119.535 54.5023H119.489L114.895 54.662C114.68 54.3959 114.465 54.1369 114.243 53.878L115.296 49.4437C115.457 48.7413 115.017 48.046 114.307 47.8828C114.114 47.8402 113.913 47.8402 113.719 47.8828L109.23 48.9364C108.968 48.7164 108.703 48.5036 108.434 48.2908L108.595 43.7429V43.6968C108.595 42.9838 108.004 42.3985 107.284 42.3985C107.097 42.3985 106.911 42.4375 106.739 42.5155L102.568 44.3957C102.26 44.2289 101.952 44.0622 101.644 43.9026L100.906 39.4293C100.787 38.7233 100.114 38.2409 99.4006 38.3579C99.1999 38.3899 99.0136 38.4679 98.8487 38.585L95.14 41.2243C94.8032 41.1178 94.4628 41.015 94.1224 40.9192L92.5242 36.6942C92.2734 36.0237 91.5209 35.6832 90.8437 35.9315C90.6538 36.0024 90.4818 36.116 90.342 36.2614L87.2281 39.5605C86.8734 39.5215 86.5222 39.486 86.1675 39.4576L83.7667 35.6158C83.3868 35.0056 82.5806 34.8176 81.9643 35.1936C81.7923 35.3001 81.6454 35.4455 81.5379 35.6158C81.5343 35.6193 79.1335 39.4612 79.1335 39.4612ZM75.0736 83.2507H83.7165C84.5012 83.2507 87.9376 83.4742 89.0269 87.8163C89.3673 89.1466 90.127 93.4886 90.643 94.8828C91.159 96.4401 93.2481 99.5547 95.4733 99.5547H109.574C108.628 100.807 107.596 101.992 106.481 103.102L100.741 101.882C99.4042 101.605 98.0891 102.446 97.7953 103.766L96.4336 110.062C87.5649 114.035 77.3848 113.986 68.5556 109.931L67.1939 103.634C66.9073 102.315 65.5922 101.47 64.2592 101.751L58.6406 102.943C57.5979 101.878 56.6304 100.747 55.7381 99.5512H83.0572C83.3618 99.5512 83.5732 99.498 83.5732 99.2142V89.6503C83.5732 89.3736 83.3618 89.3133 83.0572 89.3133H75.0628C75.0664 89.3133 75.0736 83.2507 75.0736 83.2507ZM102.701 105.28C104.166 105.334 105.327 106.518 105.338 107.969C105.338 109.445 104.113 110.658 102.622 110.658C101.128 110.644 99.9201 109.449 99.9058 107.969C99.9201 106.49 101.128 105.291 102.622 105.28H102.701ZM62.4676 105.16C63.9331 105.213 65.0941 106.398 65.1049 107.849C65.0905 109.328 63.883 110.523 62.3887 110.538C60.8945 110.523 59.6869 109.328 59.6726 107.849C59.6869 106.369 60.8945 105.17 62.3887 105.16H62.4676ZM274.154 61.4482H262.118V63.9775C262.118 66.3933 260.814 68.0819 257.804 68.0819V77.2981H260.301V87.4686C260.301 97.0219 264.73 100.115 272.391 100.115C277.899 100.115 282.156 98.4302 282.156 98.4302V89.6077C282.156 89.6077 279.543 90.115 277.444 90.115C275.287 90.115 274.151 89.0472 274.151 86.5179V77.3017H281.815V68.0854H274.151L274.154 61.4482ZM229.248 98.3735C229.248 98.3735 234.301 100.115 242.929 100.115C252.751 100.115 257.237 96.0109 257.237 89.3239C257.237 82.8038 253.149 79.6572 244.406 78.7597C240.887 78.4227 240.091 78.0289 240.091 77.1314C240.091 76.2339 241.396 75.7834 244.463 75.7834C249.118 75.7834 255.249 76.5709 255.249 76.5709V68.9829C255.249 68.9829 250.766 67.2979 242.08 67.2979C231.749 67.2979 227.604 71.7358 227.604 77.5819C227.604 83.8751 232.373 87.1919 240.263 88.2597C243.84 88.767 244.635 89.104 244.635 90.115C244.635 91.0125 243.897 91.5766 240.546 91.5766C236.347 91.5766 229.248 90.5655 229.248 90.5655V98.3735ZM204.556 68.0819H189.001V77.2981H191.498V86.5144C191.498 95.9009 195.358 100.115 201.546 100.115C206.656 100.115 209.322 97.3057 211.138 95.5071V99.3277H226.693V90.1115H224.196V68.0819H208.075V77.2981H211.138V86.5144C211.138 89.0437 210.003 90.1115 207.845 90.1115C205.688 90.1115 204.552 89.0437 204.552 86.5144L204.556 68.0819ZM164.875 80.8952C169.587 80.8952 171.518 81.626 171.518 86.1206V99.3277H189.513V90.1115H186.847V85.7836C186.847 81.8495 185.031 79.7139 181.397 79.1534L181.34 78.5929C185.199 77.1314 187.245 73.1973 187.245 68.2522C187.245 58.9792 181.512 55.6056 172.202 55.6056H145.578V64.8218H148.983V90.1115H145.578V99.3277H168.626V90.1115H164.878C164.875 90.1115 164.875 80.8952 164.875 80.8952ZM88.8084 47.3755C98.4617 49.1705 106.829 55.0699 111.698 63.5163L108.491 70.6786C107.95 71.9202 108.509 73.3605 109.749 73.921L115.916 76.6277C116.106 78.5362 116.131 80.4589 115.984 82.371H112.551C112.211 82.371 112.071 82.5945 112.071 82.9244V84.4817C112.071 88.1497 109.982 88.955 108.147 89.1537C106.399 89.3523 104.467 88.4264 104.224 87.3729C103.192 81.6367 101.479 80.4163 98.7699 78.2985C102.135 76.1878 105.628 73.0661 105.628 68.8978C105.628 64.3926 102.511 61.5546 100.386 60.164C97.3975 58.2165 94.0937 57.8298 93.2051 57.8298H57.734C62.6396 52.4058 69.2149 48.7342 76.4388 47.3826L80.6241 51.7247C81.5629 52.7002 83.1217 52.7392 84.1071 51.8134C84.1107 51.8098 84.1142 51.8063 84.1178 51.8027C84.125 51.7956 88.8084 47.3755 88.8084 47.3755ZM55.3117 67.8371H60.0488V88.9763H50.4922C49.3133 84.8719 48.9442 80.5831 49.41 76.3403L55.2651 73.7613C56.5121 73.2115 57.0747 71.7641 56.5229 70.5261C56.5193 70.5296 55.3117 67.8371 55.3117 67.8371ZM75.0736 68.0642H86.3538C86.9379 68.0642 90.471 68.7311 90.471 71.3491C90.471 73.5201 87.762 74.297 85.5332 74.297H75.0664L75.0736 68.0642ZM164.875 74.038V64.8218H167.938C170.095 64.8218 171.231 65.8896 171.231 68.4189V70.4409C171.231 72.9703 170.095 74.038 167.938 74.038H164.875ZM114.974 67.4079C116.439 67.4611 117.6 68.6459 117.611 70.0968C117.597 71.5761 116.389 72.7716 114.895 72.7858C113.4 72.7716 112.193 71.5761 112.179 70.0968C112.193 68.614 113.408 67.415 114.909 67.4079H114.974ZM50.1912 67.2837C51.6568 67.3369 52.8178 68.5218 52.8285 69.9727C52.8142 71.452 51.6066 72.6474 50.1124 72.6616C48.6181 72.6474 47.4106 71.452 47.3962 69.9727C47.4106 68.4934 48.6181 67.2944 50.1124 67.2837H50.1912ZM82.5878 42.9448C84.0533 42.998 85.2179 44.1828 85.2251 45.6337C85.2251 47.1095 83.9996 48.3227 82.5089 48.3227C81.0147 48.3085 79.8071 47.113 79.7928 45.6337V45.6302C79.7928 44.1545 81.0183 42.9412 82.5089 42.9412C82.5089 42.9448 82.5878 42.9448 82.5878 42.9448Z" fill="#010202"/>
</svg>
