<?xml version="1.0"?>
<svg xmlns="http://www.w3.org/2000/svg" width="320" height="160" viewBox="0 0 320 160" fill="none">
<path fill-rule="evenodd" clip-rule="evenodd" d="M119.943 13.5958C107.55 16.5591 94.3723 27.1052 89.136 38.1742L86.7796 43.3165L80.4087 44.3624C57.1069 48.2845 40.6123 68.8537 44.1032 89.4229C48.0305 112.171 71.3323 126.988 98.2123 123.763C113.66 121.933 121.427 115.483 121.427 104.675C121.427 94.1294 116.889 90.2945 100.918 87.2439C87.216 84.7164 84.7723 82.8861 85.5578 76.2621C86.3432 69.7253 97.8632 67.6335 114.009 71.0326L116.801 71.7299V67.2849V62.8398L113.136 61.7068C111.041 61.0967 104.67 60.6609 98.9105 60.5737C89.136 60.5737 88.0887 60.748 83.3759 63.1013C76.2196 66.5876 73.165 71.3813 73.165 79.0511C73.165 85.6751 74.6487 88.8999 79.0123 91.8633C81.9796 93.8679 84.8596 94.7395 99.9578 97.7029C106.241 98.9231 108.947 101.276 108.947 105.373C108.947 111.212 104.06 114.263 93.325 114.873C80.7578 115.57 71.4196 112.258 62.5178 103.891C56.3214 98.1387 53.5287 91.7761 53.5287 83.6705C53.616 68.4179 64.6996 57.5232 84.4232 53.4268L91.6669 51.858L93.2378 46.89C100.307 23.9675 126.663 12.7242 148.918 23.2703C153.805 25.5364 164.714 35.1237 167.158 39.2201L168.554 41.6605L173.878 37.3026C193.165 21.7886 225.107 30.5915 232.35 53.3396C232.7 54.4727 233.747 54.9085 236.103 54.9085C244.045 54.9085 253.121 58.8306 258.794 64.4958C270.227 76.0878 272.758 94.5652 265.165 111.125C257.747 127.598 237.325 141.107 213.063 145.901C193.689 149.649 167.42 150.52 150.838 147.818C146.3 147.121 142.46 146.685 142.285 146.86C141.849 147.296 151.449 150.782 156.947 152.176C174.401 156.621 203.638 155.924 223.536 150.695C249.631 143.809 269.616 126.029 275.114 104.85C276.86 98.1387 276.947 85.588 275.201 79.0511C271.012 62.8398 258.881 51.0735 244.394 49.1561C240.205 48.6331 239.856 48.3717 236.889 43.578C228.772 30.5043 214.809 23.5317 196.656 23.5317C185.31 23.5317 176.147 26.2336 171.26 31.1144C170.125 32.2475 169.776 32.1603 168.03 29.8942C157.209 16.0362 137.485 9.32504 119.943 13.5958Z" fill="#2563EB"/>
<path fill-rule="evenodd" clip-rule="evenodd" d="M223.711 62.8392C220.831 63.1878 217.34 63.9722 215.856 64.4952C205.994 68.243 201.282 79.2248 205.82 88.0277C208.176 92.5599 214.198 95.4361 225.631 97.2664C230.605 98.0509 235.754 99.4454 237.238 100.317C242.3 103.455 241.253 109.817 235.143 112.78C229.296 115.657 213.674 115.57 206.169 112.693C205.296 112.345 204.947 113.042 204.947 115.482C204.947 120.625 205.994 121.671 212.453 122.891C224.496 125.157 240.729 122.629 247.274 117.487C252.162 113.652 254.256 105.023 251.725 99.0967C249.194 93.0829 244.831 90.8168 230.78 88.1149C225.543 87.1562 220.394 85.7616 219.26 84.9772C214.809 82.101 215.594 75.5642 220.656 72.9495C223.274 71.6421 225.194 71.3806 233.747 71.7293C239.245 71.9907 244.656 72.4265 245.791 72.7751C247.623 73.3853 247.711 73.2109 247.711 69.0274V64.5823L243.173 63.7108C236.191 62.4034 229.471 62.1419 223.711 62.8392Z" fill="#2563EB"/>
<path fill-rule="evenodd" clip-rule="evenodd" d="M136.438 86.0238C129.805 87.5055 129.02 88.0284 129.02 91.2533C129.02 94.0423 129.194 94.3038 131.027 93.7808C135.478 92.4735 142.111 92.212 144.642 93.1707C147.085 94.2166 149.965 98.836 148.744 99.969C148.482 100.23 145.34 100.405 141.762 100.318C134.169 100.056 130.678 101.451 128.147 105.721C125.791 109.556 125.791 115.832 128.234 118.882C132.336 124.112 138.358 125.07 145.253 121.584C147.609 120.364 149.616 119.405 149.791 119.405C149.878 119.405 149.965 120.19 149.965 121.148C149.965 122.63 150.576 122.891 153.805 122.891H157.558L157.209 112.171C156.685 93.345 156.511 92.5606 154.329 90.2074C151.013 86.7211 142.373 84.7164 136.438 86.0238ZM147.696 106.854C148.569 107.203 149.093 108.423 149.093 110.341C149.093 112.781 148.569 113.653 146.3 115.047C143.158 116.965 139.405 117.313 136.787 115.919C134.344 114.611 134.518 109.469 137.049 107.726C138.969 106.332 145.078 105.896 147.696 106.854Z" fill="#2563EB"/>
<path fill-rule="evenodd" clip-rule="evenodd" d="M173.965 86.5473C169.776 87.5932 169.602 87.6803 169.34 90.9923C169.078 94.13 169.165 94.3043 171.085 93.7814C172.22 93.4327 175.449 92.9098 178.329 92.6483C182.867 92.2997 183.914 92.474 186.009 94.13C187.492 95.3502 188.365 96.8319 188.365 98.3136V100.667L181.645 100.405C176.06 100.231 174.314 100.492 172.045 101.887C168.118 104.327 166.285 107.552 166.285 111.823C166.285 121.933 175.536 126.727 185.223 121.585C189.063 119.58 189.238 119.493 189.238 121.149C189.238 122.631 189.849 122.892 193.165 122.892H197.092V108.685C197.092 96.3961 196.831 94.2171 195.434 91.8639C192.292 86.7216 182.867 84.3683 173.965 86.5473ZM186.969 106.855C187.929 107.204 188.365 108.511 188.365 110.777C188.365 113.653 187.929 114.351 185.747 115.484C181.907 117.488 177.369 117.227 175.798 114.874C173.878 112.172 174.052 110.951 176.583 108.511C178.678 106.332 183.652 105.548 186.969 106.855Z" fill="#2563EB"/>
</svg>
