<?xml version="1.0"?>
<svg xmlns="http://www.w3.org/2000/svg" width="320" height="160" viewBox="0 0 320 160" fill="none">
<path d="M140.807 27.5679C147.258 20.8465 156.238 16.6781 166.171 16.6781C179.374 16.6781 190.894 24.0405 197.028 34.9702C202.359 32.5882 208.26 31.2633 214.468 31.2633C238.282 31.2633 257.589 50.7379 257.589 74.7598C257.589 98.7845 238.282 118.259 214.468 118.259C211.562 118.259 208.721 117.968 205.975 117.413C200.572 127.049 190.278 133.559 178.462 133.559C173.516 133.559 168.838 132.417 164.672 130.385C159.196 143.267 146.437 152.299 131.567 152.299C116.081 152.299 102.884 142.5 97.8177 128.758C95.6038 129.229 93.3102 129.474 90.9567 129.474C72.5194 129.474 57.5723 114.373 57.5723 95.7415C57.5723 83.2562 64.2879 72.355 74.2659 66.5226C72.2116 61.7957 71.0691 56.5788 71.0691 51.094C71.0691 29.6678 88.4637 12.2988 109.918 12.2988C122.515 12.2988 133.71 18.2879 140.807 27.5679Z" fill="#00A1E0"/>
<path d="M86.5433 84.8979C86.4179 85.2256 86.5888 85.294 86.6287 85.351C87.0048 85.6245 87.3866 85.8211 87.7713 86.0405C89.8113 87.1232 91.7374 87.4395 93.7518 87.4395C97.8547 87.4395 100.402 85.2569 100.402 81.7438V81.6754C100.402 78.4273 97.5271 77.2477 94.8288 76.3958L94.4784 76.2818C92.444 75.6208 90.6889 75.051 90.6889 73.7118V73.6406C90.6889 72.4952 91.7146 71.6518 93.3045 71.6518C95.071 71.6518 97.168 72.2388 98.5186 72.9853C98.5186 72.9853 98.9146 73.2417 99.0599 72.8571C99.1397 72.6519 99.8235 70.8113 99.8948 70.6119C99.9717 70.3953 99.8349 70.2358 99.6953 70.1503C98.1539 69.2129 96.0227 68.5718 93.8173 68.5718L93.4071 68.5747C89.6518 68.5747 87.0305 70.8427 87.0305 74.0936V74.162C87.0305 77.5896 89.9224 78.7008 92.6321 79.4758L93.068 79.6098C95.0425 80.2166 96.7435 80.7381 96.7435 82.1285V82.1969C96.7435 83.4676 95.638 84.4136 93.8544 84.4136C93.162 84.4136 90.9539 84.3993 88.5691 82.8921C88.2813 82.724 88.1132 82.6015 87.8909 82.4675C87.7741 82.3935 87.4806 82.2652 87.3524 82.6527L86.5433 84.8979Z" fill="white"/>
<path d="M146.608 84.8979C146.482 85.2256 146.653 85.294 146.693 85.351C147.069 85.6245 147.451 85.8211 147.836 86.0405C149.876 87.1232 151.802 87.4395 153.816 87.4395C157.919 87.4395 160.466 85.2569 160.466 81.7438V81.6754C160.466 78.4273 157.592 77.2477 154.893 76.3958L154.543 76.2818C152.508 75.6208 150.753 75.051 150.753 73.7118V73.6406C150.753 72.4952 151.779 71.6518 153.369 71.6518C155.135 71.6518 157.233 72.2388 158.583 72.9853C158.583 72.9853 158.979 73.2417 159.124 72.8571C159.204 72.6519 159.888 70.8113 159.959 70.6119C160.036 70.3953 159.899 70.2358 159.76 70.1503C158.218 69.2129 156.087 68.5718 153.882 68.5718L153.472 68.5747C149.716 68.5747 147.095 70.8427 147.095 74.0936V74.162C147.095 77.5896 149.987 78.7008 152.697 79.4758L153.132 79.6098C155.107 80.2166 156.811 80.7381 156.811 82.1285V82.1969C156.811 83.4676 155.702 84.4136 153.919 84.4136C153.226 84.4136 151.018 84.3993 148.634 82.8921C148.346 82.724 148.175 82.6072 147.958 82.4675C147.884 82.4191 147.537 82.2852 147.417 82.6527L146.608 84.8979Z" fill="white"/>
<path d="M187.611 78.021C187.611 80.007 187.241 81.5712 186.511 82.6767C185.791 83.7708 184.699 84.3036 183.178 84.3036C181.654 84.3036 180.568 83.7736 179.858 82.6767C179.14 81.574 178.776 80.007 178.776 78.021C178.776 76.038 179.14 74.4766 179.858 73.3825C180.568 72.2998 181.654 71.7727 183.178 71.7727C184.699 71.7727 185.791 72.2998 186.514 73.3825C187.241 74.4766 187.611 76.038 187.611 78.021ZM191.036 74.3398C190.7 73.203 190.176 72.2001 189.478 71.3652C188.779 70.5276 187.896 69.8551 186.848 69.3651C185.802 68.8778 184.565 68.63 183.178 68.63C181.787 68.63 180.551 68.8778 179.505 69.3651C178.457 69.8551 177.573 70.5276 176.872 71.3652C176.177 72.2029 175.653 73.2058 175.314 74.3398C174.981 75.471 174.812 76.7075 174.812 78.021C174.812 79.3345 174.981 80.574 175.314 81.7023C175.653 82.8362 176.174 83.8392 176.875 84.6769C177.573 85.5145 178.46 86.1841 179.505 86.6599C180.554 87.1357 181.787 87.3779 183.178 87.3779C184.565 87.3779 185.799 87.1357 186.848 86.6599C187.893 86.1841 188.779 85.5145 189.478 84.6769C190.176 83.842 190.7 82.8391 191.036 81.7023C191.372 80.5711 191.54 79.3317 191.54 78.021C191.54 76.7104 191.372 75.471 191.036 74.3398Z" fill="white"/>
<path d="M219.16 83.7685C219.046 83.4352 218.724 83.5605 218.724 83.5605C218.225 83.7514 217.695 83.9281 217.131 84.0164C216.558 84.1047 215.929 84.1503 215.254 84.1503C213.595 84.1503 212.279 83.6574 211.336 82.683C210.39 81.7085 209.86 80.1329 209.866 78.0017C209.871 76.0613 210.339 74.6025 211.179 73.4913C212.014 72.3858 213.285 71.8188 214.98 71.8188C216.393 71.8188 217.47 71.9812 218.599 72.3374C218.599 72.3374 218.869 72.4542 218.997 72.1009C219.297 71.2689 219.519 70.6734 219.838 69.7588C219.929 69.4996 219.707 69.3884 219.627 69.3571C219.183 69.1833 218.134 68.9012 217.342 68.7816C216.601 68.6676 215.735 68.6077 214.772 68.6077C213.333 68.6077 212.051 68.8528 210.954 69.3428C209.86 69.8301 208.931 70.5025 208.196 71.3402C207.461 72.1778 206.902 73.1808 206.529 74.3148C206.159 75.4459 205.971 76.6882 205.971 78.0017C205.971 80.8424 206.737 83.1388 208.25 84.8199C209.766 86.5066 212.042 87.3643 215.011 87.3643C216.766 87.3643 218.567 87.0081 219.861 86.4981C219.861 86.4981 220.109 86.3784 220 86.0906L219.16 83.7685Z" fill="white"/>
<path d="M225.153 76.1149C225.316 75.0122 225.62 74.0948 226.091 73.3796C226.8 72.2941 227.883 71.6986 229.404 71.6986C230.926 71.6986 231.931 72.2969 232.652 73.3796C233.131 74.0948 233.339 75.0521 233.422 76.1149H225.153ZM236.684 73.6902C236.393 72.5932 235.673 71.4849 235.2 70.9777C234.453 70.1742 233.724 69.6129 233 69.2995C232.054 68.8949 230.92 68.6271 229.678 68.6271C228.23 68.6271 226.917 68.8693 225.851 69.3707C224.783 69.8722 223.885 70.556 223.181 71.4079C222.478 72.257 221.948 73.2685 221.612 74.4167C221.273 75.5593 221.102 76.8044 221.102 78.1179C221.102 79.4542 221.278 80.6993 221.629 81.819C221.982 82.9473 222.546 83.9417 223.31 84.7652C224.07 85.5943 225.051 86.2439 226.224 86.6969C227.39 87.1471 228.806 87.3808 230.433 87.3779C233.781 87.3665 235.544 86.62 236.271 86.2183C236.399 86.147 236.522 86.0217 236.368 85.6627L235.61 83.54C235.496 83.2237 235.174 83.3405 235.174 83.3405C234.345 83.6483 233.165 84.201 230.416 84.1953C228.618 84.1925 227.284 83.6625 226.45 82.8334C225.592 81.9843 225.173 80.7363 225.099 78.9755L236.693 78.9869C236.693 78.9869 236.997 78.9812 237.029 78.6849C237.04 78.5595 237.428 76.3029 236.684 73.6902Z" fill="white"/>
<path d="M132.306 76.1149C132.471 75.0122 132.773 74.0948 133.243 73.3796C133.952 72.2941 135.035 71.6986 136.557 71.6986C138.078 71.6986 139.084 72.2969 139.808 73.3796C140.283 74.0948 140.491 75.0521 140.574 76.1149H132.306ZM143.834 73.6902C143.543 72.5932 142.825 71.4849 142.352 70.9777C141.605 70.1742 140.876 69.6129 140.152 69.2995C139.206 68.8949 138.072 68.6271 136.83 68.6271C135.386 68.6271 134.069 68.8693 133.004 69.3707C131.935 69.8722 131.038 70.556 130.334 71.4079C129.63 72.257 129.1 73.2685 128.764 74.4167C128.428 75.5593 128.254 76.8044 128.254 78.1179C128.254 79.4542 128.431 80.6993 128.781 81.819C129.134 82.9473 129.698 83.9417 130.462 84.7652C131.223 85.5943 132.203 86.2439 133.377 86.6969C134.542 87.1471 135.958 87.3808 137.585 87.3779C140.933 87.3665 142.697 86.62 143.423 86.2183C143.551 86.147 143.674 86.0217 143.52 85.6627L142.765 83.54C142.648 83.2237 142.326 83.3405 142.326 83.3405C141.497 83.6483 140.32 84.201 137.565 84.1953C135.77 84.1925 134.437 83.6625 133.602 82.8334C132.744 81.9843 132.325 80.7363 132.251 78.9755L143.845 78.9869C143.845 78.9869 144.15 78.9812 144.181 78.6849C144.193 78.5595 144.58 76.3029 143.834 73.6902Z" fill="white"/>
<path d="M107.247 83.7081C106.794 83.3463 106.731 83.2551 106.578 83.0214C106.35 82.6653 106.233 82.1581 106.233 81.5142C106.233 80.4942 106.569 79.7619 107.267 79.269C107.258 79.2719 108.264 78.4 110.629 78.4313C112.29 78.4541 113.775 78.6992 113.775 78.6992V83.9702H113.778C113.778 83.9702 112.304 84.2865 110.646 84.3862C108.287 84.5287 107.239 83.7053 107.247 83.7081ZM111.86 75.5622C111.39 75.528 110.78 75.508 110.051 75.508C109.056 75.508 108.096 75.6334 107.196 75.8756C106.29 76.1177 105.475 76.4967 104.774 76.9982C104.07 77.5025 103.503 78.1464 103.093 78.91C102.683 79.6736 102.475 80.574 102.475 81.5826C102.475 82.6083 102.651 83.5001 103.005 84.2295C103.358 84.9618 103.868 85.5715 104.518 86.0416C105.161 86.5118 105.956 86.8565 106.88 87.0645C107.788 87.2725 108.82 87.3779 109.948 87.3779C111.136 87.3779 112.322 87.2811 113.47 87.0845C114.607 86.8907 116.003 86.6086 116.39 86.5203C116.775 86.4291 117.202 86.3123 117.202 86.3123C117.49 86.2411 117.467 85.9334 117.467 85.9334L117.462 75.3314C117.462 73.0064 116.84 71.2826 115.618 70.2141C114.402 69.1485 112.609 68.61 110.293 68.61C109.424 68.61 108.025 68.7297 107.187 68.8978C107.187 68.8978 104.654 69.3879 103.611 70.2027C103.611 70.2027 103.384 70.3452 103.509 70.6643L104.329 72.8696C104.432 73.1545 104.708 73.0577 104.708 73.0577C104.708 73.0577 104.797 73.0235 104.899 72.9636C107.13 71.7499 109.951 71.7869 109.951 71.7869C111.205 71.7869 112.168 72.0376 112.817 72.5363C113.45 73.0206 113.772 73.7529 113.772 75.2972V75.7872C112.775 75.6448 111.86 75.5622 111.86 75.5622Z" fill="white"/>
<path d="M205.365 69.5903C205.453 69.3281 205.268 69.2028 205.191 69.1743C204.994 69.0974 204.009 68.8894 203.248 68.8409C201.792 68.7526 200.983 68.9976 200.259 69.3224C199.541 69.6473 198.743 70.1715 198.299 70.767V69.3566C198.299 69.16 198.159 69.0033 197.965 69.0033H194.994C194.8 69.0033 194.66 69.16 194.66 69.3566V86.6487C194.66 86.8424 194.82 87.002 195.013 87.002H198.059C198.253 87.002 198.41 86.8424 198.41 86.6487V78.0098C198.41 76.8501 198.538 75.6933 198.794 74.9668C199.045 74.2488 199.387 73.6732 199.809 73.2601C200.233 72.8498 200.715 72.562 201.242 72.3996C201.78 72.2344 202.376 72.1802 202.798 72.1802C203.404 72.1802 204.071 72.3369 204.071 72.3369C204.293 72.3626 204.419 72.2258 204.493 72.0235C204.692 71.4936 205.256 69.9065 205.365 69.5903Z" fill="white"/>
<path d="M176.777 61.5727C176.406 61.4587 176.07 61.3818 175.631 61.2992C175.187 61.2194 174.657 61.1795 174.056 61.1795C171.959 61.1795 170.306 61.7721 169.146 62.9403C167.992 64.1028 167.209 65.8722 166.816 68.2L166.673 68.9835H164.041C164.041 68.9835 163.721 68.9721 163.653 69.3197L163.223 71.733C163.191 71.961 163.291 72.1063 163.599 72.1063H166.16L163.562 86.6146C163.36 87.7828 163.126 88.743 162.867 89.4724C162.613 90.1904 162.365 90.7289 162.057 91.1221C161.761 91.4982 161.482 91.7774 160.998 91.9398C160.599 92.0737 160.137 92.1364 159.633 92.1364C159.354 92.1364 158.98 92.0908 158.704 92.0338C158.43 91.9797 158.285 91.9199 158.077 91.8316C158.077 91.8316 157.778 91.7176 157.658 92.0168C157.564 92.2646 156.88 94.1423 156.798 94.3731C156.718 94.6039 156.832 94.7834 156.977 94.8375C157.319 94.9572 157.573 95.0369 158.037 95.1481C158.681 95.2991 159.225 95.3076 159.735 95.3076C160.801 95.3076 161.775 95.1566 162.582 94.866C163.391 94.5725 164.097 94.0625 164.724 93.373C165.4 92.6265 165.824 91.8458 166.229 90.7773C166.63 89.7231 166.975 88.4125 167.249 86.8853L169.862 72.1063H173.679C173.679 72.1063 174.001 72.1177 174.067 71.7672L174.5 69.3568C174.529 69.126 174.432 68.9835 174.121 68.9835H170.414C170.434 68.9009 170.602 67.596 171.027 66.3679C171.209 65.8465 171.551 65.422 171.839 65.1314C172.124 64.8464 172.451 64.6442 172.81 64.5273C173.178 64.4077 173.597 64.3507 174.056 64.3507C174.403 64.3507 174.748 64.3906 175.007 64.4447C175.366 64.5216 175.506 64.5615 175.6 64.59C175.979 64.704 176.03 64.5929 176.104 64.4105L176.99 61.9773C177.081 61.7151 176.856 61.604 176.777 61.5727Z" fill="white"/>
<path d="M124.984 86.6447C124.984 86.8384 124.845 86.9951 124.651 86.9951H121.577C121.383 86.9951 121.246 86.8384 121.246 86.6447V61.9019C121.246 61.7082 121.383 61.5514 121.577 61.5514H124.651C124.845 61.5514 124.984 61.7082 124.984 61.9019V86.6447Z" fill="white"/>
</svg>
