<?xml version="1.0"?>
<svg xmlns="http://www.w3.org/2000/svg" width="320" height="160" viewBox="0 0 320 160" fill="none">
<path fill-rule="evenodd" clip-rule="evenodd" d="M60 129.182H161.077L260 30.2441H60V129.182Z" fill="url(#paint0_linear_27_3570)"/>
<path fill-rule="evenodd" clip-rule="evenodd" d="M178.692 48.8478H159.001V95.659L141.803 48.8333H124.751L110.07 87.9817C108.499 78.1121 98.3142 74.7026 90.2634 72.1467C84.9576 70.4444 79.3269 67.937 79.3996 65.1629C79.4433 62.8931 82.4211 60.798 88.3137 61.0987C92.2761 61.3072 95.768 61.6273 102.723 64.9786L109.561 53.0721C103.193 49.8469 94.4343 47.8051 87.2419 47.7954H87.1983C78.8176 47.7954 71.8338 50.5114 67.5077 54.9878C64.512 58.0631 62.8242 62.1793 62.7984 66.4724C62.6869 72.5105 64.9033 76.8026 69.5592 80.1976C73.4876 83.0784 78.5121 84.9456 82.9449 86.3181C88.4107 88.0108 92.8726 89.4851 92.8193 92.623C92.7885 93.7798 92.3266 94.8833 91.5244 95.7172C90.1616 97.1237 88.0664 97.6572 85.1759 97.7057C79.6033 97.8221 75.4761 96.9491 68.8754 93.0546L62.7984 105.136C69.6015 108.997 77.2855 111.038 85.108 111.062H86.1313C93.0375 110.941 98.6149 108.972 103.067 105.383C103.324 105.184 103.552 104.976 103.79 104.762L101.792 110.024H119.654L122.656 100.897C126.046 102.022 129.598 102.584 133.17 102.56C136.653 102.577 140.116 102.046 143.433 100.984L146.343 110.024H175.51V91.1098H181.868C197.247 91.1098 206.341 83.2773 206.341 70.1583C206.341 55.5552 197.504 48.8478 178.692 48.8478ZM133.19 88.9274C131.039 88.9404 128.903 88.5658 126.885 87.8216L133.127 68.1359H133.233L139.369 87.8798C137.383 88.5746 135.294 88.9288 133.19 88.9274ZM179.846 77.6126H175.51V61.7243H179.846C185.632 61.7243 190.244 63.6643 190.244 69.552C190.244 75.6629 185.632 77.5883 179.846 77.5883" fill="white"/>
<defs>
<linearGradient id="paint0_linear_27_3570" x1="160" y1="30.2441" x2="160" y2="129.182" gradientUnits="userSpaceOnUse">
<stop stop-color="#00B8F1"/>
<stop offset="0.02" stop-color="#01B6F0"/>
<stop offset="0.31" stop-color="#0D90D9"/>
<stop offset="0.58" stop-color="#1775C8"/>
<stop offset="0.82" stop-color="#1C65BF"/>
<stop offset="1" stop-color="#1E5FBB"/>
</linearGradient>
</defs>
</svg>
