<?xml version="1.0"?>
<svg xmlns="http://www.w3.org/2000/svg" width="320" height="160" viewBox="0 0 320 160" fill="none">
<path d="M121.64 82.8898C124.081 87.6832 127.986 90.0453 133.457 90.0453C139.331 90.0453 141.426 86.9392 141.426 83.9022C141.426 81.8084 140.682 80.3936 138.725 79.1088C136.764 77.759 135.349 77.1533 131.838 75.8563C127.514 74.2301 125.017 73.0104 122.316 70.8597C119.615 68.6318 118.333 65.5744 118.333 61.6145C118.287 59.867 118.64 58.1319 119.365 56.5411C120.09 54.9504 121.169 53.5458 122.519 52.4344C125.366 50.0723 128.8 48.9258 132.916 48.9258C139.331 48.9258 144.192 51.4912 147.434 56.5529L141.426 60.6876C139.604 57.9189 136.834 56.5 133.051 56.5C129.337 56.5 126.636 58.5938 126.636 61.4966C126.636 63.4522 127.449 64.3995 128.596 65.5622C129.337 66.103 131.228 66.912 132.107 67.3836L134.547 68.3268L137.314 69.4083C141.788 71.2297 144.945 73.1893 146.901 75.279C148.858 77.3687 149.875 80.2065 149.875 83.7152C149.875 92.0171 144.135 97.6195 133.396 97.6195C124.687 97.6195 118.272 93.5539 115.303 86.8863L121.64 82.8898Z" fill="#380D09"/>
<path d="M184.102 67.5709L179.119 72.7668C178.024 71.5718 176.688 70.623 175.198 69.9831C173.709 69.3431 172.1 69.0268 170.479 69.0549C169.088 69.0216 167.705 69.2739 166.415 69.7963C165.126 70.3187 163.957 71.1 162.982 72.0919C161.073 74.1735 160.013 76.8949 160.013 79.719C160.013 82.543 161.073 85.2644 162.982 87.346C163.957 88.3379 165.126 89.1192 166.415 89.6416C167.705 90.164 169.088 90.4163 170.479 90.383C172.1 90.4111 173.709 90.0948 175.198 89.4549C176.688 88.8149 178.024 87.8661 179.119 86.6711L184.118 91.867C180.457 95.7822 175.946 97.7377 170.479 97.7377C165.276 97.7377 160.887 96.0505 157.312 92.6069C153.736 89.1634 151.975 84.8457 151.975 79.719C151.975 74.5922 153.732 70.3355 157.312 66.896C160.891 63.4565 165.276 61.7002 170.479 61.7002C175.93 61.7002 180.453 63.6558 184.102 67.5709Z" fill="#380D09"/>
<path d="M200.222 76.0721C205.966 75.5354 208 74.7914 208 72.161C208 70.0672 206.113 68.4491 202.33 68.4491C198.685 68.4491 195.646 69.933 193.214 72.9009L188.218 68.6483C191.525 63.9932 196.183 61.7002 202.195 61.7002C210.636 61.7002 215.904 65.7658 215.904 72.6977V87.7404C215.904 90.1025 216.778 90.3749 218.751 90.3749H218.955V96.6481C218.141 97.1238 216.86 97.3921 215.172 97.3921C213.349 97.3921 211.917 96.8514 210.852 95.7659C210.283 95.1241 209.866 94.3627 209.631 93.5379C207.268 96.3026 203.42 97.7214 198.083 97.7214C190.59 97.7214 185.525 93.603 185.525 87.3948C185.505 80.4589 190.163 76.9503 200.222 76.0721ZM199.279 90.8628C204.681 90.8628 207.988 88.4234 207.988 84.1139V80.3329C207.52 80.8062 206.941 81.1543 206.304 81.3452C204.75 81.8859 203.737 82.0201 200.495 82.3575C195.768 82.8983 193.405 84.3903 193.405 86.7443C193.405 89.3707 195.565 90.8628 199.279 90.8628Z" fill="#380D09"/>
<path d="M220.951 49.751H229.054V85.6584C229.054 88.9637 230.136 90.3826 233.122 90.3826C233.944 90.4089 234.766 90.3172 235.563 90.1102V97.3307C234.303 97.6383 233.007 97.775 231.71 97.7373C224.555 97.7373 220.976 94.0783 220.976 86.7358L220.951 49.751Z" fill="#380D09"/>
<path d="M252.221 76.0721C257.961 75.5354 259.986 74.7914 259.986 72.161C259.986 70.0672 258.099 68.4491 254.316 68.4491C250.671 68.4491 247.632 69.933 245.2 72.9009L240.205 68.6483C243.512 63.9932 248.169 61.7002 254.182 61.7002C262.622 61.7002 267.89 65.7658 267.89 72.6977V87.7404C267.89 90.1025 268.765 90.3749 270.737 90.3749H270.941V96.6481C270.127 97.1238 268.846 97.3921 267.158 97.3921C265.335 97.3921 263.904 96.8514 262.838 95.7659C262.268 95.1251 261.85 94.3633 261.617 93.5379C259.254 96.3026 255.406 97.7214 250.069 97.7214C242.576 97.7214 237.512 93.603 237.512 87.3948C237.504 80.4589 242.169 76.9503 252.221 76.0721ZM251.277 90.8628C256.679 90.8628 259.986 88.4234 259.986 84.1139V80.3329C259.518 80.807 258.937 81.1552 258.298 81.3452C256.748 81.8859 255.735 82.0201 252.493 82.3575C247.767 82.8983 245.403 84.3903 245.403 86.7443C245.424 89.3707 247.563 90.8628 251.277 90.8628Z" fill="#380D09"/>
<path fill-rule="evenodd" clip-rule="evenodd" d="M52.4277 63.5544C53.1803 64.5912 59.526 66.5467 68.9918 68.5836C78.4576 70.3968 88.3016 77.5564 95.9572 75.3487C101.136 73.8526 106.753 60.5215 106.753 58.5415V58.3383C106.753 56.956 105.716 55.846 103.955 54.9231C96.7342 51.2356 95.3674 49.8777 92.6908 50.6136C78.7952 54.4475 54.2623 52.4879 52.4277 63.5544Z" fill="#380D09"/>
<path fill-rule="evenodd" clip-rule="evenodd" d="M52.4277 90.6231C53.1803 91.6761 59.526 93.6154 68.9918 95.6564C79.5681 97.5835 88.7654 103.865 96.425 101.653C101.603 100.157 106.753 87.5943 106.753 85.6103V85.4151C106.753 84.0369 105.716 82.9229 103.955 82.0041C98.4467 79.0768 91.1694 75.8528 88.4969 76.5887C74.5769 80.4144 55.9708 81.256 52.4277 90.6231Z" fill="#380D09"/>
<path fill-rule="evenodd" clip-rule="evenodd" d="M52.3488 69.3721V69.5672C52.3447 69.5022 52.3447 69.4371 52.3488 69.3721Z" fill="#555555"/>
<path fill-rule="evenodd" clip-rule="evenodd" d="M96.4032 36.7012C83.6059 40.3968 63.3035 42.4825 52.3652 42.4825V63.3594C52.3687 63.4311 52.3959 63.4998 52.4425 63.5545C59.9069 63.5545 82.951 61.1151 96.8547 57.2935C99.2796 56.6766 101.657 55.8872 103.969 54.9314C105.67 54.167 106.768 53.362 106.768 52.5245V31.4688C106.752 33.4528 101.582 35.2091 96.4032 36.7012Z" fill="#DE3423"/>
<path fill-rule="evenodd" clip-rule="evenodd" d="M96.4032 63.7734C88.7435 65.9811 78.4073 67.6236 68.9903 68.5831C62.669 69.2295 56.7625 69.5669 52.3652 69.5669V90.4275C52.3687 90.4993 52.3959 90.568 52.4425 90.6227C59.9069 90.6227 82.951 88.1833 96.8547 84.3657C99.279 83.7471 101.656 82.9577 103.969 82.0036C105.67 81.2352 106.768 80.4343 106.768 79.5968V58.541C106.752 60.521 101.582 62.2773 96.4032 63.7734Z" fill="#DE3423"/>
<path fill-rule="evenodd" clip-rule="evenodd" d="M96.4038 90.8631C88.7442 93.0707 78.4079 94.7092 68.991 95.6727C62.6615 96.3192 56.7469 96.6566 52.3496 96.6566V117.696C59.7367 117.696 82.8988 115.277 96.8391 111.439C101.977 110.024 106.752 108.414 106.752 106.666V85.6104C106.752 87.6106 101.582 89.3507 96.4038 90.8631Z" fill="#DE3423"/>
</svg>
