<?xml version="1.0"?>
<svg xmlns="http://www.w3.org/2000/svg" width="320" height="160" viewBox="0 0 320 160" fill="none">
<g clip-path="url(#clip0_478_11464)">
<path d="M112.812 98.9866C111.084 98.9706 109.359 98.8364 107.649 98.5847C105.796 98.3325 103.958 97.977 102.145 97.5198V94.7267C103.939 95.1805 105.756 95.5361 107.589 95.7917C109.251 96.0423 110.929 96.1766 112.611 96.1936C114.937 96.3409 117.25 95.7502 119.22 94.5057C119.97 93.9576 120.571 93.2318 120.971 92.3936C121.371 91.5553 121.556 90.6309 121.51 89.7033C121.557 88.726 121.353 87.7529 120.916 86.877C120.48 86.0012 119.827 85.2516 119.019 84.7C118.217 84.1198 117.347 83.6407 116.428 83.2734C115.383 82.8849 114.265 82.5165 113.073 82.1682C111.47 81.7084 109.905 81.1239 108.392 80.4201C107.228 79.892 106.156 79.1796 105.218 78.3102C104.419 77.5612 103.801 76.6405 103.41 75.6177C103.01 74.496 102.813 73.3121 102.828 72.1214C102.809 70.7834 103.091 69.4583 103.651 68.2433C104.2 67.0761 105.003 66.0463 106.002 65.2293C107.075 64.3231 108.318 63.64 109.658 63.2199C111.207 62.7885 112.812 62.5921 114.419 62.6372C117.405 62.6967 120.375 63.0807 123.278 63.7825V66.6358C121.803 66.2564 120.307 65.9612 118.798 65.7517C117.467 65.5629 116.125 65.4622 114.78 65.4503C112.573 65.335 110.391 65.9726 108.593 67.2587C107.82 67.8083 107.192 68.5386 106.765 69.3861C106.338 70.2335 106.124 71.1725 106.142 72.1214C106.127 72.9513 106.27 73.7764 106.564 74.5527C106.867 75.3243 107.349 76.0129 107.97 76.5621C108.733 77.2205 109.594 77.7561 110.522 78.1495C111.825 78.7033 113.168 79.16 114.539 79.5158C116.026 79.9579 117.405 80.4335 118.678 80.9425C119.873 81.3984 120.991 82.0354 121.992 82.8313C122.922 83.5837 123.676 84.5301 124.202 85.6042C124.771 86.8655 125.046 88.2397 125.006 89.6229C125.08 90.9542 124.835 92.2839 124.289 93.5006C123.744 94.7173 122.915 95.7855 121.872 96.6155C119.201 98.3947 116.012 99.2293 112.812 98.9866Z" fill="#01A71C"/>
<path d="M141.779 98.887C140.196 98.999 138.607 98.7659 137.123 98.2039C135.638 97.6419 134.294 96.7643 133.181 95.6318C131.076 92.9514 130.032 89.5894 130.248 86.1878C130.029 82.6088 131.043 79.0626 133.121 76.141C134.137 74.9462 135.418 74.0059 136.862 73.3953C138.306 72.7847 139.873 72.5208 141.438 72.6246C142.742 72.5363 144.05 72.7495 145.258 73.2478C146.467 73.7461 147.545 74.516 148.409 75.498C150.115 77.9087 150.951 80.828 150.779 83.7766C150.779 84.4999 150.779 85.1161 150.779 85.6252C150.762 86.0588 150.702 86.4896 150.598 86.9112H133.382C133.314 89.459 134.146 91.9493 135.732 93.9439C136.582 94.752 137.591 95.3732 138.694 95.7677C139.798 96.1622 140.972 96.3213 142.141 96.2346C143.367 96.2271 144.591 96.1128 145.797 95.893C147.117 95.6553 148.414 95.3058 149.674 94.8482L149.915 97.4001C148.615 97.898 147.269 98.2681 145.897 98.5052C144.539 98.7557 143.161 98.8835 141.779 98.887ZM141.337 74.9956C136.409 74.9956 133.77 78.1704 133.422 84.52H147.786C147.985 81.9879 147.44 79.4528 146.219 77.226C145.661 76.4713 144.92 75.8708 144.066 75.4807C143.212 75.0906 142.273 74.9237 141.337 74.9956Z" fill="#01A71C"/>
<path d="M157.891 60.0654H161.065V98.4644H157.891V60.0654Z" fill="#01A71C"/>
<path d="M179.828 98.887C178.244 98.999 176.656 98.7659 175.171 98.2039C173.687 97.6419 172.342 96.7643 171.229 95.6318C169.132 92.9486 168.095 89.5868 168.317 86.1878C168.097 82.6088 169.111 79.0626 171.189 76.141C172.205 74.9462 173.486 74.0059 174.93 73.3953C176.375 72.7847 177.942 72.5208 179.506 72.6246C180.811 72.5363 182.118 72.7495 183.327 73.2478C184.536 73.7461 185.613 74.516 186.477 75.498C188.148 77.9215 188.948 80.8397 188.747 83.7766C188.747 84.4999 188.747 85.1161 188.747 85.6252C188.73 86.0588 188.669 86.4896 188.566 86.9112H171.43C171.364 89.4588 172.196 91.9485 173.781 93.9439C174.632 94.7546 175.644 95.3773 176.752 95.7719C177.859 96.1665 179.037 96.3241 180.209 96.2346C181.436 96.2271 182.659 96.1128 183.865 95.893C185.185 95.655 186.482 95.3055 187.743 94.8482L187.984 97.4001C186.683 97.898 185.338 98.2681 183.966 98.5052C182.601 98.7569 181.216 98.8847 179.828 98.887ZM179.406 74.9956C174.477 74.9956 171.839 78.1704 171.491 84.52H185.854C186.053 81.9879 185.509 79.4528 184.287 77.226C183.729 76.4713 182.988 75.8708 182.134 75.4807C181.28 75.0906 180.342 74.9237 179.406 74.9956Z" fill="#01A71C"/>
<path d="M195.799 72.8657H198.451L198.692 75.8596H198.933C200.192 75.2568 201.343 74.7344 202.388 74.2923C203.433 73.8503 204.39 73.4886 205.261 73.2073C206.048 72.9407 206.854 72.7325 207.671 72.5844C208.402 72.4619 209.141 72.4014 209.881 72.4035C210.786 72.3353 211.694 72.4535 212.551 72.7508C213.408 73.048 214.195 73.518 214.863 74.1316C216.092 75.6051 216.692 77.5038 216.531 79.4162V98.5253H213.336V80.441C213.458 79.0126 213.066 77.5878 212.232 76.4222C211.784 75.992 211.249 75.6619 210.664 75.4541C210.078 75.2462 209.456 75.1653 208.837 75.2166C207.303 75.2524 205.784 75.5305 204.337 76.0405C202.497 76.6607 200.704 77.4128 198.973 78.291V98.3846H195.799V72.8657Z" fill="#01A71C"/>
<path d="M226.414 67.1383C226.135 67.1787 225.851 67.1556 225.583 67.0707C225.314 66.9859 225.068 66.8414 224.864 66.6482C224.659 66.455 224.5 66.218 224.4 65.9549C224.3 65.6918 224.26 65.4095 224.284 65.129C224.284 64.5641 224.509 64.0223 224.908 63.6229C225.307 63.2234 225.849 62.999 226.414 62.999C226.978 62.999 227.52 63.2234 227.919 63.6229C228.319 64.0223 228.543 64.5641 228.543 65.129C228.567 65.4095 228.528 65.6918 228.427 65.9549C228.327 66.218 228.168 66.455 227.964 66.6482C227.759 66.8414 227.513 66.9859 227.245 67.0707C226.976 67.1556 226.692 67.1787 226.414 67.1383ZM224.807 72.865H227.981V98.4643H224.807V72.865Z" fill="#01A71C"/>
<path d="M242.605 98.9267C238.4 98.9267 236.297 96.6025 236.297 91.9542V72.8652H239.471V90.9495C239.335 92.3592 239.675 93.7737 240.435 94.9683C240.839 95.4009 241.338 95.7347 241.892 95.9438C242.446 96.1529 243.04 96.2316 243.629 96.1739C245.336 96.165 247.025 95.8379 248.611 95.2094C250.285 94.5664 252.02 93.8028 253.814 92.9187V72.8652H257.049V98.4646H254.397L254.156 95.2898H253.975L250.5 96.9173C249.509 97.3728 248.585 97.7546 247.727 98.0627C246.923 98.3499 246.097 98.5716 245.257 98.7258C244.38 98.8725 243.493 98.9398 242.605 98.9267Z" fill="#01A71C"/>
<path d="M265.447 72.8655H268.059L268.34 75.8595H268.521C270.181 74.8551 271.913 73.9752 273.704 73.2272C274.98 72.7047 276.343 72.4252 277.722 72.4034C278.979 72.2391 280.255 72.4999 281.347 73.1444C282.439 73.7888 283.284 74.7798 283.748 75.9599H283.989C285.061 75.2902 286.032 74.7342 286.902 74.2922C287.686 73.8888 288.491 73.5266 289.313 73.2071C289.964 72.9429 290.636 72.7345 291.322 72.5842C291.984 72.459 292.657 72.3984 293.331 72.4034C294.223 72.3382 295.118 72.4541 295.964 72.7441C296.81 73.0342 297.588 73.4924 298.253 74.0912C299.482 75.5648 300.081 77.4635 299.92 79.3759V98.4849H296.786V80.4006C296.926 78.9706 296.532 77.5394 295.681 76.3819C295.229 75.9584 294.694 75.6341 294.109 75.4299C293.524 75.2258 292.903 75.1462 292.286 75.1964C291.058 75.2361 289.847 75.4947 288.71 75.9599C287.205 76.5674 285.754 77.3 284.371 78.1502V98.4447H281.157V80.3605C281.296 78.9304 280.903 77.4992 280.052 76.3417C279.6 75.9182 279.064 75.5939 278.48 75.3898C277.895 75.1856 277.274 75.106 276.657 75.1562C275.373 75.1938 274.106 75.4662 272.92 75.9599C271.427 76.5655 269.989 77.2983 268.621 78.1502V98.4648H265.447V72.8655Z" fill="#01A71C"/>
<path d="M63.0907 89.2212C61.8354 89.1831 60.6117 89.6186 59.6626 90.4413C58.7136 91.264 58.1087 92.4137 57.968 93.6619C57.9618 93.6861 57.9612 93.7114 57.9664 93.7358C57.9717 93.7603 57.9825 93.7831 57.9981 93.8026C58.0137 93.8221 58.0336 93.8377 58.0563 93.8482C58.079 93.8586 58.1038 93.8637 58.1287 93.8629H68.0728C68.0957 93.8631 68.1184 93.8583 68.1393 93.849C68.1602 93.8397 68.1789 93.8261 68.1941 93.8089C68.2094 93.7918 68.2207 93.7716 68.2275 93.7497C68.2343 93.7279 68.2363 93.7048 68.2335 93.682C68.1357 92.4112 67.541 91.2301 66.5782 90.395C65.6154 89.5599 64.3623 89.1382 63.0907 89.2212Z" fill="#01A71C"/>
<path d="M84.4052 55.866L63.3118 79.5564C63.2516 79.6215 63.1786 79.6735 63.0974 79.7091C63.0161 79.7446 62.9284 79.763 62.8397 79.763C62.751 79.763 62.6633 79.7446 62.5821 79.7091C62.5008 79.6735 62.4278 79.6215 62.3676 79.5564L51.5999 68.4446C51.5087 68.3306 51.4589 68.1888 51.4589 68.0427C51.4589 67.8966 51.5087 67.7549 51.5999 67.6409L55.1557 63.0796C55.2152 62.9966 55.2936 62.929 55.3845 62.8824C55.4753 62.8358 55.5759 62.8115 55.678 62.8115C55.7801 62.8115 55.8807 62.8358 55.9715 62.8824C56.0624 62.929 56.1408 62.9966 56.2003 63.0796L62.227 69.7507C62.2873 69.8225 62.3627 69.8803 62.4477 69.9199C62.5327 69.9595 62.6254 69.9801 62.7192 69.9801C62.813 69.9801 62.9056 69.9595 62.9907 69.9199C63.0757 69.8803 63.151 69.8225 63.2114 69.7507L80.0057 46.7234C80.0525 46.6553 80.0801 46.576 80.0858 46.4936C80.0915 46.4113 80.075 46.3289 80.0381 46.2551C80.0012 46.1812 79.9452 46.1186 79.8759 46.0738C79.8066 46.0289 79.7266 46.0034 79.6441 46H20.5022C20.369 46 20.2413 46.0529 20.1471 46.1471C20.0529 46.2413 20 46.3691 20 46.5023V113.816C20 113.949 20.0529 114.077 20.1471 114.171C20.2413 114.265 20.369 114.318 20.5022 114.318H84.7869C84.9201 114.318 85.0479 114.265 85.142 114.171C85.2362 114.077 85.2891 113.949 85.2891 113.816V56.1674C85.3291 56.0501 85.3209 55.9218 85.2662 55.8107C85.2116 55.6995 85.1151 55.6146 84.9978 55.5746C84.8806 55.5347 84.7523 55.5429 84.6412 55.5975C84.5301 55.6522 84.4452 55.7487 84.4052 55.866ZM38.2006 106.823C33.9805 107.036 29.8438 105.595 26.6695 102.805C26.5693 102.691 26.5139 102.545 26.5139 102.393C26.5139 102.241 26.5693 102.095 26.6695 101.981L29.1807 98.4645C29.2221 98.3925 29.2776 98.3295 29.3438 98.2793C29.4099 98.229 29.4855 98.1925 29.566 98.1719C29.6465 98.1513 29.7303 98.147 29.8125 98.1593C29.8946 98.1716 29.9735 98.2002 30.0445 98.2435C32.3384 100.371 35.3537 101.548 38.4818 101.539C41.7764 101.539 43.3836 100.012 43.3836 98.4042C43.3836 93.421 27.1517 96.8369 27.1517 86.2275C27.1517 81.5457 31.1695 77.6475 37.839 77.6475C41.6665 77.5114 45.4136 78.7678 48.3857 81.184C48.4974 81.3001 48.5598 81.4549 48.5598 81.616C48.5598 81.7771 48.4974 81.9319 48.3857 82.048L45.9148 85.484C45.8637 85.5524 45.7992 85.6095 45.7252 85.6519C45.6512 85.6943 45.5693 85.721 45.4846 85.7304C45.3998 85.7398 45.314 85.7317 45.2325 85.7066C45.151 85.6815 45.0755 85.64 45.0108 85.5845C42.8192 83.8423 40.0959 82.9059 37.2966 82.9321C34.7252 82.9321 33.2788 84.0775 33.2788 85.7653C33.2788 90.2462 49.4705 87.2523 49.4705 97.8215C49.4705 102.925 45.7942 106.823 38.1805 106.823H38.2006ZM73.5974 97.0379C73.6002 97.1125 73.5876 97.1869 73.5603 97.2565C73.533 97.326 73.4917 97.3892 73.4389 97.442C73.3861 97.4948 73.3229 97.5361 73.2534 97.5634C73.1839 97.5907 73.1095 97.6033 73.0349 97.6005H58.169C58.1452 97.603 58.1222 97.6102 58.1012 97.6217C58.0802 97.6332 58.0617 97.6487 58.0467 97.6674C58.0318 97.6861 58.0207 97.7076 58.0141 97.7306C58.0075 97.7536 58.0055 97.7777 58.0083 97.8014C58.2494 99.1909 59.0016 100.44 60.1169 101.303C61.2322 102.165 62.6299 102.579 64.035 102.463C65.8788 102.424 67.6693 101.837 69.1778 100.775C69.2366 100.726 69.3053 100.69 69.3793 100.669C69.4532 100.648 69.5307 100.643 69.6067 100.655C69.6827 100.666 69.7554 100.693 69.82 100.735C69.8845 100.777 69.9395 100.831 69.9813 100.896L71.7893 103.528C71.8647 103.645 71.8941 103.786 71.8718 103.923C71.8495 104.06 71.7772 104.184 71.6688 104.272C69.2819 106.014 66.3863 106.918 63.4323 106.844C61.9567 106.926 60.4802 106.699 59.0974 106.177C57.7146 105.655 56.4561 104.85 55.4026 103.813C54.3491 102.777 53.5238 101.531 52.9796 100.157C52.4355 98.7824 52.1845 97.3094 52.2428 95.8323C52.2018 94.3906 52.4535 92.9556 52.9827 91.6139C53.5118 90.2723 54.3073 89.0519 55.3213 88.0264C56.3352 87.001 57.5465 86.1918 58.8819 85.6477C60.2173 85.1037 61.6491 84.8361 63.0908 84.8611C69.3385 84.8611 73.5773 89.5429 73.5773 96.3949L73.5974 97.0379Z" fill="#01A71C"/>
</g>
<defs>
<clipPath id="clip0_478_11464">
<rect width="280" height="68.3184" fill="white" transform="translate(20 46)"/>
</clipPath>
</defs>
</svg>
