<?xml version="1.0"?>
<svg xmlns="http://www.w3.org/2000/svg" width="320" height="160" viewBox="0 0 320 160" fill="none">
<path fill-rule="evenodd" clip-rule="evenodd" d="M50 108.787V50.9299H64.8602V55.5852C69.4313 51.7899 75.1913 49.72 81.1327 49.7463C88.8389 49.7253 96.1559 53.1339 101.122 59.0491C104.888 63.5886 107.074 69.4249 107.074 79.3325V108.79H91.6295V78.1253C91.6295 72.4758 90.3144 69.4249 88.2103 67.2787C85.8546 65.1018 82.7338 63.9446 79.5283 64.0594C76.8061 64.1419 74.1359 64.8264 71.7098 66.0638C69.2836 67.3013 67.1617 69.0608 65.4966 71.216V108.879L50 108.787Z" fill="#293E40"/>
<path fill-rule="evenodd" clip-rule="evenodd" d="M146.821 49.7402C140.061 49.7565 133.46 51.7934 127.866 55.5894C122.272 59.3854 117.94 64.767 115.428 71.0431C112.916 77.3191 112.337 84.203 113.766 90.8104C115.196 97.4178 118.568 103.447 123.45 108.124C125.835 110.399 129.499 110.596 132.129 108.576C136.299 105.482 141.354 103.812 146.546 103.812C151.738 103.812 156.793 105.482 160.963 108.576C162.236 109.585 163.833 110.096 165.455 110.012C167.077 109.929 168.613 109.258 169.776 108.124C174.634 103.472 177.998 97.4798 179.44 90.9106C180.883 84.3413 180.339 77.4914 177.878 71.2322C175.416 64.9729 171.149 59.5872 165.618 55.7602C160.087 51.9331 153.546 49.8376 146.821 49.7402ZM146.629 100.457C142.11 100.604 137.731 98.8787 134.522 95.6963C131.314 92.5138 129.562 88.1426 129.678 83.624C129.578 80.6037 130.292 77.6121 131.745 74.9623C133.198 72.3126 135.336 70.102 137.936 68.562C140.536 67.022 143.502 66.2091 146.524 66.2086C149.546 66.208 152.513 67.0197 155.113 68.5587C157.714 70.0993 159.852 72.3105 161.304 74.9609C162.757 77.6113 163.47 80.6034 163.369 83.624C163.49 88.1215 161.755 92.477 158.572 95.6621C155.39 98.8471 151.034 100.58 146.534 100.459" fill="#81B5A1"/>
<path fill-rule="evenodd" clip-rule="evenodd" d="M223.224 75.8438L210.862 108.783H199.355L176.395 50.9287H191.839L204.4 83.9998L216.762 50.9287H229.662L241.884 83.9998L254.577 50.9287H270L247.066 108.786H235.559L223.224 75.8438Z" fill="#293E40"/>
</svg>
