<?xml version="1.0"?>
<svg xmlns="http://www.w3.org/2000/svg" width="280" height="56" viewBox="0 0 280 56" fill="none">
<path d="M0 5.83497L32.6131 0C32.6243 18.6249 32.6243 37.2497 32.6131 55.8746C21.7495 53.9482 10.886 51.9883 0 50.062V5.83497ZM10.8636 18.4457C9.53082 20.0248 9.11644 22.2087 9.36283 24.2134C9.56442 25.9606 10.5388 27.5621 11.8603 28.6709C13.0699 29.7012 14.6154 30.3284 15.7018 31.5379C16.5193 32.4451 16.7209 33.957 15.9034 34.9314C15.2538 35.7154 14.1338 35.7714 13.2155 35.6146C11.6699 35.3906 10.3596 34.4386 9.34043 33.2851L9.35163 38.1121C10.8524 39.2544 12.7899 39.6576 14.6378 39.6464C15.9482 39.6128 17.2809 39.3104 18.3449 38.5153C19.6776 37.5409 20.4504 35.9506 20.6408 34.3378C20.9096 32.4563 20.596 30.4292 19.4312 28.8836C18.4121 27.5957 17.0457 26.6549 15.657 25.8262C14.9066 25.367 14.1562 24.8742 13.6523 24.135C13.0587 23.1271 13.0811 21.6935 13.9546 20.8648C14.6826 20.1592 15.7914 20.1032 16.7433 20.2152C17.9081 20.3384 19.0056 20.8648 19.9128 21.5815V16.7881C18.4009 16.1722 16.7209 16.105 15.1194 16.2282C13.4955 16.4409 11.9051 17.1801 10.8636 18.4457ZM35.7714 9.36283C36.8913 8.26527 38.4481 7.5933 40.0272 7.73889C42.2783 7.86209 44.2606 9.62042 44.8206 11.7819C45.033 12.5976 45.0673 13.4493 44.9214 14.2794C46.737 15.045 48.3797 16.1684 49.7517 17.5827C51.1236 18.997 52.1966 20.6731 52.9067 22.5111C53.7048 22.3607 54.5268 22.3955 55.3094 22.613C56.0919 22.8305 56.814 23.2248 57.4201 23.7654C59.3128 25.3894 59.828 28.3349 58.6745 30.5524C57.6441 32.6355 55.1802 33.8786 52.8955 33.4083C51.4955 37.0705 48.5725 40.128 44.9438 41.6175C45.2574 43.4207 44.7086 45.3582 43.3983 46.6573C42.0431 48.0573 39.8592 48.5725 38.0113 47.9453C37.1613 47.6658 36.3975 47.1721 35.7938 46.5117V38.8176C36.8465 37.7201 38.3473 37.0481 39.8704 37.1265C41.3151 37.1601 42.6591 37.8881 43.6335 38.9072C46.6909 37.6977 49.1436 35.133 50.2636 32.0419C49.3564 31.1012 48.7069 29.8916 48.5725 28.5813C48.3485 26.8453 49.054 25.087 50.2636 23.8662C49.1436 20.764 46.6797 18.1769 43.5999 16.9673C42.7142 17.9823 41.4785 18.6261 40.1392 18.7705C38.5265 18.9496 36.9025 18.2553 35.7714 17.1129V9.36283ZM96.1033 9.34043H99.9784V24.8294C101.188 22.8359 103.025 21.1336 105.332 20.5624C107.393 20.0472 109.632 20.1144 111.604 20.932C113.328 21.6487 114.594 23.1943 115.199 24.9414C115.815 26.6325 115.949 28.4469 115.96 30.2276V44.7534H112.108V31.4819C112.074 29.7348 112.007 27.9317 111.245 26.3189C110.719 25.1766 109.733 24.2022 108.501 23.8326C106.62 23.2391 104.425 23.5303 102.845 24.7398C100.986 26.1622 99.9784 28.5141 99.9448 30.8212V44.731H96.0921C96.1033 32.9491 96.1071 21.1522 96.1033 9.34043ZM233.947 9.8892C235.37 9.37403 237.117 10.3484 237.274 11.8939C237.543 13.2267 236.49 14.6154 235.135 14.761C233.925 14.9626 232.559 14.201 232.301 12.9579C231.965 11.7259 232.704 10.2812 233.947 9.8892ZM78.2625 11.5691C80.368 10.7068 82.6751 10.5948 84.9038 10.7292C86.5949 10.8412 88.3309 11.0652 89.8428 11.8603V16.3177C87.7373 14.6714 84.971 14.1226 82.3503 14.2794C80.6032 14.3802 78.8 15.0746 77.7025 16.4633C76.5601 17.9305 76.5601 20.0136 77.1761 21.6935C78.0161 23.4967 79.8528 24.4934 81.4767 25.5126C84.1086 27.0581 86.8973 28.4581 89.0252 30.7092C89.7614 31.465 90.3381 32.3611 90.721 33.3442C91.1039 34.3274 91.2851 35.3775 91.2539 36.4321C91.2875 38.6833 90.4588 40.9904 88.7676 42.5135C86.7629 44.4062 83.9518 45.1902 81.2639 45.3134C79.1024 45.4926 76.9185 45.0558 74.8466 44.4174C74.0514 44.1598 73.2563 43.8798 72.5731 43.4095L72.5843 38.7057C74.421 40.3184 76.7953 41.2256 79.1696 41.6175C80.9504 41.8751 82.8207 41.7631 84.5118 41.08C85.6094 40.6208 86.5165 39.68 86.8525 38.5153C87.3453 36.8577 87.1437 34.9314 86.0574 33.5427C85.1838 32.4451 83.9854 31.6499 82.8207 30.866C80.7936 29.5108 78.5648 28.4805 76.6385 26.9797C75.2386 25.8934 73.8834 24.6166 73.2339 22.9367C72.4946 21.0029 72.4275 18.8766 73.0435 16.9001C73.7938 14.4138 75.8882 12.5211 78.2625 11.5691ZM183.247 11.2444H189.575C191.96 11.2556 194.413 11.0988 196.765 11.7595C199.038 12.3531 201.178 13.7307 202.41 15.769C203.765 18.0313 203.989 20.8088 203.585 23.3511C203.182 25.8934 201.704 28.2229 199.621 29.7236C198.12 30.8436 196.328 31.5267 194.491 31.8291C192.084 32.2323 189.631 31.9859 187.189 32.0531V44.7198H183.236C183.247 33.5875 183.269 22.4215 183.247 11.2444ZM187.201 14.8282V28.5253C189.81 28.4469 192.509 28.7828 195.051 27.9877C196.552 27.5061 197.952 26.5541 198.736 25.1654C199.61 23.5863 199.766 21.6935 199.498 19.9352C199.274 18.5353 198.59 17.1577 197.426 16.3065C195.914 15.1754 193.965 14.8842 192.139 14.8282H187.201ZM270.1 14.9738C271.388 14.5706 272.664 14.145 273.952 13.7307C273.963 16.0938 273.952 18.4457 273.952 20.8088H279.978V24.1238H273.975V38.0113C274.008 38.952 274.12 39.96 274.647 40.7664C275.128 41.5279 276.047 41.8863 276.909 41.9423C277.996 42.0766 279.095 41.8098 280 41.192V44.5182C278.611 45.2238 277.01 45.3582 275.475 45.235C274.154 45.123 272.787 44.675 271.847 43.7007C270.604 42.4575 270.189 40.6432 270.111 38.952V24.1014H265.967V20.8088H270.111C270.1 18.86 270.077 16.9225 270.1 14.9738ZM126.197 20.8536C128.772 20.1368 131.595 19.924 134.159 20.82C135.07 21.1446 135.898 21.6678 136.581 22.3515C137.265 23.0353 137.788 23.8626 138.113 24.7734C138.874 26.7445 138.818 28.9172 138.796 31.0004V44.731H134.943V40.9344C134.003 42.5807 132.614 44.0254 130.822 44.7086C128.873 45.4702 126.678 45.4702 124.685 44.9326C122.523 44.3278 120.653 42.5919 120.126 40.3744C119.712 38.6273 119.813 36.7121 120.53 35.0322C121.067 33.7107 122.109 32.6467 123.329 31.9411C124.685 31.1572 126.208 30.7652 127.753 30.5412C130.161 30.2052 132.547 29.8692 134.955 29.522C134.921 27.9317 134.719 26.1958 133.644 24.9302C132.771 23.8774 131.337 23.4631 129.993 23.5079C127.16 23.4631 124.382 24.6054 122.232 26.4197V22.4215C123.43 21.6711 124.83 21.2568 126.197 20.8536ZM128.156 33.6435C126.824 33.9458 125.289 34.293 124.472 35.5026C123.833 36.5217 123.755 37.7985 123.934 38.9408C124.203 40.3296 125.379 41.3823 126.712 41.7631C128.234 42.182 129.856 42.0389 131.281 41.3599C132.116 40.92 132.849 40.31 133.434 39.5692C134.018 38.8285 134.441 37.9735 134.675 37.0593C135.078 35.6258 134.876 34.1138 134.932 32.6467C132.681 33.0163 130.419 33.2851 128.156 33.6435ZM162.114 22.4663C163.943 21.0041 166.223 20.2205 168.564 20.2488C170.704 20.204 172.91 20.7416 174.623 22.0631C176.337 23.3847 177.491 25.3894 178.006 27.4837C178.543 29.522 178.498 31.6387 178.498 33.7443C172.876 33.7443 167.232 33.7331 161.598 33.7443C161.699 35.6258 162.024 37.5857 163.144 39.1424C164.23 40.7216 166.045 41.6959 167.926 41.9199C171.084 42.3791 174.343 41.3599 176.83 39.3664C176.819 40.576 176.83 41.8079 176.83 43.0175C174.646 44.6302 171.891 45.235 169.225 45.3246C166.974 45.4254 164.656 45.067 162.696 43.891C160.736 42.7151 159.302 40.8 158.541 38.6833C157.701 36.3873 157.533 33.8898 157.678 31.4707C157.914 28.0549 159.403 24.6278 162.114 22.4663ZM164.678 24.8742C162.953 26.2294 161.968 28.3461 161.666 30.4852H174.523C174.511 28.6821 174.119 26.7781 172.932 25.367C171.924 24.135 170.3 23.5303 168.744 23.5527C167.273 23.4836 165.827 23.9535 164.678 24.8742ZM214.796 20.3496C217.63 20.0472 220.676 20.3048 223.14 21.8503C225.783 23.4743 227.407 26.3861 227.922 29.3988C228.404 32.2771 228.325 35.3234 227.306 38.0785C226.209 41.0688 223.801 43.5887 220.754 44.6302C218.148 45.4908 215.349 45.5841 212.691 44.899C209.891 44.1822 207.46 42.2111 206.128 39.6576C204.728 37.0817 204.47 34.0466 204.728 31.1684C204.963 28.5365 205.87 25.9158 207.673 23.9222C209.454 21.8391 212.086 20.652 214.796 20.3496ZM215.166 23.6311C214.163 23.7615 213.199 24.1047 212.34 24.6378C211.48 25.1709 210.745 25.8816 210.182 26.7221C208.715 28.9508 208.446 31.7395 208.648 34.349C208.838 36.7681 209.88 39.2544 211.929 40.6768C213.519 41.8191 215.558 42.1551 217.484 41.9871C219.041 41.8639 220.609 41.2815 221.718 40.184C222.927 39.0528 223.61 37.4625 223.935 35.8498C224.263 34.0456 224.301 32.2005 224.047 30.3844C223.745 28.1669 222.725 25.8934 220.777 24.6502C219.142 23.5751 217.07 23.4071 215.166 23.6311ZM248.955 22.3319C250.268 21.1683 251.913 20.4474 253.659 20.2712C255.551 20.092 257.567 20.2712 259.202 21.2903C261.039 22.4103 262.137 24.4262 262.585 26.4645C263.066 28.5253 262.932 30.642 262.954 32.7139V44.7086H259.102V30.9668C259.057 29.2196 258.878 27.3829 257.982 25.8374C257.669 25.2866 257.243 24.8089 256.731 24.4361C256.219 24.0634 255.634 23.8042 255.014 23.6759C253.569 23.3623 251.99 23.4967 250.668 24.191C248.328 25.423 246.973 28.0437 246.939 30.642C246.928 35.3458 246.939 40.0272 246.939 44.731H243.086V20.7864H246.939V24.8182C247.521 23.9334 248.137 23.0487 248.955 22.3319ZM151.53 21.4583C153.143 20.2488 155.338 20.148 157.219 20.6968V24.7398C156.055 23.9446 154.543 23.799 153.187 24.0678C151.564 24.415 150.365 25.7702 149.648 27.2037C148.741 29.0628 148.517 31.1684 148.584 33.2291V44.731H144.732V20.8088H148.607V25.815C149.144 24.135 150.052 22.4999 151.53 21.4583ZM232.794 20.8088H236.669V44.7422H232.816L232.794 20.8088Z" fill="#0072C6"/>
</svg>
