<?xml version="1.0"?>
<svg xmlns="http://www.w3.org/2000/svg" width="320" height="160" viewBox="0 0 320 160" fill="none">
<path d="M80.1992 55.187C80.1534 54.7753 79.7875 54.5924 79.513 54.5924C79.2385 54.5924 73.2461 54.1349 73.2461 54.1349C73.2461 54.1349 69.0834 49.9722 68.5802 49.5605C68.1227 49.1031 67.2536 49.2403 66.8876 49.3318C66.8419 49.3318 65.9728 49.6063 64.5547 50.0637C63.1366 45.9925 60.7122 42.2872 56.3665 42.2872H55.9548C54.7655 40.7319 53.2102 40 51.9293 40C41.8657 40 37.0168 52.5796 35.5072 58.9838C31.5732 60.2189 28.7829 61.0423 28.4626 61.1795C26.2669 61.8657 26.2212 61.9114 25.9467 63.9699C25.718 65.5252 20 109.76 20 109.76L64.509 118.085L88.6618 112.87C88.7076 112.779 80.2449 55.5987 80.1992 55.187ZM62.0845 50.7041C60.9867 51.0243 59.6601 51.436 58.3335 51.8935V51.0701C58.3335 48.5999 58.0133 46.5871 57.4186 44.9861C59.7058 45.2606 61.1239 47.7765 62.0845 50.7041ZM54.6282 45.4893C55.2229 47.0446 55.6346 49.2403 55.6346 52.2594V52.7168C53.1644 53.4945 50.557 54.2721 47.8581 55.1413C49.3677 49.3775 52.2495 46.5414 54.6282 45.4893ZM51.7006 42.6532C52.1581 42.6532 52.6155 42.8361 52.9815 43.1106C49.7336 44.6201 46.3028 48.4169 44.8848 56.1019C42.7348 56.7881 40.6763 57.3827 38.7093 58.0232C40.3561 52.1679 44.4731 42.6532 51.7006 42.6532Z" fill="#95BF47"/>
<path d="M79.5133 54.5016C79.2388 54.5016 73.2464 54.0442 73.2464 54.0442C73.2464 54.0442 69.0837 49.8815 68.5805 49.4698C68.3975 49.2868 68.1688 49.1953 67.9858 49.1953L64.6465 118.086L88.7993 112.871C88.7993 112.871 80.3367 55.5995 80.2909 55.1878C80.108 54.7761 79.7878 54.5931 79.5133 54.5016Z" fill="#5E8E3E"/>
<path d="M56.3672 67.8617L53.4396 76.6903C53.4396 76.6903 50.7864 75.2722 47.6301 75.2722C42.9184 75.2722 42.6897 78.2456 42.6897 78.9775C42.6897 83.003 53.2108 84.5583 53.2108 94.0273C53.2108 101.484 48.4992 106.287 42.1408 106.287C34.4558 106.287 30.6133 101.529 30.6133 101.529L32.6718 94.7592C32.6718 94.7592 36.6972 98.2357 40.0823 98.2357C42.3238 98.2357 43.2386 96.4975 43.2386 95.2166C43.2386 89.9561 34.6388 89.7273 34.6388 81.036C34.6388 73.7627 39.8536 66.7181 50.4205 66.7181C54.3544 66.6723 56.3672 67.8617 56.3672 67.8617Z" fill="white"/>
<path d="M116.842 84.463C114.417 83.1821 113.182 82.0385 113.182 80.529C113.182 78.6077 114.92 77.3726 117.619 77.3726C120.776 77.3726 123.566 78.6535 123.566 78.6535L125.762 71.9291C125.762 71.9291 123.749 70.3738 117.802 70.3738C109.522 70.3738 103.759 75.1312 103.759 81.8098C103.759 85.6066 106.458 88.4884 110.026 90.5469C112.953 92.148 113.96 93.3373 113.96 95.0756C113.96 96.8596 112.496 98.3234 109.797 98.3234C105.817 98.3234 102.02 96.2649 102.02 96.2649L99.6875 102.989C99.6875 102.989 103.164 105.322 109.019 105.322C117.528 105.322 123.703 101.114 123.703 93.566C123.612 89.4491 120.547 86.6129 116.842 84.463ZM150.784 70.2823C146.575 70.2823 143.282 72.2951 140.766 75.3142L140.674 75.2684L144.334 56.2389H134.865L125.624 104.728H135.093L138.25 88.1682C139.485 81.9013 142.733 78.0131 145.752 78.0131C147.902 78.0131 148.725 79.4769 148.725 81.5354C148.725 82.8162 148.634 84.463 148.313 85.7438L144.745 104.728H154.214L157.92 85.1491C158.331 83.0906 158.606 80.6205 158.606 78.9279C158.56 73.4844 155.77 70.2823 150.784 70.2823ZM180.014 70.2823C168.578 70.2823 161.03 80.5747 161.03 92.0565C161.03 99.3755 165.559 105.322 174.067 105.322C185.275 105.322 192.822 95.3043 192.822 83.5481C192.868 76.7322 188.934 70.2823 180.014 70.2823ZM175.348 98.0947C172.1 98.0947 170.774 95.3501 170.774 91.8735C170.774 86.43 173.564 77.6014 178.733 77.6014C182.073 77.6014 183.216 80.529 183.216 83.3194C183.216 89.1289 180.334 98.0947 175.348 98.0947ZM217.112 70.2823C210.708 70.2823 207.095 75.9546 207.095 75.9546H207.003L207.552 70.877H199.135C198.723 74.3078 197.946 79.5684 197.214 83.4566L190.672 118.176H200.141L202.795 104.133H203.023C203.023 104.133 204.99 105.368 208.558 105.368C219.72 105.368 226.993 93.932 226.993 82.4045C226.947 76.0003 224.066 70.2823 217.112 70.2823ZM208.055 98.1862C205.585 98.1862 204.121 96.7681 204.121 96.7681L205.676 87.9395C206.774 81.9928 209.885 78.1046 213.178 78.1046C216.106 78.1046 216.975 80.8034 216.975 83.3194C217.021 89.4491 213.361 98.1862 208.055 98.1862ZM240.488 56.6963C237.469 56.6963 235.044 59.1208 235.044 62.1856C235.044 64.976 236.828 66.943 239.527 66.943H239.619C242.592 66.943 245.108 64.9303 245.154 61.4537C245.199 58.6633 243.324 56.6963 240.488 56.6963ZM227.222 104.682H236.691L243.095 71.0142H233.58M267.248 70.9685H260.661L260.981 69.4132C261.53 66.1654 263.451 63.3292 266.653 63.3292C268.346 63.3292 269.672 63.8324 269.672 63.8324L271.502 56.3761C271.502 56.3761 269.901 55.5527 266.333 55.5527C262.994 55.5527 259.609 56.5134 257.047 58.7091C253.799 61.4537 252.29 65.4334 251.558 69.4589L251.283 71.0142H246.846L245.428 78.196H249.865L244.833 104.728H254.302L259.334 78.196H265.876L267.248 70.9685ZM290.074 71.0142C290.074 71.0142 284.128 85.9725 281.52 94.1607H281.429C281.246 91.5076 279.096 71.0142 279.096 71.0142H269.123L274.841 101.846C274.933 102.532 274.887 102.944 274.613 103.401C273.515 105.551 271.639 107.609 269.444 109.119C267.66 110.4 265.647 111.269 264.046 111.818L266.699 119.869C268.62 119.457 272.646 117.856 275.985 114.7C280.285 110.674 284.31 104.407 288.427 95.899L300.001 70.9685H290.074V71.0142Z" fill="black"/>
</svg>
