<?xml version="1.0"?>
<svg xmlns="http://www.w3.org/2000/svg" width="320" height="160" viewBox="0 0 320 160" fill="none">
<g clip-path="url(#clip0_478_11800)">
<path d="M167.691 62.5806C175.643 62.5806 183.449 68.8702 183.449 80.2196V80.3643C183.449 91.6415 175.715 98.0027 167.691 98.0027C162.053 98.0027 158.511 95.1837 156.126 92.0031V104.003C156.13 105.018 155.737 105.995 155.031 106.724C154.325 107.453 153.361 107.877 152.347 107.905L152.222 107.907C150.126 107.907 148.391 106.172 148.391 104.076V66.6291C148.319 64.5327 150.054 62.7974 152.15 62.7253H152.222C153.237 62.721 154.214 63.1138 154.943 63.82C155.672 64.5262 156.096 65.4896 156.124 66.5042L156.126 66.6291V68.9424C158.656 65.4001 162.198 62.5806 167.692 62.5806H167.691ZM270.626 62.5085C276.032 62.5085 279.548 65.2392 282.07 68.7021L282.191 68.8697V66.5565L282.193 66.4321C282.22 65.4394 282.627 64.495 283.329 63.7926C284.031 63.0903 284.975 62.6833 285.968 62.6552L286.094 62.6532H286.167C288.294 62.7243 290.004 64.3941 290 66.5042L289.998 66.6291V90.3404C289.998 96.0511 288.48 100.316 285.661 103.136C282.625 106.244 277.854 107.69 271.71 107.69C267.156 107.69 262.674 106.678 258.554 104.653C257.253 104.22 256.386 102.919 256.386 101.545C256.458 99.7375 257.904 98.3643 259.711 98.3643C260.216 98.3643 260.65 98.437 261.084 98.6538C264.265 100.461 267.879 101.328 271.493 101.328C278.071 101.328 281.83 98.1475 282.191 92.0031C279.806 95.1111 276.264 97.9306 270.626 97.9306C262.682 97.9306 255.022 91.6958 254.87 80.6284L254.867 80.2917V80.1474C254.867 68.7976 262.674 62.5085 270.626 62.5085ZM239.759 62.7253C247.422 62.7253 251.831 67.8581 251.831 75.7378V94.0268C251.904 96.1232 250.241 97.7859 248.144 97.8585H248C245.904 97.9306 244.169 96.1958 244.097 94.0995V78.1232C244.097 72.8462 241.495 69.8098 236.796 69.8098C232.314 69.8098 229.133 72.9904 229.133 78.2679V94.0995C229.136 94.6126 229.036 95.1211 228.841 95.5956C228.645 96.0701 228.358 96.5013 227.995 96.8641C227.632 97.227 227.201 97.5144 226.727 97.7099C226.252 97.9053 225.744 98.0048 225.23 98.0027C224.717 98.0049 224.209 97.9054 223.734 97.71C223.26 97.5146 222.829 97.2272 222.466 96.8643C222.103 96.5014 221.815 96.0703 221.62 95.5958C221.424 95.1212 221.325 94.6127 221.327 94.0995L221.399 66.7012C221.327 64.6049 223.062 62.8701 225.158 62.7974H225.23C226.245 62.7931 227.222 63.186 227.951 63.8923C228.68 64.5986 229.104 65.5621 229.132 66.5768L229.134 66.7012V68.2918C231.447 64.677 235.495 62.5806 239.76 62.7253H239.759ZM132.199 62.6532C135.958 62.7253 139.573 63.6653 142.897 65.4001C144.054 65.9786 144.777 67.0628 144.777 68.3639C144.777 70.0987 143.331 71.5445 141.596 71.5445H141.524C141.018 71.5445 140.512 71.4003 140.006 71.1835C137.548 69.8098 134.874 69.015 132.055 68.8702C129.019 68.8702 127.284 70.3156 127.284 72.1956V72.3398C127.284 74.8699 130.97 75.882 134.946 77.1831L135.272 77.2837L135.6 77.3863C135.982 77.5072 136.366 77.6341 136.749 77.7672L137.078 77.883C141.396 79.4304 145.5 81.8726 145.5 87.0871V87.2319C145.5 94.3884 139.934 97.9306 132.922 97.9306C128.296 97.8585 123.742 96.4848 119.911 93.8826C118.971 93.3037 118.392 92.292 118.465 91.2078C118.465 89.473 119.838 88.0272 121.573 88.0272H121.645C122.224 88.0272 122.802 88.1714 123.308 88.4609C126.199 90.4846 129.597 91.5689 133.067 91.7136C136.392 91.7136 138.343 90.2678 138.343 88.0266V87.8824C138.343 85.2076 134.729 84.3402 130.754 83.1112C130.338 82.9909 129.918 82.8664 129.497 82.7354L129.181 82.6364C124.652 81.1951 120.128 78.9636 120.128 73.1351V72.9904C120.128 66.5565 125.477 62.6532 132.199 62.6532ZM213.52 62.7974C214.535 62.7931 215.511 63.186 216.24 63.8923C216.97 64.5986 217.393 65.5621 217.421 66.5768L217.423 66.7012V94.0995C217.423 96.2679 215.689 97.9306 213.52 97.9306C211.352 97.9306 209.689 96.1958 209.689 94.0995V66.7012C209.617 64.6049 211.352 62.8701 213.448 62.7974H213.52ZM206.581 65.9791V66.557C206.581 68.4365 205.28 70.0271 203.473 70.3161C197.906 71.2561 194.147 76.0994 194.147 82.8228V94.0273C194.147 96.1958 192.413 97.859 190.244 97.859C188.189 97.859 186.482 96.2608 186.416 94.2229L186.413 94.0995V94.0273L186.486 66.6291C186.413 64.5332 188.148 62.7979 190.244 62.7258H190.317C191.331 62.7215 192.308 63.1144 193.037 63.8205C193.766 64.5267 194.19 65.4901 194.218 66.5047L194.22 66.6296V68.5087C194.582 65.6175 199.352 62.7258 202.75 62.7258C204.701 62.5811 206.436 64.0269 206.581 65.9791ZM165.956 69.3766C160.68 69.3766 156.053 73.7862 156.053 80.2201V80.3648C156.053 86.8708 160.679 91.2083 165.956 91.2083C171.233 91.2083 175.642 87.0876 175.642 80.3648V80.2201C175.642 73.6414 171.233 69.3766 165.956 69.3766ZM272.432 69.3044C267.21 69.3044 262.837 73.482 262.748 79.9453L262.746 80.1479V80.2922C262.746 87.0155 267.083 91.2083 272.432 91.2083C277.727 91.2083 282.313 86.8881 282.336 80.4907V80.1479C282.336 73.7136 277.71 69.3044 272.433 69.3044H272.432ZM217.496 53.2555V53.3998C217.498 53.913 217.399 54.4216 217.203 54.8962C217.008 55.3708 216.72 55.802 216.357 56.165C215.995 56.5279 215.563 56.8154 215.089 57.0108C214.614 57.2062 214.106 57.3057 213.592 57.3036C213.079 57.3057 212.571 57.2062 212.096 57.0108C211.622 56.8154 211.19 56.5279 210.827 56.165C210.465 55.802 210.177 55.3708 209.982 54.8962C209.786 54.4216 209.687 53.913 209.689 53.3998C209.685 52.3848 210.077 51.4083 210.784 50.6792C211.49 49.95 212.453 49.5261 213.468 49.498L213.592 49.496C215.689 49.4239 217.423 51.1587 217.496 53.2555ZM40.6859 54.8456C54.5643 41.3999 76.7566 41.761 90.2014 55.713C91.7197 53.6892 93.0207 51.4481 93.9602 49.1349C98.3695 62.5806 101.044 73.8583 100.032 82.6054C99.5263 89.9788 96.6348 97.0632 91.8639 102.702C79.4307 117.449 57.3116 119.329 42.5658 106.895L42.2819 106.643L42.2327 106.609C42.063 106.488 41.9071 106.35 41.7675 106.196L41.7284 106.151L41.2643 105.738C40.8306 105.366 40.3969 104.994 40.0085 104.577L39.8185 104.365C26.3733 90.4851 26.8074 68.2918 40.6859 54.8456ZM45.8909 101.907C44.5894 100.894 42.71 101.039 41.6979 102.34C40.8159 103.475 40.8123 105.049 41.6883 106.104L41.7284 106.151L42.2819 106.643L42.3363 106.68C43.5885 107.505 45.2704 107.344 46.2449 106.197L46.3241 106.099C47.3361 104.798 47.1198 102.919 45.8909 101.907ZM93.5981 52.7497C89.984 60.3405 81.0207 66.1233 73.2857 67.9307C70.3064 68.6387 67.483 68.8169 64.7276 68.9566L63.9029 68.9982C60.2005 69.1836 56.6057 69.3882 52.9017 70.8224C37.5771 76.6778 37.8665 94.8952 46.2515 99.0154L46.7572 99.3049C46.7572 99.3049 52.3061 98.2013 58.0337 96.7123L58.5465 96.5777L58.8035 96.5097L59.3164 96.3726C61.7092 95.7276 64.0624 95.0253 65.9854 94.3168C75.9609 90.6299 86.9478 81.5212 90.5624 70.9671C88.683 81.9549 79.2134 92.5815 69.7443 97.4253C64.6844 100.028 60.7809 100.606 52.4681 103.498C51.456 103.859 50.6608 104.22 50.6608 104.22L50.804 104.201L51.0889 104.163L51.3722 104.128C53.2064 103.9 54.8532 103.787 54.8532 103.787C66.636 103.208 85.141 107.112 93.7428 95.6179C102.561 83.907 97.6464 64.9669 93.5981 52.7497Z" fill="#6DB33F"/>
<path d="M45.8902 101.906C47.1191 102.918 47.3359 104.798 46.3238 106.099C45.3118 107.401 43.4324 107.545 42.1314 106.533C40.8304 105.521 40.6856 103.642 41.6977 102.34C42.7098 101.039 44.5892 100.894 45.8902 101.906ZM93.5989 52.749C97.6461 64.9662 102.562 83.9063 93.7431 95.6172C85.1408 107.111 66.6362 103.207 54.8535 103.786C54.8535 103.786 52.7573 103.931 50.661 104.22C50.661 104.22 51.4563 103.859 52.4683 103.497C60.7812 100.605 64.6847 100.027 69.744 97.4246C79.2137 92.5808 88.6833 81.9542 90.5627 70.9659C86.9481 81.5205 75.9611 90.6297 65.9857 94.3161C64.2003 94.9738 62.0431 95.6263 59.829 96.2327L59.3172 96.3719C53.1656 98.03 46.7575 99.3042 46.7575 99.3042L46.2517 99.0147C37.8668 94.8945 37.5773 76.6771 52.902 70.8217C59.6244 68.219 65.9857 69.6648 73.2865 67.93C81.0209 66.1226 89.9843 60.3398 93.5989 52.749Z" fill="white"/>
</g>
<defs>
<clipPath id="clip0_478_11800">
<rect width="260" height="70.1181" fill="white" transform="translate(30 45)"/>
</clipPath>
</defs>
</svg>
