<?xml version="1.0"?>
<svg xmlns="http://www.w3.org/2000/svg" width="320" height="160" viewBox="0 0 320 160" fill="none">
<path d="M191.297 54.5482L172.19 60.8105L155.549 68.1639L150.903 69.3973C149.717 70.5359 148.485 71.6745 147.11 72.8131C145.64 74.094 144.265 75.2326 143.222 76.0865C142.037 77.0354 140.33 78.7432 139.429 79.8344C138.102 81.4948 137.058 83.2502 136.632 84.5785C135.826 86.998 136.205 89.465 137.77 91.7421C139.713 94.6361 143.649 97.5774 148.2 99.5699C150.523 100.614 154.458 101.895 157.398 102.654C162.281 103.887 171.764 105.263 176.979 105.453C178.022 105.5 179.444 105.5 179.492 105.453C179.586 105.358 180.44 103.84 181.341 101.895C184.565 95.3477 186.84 89.1803 188.12 83.9618C188.879 80.7832 189.448 76.561 189.875 71.5322C189.969 70.1089 190.017 65.4123 189.922 63.8467C189.78 61.2374 189.543 59.15 189.211 57.0626C189.163 56.778 189.116 56.4933 189.163 56.4933C189.211 56.4459 189.401 56.3984 191.771 55.7342L191.297 54.5482ZM186.935 57.11C187.125 57.11 187.552 61.5695 187.694 64.3686C187.741 64.9379 187.694 65.3648 187.694 65.3648C187.599 65.3648 185.276 63.989 183.569 62.9453C182.147 62.0439 179.397 60.1937 178.97 59.8616C178.828 59.7668 178.828 59.7668 180.013 59.3398C182.004 58.6282 186.746 57.11 186.935 57.11ZM177.168 60.3361C177.311 60.3361 177.643 60.5258 178.449 61.0002C181.435 62.8504 185.465 65.1276 187.22 65.8867C187.741 66.1239 187.789 66.029 186.603 66.8829C183.996 68.6857 180.677 70.441 176.694 72.1964C175.983 72.5285 175.414 72.7657 175.367 72.7657C175.319 72.7657 175.414 72.3861 175.556 71.9592C176.505 68.3536 177.074 64.7006 177.121 61.8067C177.026 60.3361 177.026 60.3361 177.168 60.3361ZM175.177 61.0951C175.272 61.19 175.225 64.416 175.082 65.3174C174.845 67.4048 174.419 69.3973 173.755 71.6271C173.613 72.1489 173.47 72.6233 173.423 72.6233C173.376 72.7182 171.384 70.7731 170.72 70.0141C169.583 68.7331 168.729 67.4048 168.065 66.1239C167.734 65.4597 167.212 64.1788 167.259 64.1788C167.497 63.989 175.13 61.0477 175.177 61.0951ZM165.742 64.7955C165.837 64.843 165.932 65.0802 165.979 65.3174C166.453 66.5983 167.497 68.4485 168.397 69.5871C169.393 70.868 170.673 72.2912 171.716 73.1926C172.048 73.4773 172.38 73.7619 172.427 73.8094C172.522 73.9042 172.522 73.9042 170.199 74.7582C167.449 75.8019 164.51 76.8456 161.096 77.9367C160.29 78.2214 159.484 78.4586 158.678 78.7432C158.536 78.7907 158.583 78.6958 158.962 78.1265C160.669 75.4698 163.229 70.2987 164.652 66.5983C164.889 65.9816 165.126 65.3174 165.173 65.1751C165.221 64.9853 165.316 64.8904 165.505 64.7955C165.6 64.843 165.695 64.7955 165.742 64.7955ZM162.85 65.9816C162.898 66.029 162.139 67.5471 161.428 68.9704C160.006 71.7219 158.488 74.3787 156.45 77.6521C156.118 78.2214 155.786 78.7432 155.739 78.7907C155.644 78.8856 155.644 78.8856 155.407 78.4112C154.933 77.4623 154.506 76.1814 154.316 75.0428C154.079 73.9042 154.127 71.9592 154.411 70.7257C154.601 69.8243 154.601 69.8243 155.027 69.6345C156.782 68.7331 162.755 65.9341 162.85 65.9816ZM187.741 67.0253V67.642C187.741 70.868 187.409 75.28 186.888 78.506C186.793 79.0753 186.746 79.5498 186.698 79.5498C186.698 79.5498 186.271 79.4549 185.797 79.3125C183.616 78.6484 181.293 77.6521 179.16 76.4661C177.737 75.707 175.699 74.4261 175.793 74.3787C175.793 74.3787 176.41 74.0466 177.121 73.667C179.966 72.1964 182.668 70.5834 185.039 69.0178C185.94 68.4485 187.267 67.4522 187.552 67.215L187.741 67.0253ZM151.946 71.295C151.993 71.295 151.993 71.3899 151.898 71.9117C151.851 72.2912 151.756 73.0029 151.756 73.4773C151.661 75.5647 151.993 77.1302 153.036 79.2651C153.321 79.8344 153.558 80.3563 153.558 80.3563C153.463 80.4511 143.886 83.2502 140.899 84.0567C139.998 84.2939 139.239 84.5311 139.145 84.5311C139.05 84.5785 139.05 84.5311 139.05 84.2939C139.382 82.159 140.994 79.4074 143.269 77.0354C144.787 75.4698 145.972 74.5684 148.01 73.3824C149.48 72.6233 151.709 71.3424 151.946 71.295C151.898 71.295 151.898 71.295 151.946 71.295ZM174.466 75.3275C174.466 75.3275 174.845 75.5173 175.225 75.7545C178.306 77.5572 182.621 79.2177 186.271 80.0716L186.603 80.1665L186.129 80.4037C184.185 81.4948 177.88 84.1041 171.432 86.5236C170.483 86.8557 169.583 87.2352 169.393 87.2827C169.203 87.3776 169.061 87.3776 169.061 87.3776C169.061 87.3776 169.298 86.8557 169.63 86.239C171.432 82.8706 173.233 78.7432 174.182 75.8968C174.371 75.5647 174.466 75.3275 174.466 75.3275ZM172.19 76.0865C172.19 76.0865 172.095 76.4186 171.953 76.7507C170.673 79.787 169.061 83.1078 166.928 86.8557C166.406 87.8045 165.932 88.5636 165.932 88.5636C165.932 88.5636 165.505 88.3264 164.984 87.9943C161.902 86.0966 159.2 83.8195 157.445 81.5423L157.208 81.2102L158.536 80.8307C163.23 79.5498 167.259 78.174 171.242 76.4661C171.669 76.2763 172.143 76.0865 172.19 76.0865ZM186.461 81.0679C186.461 81.4 185.75 84.3888 185.134 86.5236C184.612 88.3264 184.185 89.7496 183.379 92.264C183.047 93.3551 182.716 94.2565 182.716 94.2565C182.716 94.2565 182.621 94.2565 182.526 94.2091C178.259 93.45 174.371 92.3589 170.768 90.8882C169.772 90.4612 168.303 89.8445 168.208 89.7496C168.16 89.7022 169.061 89.3227 170.152 88.8482C176.742 85.9543 183.522 82.7283 185.892 81.3051C186.177 81.1628 186.414 81.0679 186.461 81.0679ZM153.51 82.2065C153.558 82.2539 151.709 84.8632 149.148 88.4687C148.248 89.7496 147.204 91.2203 146.825 91.7421C146.446 92.3114 145.83 93.1654 145.498 93.6872L144.881 94.6361L144.218 94.0668C143.459 93.45 142.131 92.0742 141.515 91.3152C140.282 89.7496 139.429 88.1366 139.097 86.6659C138.955 85.9543 138.955 85.6222 139.097 85.5748C139.334 85.5273 143.175 84.626 146.778 83.772C148.769 83.2976 151.092 82.7758 151.946 82.5385C152.799 82.3488 153.463 82.2065 153.51 82.2065ZM155.359 82.9181L155.833 83.4399C157.919 85.7645 160.053 87.4724 162.613 88.9906C163.087 89.2278 163.419 89.465 163.372 89.5124C163.277 89.6073 154.458 92.7384 150.334 94.1142C148.058 94.9207 146.161 95.5849 146.114 95.5849L145.83 95.3951L145.593 95.2054L146.019 94.5886C147.394 92.6435 149.101 90.4612 152.799 86.0018L155.359 82.9181ZM166.88 91.1729C166.88 91.1729 167.544 91.4101 168.303 91.6947C170.199 92.4063 171.669 92.8333 173.66 93.3552C176.125 93.9719 179.681 94.5886 181.767 94.7784C182.099 94.8258 182.241 94.8258 182.194 94.8733C182.099 94.9207 179.966 95.6323 178.401 96.1542C175.936 96.9132 168.35 99.1904 162.139 100.946C161.001 101.278 160.006 101.562 159.958 101.562C159.816 101.61 159.342 101.468 159.342 101.42C159.342 101.373 159.674 100.946 160.1 100.471C162.186 98.0044 164.225 95.2054 165.979 92.5961C166.453 91.7422 166.88 91.1729 166.88 91.1729ZM164.32 91.2203C164.32 91.2203 163.324 92.8807 161.523 95.7272C160.764 96.9132 159.911 98.289 159.579 98.7635C159.294 99.2379 158.868 99.9495 158.631 100.376L158.204 101.136L157.967 101.088C157.445 100.946 153.795 99.6648 152.846 99.2853C151.661 98.8109 150.428 98.2416 149.48 97.7197C148.342 97.103 146.873 96.1542 147.015 96.1542C147.062 96.1542 149.006 95.5849 151.424 94.9682C157.73 93.2603 161.238 92.264 163.561 91.5049C163.941 91.3152 164.32 91.2203 164.32 91.2203ZM182.289 95.4426C182.384 95.5849 180.013 102.084 179.16 104.124C178.97 104.599 178.923 104.694 178.78 104.694C178.543 104.694 175.13 104.219 173.091 103.887C169.488 103.318 163.467 102.274 161.949 101.942L161.618 101.847L163.751 101.373C168.397 100.329 170.578 99.7597 172.854 99.0955C175.699 98.2416 178.496 97.1504 181.341 95.8221C181.815 95.6323 182.194 95.4426 182.289 95.4426Z" fill="url(#paint0_linear_462_6159)"/>
<path d="M171.574 10.0009C171.242 9.95345 166.122 11.8037 162.803 13.132C158.346 14.9348 154.885 16.6901 152.752 18.2082C151.946 18.7775 150.95 19.7738 150.808 20.1533C150.76 20.2956 150.713 20.4854 150.713 20.6277L152.657 22.4779L157.256 23.9486L168.208 25.8937L180.724 28.0286L180.866 26.9374H180.772L179.112 26.7002L178.78 26.1309C177.074 23.1421 175.177 19.3943 174.087 16.8799C173.233 14.9348 172.427 12.6576 172.001 11.0446C171.764 10.0483 171.716 10.0009 171.574 10.0009ZM171.337 10.7125C171.384 10.7125 171.432 11.1395 171.479 11.6139C171.716 13.6539 172.19 15.599 172.901 17.6864C173.423 19.2994 173.423 19.2045 172.807 19.0147C171.337 18.5878 164.747 17.4492 159.958 16.785C159.2 16.6901 158.536 16.5952 158.536 16.5478C158.488 16.5003 161.997 14.6501 163.514 13.9385C165.505 13.0371 170.958 10.8074 171.337 10.7125ZM157.398 17.212L157.967 17.4017C161.049 18.4454 168.729 19.9161 172.996 20.2482C173.47 20.2956 173.897 20.3431 173.897 20.3431C173.897 20.3431 173.518 20.5803 172.996 20.8175C170.958 21.8612 168.682 23.0947 167.117 24.0909C166.643 24.3756 166.216 24.6128 166.169 24.6128C166.122 24.6128 165.79 24.5654 165.505 24.5179L164.936 24.423L163.514 22.9998C160.954 20.5328 158.962 18.6352 158.204 17.8761L157.398 17.212ZM156.829 17.6389L158.868 20.2008C159.958 21.624 161.096 22.9524 161.333 23.2844C161.57 23.5691 161.76 23.8537 161.76 23.8537C161.712 23.9012 158.82 23.3319 157.303 22.9998C155.738 22.6203 155.075 22.4779 154.127 22.1459L153.321 21.9086V21.7189C153.321 20.7701 154.553 19.2994 156.639 17.8287L156.829 17.6389ZM174.134 21.1021C174.181 21.1021 174.276 21.2445 174.419 21.624C174.893 22.7151 176.457 25.6091 176.837 26.1784C176.931 26.3681 177.168 26.3681 175.13 26.036C170.246 25.2295 168.682 24.9923 168.682 24.9449C168.682 24.9449 168.824 24.85 169.014 24.7077C170.531 23.8537 172.048 22.81 173.423 21.6714C173.755 21.3868 174.039 21.1496 174.134 21.1021Z" fill="url(#paint1_linear_462_6159)"/>
<path d="M150.904 19.9161C150.904 19.9161 150.572 20.438 150.904 21.197C151.093 21.6715 151.662 22.2408 152.279 22.8101C152.279 22.8101 158.726 29.0723 159.485 29.9737C163.041 34.1011 164.606 38.1336 164.748 43.6842C164.843 47.2897 164.179 50.4208 162.472 54.0738C159.485 60.6207 153.132 67.8792 143.365 75.8968L144.788 75.4224C145.688 74.7108 146.968 73.9991 149.908 72.3861C156.735 68.6383 164.368 65.2225 173.756 61.7119C187.268 56.6357 209.504 50.6581 222.163 48.713L223.49 48.5232L223.301 48.1911C222.163 46.3883 221.357 45.2972 220.409 44.1112C217.659 40.648 214.293 37.8964 210.168 35.5717C204.526 32.3932 197.177 29.9262 187.884 28.076C186.13 27.7439 182.29 27.0798 179.161 26.6054C172.523 25.5616 168.256 24.85 163.562 24.0435C161.856 23.7589 159.343 23.3319 157.683 22.9524C156.83 22.7626 155.171 22.3831 153.843 21.9087C152.705 21.5766 151.236 21.1496 150.904 19.9161ZM154.649 23.5691C154.649 23.5691 154.886 23.664 155.218 23.7589C155.787 23.9486 156.498 24.1858 157.304 24.3756C157.921 24.5654 158.584 24.7077 159.201 24.8975C160.054 25.1347 160.813 25.3244 160.813 25.3244C160.907 25.4193 162.377 30.116 162.851 31.8713C163.041 32.5355 163.183 33.1522 163.183 33.1522C163.183 33.1522 162.994 32.915 162.804 32.5829C161.097 29.5942 158.442 26.6054 155.36 24.1384C154.934 23.8063 154.649 23.5691 154.649 23.5691ZM161.761 25.5142C161.856 25.5142 162.14 25.5616 162.519 25.6565C164.985 26.2258 169.394 27.0323 172.191 27.5067C172.665 27.6016 173.045 27.6491 173.045 27.6965C173.045 27.7439 172.855 27.8388 172.665 27.9337C172.191 28.1709 170.247 29.3095 169.631 29.7365C168.019 30.8276 166.597 31.9662 165.554 33.0099L164.795 33.769C164.795 33.769 164.7 33.5318 164.653 33.1997C164.131 31.2071 163.041 28.2184 162.045 26.1309C161.856 25.8463 161.713 25.5142 161.761 25.5142C161.713 25.5142 161.713 25.5142 161.761 25.5142ZM174.23 27.8863C174.325 27.9337 174.467 28.4081 174.752 29.4993C175.273 31.5867 175.51 33.9587 175.463 36.141C175.415 36.7578 175.415 37.3271 175.368 37.3745L175.32 37.5168L174.562 37.2796C172.997 36.8052 170.485 36.0462 168.351 35.4294C167.118 35.0973 166.123 34.8127 166.123 34.7652C166.123 34.6704 167.924 32.8676 168.683 32.2034C170.153 30.9225 174.135 27.8388 174.23 27.8863ZM175.226 28.0286C175.273 27.9811 181.199 29.0249 183.902 29.5467C185.893 29.9262 188.833 30.543 189.022 30.6379C189.117 30.6853 188.785 30.8276 187.837 31.2546C184.044 32.9625 181.199 34.528 178.355 36.3782C177.596 36.8527 176.98 37.2796 176.98 37.2796C176.98 37.2796 176.932 36.8527 176.932 36.3782C176.932 33.6267 176.364 30.8751 175.368 28.503C175.32 28.2658 175.226 28.076 175.226 28.0286ZM190.587 31.0648C190.634 31.1123 190.445 32.2983 190.255 32.9625C189.733 35.0973 188.311 38.3233 186.604 41.3121C186.32 41.834 186.035 42.261 185.988 42.3084C185.941 42.3084 185.561 42.1186 185.135 41.834C183.475 40.8377 181.531 39.9363 179.493 39.0824C178.924 38.8452 178.402 38.6554 178.402 38.608C178.307 38.5131 182.954 35.4294 185.419 33.9587C187.363 32.7727 190.539 31.0174 190.587 31.0648ZM191.677 31.2546C191.82 31.2546 194.427 31.9662 195.802 32.3932C199.216 33.3894 203.103 34.8127 205.616 35.9987L206.659 36.4731L205.901 36.6629C199.69 38.0861 194.38 39.7466 189.259 41.834C188.833 42.0238 188.453 42.1661 188.453 42.1661C188.406 42.1661 188.548 41.834 188.738 41.407C190.302 38.1336 191.298 34.7178 191.535 31.7764C191.63 31.4918 191.677 31.2546 191.677 31.2546ZM165.506 37.2796C165.554 37.2322 167.545 37.7066 168.635 38.0387C170.295 38.5131 173.756 39.6517 173.756 39.7466C173.756 39.7466 173.377 40.0787 172.902 40.5056C171.006 42.0712 169.204 43.7316 167.023 45.8665C166.36 46.4832 165.838 47.0051 165.791 47.0051C165.743 47.0051 165.743 46.9102 165.743 46.8153C166.075 44.3958 165.98 41.2647 165.554 38.0861C165.554 37.6117 165.506 37.2796 165.506 37.2796ZM207.702 37.3271C207.75 37.3745 206.754 38.8452 206.185 39.6991C205.332 40.9326 204.052 42.5931 201.16 46.1986C199.642 48.0962 197.936 50.2785 197.367 50.9901C196.798 51.7018 196.324 52.3185 196.276 52.3185C196.276 52.3185 196.087 52.0813 195.85 51.7492C194.238 49.3297 192.294 47.1948 190.018 45.2972C189.591 44.9177 189.117 44.5381 188.928 44.4433C188.785 44.3484 188.643 44.2061 188.643 44.2061C188.643 44.1586 191.108 43.1149 192.957 42.3558C196.229 41.0275 200.686 39.4145 204.004 38.4182C205.806 37.8015 207.702 37.2796 207.702 37.3271ZM208.84 37.6117C208.888 37.6117 209.267 37.754 209.646 38.0387C213.155 40.0312 216.616 42.6405 219.318 45.2972C220.077 46.0563 221.973 48.0013 221.926 48.0488C221.926 48.0488 221.262 48.0962 220.503 48.1437C214.435 48.6181 206.659 49.899 199.168 51.7018C198.647 51.7966 198.22 51.939 198.173 51.939C198.125 51.939 198.694 51.3697 199.405 50.7055C203.815 46.4832 205.806 43.7791 208.177 39.035C208.508 38.2285 208.793 37.6592 208.84 37.6117C208.793 37.6117 208.793 37.6117 208.84 37.6117ZM176.648 40.8852C176.838 40.9326 178.734 41.834 180.156 42.4982C181.437 43.1623 183.428 44.206 183.523 44.2535C183.523 44.2535 182.859 44.633 182.005 45.06C179.303 46.4358 176.98 47.7167 174.514 49.1874C173.803 49.6144 173.234 49.9464 173.234 49.9464C173.187 49.9464 173.187 49.899 173.566 49.1874C174.846 46.8153 175.889 43.9688 176.506 41.2173C176.553 41.0275 176.601 40.8852 176.648 40.8852ZM174.799 41.2647C174.846 41.3121 174.372 43.0675 174.04 44.0637C173.471 45.9139 172.428 48.1911 171.48 49.9464C171.243 50.3734 170.911 50.9427 170.722 51.2748L170.342 51.8441L169.536 51.085C168.588 50.1836 167.829 49.6143 166.834 49.0925C166.455 48.9027 166.123 48.713 166.123 48.6655C166.123 48.5706 168.588 46.2935 170.485 44.6805C171.859 43.4944 174.752 41.2172 174.799 41.2647ZM186.272 45.9614L186.984 46.4358C188.596 47.4795 190.492 48.9027 191.962 50.1362C192.768 50.8004 194.38 52.2236 194.712 52.6031L194.901 52.7929L193.716 53.125C187.078 54.9752 182.005 56.5882 176.032 58.7705C175.368 59.0077 174.799 59.1975 174.752 59.1975C174.657 59.1975 174.609 59.2924 176.079 57.9166C179.872 54.4059 183.286 50.5157 185.798 46.7679L186.272 45.9614ZM183.238 46.7204C183.286 46.7679 181.294 49.5195 180.109 51.1325C178.687 53.0301 176.174 56.1612 174.467 58.2012C173.756 59.0552 173.14 59.7668 173.092 59.7668C173.045 59.7668 173.045 59.577 173.045 59.2449C173.045 57.4896 172.618 55.6394 171.812 54.0264C171.48 53.3622 171.433 53.2199 171.48 53.125C171.765 52.8878 175.937 50.4683 178.639 49.0451C180.393 48.0962 183.191 46.673 183.238 46.7204ZM164.985 51.1799C165.032 51.1799 165.364 51.3697 165.743 51.5594C166.644 52.0813 167.498 52.6506 168.209 53.2199C168.256 53.2673 167.877 53.552 167.355 53.9315C165.98 54.9278 163.894 56.4933 162.709 57.4422C161.429 58.4384 161.382 58.4859 161.524 58.2487C162.472 56.778 162.946 55.9715 163.468 54.9278C163.894 53.9789 164.368 52.8878 164.7 51.8915C164.795 51.512 164.937 51.1799 164.985 51.1799ZM169.868 55.0226C169.963 55.0226 170.01 55.1175 170.437 55.7343C171.243 56.9677 171.907 58.6282 172.049 59.9565L172.096 60.2412L170.105 61.0002C166.549 62.376 163.278 63.7518 161.097 64.7481C160.481 65.0327 159.39 65.5546 158.679 65.8867C157.968 66.2662 157.399 66.5034 157.399 66.5034C157.399 66.5034 157.826 66.1713 158.395 65.7444C162.709 62.6132 166.455 59.15 169.252 55.7343C169.536 55.3547 169.821 55.0226 169.868 55.0226ZM167.64 55.5445C167.687 55.5919 166.028 57.4896 164.937 58.6282C162.14 61.4747 159.39 63.7044 155.977 65.8867C155.55 66.1713 155.171 66.4085 155.123 66.456C155.028 66.5034 155.171 66.3611 156.64 64.7481C157.589 63.7044 158.3 62.8505 159.153 61.8067C159.722 61.0951 159.817 61.0002 160.576 60.431C162.662 58.818 167.545 55.4971 167.64 55.5445Z" fill="url(#paint2_radial_462_6159)"/>
<path d="M105.056 115.415C104.771 115.415 104.534 115.463 104.25 115.463C98.845 115.747 95.2418 118.119 93.1083 122.769C91.3066 126.944 91.4963 132.447 93.1083 136.622C95.0047 140.749 98.0864 142.931 103.207 143.738C104.297 143.928 105.008 144.497 107.142 146.964L109.75 150H114.443L111.314 146.869C109.607 145.161 108.185 143.643 108.185 143.501C108.185 143.358 108.849 143.074 109.655 142.836C112.31 142.03 114.491 139.99 116.008 136.859C117.241 134.344 117.43 133.585 117.62 130.454C118.094 121.156 113.211 115.368 105.056 115.415ZM109.181 139.705C106.905 140.796 103.586 141.034 101.405 140.227C99.1769 139.421 96.996 137.096 96.0003 134.439C94.9099 131.545 95.0521 126.232 96.3322 123.86C98.3235 120.065 100.979 118.309 104.819 118.309C110.508 118.309 113.78 121.82 114.206 128.367C114.538 133.87 112.689 137.997 109.181 139.705ZM190.301 123.338C188.31 123.338 186.84 124.145 185.797 125.71L184.991 126.944V123.718H181.578V143.121H184.991V136.906C184.991 131.213 185.039 130.549 185.845 129.031C186.935 126.896 188.832 125.852 190.633 126.327L191.866 126.659V123.291L190.301 123.338ZM170.294 123.148C169.63 123.148 168.919 123.243 168.208 123.385C163.656 124.571 161.096 128.936 161.238 133.443C161.238 137.191 161.949 139.089 163.799 141.081C167.497 144.117 170.863 144.354 175.414 142.741C176.173 142.409 177.026 142.03 177.026 142.03V138.994L175.414 139.848C171.764 141.461 168.966 141.461 166.738 139.563C165.316 138.14 164.699 136.384 164.415 134.439H178.164V131.83C178.164 126.469 174.94 123.101 170.294 123.148ZM164.747 131.688C164.747 131.688 165.268 128.367 167.117 127.038C168.018 126.422 169.061 126.09 170.104 126.09C171.147 126.09 172.143 126.422 172.996 127.086C174.703 128.414 175.035 131.688 175.035 131.688H164.747ZM82.5355 128.177C78.8374 125.947 77.1781 124.334 77.4151 122.437C77.984 117.171 84.4794 117.882 88.0827 119.875L88.1301 116.317C88.1301 116.317 86.1388 115.463 83.2941 115.415C78.9323 115.368 76.0876 116.791 74.7601 119.732C72.8162 124.05 74.523 127.323 80.7813 130.929C84.2897 132.969 85.8543 134.724 85.8543 136.669C85.8543 140.654 81.0658 142.03 76.0876 139.563C75.0445 139.041 74.1911 138.614 74.1437 138.614C73.9541 139.753 74.0489 142.457 74.0489 142.457C74.0489 142.457 75.5661 143.074 77.8418 143.548C83.5312 144.687 88.6516 142.03 89.1731 137.713C89.5524 133.633 88.0827 131.498 82.5355 128.177ZM220.502 123.148C219.839 123.148 219.128 123.243 218.416 123.385C213.865 124.571 211.305 128.936 211.447 133.443C211.447 137.191 212.158 139.089 214.007 141.034C217.705 144.07 221.071 144.354 225.67 142.694C226.429 142.362 227.282 141.982 227.282 141.982V138.946L225.67 139.8C221.972 141.413 219.222 141.413 216.994 139.515C215.572 138.092 214.955 136.384 214.671 134.392H228.373V131.783C228.373 126.422 225.149 123.053 220.502 123.148ZM214.908 131.64C214.908 131.64 215.429 128.319 217.278 126.991C218.179 126.327 219.222 126.042 220.218 126.042C221.214 126.042 222.257 126.374 223.11 127.038C224.817 128.367 225.149 131.64 225.149 131.64H214.908ZM152.42 128.224C148.722 125.995 147.11 124.382 147.299 122.484C147.868 117.218 154.364 117.93 157.967 119.922L158.014 116.364C158.014 116.364 156.023 115.51 153.178 115.463C148.817 115.415 145.972 116.839 144.644 119.78C142.7 124.097 144.455 127.371 150.666 130.976C154.174 133.016 155.691 134.771 155.691 136.669C155.691 140.654 150.903 142.077 145.924 139.563C144.929 139.041 144.028 138.614 143.981 138.614C143.791 139.753 143.886 142.457 143.886 142.457C143.886 142.457 145.403 143.074 147.679 143.548C153.368 144.687 158.488 142.03 159.01 137.713C159.437 133.68 157.967 131.545 152.42 128.224ZM240.51 123.291C238.519 123.291 237.002 124.097 236.006 125.663L235.2 126.896V123.67H231.786V143.074H235.2V136.906C235.2 131.213 235.247 130.549 236.053 129.031C237.144 126.896 239.04 125.852 240.842 126.374L242.075 126.706V123.338L240.51 123.291ZM125.301 128.13V115.747H121.887V143.121H136.347V139.895H125.348L125.301 128.13ZM204.809 131.972L201.965 139.326L199.262 131.925L196.512 123.718H193.004C195.28 130.17 197.745 136.764 200.258 143.121C201.348 143.168 202.439 143.121 203.529 143.121L207.37 133.49L211.257 123.67H207.891C207.844 123.718 206.374 127.608 204.809 131.972ZM133.266 108.299C133.835 108.299 134.261 108.109 134.641 107.73C135.02 107.35 135.209 106.923 135.209 106.354C135.209 105.785 135.02 105.358 134.641 104.978C134.261 104.646 133.835 104.456 133.266 104.456C132.697 104.456 132.223 104.646 131.891 105.026C131.511 105.405 131.322 105.88 131.322 106.401C131.322 106.971 131.511 107.445 131.891 107.777C132.223 108.109 132.697 108.299 133.266 108.299ZM132.033 105.121C132.365 104.788 132.744 104.646 133.266 104.646C133.74 104.646 134.166 104.788 134.498 105.121C134.83 105.453 135.02 105.832 135.02 106.354C135.02 106.828 134.83 107.255 134.498 107.588C134.166 107.92 133.74 108.062 133.266 108.062C132.792 108.062 132.365 107.92 132.033 107.588C131.701 107.255 131.511 106.828 131.511 106.354C131.559 105.88 131.701 105.453 132.033 105.121ZM132.839 106.544H133.076C133.218 106.544 133.408 106.686 133.503 106.971L133.787 107.588H134.214L133.882 106.923C133.74 106.639 133.598 106.496 133.455 106.449C133.645 106.401 133.787 106.354 133.929 106.212C134.024 106.117 134.072 105.927 134.072 105.785C134.072 105.595 134.024 105.453 133.882 105.31C133.74 105.168 133.503 105.121 133.171 105.121H132.46V107.588H132.792L132.839 106.544ZM132.839 105.405H133.171C133.408 105.405 133.55 105.453 133.645 105.5C133.74 105.548 133.74 105.642 133.74 105.832C133.74 106.117 133.55 106.259 133.218 106.259H132.839V105.405ZM76.0876 106.307C76.0876 105.453 76.0402 104.788 76.0402 104.409C76.135 104.836 76.2298 105.168 76.3246 105.405L79.6434 112.759H80.2124L83.5312 105.31C83.626 105.121 83.7208 104.788 83.8156 104.362H83.863C83.8156 105.121 83.7682 105.737 83.7682 106.259V112.759H84.9061V103.081H83.4838L80.402 109.865C80.3072 110.149 80.1175 110.529 79.9279 111.051H79.8805C79.8331 110.766 79.6434 110.387 79.4538 109.912L76.4669 103.128H74.9497V112.806H76.0402L76.0876 106.307ZM87.3241 106.354H88.3197V112.379H87.3241V106.354ZM87.7982 104.124C87.9878 104.124 88.1775 104.077 88.3197 103.935C88.4619 103.792 88.5568 103.65 88.5568 103.413C88.5568 103.223 88.5094 103.033 88.3197 102.891C88.1775 102.749 87.9878 102.701 87.7982 102.701C87.6085 102.701 87.4189 102.749 87.2767 102.891C87.1344 103.033 87.0396 103.223 87.0396 103.413C87.0396 103.65 87.087 103.792 87.2767 103.935C87.4189 104.077 87.6085 104.124 87.7982 104.124ZM95.2418 112.474V111.43C94.7202 111.81 94.1513 112.047 93.535 112.047C92.8238 112.047 92.2548 111.81 91.8281 111.335C91.4014 110.861 91.1644 110.244 91.1644 109.438C91.1644 108.584 91.4014 107.92 91.8281 107.445C92.2548 106.971 92.8712 106.734 93.535 106.734C94.1039 106.734 94.6728 106.923 95.1943 107.255V106.069C94.7202 105.832 94.1987 105.737 93.5824 105.737C92.4919 105.737 91.5911 106.069 90.9747 106.781C90.3584 107.445 90.0265 108.394 90.0265 109.533C90.0265 110.529 90.311 111.383 90.9273 112C91.5437 112.664 92.3497 112.996 93.2979 112.996C94.1039 112.948 94.7202 112.806 95.2418 112.474ZM98.039 109.295C98.039 108.489 98.2287 107.872 98.5606 107.398C98.8924 107.018 99.2243 106.781 99.6984 106.781C100.078 106.781 100.362 106.828 100.552 107.018V105.88C100.41 105.832 100.173 105.785 99.8881 105.785C99.5088 105.785 99.1295 105.927 98.845 106.164C98.5131 106.449 98.2287 106.828 98.0864 107.35H98.039V105.927H96.9486V112.853H98.039V109.295ZM104.392 112.948C105.435 112.948 106.289 112.616 106.905 111.952C107.521 111.288 107.853 110.387 107.853 109.295C107.853 108.157 107.569 107.303 107 106.639C106.431 105.975 105.625 105.69 104.582 105.69C103.539 105.69 102.685 106.022 102.069 106.591C101.405 107.255 101.073 108.204 101.073 109.39C101.073 110.434 101.358 111.288 101.974 111.952C102.543 112.616 103.349 112.948 104.392 112.948ZM102.828 107.35C103.254 106.923 103.823 106.686 104.487 106.686C105.198 106.686 105.72 106.923 106.146 107.35C106.526 107.825 106.763 108.489 106.763 109.343C106.763 110.197 106.573 110.861 106.194 111.288C105.814 111.762 105.246 112 104.534 112C103.823 112 103.254 111.762 102.828 111.288C102.401 110.814 102.211 110.197 102.211 109.343C102.164 108.489 102.353 107.825 102.828 107.35ZM112.642 112.379C113.068 112 113.305 111.525 113.305 110.956C113.305 110.434 113.116 110.007 112.784 109.675C112.499 109.39 112.12 109.153 111.504 108.916C110.982 108.679 110.65 108.489 110.461 108.347C110.271 108.157 110.176 107.967 110.176 107.635C110.176 107.35 110.271 107.113 110.508 106.971C110.745 106.781 111.03 106.686 111.409 106.686C112.025 106.686 112.499 106.828 112.974 107.161V106.069C112.547 105.832 112.025 105.737 111.504 105.737C110.793 105.737 110.176 105.927 109.75 106.307C109.276 106.686 109.086 107.161 109.086 107.73C109.086 108.252 109.228 108.679 109.513 108.963C109.75 109.248 110.176 109.485 110.745 109.722C111.314 109.96 111.693 110.197 111.883 110.387C112.073 110.576 112.168 110.766 112.168 111.051C112.168 111.715 111.741 112.047 110.84 112.047C110.176 112.047 109.56 111.81 109.038 111.383V112.569C109.513 112.854 110.082 112.996 110.745 112.996C111.551 112.948 112.215 112.759 112.642 112.379ZM117.904 105.737C116.861 105.737 116.008 106.069 115.392 106.639C114.728 107.303 114.396 108.252 114.396 109.438C114.396 110.481 114.68 111.335 115.297 112C115.913 112.664 116.719 112.996 117.762 112.996C118.805 112.996 119.659 112.664 120.275 112C120.891 111.335 121.223 110.434 121.223 109.343C121.223 108.204 120.939 107.35 120.37 106.686C119.753 106.022 118.947 105.737 117.904 105.737ZM120.085 109.343C120.085 110.197 119.896 110.861 119.516 111.288C119.137 111.762 118.568 112 117.857 112C117.146 112 116.577 111.762 116.15 111.288C115.723 110.814 115.534 110.197 115.534 109.343C115.534 108.441 115.771 107.777 116.198 107.303C116.624 106.876 117.193 106.639 117.857 106.639C118.521 106.639 119.09 106.876 119.469 107.303C119.896 107.777 120.085 108.441 120.085 109.343ZM123.072 112.806H124.163V106.828H125.775V105.88H124.163V104.836C124.163 103.887 124.542 103.365 125.301 103.365C125.585 103.365 125.822 103.413 126.012 103.555V102.559C125.822 102.464 125.538 102.464 125.206 102.464C124.589 102.464 124.115 102.654 123.736 103.033C123.262 103.46 123.025 104.029 123.025 104.836V105.975H121.84V106.923H123.025L123.072 112.806ZM127.624 110.908C127.624 112.237 128.24 112.948 129.425 112.948C129.852 112.948 130.184 112.901 130.468 112.711V111.762C130.279 111.905 130.042 112 129.757 112C129.378 112 129.141 111.905 128.951 111.715C128.809 111.525 128.714 111.193 128.714 110.719V106.828H130.468V105.88H128.714V103.84C128.335 103.982 127.956 104.077 127.624 104.172V105.832H126.438V106.781H127.624V110.908ZM246.389 123.67C246.01 123.338 245.583 123.148 245.014 123.148C244.445 123.148 243.971 123.338 243.639 123.718C243.26 124.097 243.07 124.571 243.07 125.093C243.07 125.663 243.26 126.09 243.639 126.469C244.018 126.801 244.493 126.991 245.014 126.991C245.583 126.991 246.01 126.801 246.389 126.422C246.768 126.042 246.958 125.615 246.958 125.046C247.005 124.477 246.768 124.002 246.389 123.67ZM246.247 126.279C245.915 126.611 245.536 126.754 245.014 126.754C244.54 126.754 244.113 126.611 243.781 126.279C243.45 125.947 243.26 125.52 243.26 125.046C243.26 124.571 243.402 124.145 243.734 123.812C244.066 123.48 244.445 123.338 244.967 123.338C245.441 123.338 245.867 123.48 246.199 123.812C246.531 124.145 246.721 124.571 246.721 125.046C246.721 125.52 246.579 125.947 246.247 126.279ZM245.251 125.141C245.441 125.093 245.583 124.998 245.725 124.904C245.82 124.809 245.868 124.619 245.868 124.477C245.868 124.287 245.82 124.145 245.678 124.002C245.536 123.86 245.299 123.812 244.967 123.812H244.256V126.279H244.587V125.236H244.824C244.967 125.236 245.109 125.378 245.251 125.663L245.536 126.279H245.962L245.63 125.615C245.488 125.331 245.346 125.188 245.251 125.141ZM245.014 124.904H244.635V124.097H244.967C245.204 124.097 245.346 124.145 245.441 124.192C245.536 124.239 245.536 124.334 245.536 124.524C245.488 124.809 245.346 124.904 245.014 124.904ZM183.237 105.595H183.569V103.128H184.375V102.796H182.431V103.128H183.237V105.595ZM185.086 103.745V103.175C185.086 103.318 185.134 103.413 185.181 103.46L186.129 105.595H186.271L187.22 103.46C187.267 103.413 187.267 103.318 187.315 103.175V105.595H187.646V102.796H187.267L186.414 104.741C186.414 104.788 186.319 104.931 186.271 105.121H186.224C186.224 105.026 186.177 104.931 186.082 104.788L185.228 102.843H184.802V105.642H185.134L185.086 103.745Z" fill="#231F1F"/>
<defs>
<linearGradient id="paint0_linear_462_6159" x1="150.614" y1="96.009" x2="157.526" y2="91.9274" gradientUnits="userSpaceOnUse">
<stop stop-color="#909CA9"/>
<stop offset="1" stop-color="#EDEDEE"/>
</linearGradient>
<linearGradient id="paint1_linear_462_6159" x1="150.769" y1="19.0323" x2="156.329" y2="19.0323" gradientUnits="userSpaceOnUse">
<stop stop-color="#939FAB"/>
<stop offset="1" stop-color="#DCDEE1"/>
</linearGradient>
<radialGradient id="paint2_radial_462_6159" cx="0" cy="0" r="1" gradientUnits="userSpaceOnUse" gradientTransform="translate(178.799 44.5127) rotate(-171.452) scale(7.16819 14.3486)">
<stop stop-color="#EE352C"/>
<stop offset="1" stop-color="#A91D22"/>
</radialGradient>
</defs>
</svg>
