<?xml version="1.0"?>
<svg xmlns="http://www.w3.org/2000/svg" width="320" height="160" viewBox="0 0 320 160" fill="none">
<g clip-path="url(#clip0_478_11828)">
<path d="M114.55 63.6502C114.545 62.9004 114.537 62.151 114.516 61.4003C114.473 59.7674 114.376 58.1196 114.086 56.5042C113.791 54.8636 113.31 53.3381 112.551 51.8478C111.806 50.3842 110.833 49.0449 109.671 47.8835C108.51 46.722 107.171 45.7485 105.707 45.0034C104.218 44.2455 102.692 43.7642 101.053 43.4697C99.4364 43.1786 97.7887 43.0827 96.1545 43.0385C95.4042 43.0182 94.6546 43.0097 93.9046 43.005C93.0143 43 92.1234 43 91.2334 43H71.4977H63.3216C62.4307 43 61.5408 43 60.6508 43.0051C59.9005 43.0098 59.15 43.0183 58.4008 43.0387C57.9924 43.0497 57.583 43.064 57.1734 43.0837C55.9447 43.143 54.7141 43.2516 53.5024 43.4699C52.2731 43.6908 51.1074 44.0167 49.9734 44.4856C49.5954 44.6417 49.2208 44.8139 48.8485 45.0034C47.7503 45.5622 46.7222 46.2495 45.7871 47.0482C45.4754 47.3144 45.174 47.593 44.8838 47.8833C43.7221 49.0448 42.7485 50.3841 42.0037 51.8477C41.245 53.338 40.7642 54.8634 40.4694 56.504C40.1794 58.1195 40.083 59.7672 40.0391 61.4002C40.0185 62.1509 40.0098 62.9003 40.0049 63.6501C39.9993 64.5406 40 65.4313 40 66.3215V78.4755V94.2329C40 95.1241 39.9992 96.0139 40.0049 96.905C40.0098 97.6548 40.0185 98.4043 40.0391 99.1537C40.083 100.787 40.1793 102.436 40.4694 104.05C40.7642 105.69 41.245 107.217 42.0037 108.707C42.7485 110.171 43.7221 111.51 44.8838 112.671C46.0446 113.833 47.3842 114.806 48.8486 115.552C50.3378 116.31 51.8634 116.791 53.5028 117.085C55.1182 117.376 56.7672 117.473 58.401 117.516C59.1502 117.536 59.9006 117.545 60.6509 117.549C61.5409 117.556 62.4308 117.555 63.3217 117.555H91.2334C92.1234 117.555 93.0143 117.556 93.9044 117.549C94.6545 117.545 95.4041 117.536 96.1544 117.516C97.7885 117.473 99.4363 117.376 101.053 117.085C102.692 116.791 104.217 116.31 105.707 115.552C107.171 114.806 108.51 113.833 109.671 112.671C110.833 111.51 111.806 110.171 112.551 108.707C113.31 107.217 113.791 105.691 114.086 104.05C114.376 102.436 114.472 100.787 114.516 99.1537C114.537 98.4043 114.545 97.655 114.55 96.905C114.555 96.0139 114.555 95.1241 114.555 94.2329V66.3215C114.555 65.4313 114.555 64.5406 114.55 63.6502Z" fill="#F05138"/>
<path d="M99.0771 89.0197C99.0753 89.0174 99.0737 89.0158 99.0718 89.0137C99.1543 88.733 99.2394 88.454 99.3116 88.1663C102.406 75.8379 94.8538 61.2623 82.074 53.5879C87.6744 61.18 90.1506 70.3757 87.9505 78.4176C87.7543 79.1349 87.5184 79.8233 87.2577 80.4924C86.9748 80.3065 86.6182 80.0955 86.1395 79.8315C86.1395 79.8315 73.4269 71.9823 59.6486 58.099C59.2871 57.7346 66.9958 69.117 75.7442 78.3598C71.6225 76.0467 60.1358 67.6891 52.8639 61.0335C53.7574 62.5234 54.82 63.9581 55.9881 65.3394C62.0607 73.0407 69.9802 82.5428 79.468 89.8394C72.8018 93.919 63.3822 94.2362 54.0035 89.8437C51.6838 88.7566 49.5031 87.4449 47.4844 85.9546C51.4543 92.3046 57.5686 97.7834 65.0103 100.982C73.8849 104.796 82.7099 104.537 89.2828 101.044L89.2777 101.052C89.3077 101.033 89.3458 101.012 89.3769 100.993C89.6468 100.848 89.9147 100.7 90.1767 100.544C93.3347 98.9049 99.5724 97.2418 102.921 103.756C103.74 105.35 105.483 96.9016 99.0771 89.0197Z" fill="white"/>
<path d="M142.85 91.38C143.433 96.5523 148.366 99.9435 155.217 99.9435C161.726 99.9435 166.419 96.5523 166.419 91.8601C166.419 87.8176 163.576 85.35 157.033 83.7064L150.695 82.0964C141.583 79.8352 137.472 75.7239 137.472 68.9416C137.472 60.583 144.768 54.793 155.149 54.793C165.22 54.793 172.38 60.6167 172.62 69.0104H165.94C165.426 63.8717 161.246 60.7191 154.978 60.7191C148.776 60.7191 144.46 63.9054 144.46 68.564C144.46 72.1952 147.133 74.3541 153.71 76.0328L158.986 77.4027C169.194 79.9041 173.374 83.8777 173.374 91.0377C173.374 100.15 166.145 105.871 154.634 105.871C143.946 105.871 136.65 100.184 136.102 91.3803L142.85 91.38Z" fill="black"/>
<path d="M215.809 105.049H209.094L201.249 77.7115H201.112L193.301 105.049H186.587L176.652 69.249H183.161L190.081 97.9913H190.218L198.029 69.249H204.332L212.211 97.9913H212.349L219.269 69.249H225.709L215.809 105.049Z" fill="black"/>
<path d="M230.043 59.6226C230.043 57.4653 231.825 55.7178 233.983 55.7178C236.176 55.7178 237.957 57.4653 237.957 59.6226C237.957 61.7814 236.176 63.5627 233.983 63.5627C231.825 63.5627 230.043 61.7815 230.043 59.6226ZM230.729 69.2488H237.272V105.049H230.729V69.2488Z" fill="black"/>
<path d="M280 74.5276V69.2513H273.08V60.6878H266.571V69.2513H261.261H254.064V66.1001C254.097 62.9139 255.331 61.5776 258.278 61.5776C259.236 61.5776 260.196 61.6815 260.984 61.8176V56.6789C259.819 56.5077 258.757 56.4053 257.524 56.4053C250.535 56.4053 247.589 59.3179 247.589 65.9977V69.2513H242.588V74.5276H247.589V105.051H254.098V74.5276H261.261H266.571V95.6649C266.571 102.585 269.209 105.256 276.06 105.256C277.534 105.256 279.212 105.153 279.966 104.982V99.6387C279.521 99.7075 278.219 99.8099 277.499 99.8099C274.451 99.8099 273.081 98.3712 273.081 95.1512V74.5276H280Z" fill="black"/>
</g>
<defs>
<clipPath id="clip0_478_11828">
<rect width="240" height="74.5551" fill="white" transform="translate(40 43)"/>
</clipPath>
</defs>
</svg>
