<?xml version="1.0"?>
<svg xmlns="http://www.w3.org/2000/svg" width="320" height="160" viewBox="0 0 320 160" fill="none">
<path d="M64.008 124.016C88.313 124.016 108.016 104.313 108.016 80.008C108.016 55.7031 88.313 36 64.008 36C39.7031 36 20 55.7031 20 80.008C20 104.313 39.7031 124.016 64.008 124.016Z" fill="#1A171B"/>
<path d="M83.2478 52.2829C78.7745 52.4386 74.8743 54.9006 71.9716 58.3137C68.7574 62.0514 66.6168 66.4817 65.0727 71.0048C62.3158 68.7449 60.1884 65.819 55.7946 64.5432C54.0502 64.0061 52.202 63.8971 50.4065 64.2253C48.611 64.5534 46.921 65.3092 45.4793 66.4287C43.9153 67.5984 42.8351 69.3645 42.3248 71.0247C40.9993 75.3423 43.7165 79.1828 44.9558 80.5612L47.6597 83.4573C48.2164 84.0206 49.5584 85.5118 48.9023 87.6325C48.1932 89.942 45.4064 91.4431 42.5501 90.5584C41.2744 90.1707 39.4419 89.2197 39.8528 87.881C40.0185 87.3342 40.4161 86.92 40.6249 86.4495C40.8171 86.0419 40.9099 85.7371 40.9695 85.5548C41.4931 83.8516 40.7773 81.6348 38.9548 81.0715C37.2516 80.548 35.5087 80.9622 34.8327 83.1591C34.0706 85.6509 35.2568 90.1707 41.6422 92.1058C49.1243 94.4055 55.45 90.3297 56.348 85.0147C56.9113 81.6879 55.4102 79.2159 52.6599 76.068L50.4166 73.5894C49.0912 72.264 48.5941 69.9179 49.9991 68.1418C51.1854 66.6408 52.8753 66.0012 55.6422 66.7501C59.6848 67.8436 61.4807 70.6502 64.4895 72.9134C63.2502 76.9825 62.4351 81.0649 61.7061 84.7297L61.2587 87.4602C59.1115 98.7264 57.4713 104.913 53.2067 108.462C52.3451 109.072 51.1191 109.986 49.2701 110.052C48.2992 110.085 47.9877 109.416 47.9778 109.125C47.9546 108.445 48.5278 108.13 48.9056 107.826C49.4755 107.514 50.3371 106.997 50.2774 105.35C50.2112 103.402 48.6007 101.705 46.268 101.788C44.5184 101.848 41.8542 103.495 41.9536 106.507C42.0597 109.622 44.9591 111.951 49.3331 111.802C51.6691 111.722 56.8881 110.775 62.0341 104.654C68.0218 97.6429 69.6952 89.6107 70.9577 83.7257L72.3626 75.9586L74.8876 76.1376C82.3432 76.2933 86.0743 72.4329 86.1307 69.623C86.1638 67.9231 85.014 66.2498 83.4003 66.2862C82.2405 66.3193 80.7924 67.0881 80.4445 68.6852C80.1032 70.2526 82.8171 71.6675 80.6964 73.0393C79.1887 74.0135 76.4881 74.7028 72.684 74.1428L73.3799 70.3189C74.7915 63.0687 76.5278 54.1485 83.1385 53.9364C83.6189 53.9132 85.3818 53.9596 85.4249 55.1227C85.4381 55.5104 85.342 55.6098 84.8848 56.5011C84.4208 57.1638 84.2452 57.7868 84.2684 58.4661C84.3347 60.3217 85.7397 61.5345 87.7742 61.4616C90.5013 61.3721 91.2866 58.7212 91.2402 57.3527C91.1309 54.1518 87.7543 52.1272 83.2876 52.2763L83.2478 52.2829Z" fill="white"/>
<path d="M237.12 72.8511C244.534 72.8511 249.511 78.212 249.511 85.6261C249.511 92.6129 244.438 98.4011 237.12 98.4011C229.749 98.4011 224.679 92.6104 224.679 85.6261C224.679 78.212 229.653 72.8511 237.12 72.8511ZM237.12 94.7674C242.38 94.7674 244.724 89.9831 244.724 85.6261C244.724 80.986 241.902 76.4899 237.12 76.4899C232.285 76.4899 229.463 80.991 229.463 85.6261C229.463 89.9831 231.807 94.7674 237.12 94.7674ZM224.062 75.1194V73.4201H217.601V71.0988C217.601 67.7988 218.081 65.2828 221.95 65.2828L222.173 65.2903C223.265 65.3586 224.158 64.4812 224.221 63.409L224.297 61.9348C223.387 61.7906 222.426 61.6465 221.288 61.6465C214.637 61.6465 213.105 65.523 213.105 71.4578V73.3948H207.36V75.2913C207.506 76.2725 208.371 77.0286 209.373 77.0286L213.102 77.0336V97.7993H215.586C216.617 97.7993 217.462 97.028 217.598 96.0368V77.0361H222.099C223.161 77.0007 224.014 76.1511 224.062 75.0941V75.1194ZM164.157 73.4201C163.186 73.4252 162.268 74.0776 161.866 74.9575L155.676 93.6143H155.58L149.526 74.9677C149.131 74.0826 148.211 73.4504 147.255 73.4504L144.094 73.4454L152.373 96.2214C152.661 97.0356 153.233 98.2797 153.233 98.8057C153.233 99.2861 151.893 104.832 147.872 104.832C147.771 104.832 147.67 104.821 147.574 104.814C146.55 104.758 145.773 105.471 145.601 106.576L145.475 108.132C146.284 108.276 147.106 108.468 148.54 108.468C154.472 108.468 156.242 103.061 157.916 98.3708L166.911 73.4378H164.157V73.4201ZM135.565 78.3763C131.848 76.4798 127.787 75.1851 127.716 71.3617C127.728 67.3006 131.458 66.2335 134.333 66.2386C135.613 66.2361 136.609 66.36 137.588 66.5749C138.645 66.6356 139.51 65.8289 139.631 64.8124L139.714 63.3382C137.892 62.8835 136.022 62.6467 134.144 62.6327C127.89 62.6706 123.245 65.8188 123.232 71.8194C123.243 77.069 126.78 79.1021 130.583 80.948C134.316 82.7181 138.402 84.2252 138.437 88.5544C138.412 93.0757 134.053 94.7421 131.049 94.7497C129.291 94.7446 127.382 94.3046 125.774 93.7989C124.762 93.632 123.938 94.5221 123.809 95.6954L123.672 97.0103C125.882 97.7234 128.148 98.3455 130.429 98.3455H130.454C137.459 98.2949 142.903 95.5007 142.921 88.2484C142.911 82.6524 139.348 80.3032 135.588 78.3763H135.565ZM203.587 97.8473H203.592C204.563 97.8473 205.372 97.1646 205.579 96.2542V82.182C205.579 76.8718 203.329 72.8259 197.108 72.8259C194.908 72.8259 191.227 74.0725 189.553 77.5621C188.258 74.2596 185.438 72.8259 182.614 72.8259C179.023 72.8259 176.585 74.1155 174.866 76.9426H174.765V75.4254C174.752 74.3077 173.844 73.4075 172.727 73.4075L170.552 73.4024V97.8043H172.992C173.533 97.8023 174.051 97.5867 174.433 97.2044C174.815 96.8222 175.031 96.3043 175.033 95.7637C175.033 95.7333 175.043 95.7232 175.048 95.7005V85.5098C175.048 80.9657 176.869 76.4672 181.458 76.4672C185.094 76.4672 185.815 80.2451 185.815 83.2593V97.8043H188.293C189.345 97.8018 190.223 96.9951 190.316 95.9483V85.5098C190.316 80.9657 192.137 76.4672 196.729 76.4672C200.365 76.4672 201.083 80.2451 201.083 83.2593V97.8043H203.612L203.587 97.8473ZM273.088 97.8473H273.096C274.183 97.8448 275.078 96.9876 275.126 95.9002V83.3503C275.126 76.7959 272.302 72.8714 265.985 72.8714C262.589 72.8714 259.34 74.5479 257.994 77.3219H257.898V75.5012C257.896 74.9525 257.681 74.4341 257.299 74.0497C256.917 73.6654 256.396 73.4504 255.858 73.4504L253.544 73.4454V97.8473H256.022C257.084 97.8448 257.961 97.0255 258.045 95.9685V86.5567C258.045 80.6244 260.346 76.5102 265.462 76.5102C269.386 76.7479 270.628 79.5193 270.628 85.2165V97.8473H273.088ZM297.303 73.4454C296.332 73.4504 295.411 74.1028 295.014 74.9828L288.827 93.6396H288.726L282.677 74.9752C282.28 74.0902 281.357 73.458 280.401 73.458L277.24 73.453L285.519 96.229C285.807 97.0432 286.384 98.2873 286.384 98.8133C286.384 99.2937 285.044 104.839 281.023 104.839C280.922 104.839 280.821 104.829 280.725 104.821C279.701 104.766 278.924 105.479 278.752 106.584L278.631 108.139C279.44 108.283 280.262 108.475 281.696 108.475C287.628 108.475 289.401 103.069 291.077 98.3783L300.072 73.4454H297.303Z" fill="#1A171B"/>
</svg>
