<?xml version="1.0"?>
<svg xmlns="http://www.w3.org/2000/svg" width="320" height="160" viewBox="0 0 320 160" fill="none">
<path d="M49.3438 52.7394V55.4904H44.4141V57.2793H49.3438V62.7582H51.2709V57.2793H56.3243V55.4904H51.2709V50H49.3438V52.7394Z" fill="#7099A6"/>
<path d="M33.232 59.7164V63.7082H25.7695V66.2129H33.232V74.3199H35.9993V66.2129H43.5733V63.7082H35.9993V55.7246H33.232V59.7164Z" fill="#EB912C"/>
<path d="M64.5029 59.7164V63.7082H57.041V66.3363H64.5029V74.3199H67.3824V66.3363H74.8443V63.7082H67.3824V55.7246H64.5029V59.7164Z" fill="#59879B"/>
<path d="M48.6269 73.3146V77.7873H40.3242V81.1196H48.6269V90.0646H51.9877V81.1196H60.2904V77.7873H51.9877V68.8418H48.6269V73.3146Z" fill="#E8762C"/>
<path d="M73.0416 75.5725V78.3791H67.9883V80.649H73.0416V86.2513H75.5623V80.649H80.6157V78.3791H75.5623V72.7773H73.0416V75.5725Z" fill="#5B6591"/>
<path d="M24.9297 75.8185V78.5023H20V80.4032H24.9297V85.7702H26.8569V80.4032L31.9102 80.2241V78.5023H26.8569V73.1348H24.9297V75.8185Z" fill="#7099A6"/>
<path d="M33.232 88.4547V92.4465H25.7695V95.0746H33.232V103.058H36.1115V95.0746H43.5733V92.4465H36.1115V84.4629H33.232V88.4547Z" fill="#C72035"/>
<path d="M64.5029 88.4547V92.4465H57.041V94.9512H64.5029V103.058H67.3824V94.9512H74.8443V92.4465H67.3824V84.4629H64.5029V88.4547Z" fill="#1F447E"/>
<path d="M49.1075 98.5962V101.391H44.0547V103.661H49.1075V109.264H51.6287V103.661H56.6815V101.391H51.6287V95.7891H49.1075V98.5962Z" fill="#5B6591"/>
<path d="M204.489 61.9199V95.913H200.646V61.9199H204.489ZM108.995 66.6946V77.541H119.337V81.1195H108.995V92.8045H105.152V81.1195H94.8105V77.541H105.152V66.6946H108.995ZM229.273 74.1421C229.967 74.1748 230.852 74.2873 231.256 74.3877C231.648 74.4882 232.298 74.7235 232.69 74.9135C233.093 75.0925 233.743 75.4834 234.136 75.7853C234.539 76.0872 235.099 76.6468 235.39 77.0267C235.681 77.4067 236.096 78.1 236.32 78.5586C236.545 79.0172 236.836 79.8224 236.97 80.3476C237.104 80.8733 237.261 81.9357 237.385 84.1046H224.096L224.175 84.5523C224.208 84.798 224.354 85.3237 224.466 85.7151C224.59 86.1065 224.904 86.7212 225.15 87.0679C225.396 87.4146 225.766 87.8284 225.956 87.9741C226.158 88.1194 226.562 88.365 226.864 88.5217C227.155 88.6669 227.67 88.8569 228.007 88.9464C228.343 89.036 229.239 89.114 230.046 89.114C230.841 89.114 231.984 89.036 232.578 88.9355C233.172 88.8345 234.012 88.6336 234.438 88.4988C234.864 88.365 235.424 88.1527 235.671 88.0293C235.917 87.9064 236.174 87.7945 236.242 87.7945C236.317 87.7945 236.361 88.4202 236.365 91.0155V91.3731L235.704 91.675C235.334 91.8426 234.572 92.1111 233.99 92.2787C233.407 92.4354 232.343 92.6363 231.614 92.7149C230.617 92.8154 229.945 92.8154 228.903 92.7149C228.141 92.6363 227.032 92.4354 226.438 92.2673C225.844 92.0997 224.982 91.7645 224.533 91.5183C224.074 91.2726 223.301 90.7021 222.808 90.2435C222.304 89.785 221.676 89.036 221.385 88.5774C221.094 88.1188 220.735 87.3365 220.567 86.8446C220.399 86.3522 220.198 85.4913 220.119 84.9432C220.029 84.3285 220.007 83.4675 220.051 82.7966C220.085 82.1704 220.231 81.2309 220.365 80.7057C220.5 80.18 220.825 79.3191 221.082 78.7933C221.34 78.2682 221.822 77.5186 222.136 77.1272C222.461 76.7357 223.099 76.132 223.558 75.7853C224.018 75.4386 224.791 75.003 225.273 74.8015C225.743 74.6001 226.562 74.3653 227.077 74.2649C227.693 74.153 228.432 74.1082 229.273 74.1421ZM269.194 73.963V79.9562C269.194 83.2552 269.16 87.2022 269.014 91.5074L268.051 91.7978C267.524 91.9545 266.459 92.2007 265.676 92.3235C264.678 92.5026 263.726 92.5692 262.437 92.5692C261.418 92.5692 260.241 92.5135 259.815 92.4463C259.39 92.3683 258.55 92.1559 257.955 91.9659C257.317 91.7639 256.488 91.3731 255.973 91.0379C255.468 90.713 254.773 90.1425 254.415 89.7517C254.068 89.3717 253.575 88.7008 253.339 88.2755C253.104 87.8508 252.779 87.0679 252.623 86.5536C252.387 85.8046 252.32 85.2232 252.264 83.8699C252.23 82.7851 252.264 81.8238 252.353 81.2986C252.432 80.84 252.634 80.0681 252.802 79.5762C252.958 79.0843 253.328 78.3015 253.62 77.8429C253.9 77.3843 254.505 76.6577 254.964 76.2324C255.48 75.7629 256.152 75.2825 256.701 75.0139C257.193 74.7792 257.911 74.4882 258.314 74.3768C258.707 74.2758 259.681 74.153 260.477 74.1197C261.541 74.0749 262.157 74.1197 262.818 74.2534C263.322 74.3653 264.073 74.6116 264.51 74.8125C264.936 75.003 265.306 75.1706 265.317 75.1591C265.337 75.1591 265.348 74.9337 265.35 74.6465V73.963H269.194ZM150.249 73.963V81.4192L150.248 82.1977C150.239 85.6971 150.191 89.132 150.07 91.5074L149.106 91.7978C148.58 91.9545 147.471 92.2007 146.642 92.3459C145.375 92.5583 144.804 92.5806 142.978 92.5359C141.286 92.4911 140.603 92.424 139.851 92.234C139.314 92.0888 138.395 91.7421 137.801 91.4511C137.174 91.1383 136.423 90.6464 135.997 90.2774C135.605 89.9193 135.045 89.2822 134.776 88.8684C134.496 88.4431 134.126 87.7727 133.969 87.3813C133.812 86.9898 133.577 86.207 133.465 85.6589C133.309 84.8542 133.275 84.2613 133.32 82.8528C133.375 81.4989 133.454 80.8395 133.644 80.1691C133.79 79.6766 134.126 78.872 134.384 78.3795C134.641 77.8882 135.157 77.1386 135.538 76.7248C135.93 76.3001 136.569 75.7405 136.96 75.4725C137.353 75.2154 138.003 74.8687 138.406 74.712C138.923 74.5165 139.456 74.3631 139.998 74.2534C140.479 74.1639 141.375 74.0858 141.98 74.0858C142.596 74.0858 143.471 74.1754 143.941 74.2649C144.4 74.3653 145.129 74.6116 145.566 74.8125C145.992 75.003 146.362 75.1706 146.372 75.1591C146.383 75.1591 146.406 74.8911 146.406 74.5668V73.963H150.249ZM172.736 65.4985L172.737 71.1804C172.74 74.6853 172.773 74.9091 172.949 74.8572C173.072 74.8125 173.654 74.6563 174.249 74.4882C174.954 74.2982 175.806 74.1754 176.713 74.1197C177.745 74.0749 178.349 74.1088 179.112 74.2534C179.761 74.3768 180.534 74.6449 181.218 74.9806C181.812 75.271 182.596 75.7629 182.966 76.0872C183.324 76.4006 183.896 77.06 184.221 77.5525C184.557 78.0438 184.971 78.8272 185.151 79.3076C185.341 79.7771 185.576 80.6609 185.688 81.2757C185.823 82.0809 185.856 82.7742 185.811 83.8699C185.778 84.686 185.654 85.7042 185.542 86.1289C185.442 86.5536 185.173 87.2808 184.96 87.7394C184.747 88.1974 184.321 88.9022 184.019 89.2931C183.727 89.6845 183.134 90.2659 182.708 90.5902C182.294 90.9145 181.532 91.3616 181.039 91.5854C180.545 91.8202 179.727 92.1111 179.235 92.2454C178.462 92.4578 177.968 92.4911 175.75 92.502C173.655 92.5135 172.971 92.4693 172.143 92.2897C171.455 92.134 170.771 91.9626 170.092 91.7754C169.532 91.6187 169.039 91.4402 168.994 91.3954C168.949 91.3507 168.893 85.5137 168.871 78.4134L168.826 65.4985H172.736ZM288.084 74.444L288.073 80.4371V81.9793C288.077 85.7004 288.1 86.4161 288.247 86.9887L288.263 87.0493C288.277 87.1001 288.292 87.1503 288.308 87.2022C288.453 87.6499 288.723 88.175 288.947 88.4431C289.16 88.6893 289.608 89.025 289.943 89.1812C290.268 89.3379 290.896 89.5169 291.322 89.5726C291.781 89.6397 292.431 89.6397 292.89 89.5726C293.316 89.5169 293.944 89.3379 294.269 89.1812C294.605 89.025 295.053 88.6898 295.266 88.4431C295.49 88.175 295.77 87.6493 295.904 87.2022C295.922 87.1438 295.939 87.0876 295.954 87.028L295.965 86.9827C296.105 86.3931 296.133 85.3286 296.138 78.7027V78.1683L296.139 77.892V76.4202L296.14 76.1068V74.444H300.073L300.051 80.9181C300.041 86.32 300.031 87.2464 299.875 87.8573L299.861 87.9119C299.853 87.9382 299.846 87.9644 299.837 87.9905L299.821 88.0435L299.804 88.097C299.669 88.4879 299.389 89.0807 299.177 89.405C298.963 89.7402 298.594 90.1988 298.336 90.445C298.09 90.6907 297.552 91.0821 297.16 91.3168C296.768 91.5516 296.006 91.8764 295.479 92.044C294.874 92.234 294.067 92.3792 293.317 92.4354C292.644 92.4687 291.569 92.4687 290.908 92.4245C290.157 92.3792 289.339 92.234 288.746 92.044C288.208 91.8764 287.457 91.5521 287.054 91.3168C286.661 91.0821 286.135 90.6907 285.878 90.445C285.631 90.1993 285.249 89.7407 285.037 89.405C284.835 89.0807 284.555 88.4879 284.421 88.097L284.411 88.0702L284.394 88.0184C284.376 87.9659 284.36 87.9129 284.346 87.8595L284.332 87.8038C284.182 87.1869 284.169 86.13 284.14 80.9181L284.096 74.4434H288.084L288.084 74.444ZM261.496 77.6753C261.07 77.6753 260.42 77.7648 260.062 77.8543C259.692 77.9548 259.132 78.1786 258.807 78.3571C258.482 78.5362 258.012 78.9053 257.754 79.1848C257.496 79.4643 257.16 79.9562 256.992 80.2919C256.824 80.6162 256.611 81.22 256.51 81.6338C256.41 82.0361 256.331 82.8299 256.331 83.3889C256.331 83.9485 256.41 84.7423 256.51 85.1446C256.611 85.5584 256.802 86.1174 256.947 86.397C257.093 86.6765 257.463 87.1684 257.765 87.4817C258.068 87.806 258.56 88.186 258.852 88.3317C259.155 88.4879 259.692 88.7008 260.062 88.8012C260.477 88.924 261.16 88.9912 261.955 88.9912C262.628 88.9912 263.58 88.9355 264.05 88.8684C264.532 88.8012 264.992 88.7008 265.059 88.6554C265.16 88.5998 265.216 87.1574 265.249 83.7023L265.283 78.8163C264.073 78.201 263.401 77.9439 262.997 77.8429C262.605 77.7424 261.933 77.6638 261.496 77.6753ZM141.106 77.8543C140.748 77.9548 140.187 78.1786 139.863 78.3571C139.538 78.5362 139.067 78.9053 138.809 79.1848C138.552 79.4643 138.204 79.9562 138.048 80.2919C137.879 80.6162 137.667 81.22 137.566 81.6338C137.465 82.0361 137.387 82.7742 137.387 83.2661C137.387 83.758 137.443 84.4851 137.51 84.8766C137.588 85.2674 137.79 85.916 137.98 86.3074C138.204 86.7769 138.563 87.2579 139.023 87.6832C139.471 88.097 139.998 88.4431 140.456 88.6222C141.017 88.846 141.465 88.9131 142.619 88.9688C143.437 89.0027 144.468 88.9579 145.017 88.8793C145.543 88.8012 146.037 88.7008 146.115 88.6554C146.205 88.5998 146.272 87.0455 146.328 83.7132L146.406 78.8605C145.42 78.3238 144.871 78.0776 144.535 77.9657C144.21 77.8429 143.448 77.731 142.855 77.7091C142.115 77.6753 141.566 77.72 141.106 77.8543ZM176.411 77.6753C175.951 77.6862 175.346 77.7424 175.089 77.7981C174.82 77.8543 174.204 78.0438 173.699 78.2234L172.803 78.5362V88.4551C174.686 88.947 175.089 88.9808 176.344 88.947C177.576 88.9137 177.979 88.8574 178.573 88.6342C178.965 88.4775 179.514 88.1865 179.772 87.9741C180.041 87.7732 180.422 87.3927 180.624 87.1356C180.825 86.8785 181.116 86.3418 181.262 85.9504C181.419 85.559 181.599 84.8094 181.666 84.2842C181.767 83.5691 181.767 83.0767 181.655 82.3162C181.571 81.6642 181.381 81.03 181.094 80.4382C180.87 79.9567 180.478 79.3644 180.232 79.1182C179.986 78.8725 179.537 78.5258 179.235 78.3577C178.943 78.1792 178.372 77.9553 177.968 77.8549C177.576 77.743 176.87 77.6638 176.411 77.6753ZM227.939 77.8429C227.581 77.9439 226.999 78.201 226.64 78.4134C226.281 78.6257 225.777 79.0395 225.508 79.3305C225.251 79.6319 224.903 80.1243 224.746 80.4371C224.59 80.7505 224.455 81.0524 224.455 81.1195C224.455 81.1938 225.827 81.238 228.367 81.2418H233.06C232.937 80.359 232.824 79.9229 232.735 79.6881C232.634 79.4643 232.342 79.0395 232.085 78.76C231.771 78.4134 231.39 78.1672 230.954 77.9996C230.584 77.8767 229.911 77.7424 229.452 77.7086C228.914 77.6867 228.365 77.731 227.939 77.8429Z" fill="#1F447E"/>
</svg>
