<?xml version="1.0"?>
<svg xmlns="http://www.w3.org/2000/svg" width="320" height="160" viewBox="0 0 320 160" fill="none">
<g clip-path="url(#clip0_478_12092)">
<path d="M59.1485 53.1734H45.3672V95.8056H39.7812V53.1734H26V48.0669H59.0257V53.1629H59.1496L59.1485 53.1734ZM85.5959 61.7486L69.9509 101.274C67.0949 108.358 63.2466 111.838 58.1562 111.838C56.7912 111.838 55.5491 111.714 54.5547 111.464V106.616C55.6719 106.989 56.7892 107.246 57.7824 107.246C60.5125 107.246 62.625 105.631 63.99 102.274L66.7201 95.8098L53.4354 61.7528H59.5191L68.7067 87.9788C68.8306 88.3519 69.0794 89.2212 69.4417 90.5888H69.6894C69.8134 90.0916 70.0622 89.2223 70.3194 88.1028L80.0036 61.7528H85.5896L85.5959 61.7486ZM94.7834 90.9577H94.67V111.592H89.2068V61.8747H94.67V67.841H94.7939C97.5239 63.3663 101.374 61.0054 106.589 61.0054C110.936 61.0054 114.411 62.4981 116.893 65.6042C119.375 68.7103 120.618 72.6889 120.618 77.9088C120.618 83.627 119.253 88.2247 116.52 91.581C113.788 94.9373 109.94 96.677 105.096 96.677C100.627 96.677 97.274 94.8122 94.7918 90.9588L94.7834 90.9577ZM94.67 77.1625V81.8853C94.67 84.7444 95.5394 87.1053 97.4 89.094C99.2606 91.0828 101.497 92.0772 104.353 92.0772C107.706 92.0772 110.189 90.8347 112.176 88.2237C114.162 85.6127 115.032 82.1334 115.032 77.6597C115.032 73.8062 114.162 70.9482 112.424 68.7103C110.687 66.608 108.327 65.4791 105.347 65.4791C102.12 65.4791 99.6354 66.5975 97.6509 68.8354C95.6664 71.0733 94.67 73.8052 94.67 77.1625ZM154.266 80.1457H130.179C130.303 83.9991 131.296 86.8572 133.283 88.97C135.269 91.0828 137.876 92.0772 141.353 92.0772C145.202 92.0772 148.678 90.8347 151.905 88.2237V93.3196C148.926 95.5565 144.952 96.5508 139.986 96.5508C135.143 96.5508 131.418 95.0582 128.688 91.9521C125.958 88.846 124.591 84.4942 124.591 78.9011C124.591 73.5561 126.082 69.3305 129.061 65.9752C132.039 62.62 135.765 61.0033 140.235 61.0033C144.705 61.0033 148.181 62.496 150.539 65.3551C153.023 68.2142 154.141 72.1906 154.141 77.4117V80.1446H154.265L154.266 80.1457ZM148.68 75.5469C148.68 72.4397 147.945 69.9549 146.446 68.2142C144.946 66.4735 142.844 65.6042 140.238 65.6042C137.632 65.6042 135.52 66.4745 133.658 68.3372C131.92 70.2019 130.802 72.5627 130.305 75.5459L148.68 75.5469ZM157.248 94.191V90.4626C160.713 92.6994 164.076 93.6938 167.678 93.6938C171.402 93.6938 174.258 92.958 176.12 91.3319C178.106 89.8393 178.976 87.6035 178.976 84.8674C178.976 82.3814 178.346 80.5157 176.989 79.0252C175.748 77.5325 172.892 75.5564 168.547 73.0589C163.704 70.1998 160.601 67.8389 159.359 65.9742C158.057 64.0254 157.365 61.7316 157.373 59.3867C157.373 56.0304 158.738 53.1723 161.346 50.8094C163.954 48.4464 167.426 47.3301 171.773 47.3301C174.629 47.3301 177.485 47.8273 180.341 48.8227V52.2915C177.522 51.0561 174.478 50.4211 171.401 50.4268C168.173 50.4268 165.565 51.2971 163.704 52.9127C161.844 54.5283 160.848 56.6411 160.848 59.127C160.848 61.613 161.478 63.4788 162.835 64.9693C164.076 66.4619 166.932 68.3256 171.277 70.8115C175.747 73.2975 178.727 75.5343 180.217 77.5231C181.707 79.5118 182.451 81.7487 182.451 84.3587C182.451 87.9641 181.21 90.9461 178.602 93.3081C176.118 95.67 172.518 96.7768 167.8 96.7768C166.187 96.7768 164.335 96.5288 162.088 96.041C160.102 95.4103 158.487 94.7986 157.246 94.1763L157.248 94.191ZM211.256 94.3151C208.772 95.8077 205.67 96.677 202.192 96.677C197.598 96.677 193.874 95.0614 191.018 91.9542C188.162 88.723 186.797 84.6214 186.797 79.4004C186.797 73.9313 188.411 69.5827 191.64 66.1014C194.868 62.62 198.964 60.8814 203.931 60.8814C206.538 60.8814 209.021 61.3786 211.505 62.497V65.9658C209.077 64.4781 206.281 63.7031 203.434 63.7289C199.461 63.7289 196.233 65.2216 193.75 68.0807C191.267 70.9398 190.01 74.6755 190.01 79.2858C190.01 83.7605 191.127 87.2409 193.363 89.976C195.598 92.711 198.577 93.9535 202.302 93.9535C205.655 93.9535 208.634 93.0831 211.242 91.2205V94.3277L211.256 94.3151ZM231.867 64.9819C230.874 64.2461 229.633 63.8635 228.266 63.8635C225.536 63.8635 223.299 65.23 221.561 67.965C219.699 70.698 218.831 74.6766 218.831 79.7725V95.8066H215.84V61.7497H218.82V69.3315H218.944C219.679 66.7215 220.93 64.7328 222.668 63.2412C224.406 61.7496 226.27 61.1389 228.503 61.1389C229.744 61.1389 230.862 61.387 231.856 61.7696V65.0008L231.867 64.9819ZM237.081 53.1744C236.451 53.1744 235.84 52.9264 235.344 52.4386C234.847 51.9509 234.609 51.3202 234.609 50.5739C234.609 49.8276 234.857 49.2074 235.344 48.8343C235.84 48.3371 236.461 48.2036 237.081 48.2036C237.816 48.2036 238.323 48.4516 238.944 48.8343C239.441 49.3315 239.679 49.8286 239.679 50.5739C239.679 51.3192 239.431 51.9404 238.944 52.4386C238.314 52.9358 237.827 53.1744 237.081 53.1744ZM235.59 95.9306V61.8737H238.694V95.9306H235.58H235.59ZM249.372 89.8404H249.248V111.592H246.144V61.8747H249.248V68.9594H249.372C250.613 66.4735 252.352 64.4847 254.586 63.1172C256.82 61.7496 259.304 61.1284 262.036 61.1284C266.383 61.1284 269.732 62.621 272.217 65.6031C274.701 68.5852 275.818 72.6878 275.818 77.7838C275.818 83.502 274.453 88.0997 271.597 91.58C268.867 95.0488 265.14 96.8 260.547 96.8C255.58 96.6759 251.856 94.438 249.373 89.8393L249.372 89.8404ZM249.248 77.1636V81.5153C249.248 84.9841 250.365 87.8537 252.476 90.3396C254.586 92.8256 257.442 94.0681 260.918 94.0681C264.393 94.0681 267.249 92.5754 269.36 89.5933C271.47 86.6112 272.587 82.6327 272.587 77.7858C272.587 73.5603 271.594 70.081 269.607 67.594C267.621 65.107 264.89 63.8656 261.661 63.8656C257.688 63.8656 254.584 65.2321 252.473 67.8431C250.363 70.4542 249.246 73.5613 249.246 77.1646L249.248 77.1636ZM294.81 95.4324C293.197 96.1682 291.707 96.5508 290.341 96.5508C285.25 96.5508 282.767 93.5677 282.767 87.4774V64.6077H276.683V61.7486H282.767V52.9243C283.264 52.8002 283.76 52.5511 284.258 52.4271C284.756 52.303 285.251 52.0539 285.749 51.9299V61.8737H294.689V64.7328H285.749V87.2293C285.749 89.5912 286.122 91.3309 286.866 92.3252C287.611 93.3196 288.853 93.9409 290.591 93.9409C291.832 93.9409 293.198 93.5677 294.688 92.6984V95.4314H294.812L294.81 95.4324Z" fill="black"/>
</g>
<defs>
<clipPath id="clip0_478_12092">
<rect width="268.8" height="65.1708" fill="white" transform="translate(26 47)"/>
</clipPath>
</defs>
</svg>
