<?xml version="1.0"?>
<svg xmlns="http://www.w3.org/2000/svg" width="320" height="160" viewBox="0 0 320 160" fill="none">
<path d="M174.045 62.4552H165.65V81.8592C165.65 86.8368 163.602 90.816 157.586 90.816C151.634 90.8808 149.906 86.784 149.906 81.6V62.472H141.506V83.712C141.506 89.856 143.682 98.592 155.195 98.6808C161.531 98.7456 164.663 95.6736 166.132 92.9208V97.5888H174.014L174.045 62.4552ZM177.362 97.5672H185.742V78.1872C185.742 73.2624 187.79 69.2976 193.739 69.2304C199.624 69.2304 201.352 73.2624 201.352 78.5064V97.5672H209.733V76.3944C209.733 70.1904 207.556 61.4256 196.108 61.3608C189.839 61.296 186.7 64.368 185.171 67.1208L185.236 62.4528H177.364V97.5648L177.362 97.5672ZM212.93 57.7152H221.31V50.2272H212.93V57.6672V57.7152ZM212.93 97.5648H221.31V62.4528H212.93V97.5648ZM230.078 97.5696H238.458V68.9136H244.47L241.982 62.4528H238.48V50.2272H230.08V62.4576H224.26V68.9184H230.08L230.078 97.5696ZM252.558 109.85H261.51L280 62.4552H271.043L262.595 85.8L254.042 62.4552H245.07L258.311 96.2328L252.558 109.85ZM125.272 70.7136L115.912 36L81.04 45.3072L75.8848 54.3696L65.4448 54.2976L40 79.7064L65.4928 105.11L75.9496 105.031L81.1096 114.094L115.91 123.396L125.238 88.6872L119.968 79.6992L125.272 70.7136ZM103.432 49.0032L88.144 75.4128H57.568L76.816 55.8288L103.432 49.0032ZM88.144 84.0432L103.432 110.45L76.792 103.606L57.544 84.0504H88.12L88.144 84.0432ZM95.584 79.7544L110.901 53.2992L118.293 79.7088L110.901 106.109L95.584 79.7544Z" fill="#222C37"/>
</svg>
