<?xml version="1.0"?>
<svg xmlns="http://www.w3.org/2000/svg" width="320" height="160" viewBox="0 0 320 160" fill="none">
<path fill-rule="evenodd" clip-rule="evenodd" d="M118.998 38.0156H138.424L89.3734 122.542L40 38.0156H59.8674L89.3734 88.9019L118.998 38.0156Z" fill="#41B883"/>
<path fill-rule="evenodd" clip-rule="evenodd" d="M100.64 38H119.115L89.3474 88.9924L59.8184 38H78.005L89.3474 57.6313L100.64 38Z" fill="#35495E"/>
<path fill-rule="evenodd" clip-rule="evenodd" d="M150.014 54.6864C150.014 54.0628 150.36 53.5432 151.052 53.1275C151.744 52.7118 152.468 52.5039 153.223 52.5039C154.272 52.5039 154.923 52.8988 155.174 53.6887L166.251 90.7282L177.265 53.6887C177.559 52.8989 178.188 52.5039 179.153 52.5039C179.95 52.5039 180.695 52.7325 181.387 53.1898C182.08 53.6471 182.426 54.1667 182.426 54.7488C182.426 54.7903 182.415 54.8527 182.394 54.9358C182.373 55.019 182.363 55.1021 182.363 55.1852L169.587 96.6522C169.125 97.8578 168.013 98.4605 166.251 98.4605C164.489 98.4605 163.419 97.8577 163.041 96.6522L150.14 55.1853C150.056 54.9358 150.014 54.7695 150.014 54.6864ZM182.922 86.6123V70.4001C182.922 69.9013 183.184 69.4648 183.708 69.0907C184.233 68.7165 184.852 68.5295 185.565 68.5295C186.236 68.5295 186.834 68.7269 187.359 69.1218C187.883 69.5168 188.145 69.9429 188.145 70.4001V86.6123C188.145 88.483 188.859 90.1666 190.285 91.6632C191.712 93.1597 193.411 93.908 195.383 93.908C197.313 93.908 198.991 93.1701 200.418 91.6944C201.844 90.2186 202.558 88.5246 202.558 86.6123V70.3368C202.558 69.8795 202.82 69.4638 203.344 69.0897C203.869 68.7156 204.488 68.5285 205.201 68.5285C205.956 68.5285 206.575 68.7052 207.058 69.0585C207.54 69.4119 207.781 69.838 207.781 70.3368V86.6123C207.781 89.8133 206.554 92.6089 204.1 94.9992C201.645 97.3895 198.74 98.5847 195.383 98.5847C191.984 98.5847 189.058 97.3895 186.603 94.9992C184.149 92.6089 182.922 89.8133 182.922 86.6123ZM212.052 86.4876V79.9402C212.052 76.7392 213.28 73.9749 215.734 71.6468C218.189 69.3189 221.136 68.1549 224.577 68.1549C227.849 68.1549 230.681 69.2462 233.073 71.4287C235.465 73.6111 236.66 76.3444 236.66 79.6285C236.66 80.834 236.514 81.8006 236.22 82.5281C235.926 83.2557 235.475 83.7752 234.867 84.087C234.258 84.3988 233.692 84.5963 233.167 84.6794C232.643 84.7626 231.94 84.8042 231.059 84.8042H217.276V86.6748C217.276 88.9612 218.104 90.7903 219.762 92.1622C221.419 93.5341 223.569 94.22 226.213 94.22C227.597 94.22 228.804 94.0121 229.832 93.5964C230.859 93.1807 231.688 92.7754 232.318 92.3805C232.947 91.9856 233.45 91.7881 233.828 91.7881C234.415 91.7881 234.919 92.0479 235.338 92.5676C235.758 93.0872 235.968 93.6172 235.968 94.1576C235.968 95.1137 235.013 96.0907 233.104 97.0883C231.195 98.086 228.835 98.5848 226.024 98.5848C221.912 98.5848 218.556 97.4728 215.954 95.2488C213.353 93.0248 212.052 90.1043 212.052 86.4876ZM217.276 81.3121H228.919C230.01 81.3121 230.744 81.177 231.122 80.9068C231.5 80.6366 231.688 80.1066 231.688 79.3168C231.688 77.4461 230.996 75.804 229.612 74.3906C228.227 72.9772 226.528 72.2705 224.514 72.2705C222.542 72.2705 220.842 72.9252 219.416 74.2346C217.989 75.5441 217.276 77.1549 217.276 79.0672L217.276 81.3121ZM239.296 95.2173C239.296 94.3028 239.611 93.5233 240.24 92.879C240.869 92.2347 241.646 91.9125 242.569 91.9125C243.45 91.9125 244.205 92.2347 244.834 92.879C245.464 93.5234 245.778 94.3028 245.778 95.2173C245.778 96.0903 245.464 96.849 244.834 97.4933C244.205 98.1377 243.45 98.4599 242.569 98.4599C241.646 98.4599 240.869 98.1377 240.24 97.4933C239.611 96.849 239.296 96.0904 239.296 95.2173ZM243.945 110.121C243.945 109.455 244.155 108.905 244.575 108.468C244.994 108.032 245.498 107.813 246.085 107.813C247.722 107.813 248.791 107.211 249.295 106.005C249.799 104.8 250.05 102.991 250.05 100.58V70.3373C250.05 69.7969 250.292 69.3604 250.774 69.0278C251.257 68.6953 251.875 68.529 252.631 68.529C253.386 68.529 254.015 68.6953 254.519 69.0278C255.022 69.3604 255.274 69.7969 255.274 70.3373V100.58C255.274 104.197 254.561 107.065 253.134 109.185C251.708 111.305 249.547 112.365 246.652 112.365C244.848 112.365 243.945 111.617 243.945 110.121ZM249.358 57.4295C249.358 56.6397 249.673 55.9538 250.302 55.3718C250.931 54.7898 251.707 54.4988 252.631 54.4988C253.512 54.4988 254.267 54.7898 254.896 55.3718C255.526 55.9538 255.84 56.6397 255.84 57.4295C255.84 58.2194 255.526 58.9157 254.896 59.5185C254.267 60.1213 253.512 60.4226 252.631 60.4226C251.749 60.4226 250.984 60.1213 250.333 59.5185C249.683 58.9157 249.358 58.2194 249.358 57.4295ZM259.168 93.8451C259.168 93.3047 259.346 92.7746 259.703 92.2551C260.06 91.7354 260.49 91.4756 260.993 91.4756C261.329 91.4756 261.811 91.7251 262.441 92.2239C263.07 92.7228 263.972 93.2112 265.147 93.6892C266.322 94.1673 267.706 94.4063 269.3 94.4063C271.398 94.4063 272.919 94.0322 273.863 93.2839C274.807 92.5357 275.279 91.6003 275.279 90.4779C275.279 89.106 274.755 88.0148 273.706 87.2042C272.657 86.3935 271.377 85.7804 269.867 85.3647C268.356 84.949 266.846 84.4917 265.335 83.9928C263.825 83.494 262.545 82.6625 261.496 81.4985C260.447 80.3346 259.923 78.7965 259.923 76.8842C259.923 74.5147 260.773 72.4673 262.472 70.7422C264.171 69.017 266.762 68.1544 270.244 68.1544C272.468 68.1544 274.503 68.4974 276.349 69.1833C278.195 69.8692 279.118 70.6486 279.118 71.5216C279.118 72.0204 278.919 72.5816 278.52 73.2052C278.122 73.8288 277.629 74.1405 277.041 74.1405C276.873 74.1405 276.066 73.8391 274.618 73.2364C273.171 72.6336 271.734 72.3322 270.307 72.3322C268.377 72.3322 266.94 72.7791 265.996 73.6729C265.052 74.5666 264.58 75.5747 264.58 76.6972C264.58 77.8611 265.105 78.7757 266.154 79.4408C267.202 80.1059 268.493 80.6256 270.024 80.9997C271.555 81.3739 273.076 81.8311 274.587 82.3716C276.097 82.9121 277.377 83.8369 278.426 85.1464C279.475 86.4559 279.999 88.1499 279.999 90.2285C279.999 92.8059 279.076 94.8428 277.23 96.3393C275.384 97.8359 272.804 98.5841 269.489 98.5841C266.636 98.5841 264.203 98.0749 262.189 97.0564C260.175 96.0379 259.168 94.9675 259.168 93.8451Z" fill="#010101"/>
</svg>
