<?xml version="1.0"?>
<svg xmlns="http://www.w3.org/2000/svg" width="320" height="160" viewBox="0 0 320 160" fill="none">
<path d="M147.923 117.746H135.532V119.034C139.405 119.034 140.049 119.84 140.049 124.72V133.506C140.049 138.419 139.405 139.321 135.532 139.321C132.563 138.934 130.498 137.254 127.787 134.282L124.56 130.792C128.819 129.987 131.144 127.303 131.144 124.333C131.144 120.586 127.918 117.614 121.851 117.614H109.718V118.903C113.591 118.903 114.235 119.708 114.235 124.588V133.375C114.235 138.287 113.591 139.189 109.718 139.189V140.478H123.402V139.189C119.529 139.189 118.885 138.285 118.885 133.375V130.921H120.046L127.663 140.478H147.8C157.739 140.478 161.998 135.181 161.998 128.98C162.127 122.908 157.868 117.74 147.928 117.74L147.923 117.746ZM119.011 128.986V119.84H121.854C124.952 119.84 126.371 122.036 126.371 124.492C126.371 126.948 124.949 129.013 121.854 129.013L119.011 128.986ZM148.183 138.542H147.665C145.214 138.542 144.823 137.898 144.823 134.795V119.815H148.175C155.403 119.815 156.693 125.112 156.693 129.117C156.693 133.38 155.272 138.548 148.175 138.548L148.183 138.542ZM71.2505 131.598L76.0244 117.515C77.4458 113.381 76.829 112.218 72.4091 112.218V110.796H85.4435V112.218C81.0558 112.218 80.0259 113.252 78.3443 118.291L70.4673 141.906H69.4348L62.3355 120.331L55.2337 141.906H54.3298L46.713 118.264C45.0341 113.225 44.031 112.192 40 112.192V110.769H55.2337V112.192C51.1034 112.192 50.0708 113.096 51.4896 117.488L56.1375 131.571L63.1106 110.766H64.398L71.2505 131.598ZM94.7393 141.678C87.1224 141.678 80.9271 136.121 80.9271 129.276C80.9271 122.556 87.0956 116.873 94.7393 116.873C102.383 116.873 108.551 122.43 108.551 129.276C108.551 136.121 102.383 141.678 94.7393 141.678ZM94.7393 118.94C88.4151 118.94 86.2213 124.626 86.2213 129.147C86.2213 133.667 88.4151 139.353 94.7393 139.353C101.192 139.353 103.389 133.667 103.389 129.147C103.389 124.755 101.195 118.94 94.7393 118.94ZM179.16 139.35V140.773H163.283V139.35C167.931 139.35 168.7 138.188 168.7 131.211V120.097C168.7 113.118 167.896 112.087 163.283 112.087V110.664H177.61C184.709 110.664 188.713 114.283 188.713 119.19C188.713 123.968 184.712 127.716 177.61 127.716H173.737V131.335C173.737 138.18 174.542 139.345 179.155 139.345L179.16 139.35ZM177.61 113.252H173.737V125.268H177.61C181.483 125.268 183.29 122.583 183.29 119.324C183.29 116.065 181.483 113.252 177.61 113.252ZM236.085 134.309L235.699 135.598C235.055 137.922 234.277 138.698 229.375 138.698H228.471C224.856 138.698 224.212 137.893 224.212 133.012V129.783C229.63 129.783 230.021 130.301 230.021 133.917H231.308V123.582H230.021C230.021 127.201 229.635 127.716 224.212 127.716V119.974H227.956C232.864 119.974 233.636 120.779 234.28 123.074L234.666 124.363H235.828L235.31 117.904H215.045V119.193C218.918 119.193 219.561 119.998 219.561 124.878V133.665C219.561 138.185 219.044 139.35 215.946 139.479C213.103 139.093 211.038 137.412 208.329 134.441L205.103 130.951C209.362 130.145 211.687 127.461 211.687 124.492C211.687 120.744 208.461 117.773 202.394 117.773H190.261V119.061C194.134 119.061 194.777 119.866 194.777 124.747V133.533C194.777 138.446 194.134 139.348 190.261 139.348V140.636H203.944V139.348C200.071 139.348 199.428 138.443 199.428 133.533V131.08H200.589L208.206 140.636H236.603L236.989 134.177H236.085V134.309ZM199.556 129.013V119.84H202.399C205.497 119.84 206.916 122.036 206.916 124.492C206.916 126.948 205.494 129.013 202.399 129.013H199.556Z" fill="#00749A"/>
<path d="M250.154 141.679C247.446 141.679 244.992 140.256 243.986 139.354C243.6 139.74 243.082 140.777 242.824 141.679H241.537V132.122H242.959C243.476 136.643 246.703 139.357 250.704 139.357C252.898 139.357 254.706 138.068 254.706 136.001C254.706 134.192 253.155 132.772 250.318 131.48L246.445 129.671C243.736 128.382 241.671 126.052 241.671 123.081C241.671 119.725 244.769 116.906 249.028 116.906C251.35 116.906 253.287 117.685 254.445 118.716C254.832 118.458 255.089 117.682 255.349 116.906H256.637V125.046H255.215C254.698 121.816 252.893 119.102 249.277 119.102C247.341 119.102 245.533 120.265 245.533 121.948C245.533 123.757 246.955 124.659 250.307 126.211L254.051 128.02C257.404 129.572 258.699 132.154 258.699 134.194C258.57 138.586 254.826 141.684 250.181 141.684L250.154 141.679Z" fill="#00749A"/>
<path d="M271.455 141.679C268.746 141.679 266.292 140.256 265.287 139.354C264.9 139.74 264.383 140.777 264.125 141.679H262.838V132.122H264.259C264.777 136.643 268.003 139.357 272.005 139.357C274.199 139.357 276.006 138.068 276.006 136.001C276.006 134.192 274.456 132.772 271.619 131.48L267.746 129.671C265.037 128.382 262.972 126.052 262.972 123.081C262.972 119.725 266.07 116.906 270.329 116.906C272.651 116.906 274.588 117.685 275.746 118.716C276.132 118.458 276.39 117.682 276.65 116.906H277.937V125.046H276.516C275.998 121.816 274.193 119.102 270.578 119.102C268.642 119.102 266.834 120.265 266.834 121.948C266.834 123.757 268.256 124.659 271.608 126.211L275.352 128.02C278.704 129.572 280 132.154 280 134.194C279.871 138.586 276.127 141.684 271.482 141.684L271.455 141.679Z" fill="#00749A"/>
<path d="M124.598 60.2579C124.598 74.3085 132.663 86.4155 144.461 92.0959L127.736 45.9093C125.794 50.3924 124.598 55.1735 124.598 60.2579ZM183.889 58.4593C183.889 54.1238 182.244 50.9857 180.901 48.7414C179.109 45.7509 177.468 43.359 177.468 40.3712C177.468 37.0827 180.008 34.0895 183.441 34.0895H183.889C177.613 28.2695 169.25 24.828 160.019 24.828C147.623 24.9784 136.873 31.2547 130.45 40.8222H132.69C136.423 40.8222 142.098 40.3739 142.098 40.3739C144.04 40.2236 144.19 43.0637 142.366 43.3644C142.366 43.3644 140.424 43.6328 138.335 43.6328L151.209 81.9002L158.973 58.7331L153.448 43.6355L149.715 43.3671C147.773 43.2168 148.071 40.3766 149.865 40.3766C149.865 40.3766 155.69 40.8249 159.123 40.8249C162.856 40.8249 168.532 40.3766 168.532 40.3766C170.473 40.2262 170.623 43.0664 168.8 43.3671C168.8 43.3671 166.858 43.6355 164.769 43.6355L177.642 81.7552L181.225 69.9435C182.719 65.0094 183.913 61.5733 183.913 58.4324L183.889 58.4593ZM160.59 63.3987L149.988 94.1898C153.126 95.0864 156.559 95.685 159.992 95.685C164.176 95.685 168.057 94.9388 171.793 93.7415C171.643 93.5911 171.643 93.473 171.525 93.2932L160.59 63.3987ZM191.057 43.3725L191.326 46.9589C191.326 50.5454 190.728 54.5829 188.638 59.6646L177.91 90.904C188.365 84.7753 195.531 73.4145 195.531 60.2606C195.381 54.1319 193.739 48.4488 191.052 43.3698L191.057 43.3725ZM159.992 19C137.292 19 118.775 37.5364 118.775 60.2552C118.775 82.974 137.292 101.513 159.992 101.513C182.692 101.513 201.209 82.9767 201.209 60.2579C201.209 37.5391 182.692 19 159.992 19ZM159.992 99.7171C138.338 99.7171 120.717 82.0801 120.717 60.2552C120.717 38.5538 138.338 20.9436 159.992 20.9436C181.646 20.9436 199.267 38.5806 199.267 60.2552C199.267 82.0801 181.646 99.7171 159.992 99.7171Z" fill="#00749A"/>
</svg>
