<?xml version="1.0"?>
<svg xmlns="http://www.w3.org/2000/svg" width="320" height="160" viewBox="0 0 320 160" fill="none">
<path fill-rule="evenodd" clip-rule="evenodd" d="M134.191 96.4294L127.466 83.526L120.588 96.4294H113.191L123.678 79.7761L114.241 63.2255H121.739L127.863 75.7998L134.498 63.2255H141.357L131.663 79.6736L141.51 96.4294H134.191ZM158.17 96.4294V92.8156H158.068C156.242 95.6519 153.657 97.0701 150.313 97.0701C147.737 97.0701 145.706 96.3696 144.222 94.9685C142.738 93.5503 141.995 91.6537 141.995 89.2787C141.995 84.1869 144.853 81.2907 150.569 80.5901L158.221 79.5393C158.221 75.9682 156.566 74.1827 153.256 74.1827C150.1 74.1827 147.199 75.1566 144.555 77.1045V71.876C145.544 71.278 146.96 70.7398 148.803 70.2613C150.663 69.7829 152.352 69.5437 153.871 69.5437C160.627 69.5437 164.005 72.961 164.005 79.7956V96.4294H158.17ZM152.565 84.409C150.808 84.6311 149.571 85.0668 148.854 85.7161C148.155 86.3483 147.805 87.3308 147.805 88.6635C147.805 89.7571 148.206 90.6541 149.008 91.3547C149.81 92.0381 150.859 92.3799 152.156 92.3799C153.913 92.3799 155.363 91.7733 156.507 90.5601C157.65 89.347 158.221 87.8348 158.221 86.0237V83.6657L152.565 84.409ZM201.739 96.4294V81.6153C201.739 79.172 201.355 77.3608 200.587 76.1818C199.837 74.9858 198.489 74.3877 196.544 74.3877C194.991 74.3877 193.686 75.1054 192.628 76.5406C191.57 77.9588 191.041 79.676 191.041 81.6922V96.4294H185.129V81.1027C185.129 76.6261 183.415 74.3877 179.985 74.3877C178.381 74.3877 177.059 75.0627 176.018 76.4125C174.995 77.7623 174.483 79.5222 174.483 81.6922V96.4294H168.571V70.1844H174.483V74.234H174.585C176.479 71.1071 179.243 69.5437 182.877 69.5437C184.617 69.5437 186.153 70.0051 187.484 70.9277C188.832 71.8333 189.779 73.0892 190.325 74.6953C192.321 71.2609 195.255 69.5437 199.129 69.5437C204.827 69.5437 207.676 73.0977 207.676 80.2057V96.4294H201.739ZM227.331 96.4294V92.8156H227.228C225.403 95.6519 222.818 97.0701 219.474 97.0701C216.897 97.0701 214.867 96.3696 213.383 94.9685C211.898 93.5503 211.156 91.6537 211.156 89.2787C211.156 84.1869 214.014 81.2907 219.73 80.5901L227.382 79.5393C227.382 75.9682 225.727 74.1827 222.417 74.1827C219.26 74.1827 216.36 75.1566 213.715 77.1045V71.876C214.705 71.278 216.121 70.7398 217.964 70.2613C219.823 69.7829 221.513 69.5437 223.031 69.5437C229.788 69.5437 233.166 72.961 233.166 79.7956V96.4294H227.331ZM221.726 84.409C219.968 84.6311 218.731 85.0668 218.015 85.7161C217.315 86.3483 216.966 87.3308 216.966 88.6635C216.966 89.7571 217.367 90.6541 218.168 91.3547C218.97 92.0381 220.02 92.3799 221.316 92.3799C223.074 92.3799 224.524 91.7733 225.667 90.5601C226.81 89.347 227.382 87.8348 227.382 86.0237V83.6657L221.726 84.409ZM252.969 75.9511C251.996 75.3531 250.853 75.0541 249.54 75.0541C247.833 75.0541 246.443 75.7888 245.368 77.2583C244.31 78.7277 243.781 80.6414 243.781 82.9993V96.4294H237.869V70.1844H243.781V75.2848H243.884C245.146 71.577 247.381 69.7231 250.589 69.7231C251.63 69.7231 252.423 69.8427 252.969 70.0819L252.969 75.9511ZM258.854 64.3152C257.848 64.3152 256.995 63.9906 256.295 63.3413C255.596 62.675 255.246 61.8633 255.246 60.9065C255.246 59.9155 255.596 59.0868 256.295 58.4204C256.995 57.754 257.848 57.4208 258.854 57.4208C259.878 57.4208 260.74 57.7626 261.439 58.446C262.139 59.1124 262.489 59.9326 262.489 60.9065C262.489 61.8633 262.139 62.675 261.439 63.3413C260.74 63.9906 259.878 64.3152 258.854 64.3152ZM255.834 96.4294V70.1844H261.746V96.4294H255.834ZM284.09 96.4294V81.6922C284.09 76.8226 282.341 74.3877 278.843 74.3877C277.086 74.3877 275.61 75.0627 274.416 76.4125C273.239 77.7453 272.65 79.4454 272.65 81.5128V96.4294H266.738V70.1844H272.65V74.3877H272.752C274.663 71.1584 277.496 69.5437 281.249 69.5437C287.084 69.5437 290.002 73.1319 290.002 80.3082V96.4294H284.09ZM49.1873 50C47.3915 50.0038 45.6336 51.0259 44.7296 52.5851L30.6694 77.075C29.7795 78.6384 29.7795 80.6819 30.6694 82.2453L44.7296 106.735C45.6337 108.294 47.3915 109.317 49.1873 109.32H77.3076C79.1033 109.316 80.8611 108.294 81.7652 106.735L95.8254 82.2453C96.7154 80.6819 96.7153 78.6384 95.8254 77.075L81.7652 52.5851C80.8611 51.0259 79.1033 50.0035 77.3076 50H49.1873ZM49.4424 64.3269C49.4811 64.323 49.5216 64.323 49.5603 64.3269H54.4107C54.6254 64.3313 54.8336 64.4557 54.9409 64.6426L63.1689 79.3444C63.2103 79.4171 63.237 79.4981 63.2471 79.5812C63.2572 79.4981 63.2839 79.4171 63.3253 79.3444L71.5336 64.6426C71.6442 64.4501 71.8623 64.325 72.0834 64.3269H76.9338C77.3633 64.3307 77.6849 64.8731 77.4836 65.2544L69.4521 79.6602L77.4836 94.0462C77.7039 94.4297 77.3744 94.9972 76.9338 94.9934H72.0834C71.8584 94.9915 71.6391 94.8578 71.5336 94.658L63.3253 79.9562C63.2839 79.8835 63.2572 79.8025 63.2471 79.7194C63.237 79.8025 63.2103 79.8835 63.1689 79.9562L54.9409 94.658C54.8385 94.8521 54.6292 94.9846 54.4107 94.9934H49.5603C49.1197 94.9973 48.7902 94.4297 49.0106 94.0462L57.0421 79.6602L49.0106 65.2544C48.818 64.9065 49.0529 64.4011 49.4424 64.3269Z" fill="#3498DB"/>
</svg>
